<?xml version="1.0" encoding="UTF-8" standalone="no"?>
<!DOCTYPE svg PUBLIC "-//W3C//DTD SVG 1.1//EN" "http://www.w3.org/Graphics/SVG/1.1/DTD/svg11.dtd">
<svg width="100%" height="100%" viewBox="0 0 249 475" version="1.1" xmlns="http://www.w3.org/2000/svg" xmlns:xlink="http://www.w3.org/1999/xlink" xml:space="preserve" xmlns:serif="http://www.serif.com/" style="fill-rule:evenodd;clip-rule:evenodd;stroke-linejoin:round;stroke-miterlimit:2;">
    <g transform="matrix(7.95567,0,0,7.95567,245.585,142.957)">
        <path d="M0,23.686C0.063,23.69 0.078,23.702 0.033,23.719C-0.006,23.735 -0.053,23.733 -0.071,23.71C-0.09,23.688 -0.057,23.684 0,23.686ZM-0.227,24.454C-0.184,24.454 -0.133,24.475 -0.116,24.502C-0.101,24.53 -0.137,24.54 -0.196,24.524C-0.324,24.491 -0.34,24.454 -0.227,24.454ZM-0.824,24.512C-0.76,24.516 -0.748,24.528 -0.791,24.545C-0.832,24.561 -0.879,24.559 -0.896,24.541C-0.916,24.522 -0.883,24.51 -0.824,24.512ZM-1.039,23.506C-1.023,23.545 -1.025,23.594 -1.045,23.612C-1.066,23.63 -1.075,23.598 -1.072,23.54C-1.069,23.475 -1.057,23.462 -1.039,23.506ZM-1.131,24.077C-1.056,24.077 -1.025,24.088 -1.063,24.104C-1.101,24.12 -1.164,24.12 -1.2,24.104C-1.238,24.088 -1.207,24.077 -1.131,24.077ZM-2.407,23.301C-2.338,23.264 -2.269,23.243 -2.256,23.256C-2.213,23.299 -2.397,23.417 -2.467,23.393C-2.51,23.377 -2.489,23.344 -2.407,23.301ZM-2.959,23.296C-2.862,23.296 -2.784,23.321 -2.784,23.352C-2.784,23.385 -2.846,23.395 -2.936,23.373C-3.152,23.321 -3.159,23.296 -2.959,23.296ZM-3.418,24.018C-3.357,24.014 -3.246,23.998 -3.17,23.983L-3.032,23.957L-3.168,24.02C-3.241,24.049 -3.356,24.069 -3.416,24.055C-3.524,24.028 -3.525,24.028 -3.418,24.018ZM-3.556,23.911C-3.479,23.911 -3.448,23.924 -3.486,23.938C-3.524,23.954 -3.586,23.954 -3.625,23.938C-3.662,23.921 -3.631,23.911 -3.556,23.911ZM-10.887,4.657C-10.854,4.635 -10.823,4.647 -10.823,4.682C-10.823,4.717 -10.787,4.733 -10.741,4.71C-10.695,4.688 -10.658,4.703 -10.658,4.731C-10.658,4.796 -10.771,4.799 -10.873,4.735C-10.924,4.708 -10.928,4.682 -10.887,4.657ZM-7.279,24.674C-7.267,24.674 -7.242,24.635 -7.225,24.588C-7.205,24.54 -7.215,24.516 -7.246,24.536C-7.299,24.569 -7.323,24.674 -7.279,24.674ZM-8.045,26.657C-8.002,26.581 -7.967,26.494 -7.967,26.463C-7.967,26.434 -8.002,26.469 -8.045,26.545C-8.088,26.622 -8.123,26.708 -8.123,26.739C-8.123,26.768 -8.088,26.733 -8.045,26.657ZM-11.297,33.348C-11.258,33.227 -11.108,32.871 -10.971,32.557C-10.83,32.245 -10.715,31.954 -10.715,31.912C-10.715,31.87 -10.693,31.836 -10.672,31.836C-10.647,31.836 -10.594,31.744 -10.553,31.63C-10.512,31.518 -10.383,31.219 -10.267,30.967C-10.149,30.714 -10.055,30.491 -10.055,30.473C-10.053,30.453 -10,30.348 -9.934,30.245C-9.869,30.139 -9.76,29.901 -9.695,29.723C-9.57,29.372 -9.491,29.196 -9.051,28.264C-8.9,27.946 -8.756,27.628 -8.73,27.565C-8.705,27.501 -8.586,27.29 -8.471,27.094C-8.354,26.903 -8.139,26.436 -7.991,26.059C-7.846,25.68 -7.705,25.348 -7.678,25.319C-7.657,25.293 -7.631,25.229 -7.631,25.182C-7.631,25.135 -7.596,25.03 -7.553,24.948C-7.512,24.869 -7.461,24.729 -7.445,24.639C-7.424,24.549 -7.344,24.421 -7.271,24.358C-7.194,24.293 -7.09,24.147 -7.045,24.042C-6.99,23.91 -6.944,23.862 -6.907,23.897C-6.871,23.934 -6.92,24.151 -7.049,24.543C-7.157,24.87 -7.246,25.18 -7.246,25.231C-7.246,25.28 -7.293,25.415 -7.351,25.524C-7.407,25.635 -7.455,25.784 -7.455,25.856C-7.455,26.198 -8.047,27.481 -9.215,29.668C-9.248,29.731 -9.318,29.878 -9.377,29.999C-9.434,30.12 -9.498,30.229 -9.521,30.235C-9.543,30.248 -9.563,30.276 -9.563,30.303C-9.563,30.327 -9.621,30.483 -9.693,30.641C-9.764,30.799 -9.902,31.143 -9.998,31.401C-10.096,31.66 -10.196,31.921 -10.228,31.979C-10.254,32.041 -10.316,32.198 -10.362,32.332C-10.43,32.528 -10.43,32.563 -10.368,32.542C-10.268,32.503 -10.312,32.668 -10.48,32.967C-10.551,33.092 -10.635,33.26 -10.668,33.342C-10.773,33.606 -10.985,33.583 -10.914,33.319C-10.875,33.18 -10.633,32.514 -10.525,32.257C-10.487,32.166 -10.424,31.991 -10.387,31.872C-10.348,31.75 -10.258,31.52 -10.188,31.364C-10.116,31.208 -10.057,31.065 -10.057,31.051C-10.057,31.03 -9.975,30.84 -9.873,30.619C-9.769,30.395 -9.644,30.119 -9.592,29.999C-9.441,29.647 -9.226,29.231 -9.149,29.145C-9.021,28.994 -8.901,28.708 -8.877,28.499C-8.861,28.383 -8.7,27.987 -8.522,27.627C-8.184,26.956 -8.075,26.651 -8.334,27.106C-8.533,27.459 -8.825,28.033 -8.938,28.292C-8.987,28.414 -9.047,28.555 -9.076,28.606C-9.205,28.848 -9.848,30.313 -9.848,30.362C-9.848,30.391 -9.871,30.417 -9.904,30.417C-9.932,30.417 -9.971,30.483 -9.993,30.567C-10.015,30.649 -10.057,30.768 -10.096,30.832C-10.131,30.895 -10.232,31.112 -10.316,31.323C-10.4,31.538 -10.491,31.749 -10.517,31.794C-10.611,31.951 -10.787,32.358 -10.787,32.415C-10.787,32.471 -10.949,32.839 -11.101,33.13C-11.144,33.214 -11.164,33.309 -11.146,33.337C-11.127,33.364 -11.137,33.395 -11.168,33.395C-11.199,33.395 -11.228,33.426 -11.228,33.464C-11.228,33.503 -11.265,33.583 -11.308,33.647C-11.395,33.764 -11.396,33.657 -11.297,33.348ZM-11.783,4.243C-11.035,4.229 -10.787,4.182 -10.859,4.065C-10.906,3.987 -10.463,4.061 -10.264,4.163C-10.182,4.206 -10.055,4.239 -9.981,4.239C-9.832,4.239 -9.695,4.369 -9.75,4.457C-9.793,4.524 -11.041,4.489 -11.564,4.405C-11.962,4.342 -12.088,4.248 -11.783,4.243ZM-11.885,4.541C-11.802,4.555 -11.591,4.581 -11.418,4.6C-11.244,4.622 -11.086,4.664 -11.064,4.692C-11.039,4.733 -11.086,4.746 -11.215,4.714C-11.318,4.694 -11.545,4.661 -11.715,4.643C-11.89,4.623 -12.031,4.588 -12.031,4.563C-12.036,4.539 -11.968,4.528 -11.885,4.541ZM-12.96,4.266C-12.871,4.288 -12.81,4.272 -12.81,4.237C-12.81,4.209 -12.781,4.196 -12.747,4.217C-12.634,4.286 -12.843,4.354 -12.982,4.293C-13.104,4.24 -13.104,4.239 -12.96,4.266ZM-15.497,8.602C-15.363,8.469 -15.25,8.526 -15.242,8.729C-15.237,8.834 -15.259,8.92 -15.289,8.92C-15.317,8.92 -15.342,8.868 -15.342,8.801C-15.342,8.737 -15.361,8.702 -15.383,8.725C-15.406,8.747 -15.425,8.842 -15.425,8.934C-15.425,9.028 -15.456,9.119 -15.494,9.127C-15.585,9.159 -15.586,8.692 -15.497,8.602ZM-15.228,7.828C-14.702,7.819 -14.518,7.834 -14.545,7.879C-14.566,7.914 -14.553,7.961 -14.515,7.985C-14.477,8.008 -14.458,8.067 -14.478,8.114C-14.504,8.184 -14.606,8.196 -15.096,8.178C-15.614,8.157 -15.699,8.143 -15.816,8.032C-15.889,7.964 -15.948,7.891 -15.948,7.873C-15.948,7.854 -15.625,7.833 -15.228,7.828ZM-16.461,10.233C-16.445,10.272 -16.447,10.319 -16.466,10.336C-16.485,10.354 -16.498,10.323 -16.496,10.266C-16.491,10.202 -16.479,10.188 -16.461,10.233ZM-16.619,8.563C-16.608,8.471 -16.578,8.373 -16.55,8.346C-16.522,8.317 -16.499,8.229 -16.499,8.153C-16.498,8.076 -16.476,7.977 -16.447,7.934C-16.385,7.832 -16.279,8.19 -16.278,8.497C-16.278,8.662 -16.254,8.717 -16.168,8.735C-16.107,8.753 -16.059,8.799 -16.059,8.84C-16.059,8.877 -16.002,8.916 -15.936,8.93C-15.798,8.95 -15.732,9.162 -15.833,9.268C-15.874,9.309 -15.933,9.282 -16.03,9.174C-16.143,9.053 -16.212,9.026 -16.376,9.033C-16.581,9.051 -16.622,9.012 -16.566,8.869C-16.55,8.828 -16.56,8.778 -16.587,8.764C-16.615,8.745 -16.628,8.653 -16.619,8.563ZM-16.777,14.815C-16.718,14.815 -16.657,14.835 -16.642,14.862C-16.625,14.887 -16.673,14.897 -16.748,14.883C-16.912,14.852 -16.926,14.815 -16.777,14.815ZM-16.829,8.452C-16.762,8.262 -16.712,8.469 -16.744,8.805C-16.793,9.348 -16.877,9.457 -16.871,8.971C-16.866,8.741 -16.848,8.506 -16.829,8.452ZM-17.879,12.5C-17.854,12.456 -17.788,12.17 -17.733,11.868C-17.655,11.424 -17.635,10.975 -17.631,9.555C-17.628,8.58 -17.64,7.682 -17.653,7.549C-17.672,7.383 -17.659,7.299 -17.612,7.278C-17.56,7.26 -17.542,7.438 -17.54,8.049C-17.536,8.483 -17.518,9.119 -17.496,9.471C-17.475,9.821 -17.477,10.352 -17.501,10.657C-17.526,10.959 -17.569,11.579 -17.598,12.034C-17.625,12.487 -17.672,12.971 -17.703,13.106C-17.758,13.35 -17.758,13.348 -17.739,12.997C-17.724,12.715 -17.733,12.665 -17.778,12.762C-17.81,12.831 -17.856,12.887 -17.882,12.887C-17.944,12.887 -17.941,12.608 -17.879,12.5ZM-17.961,14.2C-17.929,14.088 -17.88,13.977 -17.854,13.952C-17.825,13.926 -17.817,13.93 -17.835,13.963C-17.854,13.997 -17.875,14.139 -17.882,14.28C-17.891,14.422 -17.914,14.539 -17.936,14.539C-18.009,14.539 -18.021,14.399 -17.961,14.2ZM-18.173,14.75C-18.146,14.747 -18.099,14.739 -18.068,14.733C-18.039,14.729 -17.834,14.705 -17.614,14.68C-17.395,14.657 -17.212,14.617 -17.208,14.602C-17.175,14.44 -17.164,14.079 -17.155,13.083C-17.148,12.372 -17.127,11.957 -17.094,11.987C-17.066,12.012 -17.042,12.276 -17.042,12.569C-17.041,12.993 -17.023,13.098 -16.962,13.098C-16.881,13.098 -16.871,13 -16.855,12.135C-16.853,11.924 -16.858,11.782 -16.872,11.823C-16.89,11.874 -16.908,11.874 -16.958,11.821C-17.002,11.77 -17.022,11.438 -17.022,10.758C-17.022,10.212 -17.041,9.618 -17.063,9.436C-17.093,9.178 -17.089,9.139 -17.043,9.258C-17.011,9.34 -16.959,9.408 -16.928,9.408C-16.897,9.408 -16.884,9.458 -16.9,9.518C-16.917,9.579 -16.908,9.615 -16.88,9.598C-16.854,9.578 -16.849,9.731 -16.866,9.938L-16.9,10.305L-16.782,10.186C-16.659,10.065 -16.553,10.033 -16.553,10.118C-16.553,10.143 -16.59,10.196 -16.636,10.233C-16.682,10.27 -16.718,10.335 -16.718,10.374C-16.718,10.414 -16.747,10.455 -16.781,10.467C-16.827,10.483 -16.824,10.719 -16.774,11.366C-16.729,11.946 -16.72,12.506 -16.75,13.014C-16.773,13.438 -16.795,13.837 -16.798,13.905C-16.801,13.973 -16.816,14.014 -16.833,14.006C-16.849,13.997 -16.893,14.149 -16.929,14.344C-16.966,14.54 -17.032,14.783 -17.075,14.876C-17.148,15.042 -17.156,15.047 -17.19,14.934C-17.239,14.778 -17.351,14.744 -17.593,14.803C-17.816,14.864 -18.123,14.856 -18.186,14.79C-18.208,14.778 -18.203,14.755 -18.173,14.75ZM-18.168,10.12C-18.155,10.186 -18.155,10.299 -18.168,10.367C-18.182,10.434 -18.191,10.379 -18.191,10.243C-18.191,10.106 -18.181,10.051 -18.168,10.12ZM-18.257,26.1C-18.208,26.02 -18.161,26.12 -18.037,26.549C-17.998,26.684 -17.949,26.819 -17.928,26.848C-17.907,26.879 -17.873,26.979 -17.852,27.069C-17.831,27.165 -17.78,27.309 -17.742,27.399C-17.645,27.628 -17.488,28.167 -17.403,28.557C-17.364,28.743 -17.279,29.094 -17.215,29.346C-17.151,29.598 -17.106,29.854 -17.115,29.913C-17.149,30.129 -17.244,30.03 -17.304,29.71C-17.397,29.231 -17.667,28.176 -17.705,28.143C-17.723,28.127 -17.736,28.09 -17.736,28.061C-17.736,27.979 -17.925,27.342 -18.082,26.905C-18.269,26.379 -18.311,26.184 -18.257,26.1ZM-12.441,11.977C-12.391,11.413 -12.319,11.623 -12.302,12.389C-12.287,13.106 -12.312,13.346 -12.393,13.266C-12.437,13.223 -12.47,12.307 -12.441,11.977ZM-12.644,13.493C-12.598,13.422 -12.589,13.424 -12.589,13.506C-12.588,13.559 -12.612,13.604 -12.644,13.604C-12.711,13.602 -12.711,13.596 -12.644,13.493ZM-12.814,11.95C-12.781,11.95 -12.751,11.981 -12.749,12.018C-12.74,12.1 -12.726,12.289 -12.672,12.917C-12.647,13.227 -12.651,13.383 -12.688,13.356C-12.716,13.336 -12.756,13.158 -12.776,12.953C-12.796,12.748 -12.825,12.436 -12.842,12.264C-12.863,12.055 -12.854,11.95 -12.814,11.95ZM-13.42,11.344C-13.401,11.241 -13.372,11.176 -13.354,11.207C-13.306,11.292 -13.364,11.789 -13.419,11.754C-13.474,11.721 -13.474,11.643 -13.42,11.344ZM-13.162,7.805C-13.143,7.786 -13.141,7.743 -13.156,7.702C-13.174,7.655 -13.188,7.67 -13.189,7.733C-13.192,7.79 -13.178,7.823 -13.162,7.805ZM-13.473,8.04C-13.448,7.963 -13.396,7.795 -13.356,7.665C-13.269,7.375 -13.136,7.284 -13.038,7.442C-12.982,7.53 -12.981,7.637 -13.03,7.948C-13.098,8.37 -13.076,9.077 -12.976,9.747C-12.877,10.397 -12.872,10.452 -12.842,11.151C-12.815,11.817 -12.863,11.717 -12.949,10.932C-12.969,10.745 -13.008,10.592 -13.034,10.578C-13.062,10.563 -13.083,10.432 -13.083,10.289C-13.083,9.975 -13.19,9.915 -13.199,10.225C-13.204,10.337 -13.227,10.506 -13.252,10.596C-13.28,10.701 -13.288,10.565 -13.271,10.241C-13.208,9.048 -13.252,8.053 -13.365,8.123C-13.393,8.143 -13.415,8.213 -13.415,8.286C-13.415,8.356 -13.439,8.432 -13.47,8.451C-13.534,8.491 -13.537,8.237 -13.471,8.038L-13.473,8.04ZM-13.681,8.77C-13.652,8.641 -13.605,8.536 -13.577,8.536C-13.505,8.536 -13.511,8.6 -13.602,8.877C-13.645,9.008 -13.691,9.164 -13.706,9.225C-13.723,9.294 -13.731,9.276 -13.731,9.168C-13.733,9.079 -13.71,8.899 -13.681,8.77ZM-13.8,9.416C-13.756,9.35 -13.747,9.358 -13.746,9.457C-13.746,9.526 -13.77,9.582 -13.8,9.582C-13.87,9.582 -13.87,9.524 -13.8,9.416ZM-13.996,9.936C-13.95,9.873 -13.914,9.787 -13.913,9.733C-13.912,9.68 -13.886,9.637 -13.856,9.637C-13.824,9.637 -13.815,9.733 -13.835,9.867C-13.854,9.997 -13.829,10.307 -13.783,10.567C-13.736,10.827 -13.668,11.256 -13.631,11.512C-13.571,11.934 -13.554,11.983 -13.487,11.899C-13.421,11.813 -13.414,11.832 -13.419,12.024C-13.428,12.338 -13.422,12.381 -13.365,12.381C-13.338,12.381 -13.298,12.258 -13.277,12.108C-13.256,11.959 -13.216,11.821 -13.189,11.799C-13.163,11.783 -13.14,11.704 -13.14,11.625C-13.14,11.545 -13.124,11.497 -13.105,11.516C-13.065,11.555 -13.175,12.205 -13.273,12.508C-13.359,12.778 -13.427,12.78 -13.496,12.516C-13.547,12.324 -13.552,12.331 -13.643,12.846C-13.741,13.41 -13.875,13.707 -13.979,13.602C-14.021,13.561 -14.021,13.524 -13.977,13.469C-13.819,13.282 -13.742,12.741 -13.755,11.928C-13.764,11.483 -13.792,11.116 -13.818,11.116C-13.844,11.116 -13.854,11.051 -13.839,10.971C-13.808,10.803 -13.892,10.45 -13.962,10.45C-13.989,10.45 -14.022,10.494 -14.037,10.551C-14.05,10.604 -14.063,10.508 -14.067,10.34C-14.072,10.147 -14.044,9.991 -13.994,9.928L-13.996,9.928L-13.996,9.936ZM-14.128,12.418C-14.066,12.567 -14.063,13.157 -14.125,13.061C-14.149,13.022 -14.171,12.834 -14.173,12.649C-14.174,12.417 -14.162,12.344 -14.128,12.418ZM-14.198,11.081C-14.153,10.86 -14.105,10.69 -14.093,10.704C-14.051,10.745 -14.146,11.563 -14.189,11.536C-14.212,11.522 -14.246,11.54 -14.26,11.579C-14.309,11.701 -14.284,11.5 -14.198,11.081ZM-14.403,12.17C-14.363,12.112 -14.357,12.151 -14.383,12.309C-14.429,12.582 -14.461,12.625 -14.459,12.415C-14.46,12.326 -14.435,12.217 -14.403,12.17ZM-14.582,12.418C-14.549,12.449 -14.505,12.584 -14.484,12.721C-14.458,12.897 -14.463,12.954 -14.506,12.915C-14.539,12.883 -14.583,12.748 -14.604,12.612C-14.629,12.436 -14.624,12.379 -14.582,12.418ZM-14.559,11.123C-14.534,10.807 -14.494,10.334 -14.467,10.078C-14.429,9.707 -14.437,9.583 -14.498,9.485C-14.564,9.375 -14.563,9.356 -14.487,9.327C-14.322,9.262 -14.314,9.337 -14.378,10.364C-14.413,10.903 -14.405,11.084 -14.353,11.149C-14.293,11.221 -14.3,11.235 -14.396,11.235C-14.479,11.235 -14.507,11.268 -14.502,11.358C-14.481,11.743 -14.522,12.192 -14.569,12.116C-14.626,12.028 -14.626,12.014 -14.559,11.123ZM-14.627,14.594C-14.598,14.594 -14.571,14.618 -14.571,14.645C-14.571,14.674 -14.516,14.708 -14.447,14.719C-14.34,14.737 -14.336,14.746 -14.419,14.783C-14.479,14.809 -14.544,14.795 -14.599,14.741C-14.694,14.643 -14.706,14.594 -14.627,14.594ZM-15.025,14.575C-14.881,14.723 -14.723,14.919 -14.671,15.01C-14.583,15.165 -14.562,15.172 -14.231,15.167C-14.041,15.165 -13.759,15.153 -13.608,15.143C-13.458,15.131 -13.19,15.143 -13.017,15.165L-12.7,15.207L-12.7,15.041C-12.7,14.951 -12.673,14.86 -12.64,14.838C-12.601,14.815 -12.586,14.856 -12.599,14.959C-12.614,15.09 -12.598,15.116 -12.506,15.106C-12.445,15.1 -12.267,15.085 -12.107,15.083C-11.859,15.073 -11.818,15.055 -11.818,14.961C-11.818,14.901 -11.835,14.868 -11.854,14.887C-11.875,14.909 -11.922,14.897 -11.96,14.867C-12.046,14.794 -12.02,14.219 -11.899,13.583C-11.793,13.02 -11.793,12.303 -11.899,12.1C-11.963,11.975 -11.975,11.758 -11.953,10.958C-11.926,10.018 -11.931,9.967 -12.039,9.858C-12.13,9.766 -12.141,9.723 -12.09,9.628C-12.003,9.467 -11.96,8.828 -12.033,8.783C-12.066,8.762 -12.093,8.663 -12.093,8.557C-12.093,8.453 -12.119,8.356 -12.149,8.335C-12.179,8.315 -12.205,8.194 -12.205,8.065C-12.205,7.758 -12.424,7.419 -12.721,7.268C-12.923,7.165 -12.959,7.163 -13.07,7.233C-13.227,7.337 -13.271,7.337 -13.231,7.233C-13.191,7.129 -13.218,7.129 -13.441,7.235C-13.541,7.284 -13.653,7.381 -13.693,7.457C-13.733,7.534 -13.787,7.594 -13.811,7.594C-13.909,7.594 -14.14,8.161 -14.152,8.438C-14.173,8.901 -14.312,9.085 -14.794,9.307C-14.923,9.37 -14.933,9.397 -14.94,9.821C-14.945,10.065 -14.957,10.6 -14.964,11.01C-14.982,11.77 -14.831,13.022 -14.73,12.957C-14.706,12.94 -14.668,12.971 -14.65,13.018C-14.632,13.065 -14.589,13.104 -14.554,13.104C-14.512,13.104 -14.498,13.207 -14.51,13.409C-14.526,13.658 -14.513,13.711 -14.441,13.711C-14.381,13.711 -14.354,13.764 -14.354,13.871C-14.354,13.957 -14.317,14.059 -14.271,14.1C-14.226,14.137 -14.188,14.244 -14.188,14.329C-14.188,14.471 -14.17,14.489 -14.079,14.469C-14.018,14.45 -13.982,14.459 -14,14.489C-14.018,14.516 -14.01,14.539 -13.985,14.539C-13.907,14.537 -13.821,14.46 -13.753,14.332C-13.717,14.264 -13.661,14.223 -13.627,14.244C-13.587,14.266 -13.603,14.307 -13.671,14.36C-13.768,14.432 -13.759,14.436 -13.584,14.399L-13.393,14.358L-13.559,14.499C-13.732,14.645 -13.917,14.688 -14.119,14.623C-14.209,14.594 -14.27,14.485 -14.362,14.188C-14.431,13.971 -14.497,13.834 -14.508,13.891C-14.52,13.944 -14.545,13.987 -14.566,13.987C-14.612,13.987 -14.795,13.374 -14.795,13.219C-14.795,13.155 -14.821,13.106 -14.854,13.106C-14.887,13.106 -14.896,13.082 -14.876,13.044C-14.856,13.014 -14.858,12.919 -14.881,12.842L-14.922,12.694L-14.962,12.876C-14.984,12.977 -14.983,13.145 -14.961,13.248C-14.938,13.352 -14.935,13.436 -14.954,13.438C-15.004,13.438 -15.182,13.762 -15.182,13.854C-15.182,13.897 -15.207,13.932 -15.237,13.932C-15.269,13.932 -15.292,14.016 -15.292,14.119C-15.292,14.264 -15.237,14.36 -15.03,14.576L-15.03,14.573L-15.025,14.573L-15.025,14.575ZM-15.783,13.768C-15.753,13.768 -15.729,13.725 -15.729,13.671C-15.729,13.589 -15.736,13.586 -15.783,13.657C-15.851,13.762 -15.851,13.768 -15.783,13.768ZM-16.004,13.272C-15.982,13.272 -15.976,13.208 -15.989,13.135C-16.004,13.059 -16.036,13.01 -16.06,13.024C-16.112,13.057 -16.065,13.272 -16.004,13.272ZM-16.113,14.401C-16.083,14.383 -16.059,14.305 -16.059,14.229C-16.059,14.151 -16.082,14.106 -16.113,14.124C-16.144,14.145 -16.169,14.221 -16.169,14.296C-16.169,14.375 -16.145,14.42 -16.113,14.401ZM-18.715,14.957C-18.667,14.908 -17.894,14.977 -17.544,15.061C-17.378,15.102 -17.102,15.153 -16.928,15.172L-16.615,15.211L-16.536,15.018C-16.49,14.915 -16.418,14.805 -16.375,14.778C-16.303,14.737 -16.229,14.244 -16.203,13.643C-16.193,13.438 -16.12,13.456 -16.073,13.671L-16.036,13.85L-16.002,13.686C-15.98,13.578 -16,13.475 -16.065,13.377C-16.146,13.26 -16.158,13.147 -16.14,12.717C-16.114,12.127 -16.159,12.254 -16.303,13.178C-16.351,13.477 -16.426,13.786 -16.474,13.868L-16.56,14.016L-16.527,13.85C-16.313,12.731 -16.24,11.162 -16.381,10.69C-16.436,10.504 -16.438,10.438 -16.39,10.409C-16.35,10.383 -16.333,10.237 -16.342,10.006C-16.358,9.666 -16.322,9.52 -16.246,9.598C-16.19,9.651 -16.119,10.395 -16.115,10.932C-16.113,11.204 -16.085,11.588 -16.052,11.787C-16.02,11.981 -15.985,12.229 -15.976,12.337C-15.966,12.442 -15.94,12.733 -15.917,12.985C-15.895,13.235 -15.857,13.453 -15.836,13.463C-15.774,13.5 -15.728,12.649 -15.787,12.577C-15.816,12.54 -15.831,12.168 -15.817,11.692C-15.807,11.243 -15.814,10.737 -15.836,10.569C-15.858,10.403 -15.88,10.326 -15.884,10.393C-15.89,10.46 -15.914,10.508 -15.941,10.493C-16.013,10.448 -15.942,9.942 -15.857,9.893C-15.816,9.87 -15.782,9.764 -15.782,9.664C-15.782,9.428 -15.689,9.178 -15.617,9.223C-15.584,9.245 -15.576,9.377 -15.599,9.565C-15.628,9.827 -15.619,9.885 -15.537,9.946C-15.446,10.01 -15.443,10.061 -15.5,10.541C-15.576,11.188 -15.58,11.68 -15.506,11.68C-15.47,11.68 -15.463,11.952 -15.486,12.467C-15.509,12.987 -15.502,13.291 -15.464,13.362C-15.364,13.543 -15.294,13.114 -15.261,12.123C-15.244,11.623 -15.218,10.936 -15.203,10.6C-15.184,10.186 -15.196,9.938 -15.24,9.838C-15.364,9.567 -15.122,9.12 -14.771,8.979C-14.564,8.897 -14.496,8.811 -14.586,8.752C-14.636,8.721 -14.635,8.709 -14.583,8.709C-14.545,8.709 -14.515,8.663 -14.515,8.606C-14.515,8.493 -14.376,8.046 -14.261,7.791C-14.218,7.694 -14.184,7.563 -14.184,7.497C-14.184,7.313 -13.982,7.067 -13.728,6.936C-13.526,6.832 -13.469,6.829 -13.232,6.878C-13.085,6.914 -12.894,6.942 -12.808,6.942C-12.626,6.942 -12.163,7.36 -12.041,7.629C-12,7.723 -11.934,7.858 -11.892,7.942C-11.85,8.026 -11.815,8.19 -11.815,8.315C-11.815,8.481 -11.791,8.553 -11.718,8.582C-11.666,8.602 -11.59,8.647 -11.552,8.686C-11.496,8.744 -11.503,8.766 -11.591,8.813C-11.694,8.871 -11.698,8.914 -11.667,9.518C-11.649,9.873 -11.61,10.196 -11.582,10.233C-11.507,10.328 -11.52,12.615 -11.598,13.09C-11.63,13.297 -11.654,13.653 -11.65,13.879C-11.646,14.108 -11.664,14.526 -11.688,14.817L-11.733,15.338L-11.927,15.37C-12.034,15.389 -12.148,15.416 -12.179,15.434C-12.21,15.455 -12.495,15.483 -12.811,15.498C-13.126,15.512 -13.532,15.555 -13.71,15.582C-13.888,15.608 -14.063,15.617 -14.095,15.6C-14.129,15.579 -14.212,15.569 -14.281,15.579C-14.372,15.589 -14.419,15.557 -14.458,15.453C-14.488,15.374 -14.558,15.307 -14.61,15.307C-14.664,15.305 -14.742,15.294 -14.786,15.289C-14.829,15.285 -14.912,15.192 -14.969,15.092C-15.028,14.987 -15.169,14.796 -15.284,14.678C-15.527,14.419 -15.615,14.268 -15.621,14.087C-15.624,13.983 -15.695,14.164 -15.813,14.578C-15.824,14.615 -15.915,14.682 -16.013,14.723C-16.112,14.766 -16.256,14.87 -16.332,14.953L-16.47,15.102L-16.277,14.998C-16.172,14.942 -16.065,14.901 -16.042,14.91C-16.02,14.916 -15.984,14.887 -15.967,14.84C-15.929,14.739 -15.782,14.729 -15.781,14.825C-15.78,14.86 -15.767,14.94 -15.751,15.004C-15.734,15.067 -15.76,15.163 -15.811,15.225C-15.895,15.33 -15.896,15.33 -15.863,15.16C-15.824,14.955 -15.872,14.936 -16.116,15.063C-16.251,15.129 -16.273,15.168 -16.246,15.285C-16.227,15.358 -16.233,15.426 -16.258,15.428C-16.7,15.458 -17.132,15.444 -17.353,15.377C-17.503,15.334 -17.765,15.276 -17.931,15.256C-18.563,15.164 -18.696,15.131 -18.723,15.065C-18.735,15.022 -18.734,14.975 -18.715,14.957ZM-19.197,2.981C-19.123,2.981 -19.091,2.994 -19.129,3.008C-19.167,3.024 -19.229,3.024 -19.268,3.008C-19.304,2.994 -19.272,2.981 -19.197,2.981ZM-19.325,-6.181C-19.31,-6.141 -19.312,-6.093 -19.331,-6.075C-19.35,-6.057 -19.361,-6.089 -19.358,-6.147C-19.355,-6.211 -19.342,-6.225 -19.325,-6.181ZM-19.263,24.34C-19.178,24.206 -19.077,24.014 -19.037,23.916C-18.997,23.819 -18.812,23.578 -18.625,23.379C-18.373,23.112 -18.25,23.022 -18.14,23.022C-18.059,23.022 -17.977,23.045 -17.958,23.082C-17.938,23.106 -17.87,23.141 -17.803,23.141C-17.601,23.141 -17.429,23.626 -17.431,24.204C-17.432,24.432 -17.411,24.565 -17.378,24.544C-17.35,24.526 -17.323,24.543 -17.322,24.583C-17.321,24.627 -17.289,24.614 -17.238,24.547C-17.193,24.487 -17.169,24.407 -17.184,24.368C-17.223,24.266 -16.898,23.809 -16.697,23.682C-16.431,23.514 -16.072,23.567 -15.78,23.817C-15.497,24.061 -15.396,24.245 -15.396,24.524C-15.396,24.811 -15.496,24.794 -15.543,24.502C-15.578,24.293 -15.585,24.282 -15.621,24.403C-15.643,24.479 -15.663,24.61 -15.666,24.694C-15.67,24.827 -15.651,24.844 -15.506,24.844C-15.355,24.844 -15.341,24.826 -15.341,24.655C-15.341,24.42 -15.293,24.293 -15.207,24.293C-15.168,24.293 -15.11,24.233 -15.078,24.16C-15.045,24.088 -14.934,23.965 -14.832,23.889C-14.668,23.764 -14.613,23.749 -14.401,23.785C-14.176,23.819 -14.151,23.848 -14.063,24.069C-14.011,24.207 -13.967,24.444 -13.966,24.602C-13.964,24.832 -13.94,24.903 -13.857,24.947C-13.642,25.063 -13.552,25.016 -13.455,24.737C-13.275,24.235 -13.039,24.118 -12.292,24.143C-12.071,24.153 -12.005,24.18 -11.917,24.303C-11.856,24.383 -11.824,24.479 -11.846,24.512C-11.87,24.549 -11.908,24.524 -11.948,24.444C-11.986,24.37 -12.07,24.309 -12.163,24.299C-12.331,24.278 -12.349,24.323 -12.235,24.485C-12.192,24.549 -12.14,24.738 -12.119,24.914C-12.082,25.215 -12.072,25.227 -11.921,25.227C-11.794,25.227 -11.757,25.199 -11.729,25.079C-11.683,24.874 -11.449,24.522 -11.215,24.307C-11.017,24.123 -10.851,24.081 -10.33,24.079C-10.189,24.079 -10.058,24.071 -10.022,24.065C-9.996,24.059 -9.877,24.057 -9.774,24.061C-9.525,24.075 -9.668,24.165 -9.963,24.186C-10.069,24.194 -10.164,24.21 -10.164,24.233C-10.164,24.252 -10.101,24.397 -10.019,24.559C-9.84,24.919 -9.789,25.321 -9.906,25.459C-10.021,25.606 -10.125,25.522 -10.09,25.313C-10.053,25.1 -10.36,24.434 -10.508,24.409C-10.588,24.393 -10.605,24.43 -10.605,24.62C-10.605,24.928 -10.737,24.887 -10.76,24.571C-10.77,24.446 -10.797,24.342 -10.821,24.342C-10.912,24.342 -11.321,24.678 -11.321,24.749C-11.321,24.792 -11.353,24.837 -11.391,24.852C-11.435,24.87 -11.458,24.985 -11.459,25.172L-11.459,25.473L-11.917,25.457C-12.167,25.451 -12.396,25.432 -12.425,25.413C-12.495,25.37 -12.492,25.225 -12.422,25.225C-12.337,25.225 -12.358,24.817 -12.448,24.698C-12.492,24.639 -12.529,24.549 -12.53,24.497C-12.533,24.303 -13.098,24.471 -13.173,24.686C-13.221,24.829 -13.221,24.819 -13.167,24.999C-13.14,25.09 -13.146,25.118 -13.188,25.092C-13.221,25.072 -13.263,25.092 -13.282,25.143C-13.309,25.209 -13.412,25.229 -13.802,25.229C-14.295,25.229 -14.416,25.186 -14.268,25.063C-14.223,25.026 -14.187,24.917 -14.188,24.824C-14.188,24.567 -14.292,24.165 -14.368,24.117C-14.5,24.033 -14.678,24.076 -14.775,24.213C-14.831,24.29 -14.917,24.401 -14.969,24.469C-15.021,24.533 -15.081,24.707 -15.101,24.856C-15.121,25.002 -15.155,25.135 -15.178,25.153C-15.239,25.19 -15.86,25.059 -15.899,25C-15.918,24.975 -15.92,24.84 -15.906,24.707C-15.875,24.421 -16.015,23.996 -16.17,23.912C-16.301,23.844 -16.539,23.844 -16.582,23.912C-16.638,24.004 -16.774,24.569 -16.774,24.714C-16.774,24.928 -17.131,24.967 -17.566,24.799C-17.72,24.737 -17.725,24.731 -17.69,24.444C-17.652,24.115 -17.731,23.594 -17.836,23.492C-17.875,23.455 -17.985,23.408 -18.083,23.387C-18.229,23.36 -18.262,23.367 -18.262,23.449C-18.262,23.499 -18.292,23.533 -18.328,23.52C-18.364,23.503 -18.44,23.537 -18.499,23.583C-18.616,23.684 -18.867,24.211 -18.867,24.362C-18.867,24.43 -18.895,24.455 -18.956,24.428C-19.032,24.399 -19.034,24.408 -18.97,24.512C-18.915,24.6 -18.912,24.658 -18.956,24.725C-19.016,24.821 -19.332,24.917 -19.39,24.865C-19.459,24.795 -19.407,24.582 -19.265,24.354L-19.265,24.352L-19.263,24.352L-19.263,24.34ZM-19.949,20.817C-19.873,20.817 -19.795,20.842 -19.775,20.873C-19.756,20.903 -19.793,20.928 -19.855,20.928C-19.917,20.928 -19.986,20.93 -20.008,20.932C-20.029,20.934 -20.058,20.912 -20.068,20.877C-20.08,20.844 -20.025,20.819 -19.949,20.817ZM-20.157,2.922C-20.093,2.924 -20.081,2.938 -20.125,2.956C-20.164,2.971 -20.211,2.969 -20.229,2.951C-20.248,2.932 -20.214,2.919 -20.157,2.922ZM-20.274,20.454C-20.003,20.473 -19.692,20.512 -19.586,20.54C-19.479,20.569 -19.093,20.619 -18.73,20.653C-18.367,20.686 -17.821,20.752 -17.519,20.799C-16.778,20.909 -14.26,21.401 -13.747,21.528C-13.519,21.586 -13.19,21.661 -13.017,21.694C-12.842,21.729 -12.7,21.784 -12.7,21.809C-12.7,21.833 -12.719,21.86 -12.741,21.86C-12.826,21.858 -13.703,21.694 -14.903,21.456C-16.053,21.227 -16.843,21.096 -17.245,21.063C-17.335,21.057 -17.446,21.04 -17.492,21.02C-17.602,20.981 -18.263,20.875 -18.676,20.835C-18.859,20.815 -19.044,20.793 -19.089,20.783C-19.135,20.768 -19.346,20.745 -19.559,20.721C-19.771,20.701 -19.961,20.674 -19.983,20.661C-20.004,20.645 -20.153,20.624 -20.313,20.608C-20.474,20.589 -20.642,20.543 -20.688,20.494C-20.759,20.426 -20.721,20.421 -20.274,20.454ZM-8.842,22.911C-8.813,22.911 -8.787,22.885 -8.787,22.856C-8.787,22.825 -8.808,22.801 -8.842,22.801C-8.873,22.801 -8.898,22.821 -8.898,22.856C-8.898,22.885 -8.873,22.911 -8.842,22.911ZM-18.794,21.584C-18.646,21.582 -18.636,21.575 -18.729,21.534C-18.882,21.467 -19.045,21.467 -19.004,21.534C-18.986,21.563 -18.892,21.586 -18.794,21.584ZM-19.335,21.5C-19.215,21.528 -19.192,21.522 -19.253,21.481C-19.298,21.45 -19.383,21.419 -19.441,21.419C-19.583,21.424 -19.539,21.455 -19.335,21.5ZM-20.247,24.067C-20.217,24.067 -20.208,24.03 -20.226,23.985C-20.242,23.938 -20.267,23.901 -20.278,23.901C-20.292,23.901 -20.299,23.938 -20.299,23.985C-20.298,24.03 -20.275,24.067 -20.247,24.067ZM-20.717,24.399C-20.606,24.29 -20.602,24.227 -20.592,22.793C-20.587,21.973 -20.563,21.28 -20.537,21.254C-20.468,21.186 -19.899,21.178 -19.772,21.243C-19.713,21.274 -19.45,21.315 -19.188,21.335C-18.924,21.356 -18.57,21.409 -18.399,21.453C-18.229,21.497 -17.983,21.534 -17.853,21.534C-17.723,21.534 -17.543,21.569 -17.457,21.612C-17.37,21.655 -17.049,21.731 -16.746,21.778C-16.442,21.827 -16.108,21.881 -16.002,21.897C-15.718,21.944 -15.83,21.873 -16.146,21.807C-16.458,21.744 -16.546,21.723 -17.043,21.61C-17.244,21.565 -17.654,21.479 -17.958,21.418C-18.261,21.356 -18.559,21.286 -18.619,21.258C-18.679,21.233 -18.815,21.196 -18.921,21.182C-19.431,21.106 -19.609,21.061 -19.609,21.01C-19.609,20.938 -19.434,20.908 -19.317,20.959C-19.266,20.983 -19.163,21.008 -19.087,21.018C-18.948,21.039 -17.831,21.27 -16.915,21.477C-16.644,21.54 -16.366,21.588 -16.299,21.588C-16.232,21.588 -16.168,21.608 -16.158,21.631C-16.148,21.655 -15.831,21.733 -15.452,21.803C-15.072,21.873 -14.665,21.957 -14.542,21.992C-14.421,22.024 -14.272,22.055 -14.212,22.059C-14.151,22.065 -13.779,22.135 -13.386,22.215C-12.536,22.391 -11.174,22.522 -10.219,22.518C-8.297,22.514 -8.24,22.516 -8.24,22.625C-8.24,22.688 -8.297,22.743 -8.392,22.772L-8.539,22.809L-8.4,22.885C-8.326,22.926 -8.157,22.977 -8.029,22.993C-7.717,23.041 -7.781,23.122 -8.111,23.096C-8.256,23.085 -8.559,23.065 -8.787,23.047C-9.278,23.014 -10.112,22.909 -10.168,22.873C-10.188,22.862 -10.735,22.803 -11.383,22.74C-12.029,22.676 -12.945,22.565 -13.417,22.492C-13.886,22.416 -14.686,22.315 -15.19,22.268C-15.695,22.223 -16.168,22.164 -16.237,22.137C-16.307,22.114 -16.547,22.074 -16.771,22.053C-16.996,22.032 -17.2,22 -17.228,21.989C-17.253,21.971 -17.493,21.936 -17.755,21.912C-18.574,21.831 -19.387,21.744 -19.502,21.723C-19.563,21.713 -19.717,21.688 -19.847,21.664C-19.975,21.643 -20.093,21.6 -20.111,21.575C-20.128,21.549 -20.203,21.524 -20.275,21.524C-20.406,21.524 -20.408,21.533 -20.401,21.975C-20.398,22.225 -20.361,22.569 -20.321,22.735C-20.28,22.903 -20.234,23.145 -20.217,23.278C-20.201,23.412 -20.165,23.561 -20.136,23.617C-20.108,23.672 -20.101,23.725 -20.119,23.748C-20.139,23.768 -20.125,23.783 -20.089,23.783C-20.055,23.783 -20.025,23.854 -20.025,23.944C-20.025,24.035 -20.003,24.165 -19.975,24.233C-19.947,24.301 -19.858,24.585 -19.777,24.856C-19.696,25.125 -19.594,25.428 -19.552,25.526C-19.509,25.622 -19.475,25.751 -19.475,25.811C-19.475,25.874 -19.426,26.043 -19.37,26.196C-19.277,26.426 -19.232,26.656 -19.115,27.495C-19.103,27.583 -19.068,27.731 -19.039,27.826C-19.009,27.922 -18.957,28.207 -18.922,28.467C-18.889,28.725 -18.852,28.944 -18.84,28.953C-18.83,28.965 -18.711,28.985 -18.58,29.001C-18.288,29.033 -18.039,29.197 -18.135,29.297C-18.173,29.333 -18.229,29.342 -18.273,29.313C-18.39,29.242 -18.726,29.131 -18.752,29.161C-18.768,29.176 -18.744,29.184 -18.703,29.184C-18.649,29.184 -18.645,29.204 -18.685,29.243C-18.725,29.284 -18.722,29.42 -18.673,29.698C-18.527,30.538 -18.479,32.639 -18.561,34.471C-18.611,35.616 -18.643,35.786 -18.759,35.573C-18.848,35.409 -18.858,34.553 -18.787,33.397C-18.723,32.342 -18.716,31.664 -18.77,31.348C-18.828,31.004 -18.843,30.463 -18.797,30.414C-18.729,30.348 -18.752,30.09 -18.838,29.975C-18.891,29.911 -18.919,29.74 -18.92,29.498C-18.922,29.19 -18.938,29.133 -19.005,29.159C-19.089,29.19 -19.117,29.08 -19.094,28.805C-19.087,28.737 -19.11,28.534 -19.144,28.367C-19.246,27.84 -19.37,27.122 -19.38,27.006C-19.403,26.754 -19.667,25.766 -19.709,25.766C-19.734,25.766 -19.738,25.824 -19.719,25.885C-19.698,25.949 -19.673,26.088 -19.664,26.198C-19.654,26.301 -19.615,26.51 -19.579,26.649C-19.51,26.919 -19.544,27.151 -19.639,27.055C-19.667,27.032 -19.702,26.893 -19.715,26.758C-19.817,25.809 -20.114,24.225 -20.21,24.129C-20.229,24.11 -20.245,24.119 -20.245,24.149C-20.246,24.344 -20.298,26.541 -20.33,27.698C-20.355,28.649 -20.347,29.426 -20.299,30.122C-20.234,31.078 -20.23,31.434 -20.276,32.243C-20.288,32.428 -20.294,32.971 -20.293,33.454C-20.289,35.141 -20.301,35.303 -20.439,35.303C-20.541,35.303 -20.561,34.885 -20.505,33.926C-20.482,33.518 -20.467,32.44 -20.473,31.53C-20.49,28.25 -20.478,25.381 -20.445,25.221C-20.427,25.128 -20.437,25.059 -20.463,25.059C-20.491,25.059 -20.522,25.122 -20.53,25.205C-20.559,25.44 -20.662,25.412 -20.672,25.164C-20.676,25.039 -20.704,24.909 -20.731,24.874C-20.84,24.735 -20.835,24.516 -20.717,24.399ZM-21.194,19.928C-21.073,19.873 -20.938,19.272 -20.928,18.752C-20.924,18.45 -20.89,18.092 -20.853,17.957C-20.81,17.801 -20.798,17.58 -20.823,17.338C-20.855,17.018 -20.849,16.962 -20.775,16.962C-20.656,16.962 -20.575,17.295 -20.574,17.793C-20.572,18.735 -20.627,19.791 -20.682,19.846C-20.713,19.877 -20.739,19.999 -20.739,20.118C-20.739,20.29 -20.758,20.328 -20.836,20.311C-20.91,20.293 -20.94,20.221 -20.962,19.992L-20.992,19.688L-21.038,19.895C-21.063,20.012 -21.115,20.102 -21.16,20.102C-21.238,20.102 -21.267,19.959 -21.194,19.928ZM-21.345,20.846C-21.315,20.827 -21.291,20.852 -21.291,20.901C-21.291,20.955 -21.314,20.975 -21.345,20.96C-21.375,20.94 -21.4,20.917 -21.4,20.901C-21.4,20.889 -21.376,20.864 -21.345,20.846ZM-22.194,2.977C-22.131,2.979 -22.117,2.998 -22.162,3.01C-22.202,3.026 -22.25,3.024 -22.268,3.006C-22.286,2.987 -22.253,2.975 -22.194,2.977ZM-22.629,27.858C-22.613,27.897 -22.615,27.944 -22.634,27.961C-22.653,27.979 -22.666,27.946 -22.663,27.891C-22.661,27.827 -22.647,27.813 -22.629,27.858ZM-22.583,21.119C-22.385,21.034 -22.042,20.881 -21.938,20.831C-21.916,20.821 -21.896,20.825 -21.896,20.84C-21.896,20.858 -22.051,20.948 -22.241,21.043C-22.429,21.139 -22.598,21.237 -22.614,21.262C-22.63,21.287 -22.677,21.286 -22.72,21.258C-22.779,21.223 -22.746,21.188 -22.583,21.119ZM-22.303,13.862C-22.284,13.844 -22.282,13.797 -22.298,13.758C-22.316,13.709 -22.33,13.727 -22.332,13.787C-22.336,13.848 -22.321,13.881 -22.303,13.862ZM-22.959,13.272C-22.943,13.127 -22.894,12.7 -22.771,11.704C-22.729,11.354 -22.69,11.194 -22.667,11.264C-22.583,11.495 -22.732,9.602 -22.844,9.014C-22.912,8.661 -22.855,8.512 -22.7,8.641C-22.626,8.705 -22.614,8.79 -22.609,9.319C-22.608,9.401 -22.584,9.483 -22.554,9.505C-22.526,9.526 -22.501,9.469 -22.501,9.38C-22.501,9.231 -22.417,9.092 -22.32,9.092C-22.292,9.092 -22.278,9.946 -22.288,11.087C-22.301,12.858 -22.292,13.104 -22.212,13.227C-22.082,13.421 -22.028,14.155 -22.116,14.524C-22.156,14.69 -22.208,14.825 -22.233,14.825C-22.257,14.825 -22.312,14.887 -22.354,14.969C-22.467,15.188 -22.517,15.04 -22.449,14.676C-22.373,14.258 -22.375,14.235 -22.499,14.204C-22.603,14.176 -22.604,14.129 -22.582,13.081C-22.566,12.479 -22.578,11.864 -22.604,11.711C-22.642,11.505 -22.656,11.479 -22.664,11.602C-22.668,11.694 -22.682,11.928 -22.69,12.125C-22.73,12.913 -22.855,14.108 -22.897,14.108C-22.921,14.108 -22.945,14.077 -22.95,14.04C-22.968,13.879 -22.974,13.401 -22.959,13.272ZM-23.164,9.582C-23.133,9.582 -23.108,9.62 -23.108,9.665C-23.108,9.709 -23.132,9.747 -23.164,9.747C-23.194,9.747 -23.219,9.709 -23.219,9.665C-23.219,9.62 -23.193,9.582 -23.164,9.582ZM-24.059,15.622C-23.913,15.534 -23.413,15.428 -23.337,15.471C-23.269,15.51 -23.293,15.538 -23.463,15.608C-23.749,15.727 -24.1,15.787 -24.1,15.71C-24.1,15.674 -24.082,15.635 -24.059,15.622ZM-24.913,11.137C-24.841,11.162 -24.839,11.194 -24.869,11.854L-24.886,12.252L-24.929,11.977C-25,11.522 -24.991,11.112 -24.913,11.137ZM-24.983,10.741C-24.946,10.682 -24.934,10.709 -24.938,10.84C-24.94,10.958 -24.958,10.996 -24.988,10.948C-25.045,10.858 -25.045,10.839 -24.983,10.741ZM-25.216,10.143L-25.193,10.018L-25.087,10.153C-24.977,10.298 -24.941,10.577 -25.037,10.577C-25.066,10.577 -25.091,10.625 -25.091,10.68C-25.091,10.737 -25.113,10.801 -25.141,10.817C-25.234,10.875 -25.28,10.477 -25.216,10.143ZM-25.544,16.819C-25.426,16.676 -25.158,16.491 -24.835,16.328C-24.699,16.258 -24.502,16.123 -24.396,16.026C-24.291,15.93 -24.188,15.864 -24.171,15.879C-24.104,15.944 -24.523,16.337 -24.849,16.512C-25.039,16.617 -25.294,16.784 -25.417,16.889C-25.643,17.082 -25.724,17.038 -25.544,16.819ZM-25.638,1.815C-25.606,1.815 -25.595,1.835 -25.614,1.872C-25.633,1.901 -25.659,1.926 -25.673,1.926C-25.688,1.926 -25.697,1.901 -25.697,1.872C-25.697,1.84 -25.67,1.815 -25.638,1.815ZM-26.558,19.081C-26.132,18.727 -25.701,18.428 -25.205,18.143C-24.542,17.764 -24.057,17.5 -23.575,17.278C-23.312,17.153 -22.312,16.614 -22.281,16.581C-22.266,16.563 -22.142,16.463 -22.006,16.36C-21.87,16.254 -21.738,16.137 -21.714,16.098C-21.656,15.999 -21.566,16 -21.566,16.098C-21.566,16.217 -21.94,16.528 -22.495,16.867C-22.777,17.04 -23.025,17.182 -23.045,17.182C-23.085,17.182 -24.064,17.676 -24.63,17.983C-25.168,18.272 -26.809,19.375 -26.883,19.498C-26.922,19.561 -27.02,19.567 -27.02,19.508C-27.019,19.485 -26.812,19.291 -26.558,19.081ZM-23.809,23.922L-23.654,23.96L-23.741,23.793C-23.838,23.606 -24.009,23.573 -24.093,23.723C-24.15,23.826 -24.121,23.848 -23.809,23.922ZM-24.837,36.421C-24.768,37.129 -24.699,36.668 -24.695,35.456C-24.688,33.95 -24.707,33.768 -24.784,34.477C-24.866,35.217 -24.885,35.936 -24.837,36.421ZM-24.731,24.332C-24.714,24.315 -24.747,24.284 -24.799,24.264C-24.877,24.235 -24.884,24.244 -24.83,24.294C-24.793,24.332 -24.75,24.35 -24.731,24.332ZM-27.873,26.545C-27.833,26.41 -27.784,26.227 -27.766,26.139C-27.716,25.923 -27.436,25.647 -27.304,25.69C-27.203,25.721 -27.171,25.68 -27.027,25.319C-26.949,25.13 -26.706,25.005 -26.631,25.123C-26.604,25.165 -26.58,25.18 -26.578,25.143C-26.576,25.114 -26.544,25.163 -26.507,25.248L-26.44,25.401L-26.303,25.188C-26.225,25.067 -26.114,24.969 -26.042,24.959C-25.975,24.951 -25.918,24.903 -25.918,24.86C-25.918,24.817 -25.893,24.785 -25.859,24.785C-25.826,24.785 -25.815,24.832 -25.836,24.891C-25.865,24.983 -25.851,24.997 -25.743,24.983C-25.594,24.961 -25.523,24.727 -25.667,24.727C-25.776,24.727 -25.779,24.639 -25.67,24.596C-25.625,24.577 -25.586,24.594 -25.586,24.63C-25.585,24.666 -25.518,24.62 -25.435,24.526C-25.208,24.266 -24.896,24.1 -24.708,24.137C-24.585,24.161 -24.532,24.141 -24.469,24.046C-24.245,23.707 -23.992,23.456 -23.88,23.456C-23.673,23.456 -23.441,23.899 -23.44,24.296C-23.439,24.553 -23.336,24.467 -23.133,24.04C-22.926,23.602 -22.814,23.464 -22.75,23.565C-22.729,23.598 -22.775,23.753 -22.853,23.913C-23.101,24.423 -23.221,24.782 -23.255,25.106C-23.295,25.487 -23.357,25.618 -23.439,25.494C-23.48,25.43 -23.493,25.43 -23.495,25.483C-23.496,25.549 -23.875,26.483 -23.997,26.717C-24.024,26.77 -24.149,27.067 -24.274,27.374C-24.399,27.688 -24.561,28.022 -24.631,28.133C-24.703,28.237 -24.761,28.403 -24.761,28.499L-24.761,28.68L-24.538,28.602C-24.416,28.559 -24.284,28.501 -24.249,28.481C-24.212,28.459 -24.021,28.399 -23.824,28.352C-23.548,28.286 -23.453,28.235 -23.401,28.129C-23.191,27.696 -23.048,27.33 -22.913,26.864C-22.829,26.578 -22.741,26.315 -22.72,26.287C-22.699,26.26 -22.664,26.149 -22.644,26.055C-22.623,25.954 -22.582,25.889 -22.554,25.909C-22.527,25.926 -22.52,25.899 -22.538,25.852C-22.555,25.805 -22.529,25.665 -22.48,25.54C-22.377,25.285 -22.271,24.417 -22.278,23.893C-22.283,23.518 -22.229,23.358 -22.12,23.424C-22.073,23.45 -22.063,23.623 -22.084,24.024C-22.112,24.581 -22.112,24.582 -22.031,24.325C-21.948,24.057 -21.88,23.975 -21.792,24.028C-21.729,24.067 -21.853,24.454 -22.068,24.895C-22.172,25.11 -22.271,26.049 -22.304,27.143C-22.311,27.34 -22.344,27.873 -22.381,28.33C-22.418,28.787 -22.46,29.329 -22.476,29.541C-22.489,29.753 -22.512,30.053 -22.526,30.202C-22.542,30.352 -22.579,30.837 -22.611,31.274C-22.644,31.712 -22.683,32.184 -22.698,32.323C-22.77,32.967 -22.787,34.94 -22.727,35.653C-22.691,36.079 -22.651,36.575 -22.637,36.758L-22.612,37.087L-22.69,36.887C-22.777,36.663 -22.856,36.159 -22.939,35.298C-23.031,34.354 -23.036,34.057 -22.958,34.069C-22.904,34.082 -22.888,33.911 -22.888,33.354C-22.888,32.956 -22.854,32.215 -22.809,31.715C-22.765,31.215 -22.689,30.274 -22.642,29.619C-22.593,28.971 -22.544,28.324 -22.531,28.184C-22.48,27.639 -22.453,26.182 -22.497,26.337C-22.521,26.43 -22.584,26.604 -22.636,26.725C-22.688,26.846 -22.78,27.126 -22.84,27.354C-22.9,27.581 -22.996,27.829 -23.051,27.907C-23.107,27.985 -23.158,28.074 -23.166,28.102C-23.188,28.201 -23.229,28.321 -23.274,28.432C-23.298,28.495 -23.359,28.696 -23.408,28.878C-23.479,29.149 -23.484,29.249 -23.433,29.374C-23.353,29.573 -23.358,32.037 -23.442,33.44C-23.491,34.249 -23.487,34.559 -23.422,35.123C-23.378,35.501 -23.362,35.833 -23.388,35.858C-23.438,35.915 -23.479,35.784 -23.541,35.371C-23.577,35.126 -23.589,35.186 -23.652,35.895C-23.721,36.682 -23.697,37.198 -23.598,37.041C-23.572,37 -23.549,36.897 -23.549,36.817C-23.549,36.735 -23.524,36.653 -23.494,36.633C-23.458,36.612 -23.438,36.719 -23.438,36.918C-23.439,37.512 -23.552,37.643 -23.767,37.295C-23.949,37 -23.946,36.491 -23.75,34.567C-23.58,32.901 -23.583,29.712 -23.757,28.95C-23.798,28.762 -23.81,28.76 -24.019,28.776C-24.137,28.789 -24.273,28.825 -24.318,28.862C-24.364,28.901 -24.482,28.965 -24.583,29.004C-24.774,29.08 -24.782,29.167 -24.616,29.432C-24.573,29.498 -24.54,29.623 -24.54,29.708C-24.54,29.794 -24.519,29.889 -24.491,29.917C-24.447,29.965 -24.491,31.335 -24.564,32.198C-24.582,32.395 -24.591,32.817 -24.587,33.137C-24.563,35.141 -24.572,36.571 -24.616,36.856C-24.663,37.162 -24.66,37.18 -24.574,37.112C-24.496,37.047 -24.483,37.048 -24.483,37.141C-24.483,37.202 -24.518,37.291 -24.56,37.352C-24.762,37.628 -25.009,36.953 -25.065,35.964C-25.101,35.331 -25.064,34.785 -24.921,33.77C-24.799,32.905 -24.762,32.344 -24.82,32.276C-24.886,32.196 -24.886,32.171 -24.848,30.688C-24.821,29.68 -24.828,29.567 -24.925,29.344C-24.984,29.209 -25.032,29.057 -25.032,28.997C-25.032,28.93 -25.071,28.893 -25.148,28.893C-25.324,28.893 -25.186,28.749 -24.961,28.704C-24.863,28.682 -24.814,28.651 -24.853,28.639C-24.936,28.608 -24.942,28.354 -24.867,28.155C-24.824,28.046 -24.829,28.018 -24.881,28.051C-24.919,28.073 -24.912,28.042 -24.864,27.987C-24.816,27.926 -24.746,27.805 -24.707,27.717C-24.412,27.046 -24.432,27.042 -24.816,27.694C-24.962,27.936 -25.068,28.173 -25.051,28.214C-25.036,28.258 -25.064,28.35 -25.114,28.416C-25.206,28.54 -25.207,28.536 -25.169,28.27C-25.128,27.975 -25.025,27.747 -24.727,27.278C-24.623,27.116 -24.538,26.938 -24.538,26.889C-24.538,26.838 -24.489,26.786 -24.433,26.772C-24.361,26.751 -24.28,26.614 -24.176,26.324C-24.093,26.094 -23.905,25.666 -23.759,25.38L-23.494,24.858L-23.675,24.501C-23.842,24.172 -23.871,24.145 -24.054,24.126C-24.282,24.106 -24.29,24.121 -24.343,24.672C-24.363,24.871 -24.354,25.096 -24.323,25.176C-24.293,25.252 -24.286,25.333 -24.306,25.358C-24.327,25.379 -24.371,25.473 -24.403,25.569L-24.464,25.747L-24.5,25.471C-24.523,25.295 -24.579,25.158 -24.646,25.1C-24.718,25.038 -24.756,24.938 -24.756,24.811C-24.756,24.651 -24.781,24.608 -24.905,24.559C-25.027,24.514 -25.068,24.52 -25.125,24.598C-25.235,24.747 -25.27,25.036 -25.238,25.563C-25.216,25.955 -25.224,26.041 -25.279,25.999C-25.316,25.971 -25.368,25.837 -25.392,25.708C-25.425,25.522 -25.439,25.504 -25.458,25.606C-25.47,25.68 -25.516,25.774 -25.558,25.815C-25.621,25.877 -25.646,25.844 -25.722,25.585C-25.773,25.408 -25.854,25.258 -25.916,25.227C-26.004,25.18 -26.039,25.202 -26.131,25.35C-26.244,25.538 -26.27,25.649 -26.248,25.883C-26.234,26.028 -26.342,26.328 -26.407,26.328C-26.464,26.328 -26.516,26.123 -26.517,25.895C-26.519,25.481 -26.78,25.395 -26.932,25.758C-27,25.924 -27,25.967 -26.93,26.106C-26.826,26.307 -26.827,26.328 -26.947,26.328C-27.002,26.328 -27.076,26.354 -27.11,26.391C-27.16,26.44 -27.188,26.416 -27.231,26.305C-27.263,26.221 -27.29,26.117 -27.29,26.076C-27.29,26.035 -27.313,25.998 -27.344,25.998C-27.375,25.998 -27.4,26.036 -27.4,26.083C-27.4,26.137 -27.425,26.151 -27.463,26.13C-27.502,26.108 -27.511,26.114 -27.486,26.155C-27.432,26.244 -27.563,26.829 -27.665,26.946C-27.768,27.065 -27.873,27.071 -27.917,26.957C-27.961,26.85 -27.961,26.858 -27.873,26.545ZM0.097,23.975C0.123,23.957 0.115,23.924 0.074,23.899C0.035,23.878 -0.021,23.873 -0.047,23.885C-0.07,23.903 -0.065,23.936 -0.025,23.959C0.015,23.985 0.069,23.991 0.097,23.975ZM-1.959,23.543C-1.928,23.563 -1.903,23.551 -1.903,23.52C-1.903,23.493 -1.928,23.461 -1.959,23.461C-1.989,23.461 -2.019,23.473 -2.019,23.485C-2.015,23.498 -1.988,23.526 -1.959,23.543ZM-6.84,23.307C-6.86,23.34 -6.842,23.354 -6.799,23.34C-6.758,23.327 -6.61,23.348 -6.476,23.391C-6.219,23.469 -4.846,23.578 -4.217,23.563L-3.858,23.557L-4.326,23.508C-4.584,23.481 -4.881,23.43 -4.987,23.397C-5.094,23.362 -5.403,23.317 -5.676,23.295C-5.946,23.274 -6.295,23.219 -6.446,23.174C-6.655,23.112 -6.762,23.108 -6.887,23.151C-7.039,23.21 -7.041,23.214 -6.928,23.229C-6.857,23.241 -6.819,23.274 -6.84,23.307ZM-7.039,23.096C-6.904,23.063 -6.785,22.967 -6.828,22.926C-6.836,22.918 -6.922,22.938 -7.017,22.971C-7.23,23.045 -7.25,23.147 -7.039,23.096ZM-9.502,18.366C-9.42,18.315 -9.396,18.354 -9.445,18.442C-9.475,18.491 -9.504,18.497 -9.525,18.459C-9.545,18.428 -9.533,18.385 -9.502,18.366ZM-10.395,18.368C-9.599,18.543 -9.432,18.565 -9.393,18.501C-9.352,18.436 -9.299,18.438 -9.053,18.518C-8.651,18.643 -8.402,18.68 -8.402,18.61C-8.402,18.583 -8.424,18.567 -8.449,18.587C-8.476,18.608 -8.521,18.567 -8.553,18.494C-8.619,18.348 -8.866,18.266 -9.616,18.149C-10.279,18.046 -11.496,18.045 -11.365,18.147C-11.356,18.153 -10.92,18.254 -10.395,18.374L-10.395,18.368ZM-11.115,18.008C-11.047,18.008 -10.991,17.985 -10.991,17.954C-10.991,17.921 -11.084,17.899 -11.197,17.899C-11.352,17.899 -11.383,17.914 -11.321,17.954C-11.276,17.983 -11.184,18.008 -11.115,18.008ZM-15.35,17.403C-15.268,17.403 -15.175,17.426 -15.146,17.454C-15.083,17.514 -14.491,17.583 -14.088,17.577C-13.929,17.573 -13.682,17.594 -13.538,17.622C-13.394,17.647 -13.255,17.649 -13.229,17.623C-13.204,17.6 -13.266,17.561 -13.367,17.541C-13.469,17.522 -13.7,17.459 -13.882,17.403C-14.288,17.278 -14.903,17.219 -15.279,17.268C-15.568,17.307 -15.62,17.403 -15.35,17.403ZM-17.566,16.901C-17.291,16.963 -16.967,17.03 -16.851,17.046C-16.732,17.065 -16.538,17.102 -16.416,17.128C-16.293,17.155 -16.046,17.178 -15.864,17.178C-15.558,17.178 -15.544,17.17 -15.672,17.106C-15.748,17.065 -16.12,16.996 -16.499,16.942C-16.934,16.885 -17.208,16.826 -17.244,16.774C-17.313,16.682 -18.387,16.553 -18.508,16.626C-18.568,16.658 -18.355,16.721 -17.566,16.901ZM-18.591,-16.277C-18.562,-16.258 -18.537,-16.283 -18.537,-16.333C-18.537,-16.381 -18.561,-16.406 -18.591,-16.388C-18.622,-16.366 -18.646,-16.344 -18.646,-16.333C-18.646,-16.32 -18.623,-16.295 -18.591,-16.277ZM-18.895,-16.897C-18.814,-16.882 -18.756,-16.897 -18.756,-16.933C-18.756,-16.966 -18.819,-16.997 -18.895,-17.002C-19.073,-17.012 -19.073,-16.932 -18.895,-16.897ZM-21.454,2.586C-21.391,2.586 -21.354,2.563 -21.374,2.532C-21.393,2.499 -21.381,2.477 -21.35,2.477C-21.318,2.477 -21.292,2.452 -21.292,2.414C-21.292,2.387 -21.353,2.399 -21.427,2.456C-21.592,2.582 -21.593,2.586 -21.454,2.586ZM-21.317,1.842C-20.947,1.875 -20.938,1.873 -21.09,1.791C-21.177,1.745 -21.281,1.706 -21.323,1.706C-21.365,1.706 -21.402,1.663 -21.404,1.61C-21.407,1.551 -21.42,1.54 -21.437,1.582C-21.453,1.62 -21.495,1.651 -21.531,1.651C-21.594,1.651 -21.744,1.766 -21.715,1.794C-21.708,1.801 -21.529,1.823 -21.317,1.842ZM-23.516,10.008C-23.497,9.989 -23.495,9.942 -23.51,9.903C-23.528,9.858 -23.542,9.876 -23.543,9.936C-23.547,9.993 -23.533,10.026 -23.516,10.008ZM-23.438,7.807C-23.377,7.912 -23.33,8.037 -23.33,8.092C-23.33,8.217 -23.242,8.288 -23.191,8.206C-23.148,8.135 -23.31,7.563 -23.384,7.516C-23.443,7.481 -23.548,7.528 -23.548,7.588C-23.548,7.61 -23.5,7.707 -23.438,7.807ZM-23.175,7.245C-23.157,7.227 -23.191,7.178 -23.25,7.135C-23.342,7.067 -23.369,7.069 -23.458,7.149C-23.558,7.237 -23.556,7.247 -23.384,7.258C-23.288,7.268 -23.193,7.262 -23.175,7.245ZM-23.611,4.096C-23.512,4.039 -23.454,3.957 -23.454,3.881C-23.454,3.766 -23.461,3.768 -23.611,3.924C-23.698,4.016 -23.77,4.112 -23.77,4.141C-23.77,4.168 -23.698,4.149 -23.611,4.096ZM-23.857,-0.882C-23.845,-0.882 -23.821,-0.921 -23.803,-0.968C-23.783,-1.017 -23.793,-1.04 -23.824,-1.021C-23.878,-0.988 -23.902,-0.882 -23.857,-0.882ZM-24.086,14.979C-23.851,14.446 -23.825,14.356 -23.83,14.059L-23.834,13.741L-23.933,14.153C-23.986,14.38 -24.057,14.653 -24.087,14.758C-24.164,15.016 -24.164,15.153 -24.086,14.979ZM-24.96,4.569C-24.949,4.569 -24.908,4.532 -24.871,4.485C-24.812,4.416 -24.815,4.408 -24.892,4.436C-24.967,4.467 -25.022,4.569 -24.96,4.569ZM-25.752,16.467C-25.723,16.467 -25.697,16.442 -25.697,16.412C-25.697,16.38 -25.721,16.356 -25.752,16.356C-25.783,16.356 -25.809,16.376 -25.809,16.412C-25.809,16.442 -25.782,16.467 -25.752,16.467ZM-26.876,10.118C-26.857,10.1 -26.855,10.051 -26.872,10.012C-26.89,9.969 -26.901,9.981 -26.904,10.045C-26.907,10.104 -26.893,10.135 -26.876,10.118ZM-26.905,15.86C-26.818,15.752 -26.801,15.671 -26.824,15.481C-26.841,15.348 -26.857,15.1 -26.861,14.93C-26.869,14.702 -26.887,14.803 -26.936,15.282C-26.973,15.645 -27.005,15.956 -27.009,15.971C-27.013,15.985 -26.966,15.936 -26.905,15.86ZM-24.234,4.459C-24.188,4.459 -24.165,4.485 -24.183,4.516C-24.203,4.546 -24.241,4.557 -24.269,4.54C-24.345,4.493 -24.332,4.459 -24.234,4.459ZM-24.819,4.901C-24.694,4.901 -24.62,4.809 -24.716,4.778C-24.768,4.76 -24.769,4.747 -24.716,4.714C-24.681,4.692 -24.65,4.7 -24.65,4.731C-24.65,4.835 -24.554,4.794 -24.524,4.68C-24.498,4.577 -24.32,4.518 -24.32,4.618C-24.32,4.68 -24.795,5.065 -24.867,5.065C-24.899,5.065 -24.926,5.028 -24.926,4.983C-24.926,4.938 -24.878,4.901 -24.819,4.901ZM-25.137,5.212C-25.036,5.186 -25.029,5.168 -25.088,5.096C-25.171,4.997 -25.089,4.979 -24.992,5.076C-24.941,5.125 -24.947,5.165 -25.017,5.241C-25.111,5.344 -25.255,5.375 -25.255,5.292C-25.256,5.266 -25.204,5.229 -25.137,5.212ZM-25.77,5.276C-25.753,5.315 -25.755,5.362 -25.774,5.379C-25.793,5.397 -25.806,5.366 -25.803,5.309C-25.799,5.245 -25.788,5.231 -25.77,5.276ZM-25.973,5.395C-25.942,5.395 -25.917,5.432 -25.917,5.479C-25.917,5.524 -25.941,5.561 -25.973,5.561C-26.003,5.561 -26.027,5.524 -26.027,5.479C-26.027,5.434 -26.003,5.395 -25.973,5.395ZM-26.299,5.696C-26.203,5.637 -26.184,5.705 -26.274,5.78C-26.327,5.824 -26.358,5.829 -26.358,5.791C-26.358,5.76 -26.333,5.717 -26.299,5.696ZM-27.311,6.483C-27.085,6.586 -26.813,6.571 -26.748,6.449C-26.717,6.391 -26.635,6.331 -26.566,6.313C-26.498,6.291 -26.373,6.219 -26.289,6.147C-26.155,6.032 -26.147,6.01 -26.229,5.977C-26.31,5.948 -26.299,5.928 -26.169,5.862C-25.971,5.758 -25.921,5.758 -26.059,5.862C-26.208,5.975 -26.072,5.967 -25.866,5.85C-25.773,5.792 -25.708,5.723 -25.721,5.688C-25.735,5.651 -25.715,5.633 -25.676,5.647C-25.64,5.663 -25.535,5.612 -25.446,5.535C-25.356,5.457 -25.242,5.395 -25.191,5.395C-25.101,5.395 -24.687,5.104 -24.458,4.874C-24.394,4.811 -24.259,4.696 -24.161,4.622C-23.94,4.455 -23.854,4.309 -23.942,4.26C-23.98,4.237 -23.992,4.241 -23.97,4.28C-23.928,4.348 -24.083,4.42 -24.165,4.37C-24.2,4.348 -24.193,4.315 -24.146,4.282C-24.089,4.242 -24.096,4.237 -24.171,4.26C-24.228,4.28 -24.296,4.293 -24.327,4.293C-24.355,4.293 -24.367,4.313 -24.353,4.338C-24.336,4.362 -24.348,4.417 -24.375,4.461C-24.417,4.528 -24.426,4.528 -24.426,4.451C-24.427,4.373 -24.447,4.37 -24.565,4.422C-24.641,4.457 -24.704,4.518 -24.704,4.555C-24.704,4.594 -24.725,4.619 -24.751,4.61C-24.776,4.602 -24.919,4.684 -25.067,4.794C-25.215,4.905 -25.359,4.983 -25.385,4.983C-25.413,4.983 -25.455,5.036 -25.479,5.092C-25.516,5.188 -25.522,5.182 -25.525,5.051C-25.53,4.887 -25.64,4.836 -25.64,4.999C-25.64,5.061 -25.717,5.133 -25.847,5.19C-25.959,5.241 -26.14,5.36 -26.245,5.454C-26.351,5.547 -26.567,5.707 -26.727,5.811C-26.885,5.914 -27.016,6.022 -27.016,6.044C-27.016,6.069 -27.08,6.108 -27.158,6.135C-27.318,6.17 -27.452,6.276 -27.455,6.36C-27.458,6.389 -27.392,6.446 -27.311,6.483ZM-27.591,5.506C-27.542,5.506 -27.066,5.176 -26.53,4.774C-25.997,4.376 -25.112,3.748 -24.567,3.379C-22.012,1.672 -22.032,1.688 -21.979,1.284C-21.959,1.137 -21.92,0.96 -21.893,0.891C-21.864,0.821 -21.84,0.71 -21.84,0.655C-21.84,0.596 -21.816,0.504 -21.786,0.452C-21.697,0.299 -21.341,-0.611 -21.264,-0.882C-21.225,-1.019 -21.102,-1.341 -20.989,-1.599C-20.705,-2.255 -20.408,-3.027 -20.408,-3.115C-20.408,-3.154 -20.385,-3.195 -20.356,-3.21C-20.293,-3.232 -20.132,-3.818 -20.132,-4.025C-20.132,-4.105 -20.082,-4.318 -20.02,-4.501C-19.957,-4.683 -19.872,-5.033 -19.829,-5.293C-19.729,-5.881 -19.627,-6.342 -19.455,-6.974C-19.321,-7.459 -19.276,-7.737 -19.225,-8.405C-19.21,-8.587 -19.15,-8.933 -19.089,-9.173C-19.029,-9.415 -19,-9.638 -19.025,-9.669C-19.087,-9.752 -19.062,-10.367 -18.992,-10.5C-18.929,-10.619 -18.833,-11.029 -18.787,-11.379L-18.757,-11.601L-18.837,-11.435C-18.881,-11.343 -18.919,-11.208 -18.921,-11.131C-18.924,-11.022 -18.936,-11.011 -18.979,-11.077C-19.024,-11.147 -19.032,-11.146 -19.032,-11.064C-19.033,-11.013 -19.068,-10.889 -19.11,-10.79C-19.153,-10.689 -19.218,-10.504 -19.256,-10.377C-19.293,-10.251 -19.358,-10.133 -19.399,-10.118C-19.44,-10.102 -19.475,-10.057 -19.475,-10.019C-19.475,-9.98 -19.533,-9.824 -19.605,-9.672C-19.677,-9.521 -19.78,-9.292 -19.834,-9.164C-19.892,-9.026 -19.956,-8.945 -19.991,-8.965C-20.025,-8.985 -20.036,-8.981 -20.012,-8.957C-19.991,-8.933 -20.022,-8.844 -20.082,-8.761C-20.142,-8.677 -20.189,-8.581 -20.189,-8.547C-20.189,-8.515 -20.208,-8.486 -20.231,-8.486C-20.276,-8.486 -20.464,-8.084 -20.464,-7.986C-20.464,-7.955 -20.551,-7.754 -20.656,-7.543C-20.762,-7.333 -20.85,-7.126 -20.85,-7.085C-20.85,-7.043 -20.869,-7.002 -20.891,-6.992C-20.944,-6.968 -21.4,-6.054 -21.4,-5.968C-21.4,-5.932 -21.447,-5.796 -21.505,-5.667C-21.687,-5.263 -22.007,-4.439 -22.006,-4.388C-22.005,-4.361 -22.102,-4.134 -22.219,-3.894C-22.336,-3.652 -22.45,-3.353 -22.473,-3.234C-22.495,-3.113 -22.614,-2.839 -22.74,-2.63C-22.866,-2.422 -23.009,-2.181 -23.056,-2.088C-23.102,-1.999 -23.167,-1.904 -23.199,-1.892C-23.284,-1.834 -23.419,-1.549 -23.465,-1.328C-23.487,-1.224 -23.53,-1.103 -23.563,-1.066C-23.592,-1.027 -23.602,-1 -23.582,-1C-23.562,-1 -23.591,-0.949 -23.646,-0.892C-23.75,-0.784 -24.265,0.118 -24.265,0.184C-24.265,0.205 -24.228,0.205 -24.182,0.19C-24.108,0.165 -24.107,0.175 -24.175,0.309C-24.217,0.391 -24.364,0.612 -24.501,0.795C-24.64,0.983 -24.854,1.35 -24.979,1.608C-25.104,1.87 -25.228,2.071 -25.254,2.053C-25.31,2.02 -25.585,2.395 -25.585,2.498C-25.585,2.534 -25.605,2.571 -25.627,2.582C-25.65,2.594 -25.773,2.811 -25.9,3.067C-26.026,3.326 -26.207,3.614 -26.298,3.712C-26.391,3.811 -26.466,3.912 -26.466,3.944C-26.466,3.973 -26.488,4.005 -26.518,4.005C-26.546,4.005 -26.583,4.051 -26.602,4.106C-26.62,4.163 -26.679,4.255 -26.736,4.319C-26.831,4.422 -27.032,4.708 -27.237,5.033C-27.283,5.104 -27.353,5.164 -27.393,5.164C-27.432,5.165 -27.452,5.184 -27.436,5.213C-27.419,5.237 -27.467,5.29 -27.542,5.331C-27.698,5.424 -27.721,5.506 -27.591,5.506ZM-27.776,24.846C-27.361,24.612 -27.242,24.524 -27.281,24.481C-27.303,24.46 -27.293,24.457 -27.26,24.471C-27.161,24.528 -26.321,24.088 -26.039,23.831C-25.896,23.7 -25.71,23.549 -25.625,23.497C-25.374,23.338 -25.499,23.329 -25.761,23.485C-25.894,23.563 -26.112,23.676 -26.249,23.737C-26.384,23.797 -26.533,23.872 -26.579,23.901C-26.625,23.93 -26.735,23.993 -26.826,24.039C-26.917,24.084 -27.128,24.235 -27.294,24.371C-27.461,24.506 -27.678,24.674 -27.775,24.743C-28.006,24.903 -28.007,24.977 -27.776,24.846ZM-28.582,27.477C-28.57,27.496 -28.562,27.362 -28.562,27.192C-28.562,27.022 -28.585,26.873 -28.617,26.848C-28.669,26.817 -28.633,27.416 -28.582,27.477ZM-28.671,26.436L-28.629,26.79L-28.634,26.321C-28.636,26.061 -28.655,25.762 -28.675,25.661C-28.707,25.497 -28.712,25.514 -28.713,25.766C-28.713,25.942 -28.695,26.239 -28.671,26.436ZM-30.593,36.979C-30.577,36.997 -30.563,36.928 -30.563,36.831C-30.562,36.733 -30.528,36.315 -30.488,35.905C-30.445,35.467 -30.435,35.114 -30.462,35.051C-30.497,34.975 -30.527,35.106 -30.569,35.492C-30.63,36.073 -30.646,36.928 -30.593,36.979ZM-30.834,35.854C-30.826,35.657 -30.783,35.223 -30.737,34.889C-30.436,32.676 -30.39,32.121 -30.48,31.805C-30.533,31.619 -30.48,31.383 -30.413,31.492C-30.392,31.528 -30.387,31.58 -30.404,31.608C-30.421,31.635 -30.412,31.67 -30.38,31.694C-30.349,31.714 -30.324,31.665 -30.325,31.574C-30.326,31.352 -30.384,31.167 -30.44,31.203C-30.467,31.219 -30.489,31.206 -30.489,31.171C-30.489,31.137 -30.516,31.126 -30.548,31.147C-30.582,31.168 -30.596,31.251 -30.584,31.332C-30.571,31.413 -30.573,31.442 -30.585,31.403C-30.605,31.344 -30.625,31.344 -30.696,31.403C-30.773,31.467 -30.777,31.461 -30.734,31.309C-30.708,31.219 -30.69,31.039 -30.695,30.913C-30.704,30.707 -30.687,30.668 -30.569,30.624C-30.496,30.6 -30.435,30.547 -30.435,30.52C-30.435,30.465 -30.331,30.324 -30.172,30.158C-30.134,30.119 -30.104,30.057 -30.104,30.026C-30.104,29.994 -30.083,29.963 -30.058,29.963C-30.031,29.963 -29.968,29.871 -29.917,29.758C-29.865,29.647 -29.736,29.451 -29.631,29.33C-29.526,29.208 -29.427,29.049 -29.412,28.975C-29.353,28.682 -29.158,28.094 -29.121,28.094C-29.063,28.094 -28.892,27.788 -28.831,27.58C-28.771,27.376 -28.884,25.434 -28.953,25.475C-29.04,25.528 -29.063,25.374 -29.008,25.124C-28.977,24.981 -28.937,24.803 -28.92,24.727C-28.901,24.645 -28.773,24.502 -28.592,24.374C-28.295,24.151 -28.292,24.147 -28.256,23.795L-28.219,23.442L-27.81,23.051L-27.398,22.663L-27.351,22.141C-27.323,21.858 -27.313,21.604 -27.33,21.579C-27.343,21.557 -27.357,21.288 -27.359,20.983C-27.362,20.586 -27.384,20.416 -27.439,20.372C-27.481,20.336 -27.516,20.264 -27.516,20.207C-27.516,20.151 -27.54,20.094 -27.57,20.075C-27.601,20.053 -27.625,20.065 -27.625,20.096C-27.625,20.125 -27.664,20.157 -27.708,20.157C-27.754,20.157 -27.792,20.135 -27.792,20.106C-27.792,20.082 -27.754,20.028 -27.708,19.992C-27.664,19.954 -27.625,19.883 -27.625,19.832C-27.625,19.748 -27.41,19.477 -27.311,19.434C-27.189,19.383 -27.021,19.051 -27.021,18.862C-27.021,18.684 -27.031,18.67 -27.105,18.729C-27.264,18.86 -27.303,18.713 -27.218,18.311C-27.165,18.057 -27.148,17.747 -27.166,17.352C-27.18,17.036 -27.188,16.239 -27.185,15.585C-27.18,14.934 -27.178,14.327 -27.183,14.235C-27.212,13.502 -27.158,11.911 -27.097,11.711C-27.08,11.655 -27.108,11.565 -27.159,11.51C-27.21,11.454 -27.235,11.379 -27.216,11.348C-27.195,11.315 -27.23,11.204 -27.293,11.104C-27.441,10.864 -27.441,10.524 -27.293,10.333C-27.175,10.184 -27.15,10.057 -26.992,8.758C-26.942,8.348 -26.869,7.862 -26.831,7.676C-26.791,7.485 -26.779,7.305 -26.806,7.262C-26.831,7.221 -26.837,7.133 -26.822,7.067C-26.798,6.971 -26.818,6.94 -26.921,6.921C-26.991,6.903 -27.228,6.858 -27.443,6.811C-27.66,6.764 -27.884,6.723 -27.944,6.723C-28.096,6.723 -28.406,6.559 -28.369,6.496C-28.309,6.395 -28.439,6.444 -28.595,6.581C-28.79,6.748 -28.833,6.723 -28.698,6.518C-28.643,6.434 -28.602,6.348 -28.608,6.325C-28.614,6.305 -28.594,6.284 -28.563,6.284C-28.53,6.284 -28.518,6.264 -28.534,6.233C-28.552,6.208 -28.491,6.104 -28.4,6.004C-28.31,5.907 -28.235,5.813 -28.235,5.787C-28.235,5.76 -28,5.496 -27.714,5.186C-27.427,4.878 -27.157,4.546 -27.113,4.451C-27.07,4.348 -26.947,4.08 -26.839,3.846C-26.71,3.567 -26.67,3.434 -26.723,3.452C-26.768,3.469 -26.712,3.344 -26.603,3.172C-26.493,3.003 -26.374,2.862 -26.336,2.862C-26.299,2.862 -26.237,2.798 -26.197,2.725C-26.156,2.649 -26.088,2.583 -26.045,2.583C-26.002,2.583 -25.954,2.535 -25.938,2.477C-25.923,2.415 -25.894,2.369 -25.874,2.369C-25.854,2.369 -25.79,2.288 -25.732,2.188C-25.674,2.086 -25.612,1.998 -25.593,1.981C-25.574,1.964 -25.461,1.805 -25.341,1.625C-25.221,1.446 -25.058,1.207 -24.977,1.104C-24.896,1 -24.813,0.84 -24.792,0.756C-24.771,0.676 -24.73,0.594 -24.705,0.575C-24.638,0.534 -24.642,0.438 -24.709,0.438C-24.738,0.438 -24.779,0.504 -24.8,0.589C-24.821,0.673 -24.855,0.751 -24.876,0.77C-24.92,0.798 -25.313,1.385 -25.397,1.542C-25.426,1.602 -25.483,1.658 -25.523,1.676C-25.609,1.707 -25.58,1.649 -25.376,1.373C-25.197,1.137 -25.107,0.985 -25.063,0.862C-25.043,0.807 -25.007,0.764 -24.983,0.764C-24.959,0.764 -24.921,0.713 -24.902,0.649C-24.882,0.586 -24.761,0.358 -24.632,0.141C-24.504,-0.078 -24.259,-0.543 -24.088,-0.886C-23.716,-1.646 -23.583,-1.879 -23.34,-2.208C-23.146,-2.474 -22.679,-3.411 -22.494,-3.915C-22.433,-4.082 -22.325,-4.345 -22.256,-4.501C-22.188,-4.652 -22.104,-4.881 -22.07,-5.002C-22.038,-5.124 -21.91,-5.44 -21.788,-5.706C-21.665,-5.972 -21.468,-6.441 -21.351,-6.75C-21.233,-7.058 -21.076,-7.444 -21,-7.608C-20.817,-8.006 -20.414,-8.973 -20.414,-9.011C-20.414,-9.027 -20.323,-9.245 -20.214,-9.494C-20.105,-9.743 -19.996,-9.995 -19.974,-10.057C-19.95,-10.118 -19.831,-10.377 -19.708,-10.636C-19.584,-10.893 -19.422,-11.246 -19.346,-11.419C-19.151,-11.865 -18.815,-12.307 -18.771,-12.175C-18.76,-12.147 -18.732,-12.123 -18.708,-12.123C-18.594,-12.123 -18.551,-12.769 -18.529,-14.821C-18.52,-15.739 -18.53,-15.947 -18.591,-15.935C-18.722,-15.905 -18.864,-16.095 -18.903,-16.346C-18.93,-16.529 -18.96,-16.583 -19.021,-16.56C-19.064,-16.543 -19.112,-16.528 -19.126,-16.528C-19.141,-16.528 -19.142,-16.508 -19.125,-16.483C-19.108,-16.459 -19.17,-16.448 -19.26,-16.462C-19.351,-16.477 -19.438,-16.508 -19.454,-16.536C-19.469,-16.563 -19.557,-16.585 -19.645,-16.585C-19.962,-16.585 -19.796,-16.962 -19.477,-16.97C-19.4,-16.971 -19.24,-17.028 -19.12,-17.096C-18.933,-17.2 -18.895,-17.255 -18.859,-17.461C-18.833,-17.62 -18.761,-17.757 -18.656,-17.861C-18.469,-18.043 -18.464,-18.036 -18.401,-17.521C-18.36,-17.188 -18.275,-17.019 -18.038,-16.793C-17.95,-16.711 -17.879,-16.623 -17.879,-16.593C-17.879,-16.565 -17.816,-16.543 -17.74,-16.543C-17.645,-16.543 -17.606,-16.569 -17.616,-16.63C-17.636,-16.747 -17.436,-16.785 -17.358,-16.68C-17.325,-16.634 -17.25,-16.587 -17.19,-16.575C-17.104,-16.559 -17.083,-16.508 -17.083,-16.321C-17.081,-16.064 -17.144,-16.006 -17.299,-16.121C-17.378,-16.179 -17.42,-16.184 -17.48,-16.131C-17.53,-16.089 -17.571,-16.086 -17.594,-16.122C-17.663,-16.22 -17.958,-16.197 -18.094,-16.084C-18.227,-15.974 -18.228,-15.968 -18.192,-15.199C-18.172,-14.769 -18.179,-14.323 -18.209,-14.194C-18.282,-13.867 -18.279,-12.894 -18.205,-12.894C-18.145,-12.894 -18.221,-12.624 -18.3,-12.559C-18.342,-12.523 -18.376,-12.431 -18.377,-12.351C-18.377,-12.271 -18.417,-12.044 -18.463,-11.848C-18.51,-11.65 -18.582,-11.217 -18.623,-10.883C-18.864,-8.897 -18.933,-8.457 -19.118,-7.606C-19.195,-7.257 -19.296,-6.774 -19.342,-6.532C-19.388,-6.291 -19.465,-5.961 -19.512,-5.801C-19.561,-5.642 -19.585,-5.476 -19.569,-5.432C-19.551,-5.389 -19.564,-5.336 -19.594,-5.317C-19.625,-5.297 -19.636,-5.245 -19.617,-5.195C-19.6,-5.148 -19.623,-5.068 -19.668,-5.017C-19.715,-4.964 -19.791,-4.705 -19.837,-4.439C-19.884,-4.168 -19.958,-3.835 -20.003,-3.699C-20.048,-3.564 -20.093,-3.375 -20.103,-3.281C-20.112,-3.191 -20.198,-2.947 -20.294,-2.738C-20.391,-2.531 -20.469,-2.294 -20.469,-2.21C-20.469,-2.124 -20.557,-1.851 -20.662,-1.599C-20.768,-1.345 -20.854,-1.109 -20.854,-1.07C-20.854,-0.941 -21.069,-0.381 -21.155,-0.287C-21.201,-0.236 -21.287,-0.058 -21.344,0.11C-21.402,0.28 -21.526,0.582 -21.62,0.786C-21.817,1.215 -21.831,1.342 -21.684,1.419C-21.517,1.51 -21.458,1.487 -21.458,1.34C-21.458,1.264 -21.435,1.2 -21.403,1.2C-21.373,1.2 -21.348,1.223 -21.348,1.258C-21.348,1.287 -21.313,1.313 -21.269,1.313C-21.225,1.313 -21.107,1.36 -21.006,1.417C-20.778,1.551 -20.199,1.641 -19.818,1.604C-19.643,1.583 -19.529,1.598 -19.529,1.629C-19.529,1.692 -18.912,1.75 -17.904,1.776C-17.51,1.789 -17.126,1.825 -17.05,1.854C-16.975,1.887 -16.677,1.94 -16.39,1.971C-16.103,1.999 -15.78,2.034 -15.673,2.046C-15.568,2.061 -15.249,2.098 -14.963,2.13C-14.679,2.163 -14.424,2.204 -14.398,2.223C-14.372,2.243 -14.272,2.262 -14.179,2.276C-13.983,2.298 -13.856,2.389 -13.856,2.505C-13.856,2.551 -13.832,2.569 -13.798,2.551C-13.768,2.53 -13.708,2.54 -13.666,2.573C-13.625,2.606 -13.496,2.637 -13.379,2.635C-13.263,2.63 -13.068,2.655 -12.946,2.684C-12.825,2.712 -12.503,2.788 -12.23,2.854C-11.958,2.916 -11.659,2.994 -11.565,3.022C-11.472,3.051 -11.34,3.077 -11.273,3.077C-11.205,3.077 -11.106,3.098 -11.055,3.127C-11.002,3.155 -10.85,3.192 -10.713,3.215C-10.574,3.235 -10.336,3.288 -10.174,3.334C-10.012,3.381 -9.821,3.426 -9.76,3.436C-9.418,3.479 -8.697,3.639 -8.571,3.703C-8.491,3.737 -8.426,3.807 -8.426,3.85C-8.426,3.903 -8.361,3.938 -8.24,3.953C-8.08,3.971 -8.063,3.959 -8.112,3.871C-8.143,3.813 -8.24,3.725 -8.33,3.665C-8.416,3.606 -8.541,3.481 -8.604,3.393C-8.668,3.296 -8.779,3.163 -8.85,3.082C-8.916,3.005 -9.146,2.746 -9.354,2.503C-9.816,1.969 -10.154,1.608 -10.375,1.436C-10.469,1.362 -10.543,1.278 -10.543,1.248C-10.543,1.217 -10.672,1.065 -10.832,0.912C-11.621,0.139 -12.691,-1.293 -12.713,-1.592C-12.733,-1.857 -12.872,-2.232 -13.029,-2.447C-13.114,-2.568 -13.185,-2.691 -13.184,-2.722C-13.184,-2.786 -13.576,-3.585 -13.628,-3.633C-13.646,-3.65 -13.677,-3.697 -13.698,-3.744C-13.719,-3.789 -13.784,-3.898 -13.844,-3.99C-13.969,-4.181 -14.141,-4.472 -14.151,-4.513C-14.188,-4.65 -14.419,-5.072 -14.529,-5.201C-14.605,-5.29 -14.656,-5.373 -14.643,-5.388C-14.627,-5.401 -14.674,-5.489 -14.746,-5.583C-14.815,-5.676 -14.934,-5.864 -15.007,-6.001C-15.081,-6.138 -15.155,-6.261 -15.175,-6.275C-15.228,-6.316 -15.5,-6.822 -15.886,-7.598C-16.075,-7.976 -16.379,-8.584 -16.563,-8.946C-17.054,-9.925 -17.173,-10.168 -17.402,-10.654C-17.517,-10.897 -17.679,-11.208 -17.763,-11.346C-17.852,-11.487 -17.906,-11.643 -17.892,-11.704C-17.873,-11.774 -17.929,-11.881 -18.056,-12.019C-18.21,-12.185 -18.243,-12.257 -18.218,-12.38C-18.192,-12.514 -18.167,-12.53 -18.027,-12.511C-17.917,-12.495 -17.867,-12.456 -17.867,-12.383C-17.867,-12.327 -17.845,-12.279 -17.816,-12.279C-17.788,-12.279 -17.749,-12.224 -17.728,-12.155C-17.677,-11.991 -17.541,-11.668 -17.478,-11.564C-17.449,-11.519 -17.403,-11.428 -17.375,-11.362C-17.346,-11.297 -17.299,-11.23 -17.271,-11.211C-17.241,-11.193 -17.201,-11.112 -17.18,-11.03C-17.159,-10.949 -17.068,-10.72 -16.976,-10.521C-16.883,-10.321 -16.771,-10.071 -16.727,-9.965C-16.683,-9.859 -16.618,-9.724 -16.583,-9.663C-16.383,-9.304 -15.893,-8.296 -15.804,-8.064C-15.748,-7.914 -15.617,-7.659 -15.516,-7.498C-15.414,-7.336 -15.342,-7.185 -15.358,-7.159C-15.375,-7.132 -15.351,-7.099 -15.307,-7.082C-15.262,-7.064 -15.188,-6.96 -15.143,-6.85C-15.095,-6.739 -14.948,-6.483 -14.814,-6.281C-14.679,-6.08 -14.553,-5.849 -14.534,-5.77C-14.513,-5.689 -14.438,-5.567 -14.364,-5.499C-14.292,-5.43 -14.231,-5.33 -14.231,-5.276C-14.231,-5.224 -14.207,-5.164 -14.174,-5.144C-14.125,-5.118 -13.826,-4.582 -13.82,-4.511C-13.819,-4.495 -13.762,-4.42 -13.694,-4.349C-13.626,-4.277 -13.57,-4.181 -13.57,-4.14C-13.57,-4.099 -13.511,-3.986 -13.44,-3.888C-13.371,-3.792 -13.272,-3.611 -13.224,-3.491C-13.145,-3.284 -13.006,-3.05 -12.771,-2.713C-12.725,-2.65 -12.692,-2.58 -12.701,-2.568C-12.709,-2.554 -12.666,-2.486 -12.603,-2.418C-12.347,-2.131 -12.151,-1.732 -12.12,-1.439C-12.101,-1.277 -12.049,-1.101 -12.002,-1.047C-11.957,-0.996 -11.918,-0.933 -11.918,-0.902C-11.918,-0.877 -11.871,-0.824 -11.813,-0.789C-11.72,-0.726 -11.334,-0.269 -10.564,0.686C-10.44,0.836 -10.244,1.065 -10.125,1.186C-10.006,1.307 -9.853,1.494 -9.773,1.6C-9.7,1.705 -9.557,1.872 -9.459,1.963C-9.356,2.063 -9.275,2.155 -9.275,2.182C-9.275,2.204 -9.188,2.305 -9.084,2.41C-8.98,2.514 -8.895,2.619 -8.895,2.643C-8.895,2.665 -8.719,2.86 -8.506,3.071C-8.293,3.282 -8.119,3.481 -8.119,3.514C-8.119,3.543 -8.071,3.586 -8.016,3.608C-7.955,3.628 -7.869,3.705 -7.821,3.78C-7.771,3.854 -7.713,3.903 -7.684,3.885C-7.571,3.817 -7.457,3.92 -7.496,4.071C-7.601,4.555 -7.641,4.635 -7.767,4.694C-7.838,4.727 -7.922,4.825 -7.955,4.912C-7.99,5.02 -8.033,5.059 -8.094,5.037C-8.146,5.016 -8.252,5.065 -8.352,5.147C-8.445,5.225 -8.57,5.29 -8.625,5.29C-8.687,5.29 -8.729,5.315 -8.729,5.346C-8.729,5.376 -8.781,5.403 -8.844,5.403C-8.937,5.403 -8.953,5.381 -8.932,5.29C-8.903,5.184 -8.908,5.18 -9,5.268C-9.086,5.344 -9.094,5.385 -9.043,5.538C-9.01,5.633 -8.983,5.799 -8.985,5.903C-9.047,8.442 -9.045,8.563 -8.936,8.678C-8.791,8.827 -8.729,9.094 -8.795,9.245C-8.822,9.311 -8.865,9.368 -8.889,9.368C-8.982,9.368 -9.045,9.673 -9.039,10.067C-9.031,10.302 -9.027,11.882 -9.025,13.583C-9.021,17.446 -9.041,17.145 -8.815,17.272C-8.572,17.416 -8.496,17.524 -8.529,17.677C-8.551,17.77 -8.527,17.83 -8.452,17.884C-8.391,17.925 -8.336,18.014 -8.324,18.078C-8.31,18.172 -8.209,18.225 -7.768,18.373C-7.471,18.473 -7.211,18.563 -7.193,18.585C-7.109,18.669 -7.256,18.69 -7.496,18.624C-7.642,18.587 -7.846,18.542 -7.947,18.522C-8.123,18.498 -8.135,18.501 -8.064,18.584C-8.023,18.634 -8.004,18.675 -8.027,18.675C-8.051,18.675 -8.039,18.725 -8.006,18.78C-7.957,18.873 -7.982,18.905 -8.17,19.009C-8.379,19.126 -8.453,19.227 -8.334,19.227C-8.301,19.227 -8.289,19.418 -8.307,19.748C-8.328,20.159 -8.316,20.268 -8.258,20.268C-8.121,20.268 -8.041,20.582 -8.076,20.962L-8.109,21.323L-7.811,21.606C-7.611,21.793 -7.492,21.962 -7.441,22.125C-7.4,22.254 -7.344,22.352 -7.313,22.34C-7.232,22.309 -7.248,22.657 -7.332,22.758C-7.381,22.817 -7.385,22.858 -7.349,22.881C-7.316,22.901 -7.287,22.897 -7.287,22.871C-7.287,22.848 -7.264,22.862 -7.23,22.909C-7.203,22.957 -7.176,22.965 -7.176,22.928C-7.176,22.893 -7.075,22.848 -6.957,22.827C-6.778,22.797 -6.739,22.768 -6.746,22.671C-6.75,22.606 -6.799,22.485 -6.85,22.405C-6.957,22.248 -6.981,22.136 -6.903,22.136C-6.838,22.136 -6.688,22.366 -6.645,22.539C-6.586,22.766 -6.512,22.79 -6.178,22.702C-5.881,22.623 -5.604,22.625 -4.744,22.711C-4.482,22.733 -4.305,22.795 -4.084,22.927C-3.754,23.12 -3.721,23.204 -3.975,23.214C-4.084,23.218 -4.149,23.19 -4.168,23.122C-4.196,23.02 -4.303,22.975 -4.637,22.897C-4.74,22.875 -4.951,22.829 -5.106,22.793C-5.414,22.727 -6.217,22.77 -6.332,22.858C-6.405,22.921 -6.43,23.073 -6.36,23.057C-6.338,23.05 -6.243,23.079 -6.153,23.12C-6.061,23.159 -5.967,23.186 -5.946,23.182C-5.748,23.139 -4.95,23.174 -4.883,23.231C-4.828,23.276 -4.563,23.299 -4.086,23.305C-3.69,23.307 -3.369,23.327 -3.369,23.344C-3.369,23.397 -2.352,23.496 -2.321,23.448C-2.305,23.427 -2.147,23.407 -1.967,23.409C-1.787,23.411 -1.668,23.427 -1.703,23.43C-1.822,23.471 -1.77,23.541 -1.604,23.569C-1.506,23.583 -1.438,23.569 -1.436,23.534C-1.436,23.501 -1.402,23.514 -1.361,23.571C-1.303,23.643 -1.189,23.674 -0.813,23.678C-0.475,23.686 -0.336,23.711 -0.336,23.76C-0.336,23.84 -0.241,23.852 -0.217,23.78C-0.205,23.748 -0.112,23.752 0.027,23.796C0.15,23.832 0.242,23.895 0.23,23.93C0.217,23.962 0.264,24.032 0.33,24.075C0.447,24.157 0.447,24.165 0.357,24.37C0.307,24.483 0.275,24.524 0.289,24.46C0.311,24.364 0.281,24.338 0.154,24.319C0.068,24.302 -0.01,24.311 -0.018,24.335C-0.045,24.412 -0.666,24.272 -0.666,24.19C-0.666,24.147 -0.702,24.112 -0.748,24.112C-0.795,24.112 -0.832,24.131 -0.832,24.147C-0.832,24.209 -0.643,24.33 -0.527,24.334C-0.465,24.338 -0.448,24.356 -0.484,24.368C-0.586,24.407 -0.57,24.483 -0.459,24.514C-0.389,24.536 -0.385,24.54 -0.445,24.547C-0.549,24.555 -0.883,24.253 -0.883,24.149C-0.883,24.049 -1,24.003 -1.244,24.003C-1.356,24.003 -1.433,24.03 -1.433,24.071C-1.435,24.11 -1.457,24.096 -1.493,24.044C-1.521,23.991 -1.588,23.948 -1.633,23.948C-1.68,23.948 -1.7,23.971 -1.686,24.003C-1.662,24.039 -1.854,24.057 -2.217,24.055C-2.631,24.051 -2.739,24.037 -2.623,24.001C-2.534,23.975 -2.351,23.967 -2.211,23.981C-2.022,24.001 -1.981,23.998 -2.041,23.955C-2.086,23.922 -2.348,23.897 -2.627,23.901C-2.9,23.905 -3.15,23.893 -3.185,23.874C-3.213,23.856 -3.607,23.828 -4.058,23.811C-5.463,23.756 -6.299,23.667 -6.697,23.538C-7.082,23.409 -7.166,23.354 -7.166,23.253C-7.166,23.204 -7.185,23.184 -7.201,23.2C-7.258,23.253 -7.543,22.843 -7.514,22.754C-7.476,22.657 -7.692,22.243 -7.918,21.979C-8.022,21.86 -8.104,21.737 -8.104,21.705C-8.104,21.671 -8.142,21.643 -8.188,21.643C-8.233,21.643 -8.271,21.618 -8.271,21.581C-8.271,21.548 -8.309,21.479 -8.356,21.434C-8.411,21.381 -8.424,21.313 -8.402,21.26C-8.381,21.208 -8.35,21.04 -8.34,20.885C-8.318,20.626 -8.327,20.592 -8.461,20.506C-8.59,20.422 -8.604,20.379 -8.604,20.049C-8.605,19.61 -8.684,19.292 -8.803,19.246C-8.873,19.219 -8.879,19.196 -8.823,19.129C-8.734,19.022 -8.762,18.996 -9.022,18.957C-9.217,18.928 -9.228,18.932 -9.129,19.006C-9.014,19.096 -9.051,19.215 -9.194,19.213C-9.246,19.213 -9.528,19.149 -9.826,19.075C-10.123,18.999 -10.444,18.936 -10.547,18.936C-10.647,18.936 -10.752,18.914 -10.778,18.882C-10.807,18.852 -11.017,18.813 -11.244,18.79C-11.473,18.768 -11.685,18.727 -11.723,18.702C-11.759,18.677 -11.871,18.645 -11.971,18.643C-12.072,18.641 -12.185,18.62 -12.22,18.586C-12.257,18.557 -12.514,18.545 -12.798,18.559C-13.248,18.581 -13.344,18.573 -13.59,18.456C-13.861,18.334 -14.526,18.19 -14.605,18.241C-14.626,18.255 -14.691,18.227 -14.749,18.184C-14.806,18.141 -14.926,18.104 -15.016,18.104C-15.236,18.102 -15.829,17.93 -15.916,17.844C-15.955,17.807 -16.079,17.76 -16.19,17.741C-16.573,17.677 -16.945,17.594 -17.001,17.549C-17.079,17.487 -17.546,17.397 -18.352,17.278C-18.73,17.221 -19.126,17.163 -19.232,17.141C-19.529,17.082 -19.67,17.069 -20.086,17.034C-20.299,17.012 -20.527,16.971 -20.596,16.934C-20.735,16.864 -20.765,16.666 -20.637,16.666C-20.592,16.666 -20.555,16.643 -20.555,16.61C-20.555,16.578 -20.617,16.553 -20.692,16.553C-20.802,16.553 -20.827,16.53 -20.818,16.421C-20.808,16.294 -20.794,16.29 -20.42,16.309L-20.032,16.329L-20.324,16.266C-20.484,16.231 -20.614,16.173 -20.611,16.147C-20.605,16.069 -20.167,16.106 -19.646,16.229C-19.197,16.332 -18.345,16.452 -17.801,16.479C-17.236,16.505 -16.545,16.606 -16.278,16.698C-16.132,16.748 -15.665,16.846 -15.24,16.92C-14.422,17.059 -14.261,17.092 -13.478,17.276C-13.206,17.338 -12.957,17.399 -12.926,17.407C-12.896,17.413 -12.818,17.448 -12.751,17.485C-12.685,17.522 -12.567,17.548 -12.489,17.548C-12.411,17.548 -12.347,17.573 -12.347,17.61C-12.347,17.641 -12.395,17.653 -12.458,17.63C-12.519,17.61 -12.567,17.614 -12.567,17.643C-12.567,17.696 -12.104,17.827 -11.782,17.868C-11.608,17.889 -11.576,17.915 -11.576,18.026C-11.576,18.159 -11.5,18.202 -11.438,18.1C-11.418,18.071 -11.429,18.044 -11.461,18.044C-11.493,18.044 -11.521,18.007 -11.521,17.962C-11.521,17.914 -11.492,17.878 -11.457,17.878C-11.332,17.878 -11.458,17.815 -11.64,17.787C-11.861,17.753 -11.917,17.707 -11.858,17.612C-11.825,17.555 -11.757,17.551 -11.572,17.592C-11.322,17.651 -11.243,17.663 -10.668,17.758C-10.483,17.788 -10.127,17.852 -9.866,17.903C-9.608,17.95 -9.271,18.006 -9.116,18.02C-8.836,18.053 -8.836,18.053 -8.86,17.91C-8.883,17.789 -8.901,17.774 -8.969,17.833C-9.037,17.891 -9.071,17.88 -9.157,17.77C-9.219,17.703 -9.262,17.61 -9.262,17.567C-9.262,17.526 -9.282,17.491 -9.313,17.491C-9.359,17.491 -9.32,17.262 -9.229,16.996C-9.199,16.903 -9.215,16.85 -9.273,16.871C-9.295,16.876 -9.285,16.805 -9.254,16.705C-9.223,16.604 -9.19,16.409 -9.187,16.266C-9.172,16.018 -9.176,16.008 -9.269,16.092C-9.324,16.139 -9.392,16.161 -9.424,16.143C-9.5,16.096 -9.498,15.932 -9.422,15.854C-9.35,15.784 -9.264,13.565 -9.275,12.122C-9.297,10.126 -9.262,9.382 -9.164,9.266C-9.112,9.206 -9.098,9.173 -9.129,9.196C-9.287,9.287 -9.571,9.282 -10.229,9.174C-10.625,9.112 -10.983,9.045 -11.028,9.028C-11.073,9.009 -11.133,9.002 -11.166,9.007C-11.196,9.012 -11.176,8.981 -11.11,8.936C-11.049,8.891 -10.967,8.829 -10.93,8.794C-10.879,8.748 -10.723,8.757 -10.366,8.817C-10.096,8.864 -9.735,8.903 -9.569,8.903L-9.264,8.903L-9.258,8.173C-9.244,6.628 -9.225,5.998 -9.17,5.694C-9.121,5.407 -9.149,5.295 -9.234,5.434C-9.273,5.497 -9.385,5.448 -9.362,5.376C-9.33,5.289 -8.795,4.88 -8.715,4.88C-8.562,4.88 -8.043,4.582 -7.938,4.434L-7.832,4.286L-8.02,4.223C-8.123,4.19 -8.28,4.155 -8.37,4.141C-8.521,4.121 -8.532,4.131 -8.512,4.288L-8.487,4.454L-8.754,4.299C-8.952,4.184 -9.202,4.112 -9.739,4.02C-10.646,3.866 -10.998,3.78 -11.051,3.698C-11.072,3.664 -11.243,3.604 -11.438,3.567C-11.627,3.534 -11.948,3.465 -12.149,3.422C-12.351,3.375 -12.569,3.342 -12.636,3.342C-12.702,3.342 -12.835,3.305 -12.931,3.262C-13.146,3.161 -13.684,3.065 -13.982,3.071L-14.208,3.075L-13.849,3.243C-13.52,3.397 -13.097,3.522 -12.651,3.598C-12.553,3.618 -12.472,3.647 -12.472,3.668C-12.472,3.69 -12.393,3.729 -12.293,3.745C-12.043,3.793 -11.702,3.959 -11.701,4.036C-11.7,4.135 -11.843,4.165 -12.042,4.106C-12.14,4.079 -12.266,4.069 -12.319,4.085C-12.416,4.114 -12.781,4.018 -12.882,3.934C-12.911,3.911 -12.981,3.891 -13.037,3.891C-13.097,3.891 -13.125,3.868 -13.103,3.827C-13.082,3.796 -13.019,3.778 -12.96,3.796C-12.787,3.841 -12.843,3.784 -13.063,3.692C-13.176,3.643 -13.328,3.62 -13.4,3.635C-13.481,3.657 -13.567,3.637 -13.627,3.582C-13.837,3.393 -16,2.924 -16.94,2.864C-17.049,2.856 -17.173,2.832 -17.214,2.802C-17.255,2.778 -17.327,2.749 -17.374,2.739C-17.539,2.712 -18.063,2.573 -18.145,2.54C-18.19,2.518 -18.327,2.497 -18.449,2.485C-18.571,2.475 -18.694,2.454 -18.724,2.436C-18.817,2.379 -19.041,2.34 -19.439,2.305C-19.651,2.286 -20.047,2.225 -20.32,2.164C-21.164,1.981 -21.585,1.905 -21.643,1.928C-21.672,1.942 -21.743,2.018 -21.798,2.1C-21.855,2.184 -22.097,2.373 -22.336,2.528C-22.915,2.891 -23.171,3.091 -23.111,3.13C-23.084,3.147 -22.979,3.1 -22.878,3.024C-22.776,2.952 -22.671,2.888 -22.644,2.888C-22.616,2.888 -22.45,2.8 -22.274,2.698C-22.079,2.579 -21.92,2.516 -21.864,2.541C-21.804,2.561 -21.712,2.52 -21.597,2.411C-21.364,2.19 -21.258,2.161 -21.149,2.282C-21.065,2.375 -21.065,2.386 -21.147,2.47C-21.26,2.583 -21.138,2.593 -21.012,2.485C-20.888,2.375 -19.347,2.452 -19.108,2.584C-19.018,2.633 -18.886,2.674 -18.816,2.674C-18.748,2.674 -18.635,2.737 -18.569,2.809C-18.465,2.924 -18.383,2.952 -18.013,2.977C-17.775,2.995 -17.398,3.043 -17.174,3.09C-16.676,3.194 -16.214,3.262 -15.39,3.36C-15.042,3.401 -14.683,3.463 -14.591,3.495C-14.432,3.559 -14.431,3.559 -14.574,3.539C-14.831,3.509 -14.887,3.6 -14.673,3.696C-14.541,3.759 -14.524,3.776 -14.619,3.757C-14.694,3.739 -14.813,3.729 -14.881,3.727C-14.948,3.727 -14.999,3.698 -14.99,3.663C-14.982,3.627 -15.04,3.594 -15.114,3.588C-15.19,3.584 -15.32,3.563 -15.403,3.538C-15.494,3.514 -15.554,3.516 -15.554,3.553C-15.554,3.622 -16.02,3.577 -16.272,3.487C-16.378,3.446 -16.701,3.383 -16.988,3.352C-17.275,3.321 -17.609,3.282 -17.73,3.264C-17.852,3.247 -18.192,3.206 -18.488,3.172C-18.783,3.135 -19.025,3.086 -19.025,3.061C-19.025,3.039 -18.958,3.014 -18.874,3.012C-18.724,3.01 -18.726,3.008 -18.91,2.928C-19.013,2.883 -19.145,2.864 -19.203,2.881C-19.267,2.903 -19.351,2.875 -19.415,2.819C-19.516,2.723 -19.521,2.723 -19.527,2.827C-19.53,2.891 -19.53,2.964 -19.525,2.998C-19.516,3.08 -19.851,2.996 -19.908,2.901C-19.985,2.776 -20.276,2.671 -20.567,2.657C-20.938,2.639 -21.118,2.718 -21.107,2.873C-21.103,2.936 -21.118,3.071 -21.143,3.177C-21.171,3.309 -21.167,3.354 -21.124,3.323C-21.086,3.302 -21.062,3.332 -21.062,3.397C-21.062,3.46 -21.085,3.509 -21.115,3.509C-21.146,3.509 -21.158,3.577 -21.145,3.659C-21.111,3.858 -21.046,4.805 -21.031,5.325C-21.025,5.555 -21.01,6.036 -21,6.399C-20.987,6.762 -21.002,7.11 -21.03,7.169C-21.073,7.264 -21.068,7.272 -21.003,7.223C-20.857,7.11 -19.585,7.307 -19.144,7.511C-19.024,7.567 -18.893,7.582 -18.771,7.561C-18.592,7.53 -18.583,7.514 -18.583,7.29C-18.583,7.161 -18.562,7.03 -18.532,7.002C-18.505,6.977 -18.446,6.827 -18.403,6.676C-18.333,6.426 -18.295,6.383 -18.007,6.223C-17.731,6.069 -17.64,6.041 -17.292,6.041C-16.952,6.041 -16.864,6.063 -16.706,6.182C-16.602,6.256 -16.476,6.332 -16.421,6.354C-16.368,6.374 -16.325,6.418 -16.325,6.458C-16.325,6.498 -16.304,6.538 -16.281,6.548C-16.257,6.561 -16.181,6.759 -16.113,6.995C-15.981,7.455 -15.993,7.768 -16.145,7.83C-16.281,7.882 -16.363,7.702 -16.399,7.266C-16.438,6.825 -16.444,6.805 -16.67,6.538C-16.796,6.391 -16.883,6.35 -17.186,6.299C-17.515,6.239 -17.555,6.243 -17.623,6.338C-17.662,6.393 -17.717,6.424 -17.743,6.405C-17.77,6.386 -17.814,6.393 -17.843,6.415C-17.935,6.477 -18.198,7.082 -18.198,7.223C-18.198,7.368 -18.5,7.692 -18.633,7.694C-18.743,7.694 -18.669,8.182 -18.545,8.274C-18.432,8.356 -18.366,9.014 -18.356,10.186C-18.353,10.79 -18.333,10.957 -18.265,11.012C-18.192,11.073 -18.186,11.053 -18.211,10.854C-18.229,10.729 -18.221,10.592 -18.194,10.551C-18.168,10.508 -18.148,10.84 -18.148,11.329C-18.148,11.799 -18.171,12.221 -18.2,12.266C-18.237,12.325 -18.253,12.278 -18.256,12.1C-18.258,11.963 -18.28,11.75 -18.306,11.631C-18.342,11.45 -18.354,11.514 -18.358,11.948C-18.361,12.248 -18.342,12.475 -18.316,12.461C-18.253,12.422 -18.238,14.055 -18.298,14.274C-18.323,14.364 -18.382,14.446 -18.428,14.458C-18.499,14.475 -18.521,14.362 -18.553,13.823C-18.575,13.468 -18.59,12.944 -18.586,12.667C-18.582,12.339 -18.604,12.112 -18.65,12.032C-18.698,11.946 -18.722,11.659 -18.726,11.136C-18.731,9.77 -18.756,8.616 -18.789,8.192L-18.818,7.778L-19.238,7.778C-19.468,7.776 -19.928,7.733 -20.259,7.68C-20.59,7.625 -20.895,7.582 -20.935,7.582C-21.039,7.582 -21.024,7.841 -20.917,7.882C-20.836,7.913 -20.835,7.927 -20.908,8.014C-20.975,8.089 -20.991,8.311 -20.997,9.125C-21,9.755 -21.034,10.345 -21.086,10.669C-21.179,11.237 -21.195,11.639 -21.129,11.682C-21.107,11.699 -21.107,11.878 -21.131,12.085C-21.186,12.555 -21.293,14.819 -21.283,15.286C-21.276,15.618 -21.279,15.631 -21.383,15.565C-21.557,15.458 -21.591,14.399 -21.457,13.372C-21.379,12.788 -21.366,12.534 -21.407,12.415C-21.441,12.317 -21.447,12.082 -21.423,11.809C-21.401,11.561 -21.373,10.991 -21.36,10.536C-21.339,9.731 -21.338,9.516 -21.344,8.512C-21.345,8.219 -21.322,7.995 -21.282,7.949C-21.248,7.905 -21.227,7.836 -21.236,7.792C-21.252,7.729 -21.298,7.731 -21.503,7.826C-22.486,8.28 -22.758,8.42 -22.821,8.496C-22.917,8.61 -22.979,8.604 -23,8.477C-23.015,8.397 -23.043,8.383 -23.135,8.416C-23.24,8.455 -23.248,8.483 -23.207,8.696C-23.146,9.01 -23.144,9.512 -23.202,9.512C-23.227,9.512 -23.292,9.199 -23.344,8.809C-23.398,8.421 -23.461,8.081 -23.486,8.051C-23.51,8.024 -23.542,7.946 -23.557,7.887C-23.57,7.826 -23.586,7.916 -23.59,8.094C-23.596,8.369 -23.61,8.408 -23.707,8.408C-23.821,8.408 -23.83,8.38 -23.823,7.994C-23.82,7.78 -23.822,7.778 -23.872,7.934C-23.899,8.024 -23.919,8.227 -23.916,8.387C-23.908,8.617 -23.886,8.686 -23.808,8.711C-23.627,8.768 -23.722,8.934 -24.054,9.141C-24.167,9.213 -24.194,9.258 -24.153,9.307C-24.124,9.344 -24.085,9.487 -24.069,9.621C-24.053,9.755 -24.054,9.823 -24.071,9.766C-24.087,9.713 -24.124,9.668 -24.151,9.668C-24.216,9.668 -24.215,9.692 -24.137,9.955C-24.088,10.116 -24.087,10.233 -24.134,10.43C-24.167,10.575 -24.21,11.237 -24.229,11.901C-24.248,12.567 -24.284,13.325 -24.312,13.583C-24.339,13.841 -24.377,14.2 -24.396,14.382C-24.416,14.567 -24.454,14.833 -24.481,14.985C-24.623,15.731 -24.467,15.643 -24.21,14.835C-24.114,14.536 -24.038,14.247 -24.038,14.192C-24.038,14.135 -23.99,13.86 -23.934,13.575C-23.848,13.147 -23.837,12.975 -23.879,12.594C-23.974,11.741 -24.022,10.415 -23.962,10.358C-23.942,10.337 -23.927,10.253 -23.927,10.165C-23.927,9.977 -23.799,9.977 -23.772,10.169C-23.762,10.233 -23.729,10.29 -23.697,10.29C-23.666,10.29 -23.652,10.237 -23.667,10.182C-23.714,10.003 -23.579,9.494 -23.479,9.479C-23.406,9.46 -23.396,9.503 -23.418,9.741C-23.441,9.985 -23.435,10.012 -23.354,9.983C-23.272,9.954 -23.261,9.987 -23.273,10.245C-23.279,10.407 -23.263,10.913 -23.235,11.368C-23.175,12.346 -23.168,13.981 -23.221,14.272C-23.257,14.469 -23.25,14.485 -23.048,14.584C-22.81,14.707 -22.775,14.77 -22.81,15.003C-22.839,15.2 -23.045,15.373 -23.045,15.198C-23.045,15.141 -23.083,15.022 -23.127,14.936C-23.204,14.79 -23.21,14.79 -23.21,14.901C-23.21,15.04 -23.289,15.067 -23.357,14.957C-23.38,14.921 -23.403,14.26 -23.406,13.483C-23.413,11.995 -23.475,10.61 -23.539,10.565C-23.56,10.546 -23.594,10.491 -23.615,10.432C-23.71,10.173 -23.74,10.589 -23.676,11.249C-23.667,11.344 -23.658,11.594 -23.655,11.811C-23.652,12.151 -23.637,12.206 -23.554,12.198C-23.478,12.19 -23.455,12.241 -23.441,12.457C-23.429,12.62 -23.446,12.712 -23.478,12.69C-23.506,12.669 -23.518,12.608 -23.501,12.544C-23.484,12.481 -23.498,12.438 -23.53,12.438C-23.569,12.438 -23.59,12.77 -23.591,13.448C-23.592,14.489 -23.61,14.623 -23.757,14.733C-23.825,14.788 -23.83,14.811 -23.774,14.87C-23.682,14.964 -23.688,15.026 -23.791,15.026C-23.885,15.026 -23.994,15.262 -23.95,15.375C-23.935,15.416 -23.982,15.477 -24.063,15.514C-24.14,15.548 -24.203,15.614 -24.203,15.659C-24.203,15.702 -24.24,15.75 -24.288,15.766C-24.343,15.788 -24.359,15.778 -24.335,15.737C-24.255,15.608 -24.718,15.911 -25.136,16.258C-25.182,16.295 -25.344,16.389 -25.5,16.463C-25.778,16.602 -25.797,16.617 -25.802,16.751C-25.803,16.79 -25.841,16.753 -25.886,16.67C-25.932,16.586 -26.016,16.52 -26.072,16.52C-26.147,16.52 -26.168,16.492 -26.147,16.415C-26.131,16.352 -26.091,16.311 -26.06,16.315C-26.026,16.323 -25.991,16.278 -25.98,16.215C-25.929,15.924 -25.903,15.858 -25.852,15.889C-25.821,15.91 -25.811,15.969 -25.83,16.03C-25.872,16.162 -25.767,16.171 -25.701,16.04C-25.675,15.985 -25.65,15.725 -25.646,15.446L-25.638,14.953L-25.71,15.244C-25.871,15.88 -25.901,15.604 -25.762,14.798C-25.682,14.333 -25.677,14.192 -25.734,13.798C-25.774,13.528 -25.782,13.285 -25.754,13.21C-25.608,12.807 -25.562,12.104 -25.628,11.307C-25.672,10.79 -25.677,10.494 -25.643,10.473C-25.613,10.452 -25.581,10.369 -25.571,10.28C-25.552,10.128 -25.399,9.966 -25.333,10.035C-25.316,10.055 -25.322,10.121 -25.346,10.186C-25.371,10.249 -25.367,10.535 -25.34,10.813C-25.307,11.155 -25.311,11.59 -25.354,12.147C-25.387,12.602 -25.417,13.63 -25.417,14.44L-25.417,15.91L-25.21,15.885C-24.83,15.837 -24.736,15.723 -24.667,15.201C-24.632,14.944 -24.565,14.501 -24.52,14.215C-24.402,13.496 -24.376,13.03 -24.364,11.417C-24.355,10.169 -24.377,9.803 -24.446,10.035C-24.458,10.076 -24.499,10.508 -24.533,10.991C-24.614,12.104 -24.905,14.481 -24.979,14.626C-25.017,14.705 -25.022,14.578 -25,14.215C-24.98,13.928 -24.947,13.665 -24.925,13.637C-24.888,13.585 -24.891,13.467 -24.934,12.975C-24.943,12.876 -24.923,12.817 -24.887,12.826C-24.824,12.837 -24.797,12.641 -24.7,11.492C-24.604,10.333 -24.587,9.817 -24.652,10.033C-24.685,10.137 -24.745,10.323 -24.785,10.444L-24.856,10.665L-24.86,10.44C-24.868,10.1 -24.719,9.66 -24.586,9.619C-24.459,9.578 -24.462,9.397 -24.589,9.397C-24.64,9.397 -24.687,9.313 -24.713,9.174C-24.753,8.967 -24.977,8.653 -25.082,8.653C-25.213,8.653 -25.404,9.125 -25.423,9.495C-25.431,9.623 -25.445,9.76 -25.459,9.797C-25.495,9.901 -25.582,9.881 -25.583,9.774C-25.583,9.696 -25.604,9.702 -25.688,9.813C-25.842,10.012 -25.886,9.911 -25.782,9.584C-25.732,9.432 -25.691,9.26 -25.691,9.204C-25.691,9.082 -25.467,8.641 -25.377,8.584C-25.341,8.563 -25.278,8.51 -25.237,8.469C-25.137,8.367 -24.842,8.331 -24.769,8.411C-24.735,8.444 -24.65,8.598 -24.581,8.756C-24.51,8.913 -24.437,9.038 -24.417,9.04C-24.398,9.04 -24.328,8.995 -24.26,8.94C-24.153,8.852 -24.139,8.786 -24.128,8.313C-24.119,7.831 -24.104,7.764 -23.965,7.584C-23.881,7.477 -23.79,7.387 -23.761,7.387C-23.733,7.387 -23.708,7.338 -23.708,7.282C-23.708,7.162 -23.313,6.837 -23.281,6.928C-23.271,6.962 -23.231,6.981 -23.195,6.966C-23.082,6.921 -22.966,7.28 -22.966,7.688L-22.965,8.073L-22.773,8.057C-22.59,8.04 -22.117,7.856 -22.058,7.774C-22.042,7.753 -21.864,7.653 -21.662,7.546C-21.245,7.332 -21.217,7.276 -21.308,6.817C-21.346,6.623 -21.354,6.254 -21.329,5.778C-21.281,4.889 -21.302,4.34 -21.383,4.311C-21.417,4.299 -21.434,4.262 -21.42,4.225C-21.407,4.19 -21.387,3.969 -21.376,3.735C-21.365,3.506 -21.327,3.274 -21.289,3.229C-21.251,3.184 -21.235,3.123 -21.255,3.086C-21.275,3.057 -21.272,2.998 -21.25,2.961C-21.141,2.786 -21.191,2.729 -21.446,2.735C-21.768,2.745 -22.056,2.807 -22.056,2.872C-22.056,2.895 -22.113,2.92 -22.185,2.92C-22.255,2.92 -22.372,2.971 -22.44,3.03C-22.509,3.09 -22.663,3.176 -22.779,3.231C-22.896,3.284 -22.992,3.342 -22.992,3.372C-22.992,3.395 -23.029,3.415 -23.074,3.415C-23.178,3.415 -23.181,3.51 -23.08,3.61C-23.013,3.673 -22.957,3.666 -22.675,3.538C-22.487,3.452 -22.358,3.36 -22.371,3.321C-22.392,3.256 -22.01,3.053 -21.961,3.104C-21.877,3.188 -22.756,3.852 -22.954,3.854C-23.078,3.856 -23.936,4.547 -24.638,5.215C-24.773,5.344 -24.998,5.502 -25.136,5.569C-25.374,5.684 -25.686,5.88 -25.746,5.95C-25.761,5.971 -25.946,6.094 -26.158,6.223C-26.371,6.356 -26.563,6.489 -26.585,6.52C-26.645,6.604 -26.636,6.669 -26.572,6.631C-26.542,6.61 -26.518,6.616 -26.52,6.645C-26.521,6.666 -26.561,7.133 -26.607,7.68C-26.655,8.225 -26.699,8.792 -26.708,8.948C-26.715,9.1 -26.737,9.325 -26.76,9.45C-26.801,9.682 -26.717,10.135 -26.634,10.135C-26.61,10.135 -26.545,10.085 -26.49,10.028C-26.333,9.854 -26.211,9.841 -26.052,9.991C-25.853,10.178 -25.908,10.268 -26.385,10.53C-26.609,10.651 -26.806,10.774 -26.822,10.8C-26.838,10.825 -26.811,10.909 -26.76,10.989C-26.657,11.145 -26.694,11.321 -26.82,11.274C-26.865,11.253 -26.902,11.264 -26.902,11.292C-26.902,11.319 -26.875,11.352 -26.841,11.36C-26.797,11.374 -26.796,11.438 -26.838,11.588C-26.88,11.737 -26.875,11.938 -26.817,12.329C-26.773,12.623 -26.745,13.069 -26.752,13.331C-26.76,13.588 -26.745,14.258 -26.717,14.815C-26.676,15.669 -26.683,15.899 -26.754,16.219C-26.845,16.625 -26.937,17.336 -26.908,17.43C-26.899,17.459 -26.882,17.858 -26.869,18.311L-26.844,19.137L-27.017,19.37C-27.111,19.498 -27.212,19.602 -27.243,19.602C-27.312,19.602 -27.477,19.764 -27.442,19.797C-27.402,19.836 -27.021,19.663 -26.706,19.461C-26.548,19.358 -26.404,19.293 -26.386,19.313C-26.368,19.332 -26.354,19.321 -26.354,19.288C-26.354,19.254 -26.298,19.209 -26.23,19.186C-26.016,19.12 -24.922,18.37 -24.891,18.266C-24.873,18.209 -24.834,18.184 -24.804,18.203C-24.774,18.223 -24.708,18.2 -24.657,18.155C-24.508,18.022 -23.368,17.424 -22.856,17.205C-22.735,17.151 -22.603,17.083 -22.561,17.051C-22.519,17.018 -22.457,16.989 -22.422,16.987C-22.303,16.979 -22.059,16.854 -22.059,16.799C-22.059,16.77 -22.004,16.696 -21.94,16.637C-21.848,16.549 -21.758,16.53 -21.513,16.537C-21.219,16.551 -21.205,16.557 -21.224,16.682C-21.253,16.891 -21.335,17.01 -21.449,17.01C-21.521,17.01 -21.545,17.039 -21.526,17.114C-21.499,17.219 -21.745,17.374 -21.843,17.309C-21.94,17.249 -22.23,17.35 -22.406,17.504C-22.503,17.588 -22.792,17.766 -23.05,17.901C-23.308,18.036 -23.678,18.248 -23.874,18.375C-24.068,18.503 -24.25,18.606 -24.274,18.606C-24.298,18.606 -24.501,18.743 -24.723,18.911C-25.122,19.212 -25.278,19.272 -25.32,19.147C-25.334,19.106 -25.461,19.155 -25.67,19.286C-25.852,19.397 -26.019,19.489 -26.042,19.489C-26.095,19.489 -26.432,19.723 -26.456,19.778C-26.465,19.798 -26.507,19.819 -26.547,19.819C-26.587,19.819 -26.749,19.883 -26.904,19.965C-27.173,20.106 -27.188,20.12 -27.155,20.278C-27.016,20.967 -27.002,21.176 -27.063,21.739C-27.154,22.587 -27.168,22.528 -26.892,22.424C-26.762,22.373 -26.45,22.237 -26.197,22.122C-25.944,22.005 -25.715,21.905 -25.687,21.905C-25.657,21.905 -25.484,21.832 -25.3,21.737C-25.116,21.643 -24.954,21.582 -24.938,21.594C-24.923,21.61 -24.994,21.659 -25.095,21.708C-25.197,21.755 -25.366,21.844 -25.473,21.903C-25.82,22.098 -26.839,22.563 -26.922,22.563C-26.966,22.563 -27.018,22.598 -27.033,22.643C-27.054,22.7 -27.037,22.711 -26.97,22.694C-26.919,22.675 -26.958,22.716 -27.057,22.784C-27.155,22.85 -27.235,22.926 -27.235,22.95C-27.235,22.973 -27.336,23.098 -27.458,23.225C-27.582,23.354 -27.672,23.466 -27.662,23.477C-27.65,23.489 -27.445,23.399 -27.206,23.28C-26.964,23.159 -26.736,23.061 -26.698,23.059C-26.662,23.059 -26.63,23.034 -26.63,23C-26.63,22.967 -26.595,22.942 -26.551,22.942C-26.508,22.942 -26.329,22.873 -26.152,22.782C-25.977,22.69 -25.522,22.471 -25.144,22.295C-24.764,22.112 -24.116,21.807 -23.702,21.606C-22.955,21.245 -22.831,21.2 -22.831,21.288C-22.831,21.362 -27.298,23.557 -27.449,23.557C-27.56,23.557 -28.007,23.979 -28.008,24.079C-28.008,24.278 -28.208,24.567 -28.427,24.69C-28.583,24.776 -28.647,24.85 -28.659,24.961C-28.678,25.108 -28.676,25.108 -28.55,25.022C-28.479,24.971 -28.347,24.891 -28.256,24.846C-28.014,24.727 -27.906,24.657 -27.54,24.375C-27.162,24.086 -26.68,23.774 -26.438,23.668C-26.101,23.518 -25.85,23.382 -25.804,23.325C-25.789,23.303 -25.566,23.221 -25.309,23.137C-25.051,23.05 -24.801,22.948 -24.753,22.907C-24.706,22.869 -24.627,22.838 -24.58,22.838C-24.532,22.838 -24.323,22.707 -24.115,22.547C-23.775,22.285 -23.292,22.012 -23.169,22.012C-23.106,22.012 -22.11,21.471 -22.003,21.379C-21.958,21.34 -21.84,21.27 -21.74,21.217C-21.573,21.133 -21.559,21.133 -21.525,21.219C-21.471,21.36 -21.569,21.477 -21.871,21.624C-22.021,21.698 -22.255,21.836 -22.391,21.926C-22.821,22.207 -23.183,22.434 -23.38,22.539C-23.486,22.598 -23.588,22.665 -23.607,22.688C-23.627,22.71 -23.693,22.76 -23.755,22.794C-24.259,23.076 -25.075,23.555 -25.409,23.766C-26.168,24.244 -26.304,24.321 -26.673,24.507C-27.361,24.862 -28.127,25.2 -28.233,25.2C-28.292,25.2 -28.337,25.169 -28.337,25.132C-28.337,25.012 -28.486,25.219 -28.525,25.395C-28.548,25.501 -28.544,25.537 -28.51,25.485C-28.472,25.425 -28.451,25.448 -28.427,25.567C-28.379,25.798 -28.287,26.823 -28.271,27.295C-28.256,27.7 -28.261,27.716 -28.521,28.145C-28.667,28.381 -28.82,28.616 -28.864,28.66C-28.908,28.705 -28.972,28.796 -29.007,28.858C-29.042,28.922 -29.225,29.211 -29.413,29.503C-30.4,31.012 -30.321,30.852 -30.204,31.094C-30.149,31.203 -30.074,31.41 -30.037,31.555C-29.973,31.796 -29.977,31.827 -30.082,31.921C-30.172,32.005 -30.202,32.121 -30.231,32.516C-30.251,32.787 -30.296,33.342 -30.333,33.755C-30.381,34.323 -30.382,34.624 -30.333,34.983C-30.292,35.295 -30.288,35.557 -30.319,35.748C-30.442,36.457 -30.478,38.104 -30.372,38.143C-30.343,38.155 -30.335,38.188 -30.354,38.219C-30.374,38.249 -30.399,38.44 -30.413,38.641C-30.425,38.842 -30.458,39.08 -30.487,39.169C-30.516,39.262 -30.535,39.741 -30.529,40.241C-30.519,41.294 -30.565,41.729 -30.689,41.729C-30.752,41.729 -30.763,41.692 -30.733,41.578C-30.712,41.496 -30.686,40.926 -30.674,40.307C-30.663,39.694 -30.638,39.163 -30.619,39.134C-30.598,39.1 -30.641,39.094 -30.728,39.114C-30.901,39.157 -30.908,39.092 -30.787,38.505C-30.719,38.182 -30.714,38.026 -30.761,37.731C-30.822,37.352 -30.854,36.46 -30.831,35.835L-30.829,35.835L-30.834,35.854Z" style="fill-rule:nonzero;"/>
    </g>
</svg>
