<?xml version="1.0" encoding="UTF-8" standalone="no"?>
<svg
   width="500"
   height="500"
   viewBox="0 0 500 500"
   version="1.1"
   xml:space="preserve"
   style="clip-rule:evenodd;fill-rule:evenodd;stroke-linejoin:round;stroke-miterlimit:2"
   id="svg6"
   sodipodi:docname="Clocher-Audrix.svg"
   inkscape:version="1.2.2 (732a01da63, 2022-12-09)"
   xmlns:inkscape="http://www.inkscape.org/namespaces/inkscape"
   xmlns:sodipodi="http://sodipodi.sourceforge.net/DTD/sodipodi-0.dtd"
   xmlns="http://www.w3.org/2000/svg"
   xmlns:svg="http://www.w3.org/2000/svg"><defs
   id="defs10" /><sodipodi:namedview
   id="namedview8"
   pagecolor="#ffffff"
   bordercolor="#000000"
   borderopacity="0.25"
   inkscape:showpageshadow="2"
   inkscape:pageopacity="0.0"
   inkscape:pagecheckerboard="0"
   inkscape:deskcolor="#d1d1d1"
   showgrid="false"
   inkscape:zoom="1.2149254"
   inkscape:cx="81.486485"
   inkscape:cy="207.83169"
   inkscape:window-width="1920"
   inkscape:window-height="1001"
   inkscape:window-x="-9"
   inkscape:window-y="-9"
   inkscape:window-maximized="1"
   inkscape:current-layer="svg6" />
    <g
   transform="matrix(8.7443785,0,0,8.7443785,236.97608,415.22661)"
   id="g4"
   style="fill:#efeeec;fill-opacity:1;stroke:none">
        <path
   d="m 0,-39.512 c -0.016,-0.061 -0.012,-0.125 0.008,-0.145 0.02,-0.021 0.04,0.03 0.045,0.11 0.012,0.172 -0.015,0.189 -0.053,0.035 z m -9.83,8.777 c 0.014,-0.021 0.033,-0.041 0.044,-0.041 0.01,0 0.018,0.02 0.018,0.041 0,0.024 -0.02,0.041 -0.044,0.041 -0.024,0 -0.032,-0.017 -0.018,-0.041 z m 3.297,0.309 c 0,-0.035 0.019,-0.053 0.041,-0.039 0.022,0.014 0.041,0.043 0.041,0.064 0,0.022 -0.019,0.039 -0.041,0.039 -0.022,0 -0.041,-0.029 -0.041,-0.064 z m 6.884,1.994 c -0.065,-0.079 -0.03,-0.126 0.057,-0.076 0.039,0.021 0.051,0.057 0.031,0.088 -0.027,0.043 -0.045,0.039 -0.088,-0.012 z m -6.65,2.149 c -0.041,-0.041 -0.033,-0.241 0.011,-0.286 0.021,-0.021 0.043,-0.142 0.049,-0.267 0.005,-0.125 0.024,-0.272 0.043,-0.322 0.02,-0.053 0.056,-0.313 0.082,-0.569 0.031,-0.303 0.065,-0.471 0.095,-0.467 0.025,0.006 0.063,-0.068 0.084,-0.164 0.024,-0.11 0.071,-0.189 0.131,-0.222 0.111,-0.064 0.2,-0.021 0.161,0.078 -0.016,0.039 -0.045,0.187 -0.064,0.338 -0.06,0.437 -0.114,0.711 -0.155,0.761 -0.021,0.026 -0.052,0.196 -0.068,0.377 -0.046,0.489 -0.237,0.873 -0.369,0.743 z m -6.937,0.226 c -0.017,-0.027 -0.01,-0.033 0.02,-0.016 0.026,0.016 0.048,0.01 0.048,-0.015 0,-0.024 0.019,-0.043 0.042,-0.043 0.063,0 0.049,0.065 -0.02,0.098 -0.034,0.011 -0.074,0.001 -0.09,-0.024 z m -0.492,0.589 c 0.014,-0.023 0.034,-0.042 0.044,-0.042 0.01,0 0.019,0.019 0.019,0.042 0,0.022 -0.021,0.042 -0.044,0.042 -0.025,0 -0.034,-0.02 -0.019,-0.042 z m 8.152,0.017 c 0.002,-0.047 0.012,-0.062 0.024,-0.025 0.012,0.03 0.011,0.066 -0.003,0.079 -0.014,0.014 -0.023,-0.011 -0.021,-0.054 z m 8.521,0.568 c -0.03,-0.049 0.016,-0.17 0.064,-0.17 0.021,0 0.037,0.047 0.037,0.104 0,0.102 -0.056,0.138 -0.101,0.066 z m -17.274,0.109 c 0.002,-0.066 0.189,-0.279 0.246,-0.279 0.023,0 0.043,-0.027 0.043,-0.061 0,-0.032 0.019,-0.07 0.042,-0.085 0.1,-0.064 0.028,0.113 -0.104,0.251 -0.08,0.086 -0.146,0.17 -0.146,0.188 0,0.018 -0.019,0.036 -0.041,0.036 -0.022,0.003 -0.04,-0.02 -0.04,-0.05 z m 8.417,0.071 c 0,-0.064 0.019,-0.1 0.042,-0.08 0.022,0.013 0.041,0.061 0.041,0.103 0,0.045 -0.019,0.081 -0.041,0.081 -0.022,0 -0.042,-0.046 -0.042,-0.104 z m 11.947,1.078 c 0.002,-0.049 0.012,-0.059 0.024,-0.021 0.013,0.025 0.011,0.064 -0.003,0.075 -0.014,0.014 -0.023,-0.011 -0.021,-0.054 z m -10.154,-1.352 c 0.018,-0.118 0.015,-0.123 -0.036,-0.055 -0.063,0.088 -0.074,0.186 -0.02,0.186 0.021,0 0.046,-0.059 0.056,-0.131 z m -1.046,1.778 c 0,-0.116 0.152,-0.189 0.527,-0.237 0.432,-0.06 0.394,-0.019 0.512,-0.553 0.033,-0.15 0.082,-0.255 0.129,-0.281 0.064,-0.033 0.076,-0.094 0.075,-0.4 0,-0.199 -0.019,-0.391 -0.041,-0.424 -0.021,-0.035 -0.041,-0.045 -0.043,-0.022 -0.019,0.26 -0.041,0.362 -0.112,0.54 -0.049,0.123 -0.113,0.212 -0.157,0.227 -0.067,0.017 -0.071,-0.02 -0.049,-0.358 0.024,-0.369 0.097,-0.67 0.163,-0.67 0.018,0 0.034,0.03 0.035,0.069 0.003,0.064 0.009,0.064 0.031,0.013 0.016,-0.031 0.065,-0.065 0.11,-0.065 0.146,0.002 0.187,0.171 0.187,0.77 0,0.728 -0.041,0.892 -0.164,0.635 l -0.055,-0.116 -0.031,0.106 c -0.017,0.058 -0.033,0.209 -0.035,0.338 l -0.004,0.232 -0.175,0.069 c -0.096,0.037 -0.23,0.067 -0.3,0.067 -0.113,0.001 -0.32,0.041 -0.531,0.104 -0.044,0.006 -0.072,-0.007 -0.072,-0.044 z m -1.534,0.472 c 0,-0.045 0.102,-0.087 0.21,-0.087 0.097,0 0.105,0.064 0.015,0.099 -0.098,0.037 -0.225,0.031 -0.225,-0.012 z m 9.233,0.63 c -0.017,-0.026 -0.056,-0.04 -0.087,-0.028 -0.09,0.035 -0.117,-0.188 -0.063,-0.506 0.077,-0.451 0.131,-0.465 0.104,-0.027 -0.015,0.24 -0.008,0.388 0.018,0.388 0.022,0 0.042,-0.056 0.043,-0.114 10e-4,-0.094 0.008,-0.105 0.041,-0.045 0.048,0.075 -0.008,0.409 -0.056,0.332 z m -9.338,1.035 c 0.017,-0.063 0.039,-0.19 0.051,-0.286 0.018,-0.148 0.009,-0.176 -0.066,-0.199 -0.104,-0.033 -0.12,-0.099 -0.144,-0.582 -0.01,-0.205 -0.031,-0.422 -0.046,-0.479 -0.026,-0.099 -0.018,-0.105 0.122,-0.11 0.146,-0.004 0.149,-0.001 0.092,0.087 -0.094,0.142 -0.043,0.663 0.082,0.848 0.071,0.105 0.098,0.201 0.098,0.363 0,0.209 0.005,0.221 0.113,0.231 0.167,0.021 0.14,0.116 -0.052,0.185 -0.248,0.084 -0.285,0.076 -0.25,-0.058 z m 25.712,0.529 c -0.015,-0.023 -0.006,-0.041 0.018,-0.041 0.024,0 0.044,0.018 0.044,0.041 0,0.02 -0.008,0.041 -0.018,0.041 -0.01,0 -0.03,-0.018 -0.044,-0.041 z m -23.996,1.201 c 0.104,-0.086 0.213,-0.104 0.213,-0.041 0,0.052 -0.14,0.127 -0.235,0.125 -0.066,-0.002 -0.063,-0.014 0.022,-0.084 z m -10.615,0.783 c -0.009,-0.113 0.014,-0.3 0.045,-0.384 0.029,-0.075 0.037,-0.067 0.063,0.064 0.016,0.082 0.022,0.188 0.015,0.246 -0.015,0.103 -0.115,0.164 -0.123,0.074 z m 8.63,1.168 c 0,-0.022 0.038,-0.059 0.083,-0.082 0.065,-0.035 0.083,-0.088 0.083,-0.238 0,-0.352 0.095,-1.131 0.146,-1.202 0.036,-0.048 0.105,-0.062 0.238,-0.06 0.184,0.006 0.188,0.004 0.215,-0.139 0.016,-0.08 0.052,-0.146 0.082,-0.146 0.044,0 0.052,0.113 0.038,0.55 -0.019,0.558 -0.075,0.944 -0.139,0.944 -0.031,0 -0.057,-0.508 -0.047,-0.922 0.004,-0.162 -0.06,-0.248 -0.103,-0.139 -0.014,0.035 -0.048,0.065 -0.077,0.065 -0.13,0 -0.162,0.129 -0.164,0.672 l -0.003,0.539 0.322,-0.028 c 0.271,-0.023 0.325,-0.017 0.347,0.037 0.054,0.141 -0.05,0.176 -0.543,0.181 -0.268,0.003 -0.478,-0.011 -0.478,-0.032 z m 2.322,0.041 c 0,-0.045 0.02,-0.082 0.042,-0.082 0.022,0 0.041,0.037 0.041,0.082 0,0.047 -0.019,0.084 -0.041,0.084 -0.022,0 -0.042,-0.037 -0.042,-0.084 z m -1.368,0.084 c 0,-0.024 0.019,-0.043 0.042,-0.043 0.022,0 0.041,0.019 0.041,0.043 0,0.021 -0.019,0.041 -0.041,0.041 -0.023,0 -0.042,-0.02 -0.042,-0.041 z m 9.656,-4.594 c -0.013,-0.243 -0.005,-0.277 0.055,-0.267 0.056,0.007 0.075,-0.036 0.099,-0.219 0.032,-0.264 0.011,-0.35 -0.095,-0.384 -0.04,-0.015 -0.213,-0.073 -0.384,-0.146 -0.171,-0.064 -0.323,-0.119 -0.338,-0.119 -0.021,0.002 -0.094,0.963 -0.097,1.284 -0.001,0.046 0.069,0.062 0.31,0.076 0.171,0.006 0.33,0.02 0.353,0.025 0.099,0.045 0.11,0.016 0.097,-0.25 z m -0.221,3.96 c 0.017,-0.173 0.009,-0.405 -0.017,-0.546 -0.025,-0.137 -0.046,-0.406 -0.046,-0.601 L 3.252,-19.393 3.097,-19.465 C 3.012,-19.504 2.9,-19.543 2.847,-19.547 l -0.096,-0.011 -0.012,0.829 c -0.011,0.821 -0.01,0.832 0.091,0.985 0.092,0.14 0.12,0.156 0.28,0.156 h 0.177 z m -0.809,2.251 c -0.005,-0.126 -0.007,-0.285 -0.004,-0.353 0.002,-0.069 0.021,-0.666 0.043,-1.327 0.051,-1.545 0.053,-3.246 0.004,-3.275 -0.021,-0.013 -0.049,-0.005 -0.063,0.02 -0.063,0.104 -0.085,0.021 -0.069,-0.247 l 0.016,-0.284 -0.118,-0.022 C 2.251,-21.145 2.16,-21.17 2.114,-21.192 1.945,-21.261 1.84,-21.267 1.817,-21.209 c -0.013,0.029 -0.05,0.058 -0.083,0.058 -0.049,0 -0.054,0.037 -0.026,0.198 0.041,0.236 0.038,0.673 -0.006,0.908 l -0.033,0.174 0.161,-0.037 c 0.232,-0.053 0.472,-0.008 0.472,0.089 0,0.082 -0.062,0.104 -0.103,0.039 -0.014,-0.021 -0.142,-0.003 -0.303,0.041 -0.153,0.045 -0.358,0.081 -0.455,0.081 -0.149,0 -0.177,-0.012 -0.177,-0.083 0,-0.074 0.023,-0.091 0.109,-0.08 0.015,0.002 0.064,-0.056 0.111,-0.128 0.074,-0.12 0.085,-0.206 0.089,-0.727 0.003,-0.625 0.038,-0.753 0.192,-0.701 0.041,0.011 0.116,0.002 0.165,-0.026 0.068,-0.032 0.111,-0.032 0.181,0.002 0.05,0.026 0.168,0.039 0.263,0.028 0.172,-0.022 0.173,-0.02 0.197,0.132 0.044,0.271 0.051,0.28 0.062,0.09 0.005,-0.103 0.016,-0.23 0.023,-0.291 0.007,-0.056 0.021,-0.349 0.029,-0.646 0.013,-0.424 0.005,-0.541 -0.035,-0.524 -0.037,0.017 -0.051,-0.046 -0.049,-0.23 0.003,-0.265 -0.031,-0.354 -0.096,-0.25 -0.032,0.053 -0.038,0.051 -0.039,-0.009 -0.001,-0.123 0.048,-0.2 0.128,-0.2 0.097,0 0.093,0.034 0.08,-0.757 -0.008,-0.459 0.003,-0.651 0.035,-0.651 0.025,0 0.048,0.013 0.05,0.029 0.005,0.059 0.038,0.729 0.052,1.084 0.015,0.376 0.063,0.46 0.268,0.46 0.055,0 0.149,0.033 0.21,0.072 0.061,0.041 0.147,0.099 0.193,0.127 0.417,0.267 0.405,0.246 0.351,0.566 -0.021,0.127 -0.059,0.338 -0.081,0.468 -0.022,0.132 -0.041,0.327 -0.041,0.435 -10e-4,0.214 -0.052,0.277 -0.153,0.19 -0.066,-0.054 -0.721,-0.2 -0.759,-0.17 -0.055,0.045 -0.103,1.098 -0.064,1.423 0.006,0.057 0.014,0.125 0.017,0.15 0.005,0.045 0.119,0.104 0.514,0.275 0.374,0.158 0.444,0.205 0.468,0.276 0.039,0.123 -0.01,0.16 -0.146,0.106 -0.187,-0.069 -0.208,-0.017 -0.152,0.388 0.056,0.398 0.065,1.593 0.014,1.645 -0.02,0.021 -0.072,-0.014 -0.118,-0.067 -0.09,-0.11 -0.423,-0.289 -0.541,-0.289 -0.067,0 -0.073,0.064 -0.073,0.845 0,0.643 -0.013,0.854 -0.052,0.864 -0.028,0.009 -0.073,0.106 -0.1,0.222 l -0.048,0.203 z m -17.915,0.623 c 0,-0.047 0.019,-0.084 0.042,-0.084 0.022,0 0.041,0.026 0.041,0.059 0,0.035 -0.019,0.072 -0.041,0.086 -0.023,0.013 -0.042,-0.013 -0.042,-0.061 z m 17.881,-0.019 c 0.003,-0.081 0.021,-0.135 0.041,-0.123 0.048,0.029 0.044,0.212 -0.006,0.244 -0.023,0.013 -0.038,-0.037 -0.035,-0.121 z m -18.337,0.314 c 0,-0.072 0.019,-0.131 0.042,-0.131 0.025,0 0.031,0.047 0.015,0.113 -0.039,0.165 -0.057,0.17 -0.057,0.018 z m -0.021,0.367 c 0.014,-0.023 0.033,-0.042 0.044,-0.042 0.01,0 0.018,0.019 0.018,0.042 0,0.022 -0.02,0.041 -0.044,0.041 -0.023,0 -0.032,-0.017 -0.018,-0.041 z m 0.206,-0.373 c 0.021,-0.426 0.017,-0.457 -0.062,-0.499 -0.081,-0.043 -0.081,-0.05 -0.013,-0.165 0.063,-0.105 0.064,-0.135 0.014,-0.228 -0.04,-0.077 -0.044,-0.118 -0.014,-0.137 0.043,-0.027 0.082,-0.306 0.117,-0.817 0.069,-1.021 0.107,-1.4 0.146,-1.472 0.032,-0.064 0.031,-0.108 -0.002,-0.17 -0.057,-0.108 -0.017,-0.156 0.062,-0.076 0.047,0.049 0.052,0.133 0.021,0.433 -0.064,0.662 -0.179,2.599 -0.182,3.078 -0.002,0.34 -0.018,0.471 -0.057,0.487 -0.041,0.015 -0.048,-0.073 -0.03,-0.434 z m -0.196,0.846 c -0.017,-0.017 -0.03,-0.078 -0.029,-0.138 10e-4,-0.095 0.006,-0.098 0.044,-0.033 0.047,0.081 0.035,0.222 -0.015,0.171 z m 10.793,3.26 c 0,-0.021 0.019,-0.041 0.041,-0.041 0.023,0 0.042,0.021 0.042,0.041 0,0.022 -0.019,0.041 -0.042,0.041 -0.022,0 -0.041,-0.019 -0.041,-0.041 z m 7.503,-3.043 c -0.018,-0.02 -0.021,-0.102 -0.008,-0.183 0.017,-0.104 0.01,-0.138 -0.024,-0.116 -0.053,0.031 -0.065,0.346 -0.019,0.467 0.025,0.066 0.032,0.063 0.056,-0.024 0.015,-0.062 0.013,-0.125 -0.005,-0.144 z m -0.052,1.045 c -0.014,-0.034 -0.023,-0.024 -0.025,0.02 -0.002,0.044 0.008,0.064 0.022,0.058 0.014,-0.014 0.015,-0.049 0.003,-0.078 z m 0.002,0.308 c -0.009,-0.086 -0.017,-0.025 -0.017,0.134 0,0.159 0.007,0.229 0.017,0.157 0.009,-0.074 0.009,-0.205 0,-0.291 z m 0.042,0.809 c 0.001,-0.098 -0.015,-0.205 -0.034,-0.239 -0.022,-0.041 -0.036,0.022 -0.037,0.181 0,0.131 0.015,0.234 0.035,0.234 0.02,0 0.036,-0.081 0.036,-0.176 z m 0.362,0.392 c -0.076,-0.181 -0.104,-0.83 -0.054,-1.205 0.04,-0.299 0.027,-0.34 -0.09,-0.31 -0.12,0.028 -0.135,0.142 -0.092,0.736 0.021,0.295 0.024,0.598 0.008,0.666 -0.035,0.154 -0.011,0.206 0.127,0.262 0.149,0.056 0.172,0.022 0.101,-0.149 z m -0.522,0.375 c -0.054,-0.16 -0.065,-0.369 -0.061,-1.089 0.005,-0.795 -0.002,-0.903 -0.068,-0.991 -0.097,-0.131 -0.093,-0.213 0.009,-0.213 0.105,0 0.115,-0.052 0.141,-0.773 0.019,-0.522 0.033,-0.611 0.124,-0.789 0.097,-0.188 0.104,-0.193 0.139,-0.104 0.021,0.054 0.03,0.157 0.022,0.229 -0.056,0.502 -0.056,0.818 0,0.896 0.046,0.067 0.051,0.143 0.021,0.358 -0.032,0.238 -0.027,0.276 0.038,0.332 0.041,0.026 0.115,0.056 0.164,0.058 0.049,0 0.131,0.036 0.183,0.077 l 0.094,0.076 -0.089,0.121 c -0.069,0.096 -0.094,0.201 -0.113,0.515 -0.016,0.227 -0.008,0.463 0.017,0.56 0.229,0.89 0.23,0.872 -0.073,0.765 -0.243,-0.086 -0.241,-0.086 -0.311,0.052 -0.082,0.163 -0.165,0.135 -0.237,-0.08 z m 18.625,0.653 c 0,-0.021 0.02,-0.041 0.044,-0.041 0.023,0 0.032,0.021 0.018,0.041 -0.014,0.022 -0.033,0.041 -0.044,0.041 -0.01,0 -0.018,-0.019 -0.018,-0.041 z M 7.597,-18.15 c 0.07,-0.034 0.278,-0.075 0.464,-0.089 0.399,-0.031 0.399,-0.029 0.083,-0.5 -0.11,-0.164 -0.229,-0.354 -0.263,-0.414 -0.034,-0.063 -0.123,-0.183 -0.198,-0.265 -0.076,-0.082 -0.193,-0.222 -0.262,-0.305 -0.069,-0.083 -0.143,-0.146 -0.165,-0.141 -0.023,0.011 -0.069,-0.015 -0.104,-0.048 -0.054,-0.055 -0.065,-0.043 -0.095,0.102 -0.019,0.088 -0.048,0.17 -0.066,0.187 -0.059,0.041 -0.255,0.396 -0.255,0.47 0,0.037 0.037,0.092 0.082,0.123 0.046,0.034 0.111,0.122 0.146,0.2 0.066,0.145 0.3,0.485 0.411,0.601 0.036,0.035 0.065,0.083 0.065,0.104 0.002,0.051 0.008,0.049 0.157,-0.025 z m 0.616,1.439 c -0.034,-0.055 0.159,-0.172 0.285,-0.172 0.194,0 0.1,0.135 -0.13,0.184 -0.072,0.015 -0.141,0.009 -0.155,-0.012 z m 0.1,1.818 c 0,-0.023 0.042,-0.043 0.093,-0.046 0.052,-0.003 0.225,-0.072 0.384,-0.155 0.235,-0.123 0.29,-0.17 0.287,-0.246 -0.002,-0.065 0.015,-0.089 0.054,-0.074 0.045,0.021 0.043,0.004 -0.007,-0.065 -0.073,-0.103 -0.085,-0.267 -0.022,-0.306 0.063,-0.039 0.049,-0.213 -0.025,-0.288 -0.049,-0.048 -0.08,-0.227 -0.12,-0.683 -0.044,-0.508 -0.073,-0.66 -0.167,-0.869 -0.063,-0.139 -0.139,-0.271 -0.17,-0.3 -0.031,-0.026 -0.057,-0.083 -0.057,-0.128 0,-0.066 -0.021,-0.078 -0.114,-0.061 -0.063,0.014 -0.198,0.034 -0.301,0.047 -0.318,0.043 -0.58,0.112 -0.58,0.151 0,0.02 0.053,0.145 0.117,0.272 0.065,0.13 0.142,0.321 0.171,0.439 0.029,0.103 0.079,0.216 0.11,0.242 0.031,0.021 0.058,0.078 0.058,0.119 0,0.04 0.022,0.08 0.05,0.094 0.037,0.013 0.036,0.047 -0.005,0.145 -0.059,0.144 -0.055,0.224 0.06,1.142 0.055,0.437 0.092,0.61 0.131,0.61 0.028,10e-4 0.053,-0.018 0.053,-0.04 z m 0.791,0.516 c 0.002,-0.049 0.012,-0.059 0.025,-0.026 0.012,0.03 0.01,0.065 -0.004,0.079 -0.014,0.014 -0.023,-0.01 -0.021,-0.053 z m -0.507,1.06 c 0.188,-0.025 0.367,-0.056 0.397,-0.067 0.036,-0.015 0.061,-0.142 0.074,-0.392 0.012,-0.203 0.041,-0.394 0.064,-0.423 0.075,-0.092 0.083,-0.678 0.009,-0.631 -0.023,0.013 -0.03,0.045 -0.015,0.065 0.017,0.023 0.009,0.033 -0.021,0.021 -0.026,-0.021 -0.048,-0.075 -0.048,-0.129 v -0.103 l -0.279,0.112 c -0.154,0.065 -0.332,0.129 -0.396,0.147 -0.181,0.045 -0.213,0.192 -0.197,0.905 0.004,0.152 -0.006,0.302 -0.021,0.323 -0.034,0.056 0.014,0.257 0.056,0.23 0.019,-0.003 0.187,-0.032 0.377,-0.058 z m -0.743,0.176 c 0.002,-0.098 -0.014,-0.176 -0.034,-0.176 -0.052,0 -0.072,0.188 -0.05,0.455 l 0.019,0.229 0.031,-0.166 c 0.017,-0.092 0.033,-0.244 0.034,-0.342 z m -0.397,-4.017 c -0.016,-0.043 -0.036,-0.092 -0.045,-0.11 -0.01,-0.017 0.002,-0.031 0.024,-0.031 0.048,0 0.106,0.162 0.072,0.196 -0.013,0.013 -0.035,-0.013 -0.051,-0.055 z m 0.389,5.474 c 0.004,-0.421 -0.008,-0.756 -0.025,-0.745 -0.064,0.04 -0.172,-0.145 -0.171,-0.298 10e-4,-0.086 0.028,-0.285 0.063,-0.445 0.035,-0.16 0.062,-0.337 0.063,-0.395 0,-0.082 0.009,-0.09 0.04,-0.041 0.032,0.05 0.041,0.043 0.041,-0.034 0,-0.054 -0.027,-0.124 -0.062,-0.158 -0.035,-0.034 -0.063,-0.116 -0.063,-0.181 0,-0.064 0.028,-0.146 0.063,-0.181 0.088,-0.088 0.092,-1.022 0.005,-1.022 -0.032,0 -0.066,-0.023 -0.076,-0.051 -0.017,-0.047 -0.016,-0.106 0.004,-0.375 0.003,-0.039 0.03,-0.071 0.061,-0.071 0.066,0 0.085,-0.239 0.045,-0.595 -0.025,-0.232 -0.069,-0.267 -0.112,-0.09 -0.012,0.051 -0.021,0.022 -0.025,-0.063 -0.003,-0.08 -0.016,-0.19 -0.029,-0.248 -0.019,-0.082 -0.014,-0.09 0.021,-0.042 0.027,0.038 0.044,0.044 0.045,0.014 0,-0.024 -0.019,-0.062 -0.041,-0.075 -0.022,-0.015 -0.042,-0.097 -0.042,-0.185 0,-0.289 -0.216,-0.789 -0.341,-0.789 -0.05,0 -0.073,-0.033 -0.073,-0.103 0,-0.111 -0.166,-0.449 -0.286,-0.582 -0.041,-0.048 -0.087,-0.117 -0.101,-0.157 -0.015,-0.04 -0.073,-0.095 -0.131,-0.12 -0.07,-0.032 -0.105,-0.083 -0.108,-0.155 l -0.003,-0.104 -0.032,0.104 c -0.018,0.061 -0.052,0.145 -0.076,0.188 -0.044,0.08 -0.127,0.267 -0.296,0.653 -0.048,0.112 -0.087,0.233 -0.087,0.272 0,0.037 -0.054,0.131 -0.12,0.199 -0.105,0.113 -0.124,0.176 -0.149,0.479 -0.026,0.321 0.035,2.563 0.077,2.832 0.012,0.065 0.032,0.271 0.046,0.455 0.045,0.571 0.112,1.015 0.155,1.015 0.023,0 0.035,0.073 0.025,0.166 -0.008,0.094 0,0.174 0.018,0.18 0.036,0.014 0.042,0.176 0.033,0.871 -0.005,0.473 0.011,0.548 0.106,0.512 0.032,-0.013 0.156,-0.003 0.275,0.021 0.12,0.022 0.381,0.043 0.58,0.041 0.198,-0.002 0.4,0.013 0.447,0.03 0.236,0.084 0.229,0.105 0.236,-0.727 z m 0.674,0.772 c 0,-0.121 0.059,-0.198 0.101,-0.129 0.027,0.045 0.359,0.222 0.379,0.203 0.008,-0.008 0.02,-0.16 0.026,-0.342 l 0.013,-0.328 -0.239,0.012 c -0.265,0.011 -0.541,-0.061 -0.516,-0.135 0.015,-0.043 0.131,-0.057 0.576,-0.065 0.107,-0.003 0.158,-0.019 0.174,-0.071 0.038,-0.14 0.072,-1.313 0.038,-1.356 -0.036,-0.054 -0.513,-0.021 -0.651,0.045 -0.057,0.02 -0.071,0.019 -0.05,-0.019 0.05,-0.082 -0.052,-0.06 -0.144,0.037 -0.073,0.068 -0.086,0.135 -0.083,0.4 0.007,0.531 -0.017,1.313 -0.039,1.355 -0.012,0.022 -0.021,0.135 -0.02,0.248 l 0.002,0.207 0.186,0.047 c 0.223,0.057 0.247,0.045 0.247,-0.109 z m -1.67,0.73 c 0.014,-0.014 -10e-4,-0.025 -0.033,-0.027 -0.032,-0.002 -0.115,-0.014 -0.184,-0.028 -0.238,-0.045 -0.67,-0.019 -0.611,0.036 0.018,0.019 0.068,0.037 0.114,0.048 0.108,0.028 0.681,0.004 0.714,-0.029 z m 3.484,0.527 c -0.04,-0.009 -0.072,-0.052 -0.072,-0.091 0,-0.073 -0.161,-0.254 -0.227,-0.254 -0.019,0 -0.055,0.024 -0.081,0.062 -0.042,0.059 -0.06,0.059 -0.18,-0.002 -0.073,-0.037 -0.145,-0.084 -0.157,-0.103 -0.014,-0.022 -0.056,-0.039 -0.095,-0.039 -0.038,0 -0.124,-0.03 -0.19,-0.065 -0.111,-0.058 -0.126,-0.056 -0.198,0.022 -0.08,0.086 -0.241,0.11 -0.241,0.043 0,-0.067 -0.241,-0.17 -0.342,-0.147 -0.051,0.014 -0.224,-0.008 -0.384,-0.045 -0.34,-0.079 -0.686,-0.122 -0.519,-0.062 0.058,0.019 0.187,0.058 0.288,0.086 0.104,0.024 0.235,0.103 0.301,0.176 0.115,0.123 0.124,0.125 0.513,0.121 0.372,-0.004 0.397,0.002 0.43,0.089 0.02,0.051 0.029,0.099 0.021,0.108 C 9.172,-9.729 8.203,-9.737 8.148,-9.776 8.116,-9.795 7.93,-9.83 7.735,-9.844 7.322,-9.877 6.524,-9.989 6.204,-10.039 c -0.132,-0.024 -0.3,-0.026 -0.414,-0.004 -0.105,0.02 -0.207,0.022 -0.225,0.017 -0.051,-0.032 -0.036,-0.158 0.034,-0.298 0.056,-0.114 0.076,-0.125 0.147,-0.086 0.046,0.02 0.115,0.029 0.153,0.013 0.117,-0.052 0.972,-0.058 1.115,-0.006 0.167,0.059 0.225,0.01 0.096,-0.081 -0.066,-0.046 -0.181,-0.067 -0.356,-0.065 -0.283,0.002 -0.516,-0.098 -0.516,-0.221 0,-0.049 -0.025,-0.062 -0.083,-0.047 -0.104,0.028 -0.123,-0.004 -0.132,-0.216 -0.005,-0.116 -0.03,-0.189 -0.078,-0.211 -0.077,-0.041 -0.105,-0.157 -0.164,-0.668 -0.021,-0.189 -0.062,-0.355 -0.088,-0.371 -0.031,-0.022 -0.055,-0.189 -0.063,-0.459 -0.009,-0.237 -0.033,-0.814 -0.055,-1.28 -0.049,-1.011 -0.062,-2.158 -0.027,-2.369 0.018,-0.107 0.007,-0.166 -0.036,-0.202 -0.083,-0.069 -0.077,-0.233 0.021,-0.591 0.101,-0.363 0.108,-0.57 0.021,-0.57 -0.067,0 -0.085,-0.123 -0.026,-0.188 0.02,-0.021 0.067,-0.142 0.106,-0.267 0.096,-0.308 0.292,-0.719 0.476,-0.998 0.082,-0.125 0.173,-0.27 0.202,-0.314 0.028,-0.045 0.08,-0.143 0.114,-0.216 0.1,-0.218 0.31,-0.296 0.31,-0.112 0,0.062 -0.016,0.099 -0.035,0.085 -0.044,-0.023 -0.304,0.327 -0.268,0.364 0.015,0.015 0.005,0.023 -0.021,0.023 -0.027,0 -0.049,0.02 -0.049,0.039 0,0.033 -0.245,0.431 -0.325,0.523 -0.038,0.043 0.011,0.184 0.048,0.143 0.039,-0.043 0.194,-0.371 0.194,-0.412 0,-0.066 0.175,-0.25 0.24,-0.25 0.036,0 0.05,-0.023 0.034,-0.064 -0.014,-0.036 -0.01,-0.059 0.009,-0.044 0.019,0.012 0.104,-0.101 0.188,-0.242 0.085,-0.146 0.19,-0.271 0.235,-0.279 0.045,-0.018 0.082,-0.045 0.082,-0.07 0,-0.025 -0.017,-0.038 -0.036,-0.025 -0.019,0.013 -0.033,-0.016 -0.031,-0.061 0.003,-0.045 0.015,-0.084 0.025,-0.084 0.057,-0.006 0.2,0.065 0.316,0.166 0.341,0.283 0.411,0.352 0.604,0.591 0.113,0.144 0.266,0.319 0.338,0.394 0.142,0.145 0.159,0.166 0.33,0.392 0.085,0.113 0.108,0.187 0.096,0.291 -0.01,0.078 0.006,0.17 0.033,0.203 0.027,0.033 0.119,0.177 0.204,0.315 0.127,0.213 0.153,0.294 0.153,0.485 0,0.237 0.06,0.431 0.158,0.506 0.061,0.048 0.127,0.668 0.13,1.212 10e-4,0.232 0.016,0.301 0.062,0.301 0.091,0 0.127,0.09 0.057,0.142 -0.053,0.039 -0.067,0.27 -0.092,1.414 -0.017,0.752 -0.049,1.438 -0.071,1.526 -0.028,0.108 -0.027,0.198 0.003,0.287 0.069,0.198 0.057,0.842 -0.019,0.916 -0.073,0.073 -0.083,0.341 -0.014,0.384 0.026,0.018 0.105,0.041 0.176,0.057 0.087,0.02 0.148,0.065 0.192,0.15 0.098,0.193 0.239,0.357 0.285,0.33 0.022,-0.016 0.061,0.012 0.084,0.057 0.023,0.045 0.1,0.093 0.168,0.106 0.068,0.017 0.125,0.045 0.125,0.066 0,0.021 0.026,0.037 0.059,0.037 0.067,0 0.126,0.143 0.086,0.207 -0.026,0.045 -0.036,0.045 -0.155,0.013 z M 9.825,-9.627 C 9.81,-9.653 9.767,-9.662 9.729,-9.648 9.691,-9.635 9.631,-9.645 9.597,-9.668 9.528,-9.713 9.508,-9.709 9.846,-9.731 c 0.211,-0.015 0.352,0.059 0.222,0.104 -0.113,0.051 -0.212,0.049 -0.243,0 z m -18.151,1.418 c 0.01,-0.03 -0.009,-0.039 -0.05,-0.021 -0.036,0.015 -0.065,0.043 -0.065,0.064 0,0.052 0.095,0.019 0.115,-0.043 z m -0.477,0.711 C -8.84,-7.512 -8.855,-7.635 -8.855,-7.91 v -0.393 l 0.165,-0.074 c 0.092,-0.041 0.157,-0.084 0.146,-0.094 -0.033,-0.033 0.471,-0.13 0.54,-0.103 0.078,0.029 0.052,0.228 -0.053,0.395 -0.045,0.071 -0.057,0.161 -0.041,0.317 0.03,0.289 -0.036,0.395 -0.195,0.311 -0.095,-0.051 -0.126,-0.049 -0.254,0.012 -0.153,0.072 -0.172,0.076 -0.256,0.041 z m 8.23,0.591 c -0.12,-0.121 -0.163,-0.3 -0.127,-0.527 0.032,-0.205 0.045,-0.223 0.18,-0.264 0.08,-0.023 0.183,-0.064 0.229,-0.091 0.146,-0.082 0.373,-0.108 0.42,-0.047 0.082,0.103 0.146,0.416 0.118,0.573 -0.031,0.187 -0.068,0.224 -0.187,0.187 -0.069,-0.022 -0.082,-0.064 -0.082,-0.252 0,-0.191 -0.012,-0.228 -0.073,-0.213 -0.187,0.026 -0.235,0.097 -0.239,0.334 -0.006,0.302 -0.107,0.431 -0.239,0.3 z M -3.776,-7.428 C -3.79,-7.451 -3.819,-7.47 -3.84,-7.47 c -0.021,0 -0.039,0.019 -0.039,0.042 0,0.021 0.029,0.041 0.064,0.041 0.036,0 0.054,-0.02 0.039,-0.041 z m -0.564,0.572 c -0.045,-0.579 -0.041,-0.636 0.054,-0.822 0.053,-0.102 0.102,-0.195 0.109,-0.207 0.008,-0.011 0.051,0.023 0.096,0.08 0.069,0.086 0.112,0.1 0.302,0.092 0.271,-0.012 0.284,0.012 0.247,0.455 -0.023,0.275 -0.04,0.329 -0.11,0.351 -0.055,0.022 -0.097,0.004 -0.121,-0.041 -0.022,-0.041 -0.092,-0.062 -0.178,-0.062 -0.113,0 -0.143,0.021 -0.153,0.098 -0.009,0.063 -0.045,0.096 -0.127,0.104 -0.073,0.003 -0.116,-0.015 -0.119,-0.048 z m -6.796,-0.812 c 0,-0.055 -0.031,-0.074 -0.114,-0.073 -0.063,0 -0.104,0.022 -0.093,0.043 0.011,0.022 0.053,0.038 0.093,0.032 0.04,-0.006 0.072,0.008 0.072,0.031 0,0.021 0.01,0.041 0.021,0.041 0.011,0 0.021,-0.033 0.021,-0.074 z m -0.333,0.074 c 0,-0.023 -0.019,-0.042 -0.041,-0.042 -0.023,0 -0.042,0.019 -0.042,0.042 0,0.021 0.019,0.041 0.042,0.041 0.023,0 0.041,-0.02 0.041,-0.041 z m 0.188,0.58 c 0.014,-0.023 0.043,-0.031 0.064,-0.019 0.053,0.033 0.096,-0.088 0.062,-0.176 -0.023,-0.064 -0.041,-0.058 -0.127,0.051 -0.056,0.064 -0.101,0.137 -0.102,0.154 -0.002,0.047 0.073,0.039 0.103,-0.01 z m -0.416,0.238 c -0.104,-0.09 -0.109,-0.115 -0.116,-0.523 -0.007,-0.388 0.001,-0.436 0.073,-0.477 0.045,-0.025 0.107,-0.07 0.138,-0.099 0.031,-0.028 0.103,-0.064 0.157,-0.073 0.056,-0.011 0.15,-0.031 0.211,-0.043 0.06,-0.013 0.169,-0.068 0.242,-0.125 0.153,-0.117 0.251,-0.128 0.286,-0.035 0.028,0.073 0.008,0.121 -0.103,0.244 -0.056,0.063 -0.08,0.186 -0.1,0.493 -0.036,0.554 -0.059,0.603 -0.271,0.603 -0.093,0 -0.223,0.026 -0.289,0.063 -0.111,0.062 -0.126,0.059 -0.228,-0.028 z m -2.218,-0.238 c 0.073,-0.068 0.107,-0.125 0.077,-0.125 -0.044,0 -0.043,-0.009 0.005,-0.039 0.051,-0.033 0.049,-0.043 -0.017,-0.068 -0.118,-0.045 -0.209,0.039 -0.224,0.205 -0.007,0.084 -0.005,0.152 0.006,0.152 0.011,0 0.08,-0.057 0.153,-0.125 z m -0.062,0.248 c 0.015,-0.021 0.006,-0.041 -0.019,-0.041 -0.023,0 -0.044,0.02 -0.044,0.041 0,0.024 0.009,0.042 0.019,0.042 0.01,0 0.03,-0.018 0.044,-0.042 z m -0.416,0.496 c -0.015,-0.023 -0.013,-0.159 0.005,-0.301 0.019,-0.14 0.031,-0.265 0.029,-0.277 -10e-4,-0.012 -0.015,-0.078 -0.029,-0.146 -0.023,-0.105 -0.003,-0.148 0.159,-0.316 0.103,-0.104 0.234,-0.207 0.294,-0.225 0.196,-0.051 0.572,0.229 0.429,0.318 -0.037,0.021 -0.063,0.16 -0.076,0.42 l -0.021,0.385 -0.124,0.018 c -0.068,0.008 -0.152,0.032 -0.187,0.064 -0.035,0.025 -0.113,0.048 -0.177,0.047 -0.063,-0.002 -0.113,0.013 -0.113,0.027 -10e-4,0.047 -0.158,0.037 -0.189,-0.014 z M 4.123,-6.631 c 0,-0.016 -0.019,-0.059 -0.04,-0.093 -0.033,-0.05 -0.041,-0.044 -0.041,0.03 -10e-4,0.053 0.018,0.094 0.041,0.094 0.023,0 0.041,-0.014 0.04,-0.031 z M 3.969,-6.258 C 3.871,-6.295 3.792,-6.35 3.792,-6.379 c 0,-0.029 -0.017,-0.055 -0.037,-0.055 -0.02,0 -0.03,-0.07 -0.022,-0.154 0.009,-0.086 0.025,-0.259 0.038,-0.385 0.013,-0.125 0.023,-0.279 0.024,-0.344 0,-0.062 0.02,-0.164 0.042,-0.224 0.049,-0.129 0.114,-0.086 0.146,0.095 0.036,0.213 0.06,0.256 0.153,0.288 0.051,0.015 0.107,0.021 0.126,0.02 0.019,-0.001 0.022,0.017 0.008,0.037 -0.014,0.021 0.003,0.084 0.039,0.138 0.092,0.131 0.092,0.717 -0.001,0.754 -0.092,0.035 -0.138,0.027 -0.339,-0.049 z m 18.319,0.156 c 0,-0.021 0.019,-0.041 0.041,-0.041 0.022,0 0.041,0.02 0.041,0.041 0,0.024 -0.019,0.041 -0.041,0.041 -0.022,0 -0.041,-0.017 -0.041,-0.041 z m 0.275,0.063 c 0.014,-0.034 0.031,-0.063 0.041,-0.063 0.009,0 0.016,0.028 0.016,0.063 0,0.037 -0.018,0.063 -0.04,0.063 -0.022,0 -0.03,-0.03 -0.017,-0.063 z M 7.138,-6.151 C 7.125,-6.184 7.116,-6.174 7.114,-6.125 7.112,-6.082 7.122,-6.063 7.135,-6.073 7.148,-6.084 7.151,-6.121 7.138,-6.151 Z M 7.11,-5.563 C 7.076,-5.584 7.006,-5.604 6.954,-5.604 c -0.056,0 -0.167,-0.071 -0.266,-0.169 l -0.17,-0.169 0.05,-0.215 c 0.028,-0.118 0.056,-0.251 0.062,-0.294 0.02,-0.147 0.118,-0.166 0.394,-0.084 0.335,0.1 0.419,0.224 0.419,0.617 0,0.174 0.016,0.267 0.042,0.252 0.022,-0.019 0.041,0.002 0.041,0.029 -10e-4,0.104 -0.294,0.152 -0.416,0.074 z m 0.505,0 c 0,-0.056 0.009,-0.08 0.021,-0.053 0.012,0.03 0.012,0.077 0,0.104 -0.012,0.03 -0.021,0.006 -0.021,-0.051 z m -23.584,-1.213 c 0.022,-1.517 0.042,-1.933 0.131,-2.892 0.012,-0.125 0.031,-0.345 0.043,-0.48 0.021,-0.229 0.051,-1.988 0.059,-3.35 0.002,-0.314 0.021,-0.58 0.042,-0.596 0.021,-0.014 0.038,0.008 0.038,0.041 0,0.035 0.021,0.062 0.047,0.062 0.03,0 0.038,-0.044 0.021,-0.125 -0.014,-0.068 -0.007,-0.125 0.016,-0.125 0.023,0 0.041,-0.066 0.041,-0.152 0.001,-0.16 0.058,-0.298 0.104,-0.252 0.03,0.028 -0.047,1.194 -0.107,1.631 -0.022,0.159 -0.037,0.522 -0.031,0.811 0.005,0.285 0.002,0.679 -0.006,0.871 -0.031,0.766 -0.024,0.977 0.029,0.963 0.062,-0.012 0.063,0.064 0.008,0.322 -0.056,0.26 -0.074,0.42 -0.097,0.849 -0.02,0.372 -0.056,0.875 -0.172,2.429 -0.033,0.443 -0.061,0.903 -0.061,1.021 0,0.233 -0.029,0.349 -0.089,0.349 -0.022,0.002 -0.029,-0.549 -0.016,-1.377 z M 9.184,-5.44 c 0,-0.08 0.104,-0.157 0.15,-0.111 0.03,0.031 -0.062,0.195 -0.11,0.195 -0.023,0 -0.04,-0.037 -0.04,-0.084 z m 11.942,0.231 c 0,-0.035 0.02,-0.063 0.042,-0.063 0.022,0 0.041,0.028 0.041,0.063 0,0.034 -0.019,0.063 -0.041,0.063 -0.022,-0.002 -0.042,-0.03 -0.042,-0.063 z M 10.545,-5.59 c -0.009,-0.044 -0.058,-0.082 -0.118,-0.091 -0.1,-0.015 -0.101,-0.013 -0.03,0.065 0.04,0.043 0.072,0.104 0.072,0.137 0,0.041 0.013,0.045 0.046,0.012 0.024,-0.025 0.038,-0.08 0.03,-0.123 z m -0.408,0.402 c -0.101,-0.027 -0.104,-0.035 -0.093,-0.377 0.006,-0.193 0.019,-0.373 0.029,-0.4 0.035,-0.095 0.284,-0.106 0.5,-0.02 0.223,0.087 0.243,0.127 0.228,0.444 -0.021,0.434 0.003,0.393 -0.238,0.393 -0.134,0 -0.218,-0.018 -0.218,-0.048 0,-0.029 -0.018,-0.031 -0.052,-0.005 -0.029,0.023 -0.098,0.029 -0.156,0.013 z m 2.864,0.123 c 0.029,0.098 0.031,0.096 0.035,-0.029 0.002,-0.072 -0.013,-0.143 -0.033,-0.154 -0.038,-0.021 -0.09,0.119 -0.081,0.229 0.003,0.03 0.015,0.021 0.026,-0.041 l 0.021,-0.104 z m -0.041,0.446 c -0.002,-0.051 -0.037,-0.073 -0.117,-0.073 -0.176,-0.002 -0.301,-0.045 -0.301,-0.107 0,-0.029 -0.048,-0.125 -0.105,-0.211 -0.135,-0.197 -0.136,-0.199 -0.129,-0.111 0.007,0.08 -0.088,0.117 -0.168,0.064 -0.034,-0.021 -0.04,-0.072 -0.019,-0.152 0.027,-0.102 0.064,-0.131 0.217,-0.166 0.123,-0.03 0.197,-0.074 0.225,-0.137 0.075,-0.17 0.422,-0.23 0.555,-0.098 0.043,0.043 0.104,0.086 0.135,0.098 0.118,0.039 0.11,0.945 -0.009,0.945 -0.018,0 -0.078,-0.019 -0.136,-0.04 -0.073,-0.028 -0.109,-0.024 -0.124,0.01 -0.011,0.026 -0.022,0.017 -0.024,-0.022 z m 2.302,0.229 c -0.098,-0.024 -0.163,-0.089 -0.205,-0.196 -0.025,-0.069 -0.037,-0.072 -0.069,-0.021 -0.033,0.053 -0.039,0.051 -0.039,-0.007 0,-0.036 -0.037,-0.077 -0.081,-0.089 -0.076,-0.022 -0.085,-0.07 -0.049,-0.286 0.003,-0.015 0.064,-0.034 0.138,-0.043 0.114,-0.009 0.138,-0.031 0.161,-0.147 0.016,-0.075 0.035,-0.145 0.044,-0.153 0.01,-0.008 0.169,-0.021 0.354,-0.03 0.286,-0.009 0.352,0 0.426,0.069 0.049,0.045 0.079,0.104 0.067,0.133 -0.011,0.029 -0.023,0.212 -0.027,0.408 l -0.007,0.354 h -0.114 c -0.119,0 -0.229,-0.091 -0.176,-0.143 0.018,-0.022 -0.025,-0.006 -0.094,0.02 -0.068,0.029 -0.139,0.077 -0.157,0.105 -0.035,0.058 -0.042,0.06 -0.172,0.026 z M 18.1,-4.692 c 0,-0.023 -0.029,-0.041 -0.065,-0.041 -0.035,0 -0.053,0.018 -0.039,0.041 0.015,0.022 0.044,0.041 0.065,0.041 0.021,0 0.039,-0.017 0.039,-0.041 z m 0.098,0.674 c -0.025,-0.017 -0.041,-0.064 -0.034,-0.103 0.006,-0.041 -0.024,-0.094 -0.068,-0.118 -0.056,-0.029 -0.079,-0.085 -0.079,-0.188 0,-0.082 -0.018,-0.136 -0.04,-0.12 -0.021,0.014 -0.028,0.053 -0.015,0.09 0.013,0.035 0.006,0.076 -0.017,0.091 -0.061,0.04 -0.109,0.213 -0.06,0.213 0.022,0 0.05,-0.029 0.061,-0.068 0.015,-0.062 0.02,-0.059 0.023,0.02 0.004,0.062 -0.025,0.093 -0.125,0.109 -0.184,0.037 -0.184,0.037 -0.237,-0.08 -0.031,-0.067 -0.039,-0.199 -0.021,-0.371 0.019,-0.19 0.013,-0.27 -0.021,-0.27 -0.087,0 -0.043,-0.146 0.071,-0.23 0.137,-0.108 0.502,-0.155 0.441,-0.06 -0.015,0.021 0.028,0.042 0.104,0.042 0.082,0 0.166,0.033 0.232,0.104 0.097,0.095 0.103,0.125 0.091,0.483 -0.011,0.36 -0.017,0.388 -0.105,0.396 -0.051,0.005 -0.093,0.028 -0.093,0.052 10e-4,0.047 -0.044,0.049 -0.108,0.008 z m -0.358,0.045 c 0.028,-0.012 0.075,-0.012 0.104,0 0.029,0.012 0.006,0.022 -0.052,0.022 -0.057,0 -0.08,-0.01 -0.052,-0.022 z m -1.422,0.19 c -0.034,-0.108 0.042,-0.202 0.109,-0.133 0.049,0.049 0.014,0.218 -0.046,0.218 -0.019,0 -0.047,-0.039 -0.063,-0.085 z m 0.323,0.517 c -0.052,-0.058 -0.094,-0.133 -0.094,-0.164 0,-0.033 -0.018,-0.059 -0.04,-0.059 -0.021,0 -0.029,-0.029 -0.017,-0.063 0.037,-0.096 0.086,-0.073 0.132,0.058 0.026,0.074 0.081,0.128 0.149,0.146 0.095,0.024 0.102,0.036 0.056,0.107 -0.063,0.106 -0.073,0.104 -0.186,-0.025 z m -0.86,0.067 c 0.014,-0.022 0.043,-0.042 0.064,-0.042 0.021,0 0.039,0.02 0.039,0.042 0,0.02 -0.029,0.041 -0.064,0.041 -0.036,0 -0.054,-0.018 -0.039,-0.041 z M 0.561,-41.278 c -0.034,-0.172 -0.035,-0.168 -0.037,0.093 -0.002,0.196 0.008,0.245 0.035,0.179 0.02,-0.053 0.021,-0.17 0.002,-0.272 z m -5.354,3.047 c -10e-4,-0.017 -0.027,-0.064 -0.06,-0.107 -0.067,-0.089 -0.146,-0.058 -0.146,0.058 0,0.065 0.028,0.081 0.104,0.081 0.056,0 0.102,-0.014 0.102,-0.032 z m -0.467,0.167 c -0.01,-0.063 -0.018,-0.02 -0.018,0.093 -0.001,0.114 0.007,0.166 0.017,0.115 0.01,-0.052 0.011,-0.144 0.001,-0.208 z m -1.215,1.806 c 0.048,-0.039 0.07,-0.072 0.049,-0.072 -0.065,-0.004 -0.19,0.131 -0.187,0.201 0.003,0.055 0.008,0.055 0.027,0.004 0.013,-0.033 0.063,-0.093 0.111,-0.133 z m 1.036,1.163 c 0.024,-0.265 0.014,-0.373 -0.031,-0.321 -0.037,0.041 -0.069,0.617 -0.035,0.617 0.021,0 0.05,-0.133 0.066,-0.296 z m -2.578,1.292 c -0.01,-0.068 -0.025,-0.125 -0.034,-0.125 -0.009,0 -0.017,0.057 -0.017,0.125 0,0.068 0.016,0.124 0.034,0.124 0.02,0 0.026,-0.056 0.017,-0.124 z m -0.287,0.436 c 0.16,-0.217 0.191,-0.284 0.157,-0.342 -0.038,-0.067 -0.052,-0.064 -0.041,0.015 0.002,0.014 -0.013,0.037 -0.033,0.051 -0.074,0.053 -0.218,0.266 -0.199,0.295 0.011,0.018 -0.018,0.065 -0.063,0.106 -0.045,0.041 -0.082,0.089 -0.082,0.104 0,0.089 0.075,0.021 0.261,-0.229 z m -3.309,4.707 c 0.014,-0.024 0.006,-0.043 -0.019,-0.043 -0.025,0 -0.044,0.019 -0.044,0.043 0,0.02 0.008,0.041 0.019,0.041 0.01,0 0.029,-0.02 0.044,-0.041 z m 16.557,3.947 c 0.034,-0.024 -0.021,-0.067 -0.166,-0.133 -0.12,-0.054 -0.233,-0.094 -0.251,-0.09 -0.032,0.008 -0.258,-0.08 -0.412,-0.162 -0.101,-0.053 -0.11,-0.049 -0.104,0.045 0.004,0.049 0.036,0.082 0.078,0.082 0.039,0 0.083,0.02 0.098,0.042 0.014,0.022 0.075,0.042 0.137,0.044 0.062,0.002 0.177,0.047 0.257,0.102 0.15,0.102 0.273,0.125 0.363,0.07 z m -18.196,1.152 c 0,-0.021 -0.019,-0.041 -0.041,-0.041 -0.023,0 -0.042,0.02 -0.042,0.041 0,0.024 0.019,0.042 0.042,0.042 0.023,0 0.041,-0.018 0.041,-0.042 z m -1.057,0.186 c 0.046,-0.018 0.098,-0.03 0.114,-0.021 0.018,0.004 0.031,-0.016 0.031,-0.031 0,-0.021 0.084,-0.065 0.187,-0.105 l 0.187,-0.072 -0.112,-0.095 c -0.13,-0.114 -0.1,-0.185 0.047,-0.105 0.055,0.026 0.119,0.041 0.145,0.022 0.051,-0.029 0.063,-0.341 0.015,-0.367 -0.051,-0.025 -0.301,0.055 -0.301,0.099 0,0.02 -0.029,0.041 -0.064,0.041 -0.035,0 -0.117,0.024 -0.182,0.063 -0.065,0.034 -0.187,0.065 -0.271,0.077 -0.18,0.02 -0.376,0.147 -0.371,0.25 0.002,0.037 0.007,0.17 0.011,0.295 l 0.007,0.226 0.238,-0.117 c 0.129,-0.076 0.274,-0.143 0.319,-0.16 z m 23.816,0.613 c 0.011,-0.109 -10e-4,-0.135 -0.067,-0.135 -0.044,0 -0.102,-0.025 -0.128,-0.056 C 9.287,-22.987 9.209,-23.022 9.141,-23.035 9.073,-23.054 8.964,-23.1 8.9,-23.148 8.836,-23.196 8.718,-23.25 8.641,-23.27 8.563,-23.289 8.434,-23.328 8.354,-23.356 7.981,-23.489 7.78,-23.555 7.608,-23.605 7.505,-23.635 7.375,-23.69 7.318,-23.727 7.164,-23.828 6.904,-23.922 6.683,-23.955 6.576,-23.976 6.478,-24 6.467,-24.019 c -0.012,-0.018 -0.121,-0.063 -0.243,-0.102 -0.122,-0.041 -0.267,-0.111 -0.321,-0.161 -0.092,-0.084 -0.412,-0.146 -0.408,-0.075 0.002,0.049 0.181,0.158 0.31,0.191 0.068,0.016 0.152,0.054 0.187,0.084 0.034,0.025 0.131,0.076 0.214,0.102 0.084,0.027 0.175,0.075 0.202,0.109 0.027,0.033 0.091,0.061 0.141,0.061 0.05,0 0.127,0.027 0.171,0.062 0.045,0.033 0.119,0.063 0.166,0.063 0.047,0 0.103,0.019 0.124,0.037 0.035,0.031 0.519,0.24 0.88,0.379 0.074,0.027 0.135,0.066 0.135,0.088 0,0.021 0.033,0.036 0.074,0.036 0.041,0 0.093,0.018 0.114,0.035 0.021,0.02 0.138,0.069 0.257,0.108 0.12,0.039 0.218,0.082 0.218,0.097 0,0.032 0.295,0.157 0.467,0.198 0.063,0.015 0.126,0.045 0.139,0.062 0.014,0.022 0.064,0.031 0.114,0.024 0.064,-0.004 0.089,-0.039 0.099,-0.141 z m -25.432,0.199 c -0.013,-0.021 -0.005,-0.051 0.019,-0.064 0.023,-0.014 0.042,0.004 0.042,0.039 0,0.072 -0.025,0.084 -0.061,0.025 z m -0.555,0.456 c 0.019,-0.053 0.075,-0.063 0.08,-0.014 0.002,0.017 -0.02,0.039 -0.047,0.047 -0.027,0.009 -0.042,-0.006 -0.033,-0.033 z m -0.13,0.431 c 0,-0.033 0.019,-0.061 0.041,-0.061 0.022,0 0.042,-0.019 0.042,-0.043 0,-0.025 0.046,-0.105 0.104,-0.181 0.057,-0.074 0.104,-0.16 0.104,-0.19 0,-0.028 0.047,-0.095 0.104,-0.149 0.102,-0.095 0.103,-0.103 0.042,-0.249 -0.083,-0.195 -0.08,-0.221 0.02,-0.193 0.045,0.016 0.083,0.044 0.083,0.072 0,0.028 0.046,0.104 0.103,0.162 l 0.103,0.111 0.084,-0.084 c 0.098,-0.099 0.11,-0.209 0.022,-0.209 -0.036,0 -0.051,-0.023 -0.037,-0.062 0.017,-0.041 0.057,-0.058 0.122,-0.037 0.063,0.015 0.123,0 0.165,-0.041 0.062,-0.064 0.049,-0.086 -0.037,-0.071 -0.02,0.004 -0.026,-0.017 -0.017,-0.047 0.013,-0.037 0.089,-0.048 0.243,-0.041 0.14,0.008 0.253,-0.009 0.3,-0.044 0.072,-0.051 0.072,-0.065 0.01,-0.213 -0.036,-0.088 -0.065,-0.215 -0.065,-0.284 0,-0.093 -0.013,-0.113 -0.052,-0.084 -0.028,0.021 -0.136,0.053 -0.238,0.067 -0.104,0.014 -0.283,0.055 -0.399,0.092 -0.173,0.056 -0.209,0.084 -0.192,0.145 0.024,0.099 -0.024,0.105 -0.09,0.015 -0.043,-0.06 -0.058,-0.055 -0.13,0.045 -0.044,0.063 -0.123,0.158 -0.175,0.22 -0.052,0.064 -0.132,0.189 -0.179,0.286 -0.047,0.097 -0.118,0.216 -0.159,0.271 -0.076,0.1 -0.211,0.346 -0.211,0.387 0,0.012 0.024,0.019 0.054,0.019 0.032,0 0.076,0.104 0.109,0.248 0.03,0.139 0.071,0.239 0.091,0.228 0.018,-0.015 0.035,-0.052 0.035,-0.085 z m -0.712,0.662 c 0.052,-0.037 0.105,-0.057 0.117,-0.044 0.063,0.064 0.346,-0.403 0.346,-0.569 0,-0.121 -0.081,-0.317 -0.131,-0.317 -0.019,0 -0.107,0.147 -0.197,0.323 -0.089,0.175 -0.196,0.359 -0.238,0.406 -0.042,0.047 -0.1,0.127 -0.129,0.176 -0.047,0.084 -0.043,0.091 0.043,0.091 0.051,0 0.137,-0.03 0.189,-0.066 z m 1.977,0.647 c 0.014,-0.023 0.006,-0.041 -0.019,-0.041 -0.025,0 -0.044,0.018 -0.044,0.041 0,0.02 0.009,0.041 0.019,0.041 0.01,0 0.029,-0.018 0.044,-0.041 z m 32.076,0.505 c 0,-0.056 -0.096,-0.132 -0.168,-0.132 -0.037,0 -0.128,-0.03 -0.2,-0.067 -0.073,-0.035 -0.174,-0.07 -0.225,-0.078 -0.05,-0.008 -0.211,-0.06 -0.358,-0.121 -0.146,-0.059 -0.31,-0.107 -0.362,-0.107 -0.052,0 -0.092,-0.021 -0.086,-0.045 0.006,-0.021 -0.064,-0.066 -0.155,-0.099 -0.134,-0.042 -0.73,-0.403 -0.913,-0.554 -0.023,-0.019 -0.131,-0.06 -0.238,-0.092 -0.108,-0.032 -0.196,-0.072 -0.196,-0.091 0,-0.022 -0.033,-0.032 -0.073,-0.032 -0.039,0 -0.126,-0.029 -0.191,-0.063 -0.064,-0.034 -0.151,-0.064 -0.191,-0.064 -0.072,0 -0.263,-0.063 -0.528,-0.187 -0.074,-0.031 -0.195,-0.088 -0.27,-0.117 -0.075,-0.031 -0.229,-0.101 -0.342,-0.149 -0.35,-0.15 -0.825,-0.327 -0.889,-0.327 -0.033,0 -0.089,-0.02 -0.125,-0.057 -0.036,-0.027 -0.141,-0.077 -0.231,-0.104 -0.092,-0.027 -0.203,-0.066 -0.249,-0.088 -0.291,-0.125 -0.789,-0.291 -0.869,-0.291 -0.053,0 -0.118,-0.025 -0.146,-0.062 -0.079,-0.099 -0.106,-0.047 -0.09,0.155 0.01,0.132 0.031,0.185 0.066,0.168 0.028,-0.011 0.075,0.013 0.104,0.048 0.029,0.031 0.079,0.062 0.111,0.062 0.032,0 0.101,0.024 0.151,0.061 0.05,0.03 0.222,0.099 0.382,0.146 0.159,0.052 0.327,0.106 0.373,0.127 0.046,0.022 0.232,0.085 0.415,0.147 0.183,0.06 0.35,0.127 0.371,0.145 0.021,0.021 0.065,0.038 0.097,0.038 0.032,0 0.117,0.026 0.189,0.059 0.271,0.119 0.545,0.205 0.694,0.221 0.104,0.009 0.195,0.052 0.278,0.136 0.079,0.078 0.186,0.137 0.294,0.151 0.094,0.015 0.17,0.043 0.17,0.063 0,0.021 0.05,0.034 0.109,0.034 0.061,0 0.252,0.071 0.426,0.155 0.173,0.084 0.333,0.145 0.354,0.143 0.036,-0.011 0.392,0.152 0.438,0.2 0.012,0.014 0.039,0.021 0.063,0.023 0.112,0.013 0.315,0.072 0.335,0.104 0.031,0.053 0.301,0.161 0.396,0.161 0.043,0 0.078,0.017 0.078,0.037 0,0.047 0.228,0.129 0.358,0.129 0.054,0 0.098,0.019 0.098,0.039 0,0.02 0.07,0.054 0.155,0.064 0.086,0.018 0.174,0.042 0.197,0.063 0.078,0.062 0.393,0.099 0.393,0.048 z m -0.953,0.018 c 0,-0.009 -0.038,-0.025 -0.083,-0.037 -0.046,-0.013 -0.083,-0.006 -0.083,0.015 0,0.023 0.037,0.038 0.083,0.038 0.045,0 0.083,-0.008 0.083,-0.016 z m 1.202,0.098 c -0.045,-0.084 -0.207,-0.116 -0.207,-0.041 0,0.022 0.036,0.041 0.08,0.041 0.044,0 0.092,0.021 0.106,0.043 0.048,0.078 0.066,0.041 0.021,-0.043 z m -0.881,0.033 c -0.01,-0.029 -0.063,-0.055 -0.117,-0.057 -0.094,-0.004 -0.095,-0.002 -0.007,0.014 0.052,0.01 0.083,0.033 0.07,0.055 -0.014,0.021 -0.003,0.039 0.023,0.039 0.026,0 0.04,-0.024 0.031,-0.051 z M -4.585,-37.352 c 0,-0.035 0.02,-0.053 0.043,-0.038 0.022,0.015 0.031,0.044 0.018,0.064 -0.035,0.058 -0.061,0.046 -0.061,-0.026 z m 24.045,17.731 c -0.059,-0.08 -0.115,-0.118 -0.155,-0.102 -0.034,0.014 -0.05,0.012 -0.034,-0.006 0.017,-0.015 -0.059,-0.09 -0.167,-0.166 -0.107,-0.074 -0.22,-0.156 -0.248,-0.181 -0.028,-0.027 -0.072,-0.036 -0.096,-0.022 -0.024,0.018 -0.055,-0.014 -0.067,-0.062 -0.012,-0.047 -0.055,-0.086 -0.096,-0.086 -0.04,0 -0.096,-0.028 -0.124,-0.064 -0.028,-0.035 -0.077,-0.063 -0.109,-0.063 -0.031,0 -0.057,-0.016 -0.057,-0.032 0,-0.017 -0.089,-0.086 -0.197,-0.151 -0.108,-0.063 -0.206,-0.138 -0.218,-0.145 -0.011,-0.018 -0.067,-0.053 -0.124,-0.081 -0.102,-0.05 -0.698,-0.434 -0.921,-0.585 -0.063,-0.043 -0.125,-0.079 -0.141,-0.079 -0.016,0 -0.183,-0.104 -0.371,-0.229 -0.188,-0.125 -0.371,-0.23 -0.406,-0.23 -0.034,0 -0.144,-0.062 -0.242,-0.136 -0.098,-0.075 -0.212,-0.148 -0.252,-0.164 -0.04,-0.018 -0.072,-0.047 -0.072,-0.071 0,-0.019 -0.028,-0.043 -0.063,-0.043 -0.035,0 -0.063,-0.019 -0.063,-0.043 0,-0.02 -0.041,-0.058 -0.093,-0.08 -0.219,-0.09 -0.844,-0.567 -0.918,-0.706 -0.069,-0.128 -0.307,-0.288 -0.424,-0.288 -0.063,0 -0.246,-0.157 -0.718,-0.622 -0.538,-0.526 -1.236,-1.181 -1.359,-1.266 -0.049,-0.036 -0.271,-0.24 -0.493,-0.458 -0.222,-0.216 -0.42,-0.395 -0.44,-0.395 -0.02,0 -0.106,-0.067 -0.192,-0.153 -0.086,-0.086 -0.238,-0.223 -0.339,-0.303 -0.198,-0.156 -0.269,-0.227 -1.723,-1.639 -1.479,-1.437 -1.512,-1.469 -1.512,-1.446 0,0.022 -0.743,-0.724 -1.168,-1.168 -0.129,-0.136 -0.307,-0.313 -0.394,-0.394 -0.088,-0.08 -0.206,-0.209 -0.263,-0.283 -0.106,-0.144 -0.668,-0.715 -1.208,-1.228 -0.168,-0.16 -0.422,-0.412 -0.563,-0.565 -0.227,-0.232 -0.4,-0.398 -1.091,-1.034 -0.606,-0.561 -1.126,-1.046 -1.295,-1.22 -0.18,-0.185 -0.196,-0.218 -0.173,-0.345 0.024,-0.127 0.008,-0.159 -0.175,-0.347 -0.111,-0.112 -0.226,-0.204 -0.254,-0.207 -0.028,0 -0.052,-0.019 -0.052,-0.038 0,-0.022 -0.07,-0.063 -0.155,-0.089 -0.086,-0.026 -0.202,-0.084 -0.26,-0.123 -0.104,-0.073 -0.58,-0.133 -0.58,-0.071 0,0.02 0.042,0.033 0.094,0.037 0.059,0.002 0.068,0.01 0.027,0.02 -0.036,0.01 -0.157,-0.027 -0.27,-0.084 -0.113,-0.055 -0.316,-0.111 -0.453,-0.125 -0.137,-0.016 -0.352,-0.037 -0.477,-0.051 -0.126,-0.012 -0.452,-0.062 -0.726,-0.104 -0.274,-0.042 -0.558,-0.091 -0.63,-0.104 -0.105,-0.018 -0.135,-0.042 -0.146,-0.132 -0.012,-0.101 -0.041,-0.118 -0.297,-0.185 -0.157,-0.039 -0.306,-0.09 -0.332,-0.108 -0.08,-0.064 -0.441,-0.104 -0.441,-0.047 0,0.032 -0.037,0.038 -0.114,0.019 -0.063,-0.017 -0.17,-0.029 -0.238,-0.033 -0.095,-0.006 -0.127,-0.023 -0.138,-0.101 -0.012,-0.088 -0.186,-0.26 -0.261,-0.26 -0.05,0 -0.091,0.187 -0.062,0.276 0.014,0.041 0.07,0.131 0.127,0.198 0.182,0.22 0.227,0.291 0.374,0.591 0.058,0.118 0.143,0.236 0.188,0.262 0.046,0.022 0.083,0.067 0.083,0.103 0,0.031 0.014,0.062 0.03,0.07 0.036,0.017 0.398,0.737 0.59,1.176 0.07,0.158 0.146,0.317 0.168,0.353 0.021,0.031 0.078,0.132 0.124,0.218 0.047,0.089 0.103,0.155 0.125,0.155 0.022,0 0.041,0.061 0.041,0.125 0,0.082 0.021,0.124 0.062,0.124 0.034,0 0.063,0.029 0.063,0.07 0,0.039 0.112,0.268 0.249,0.5 0.137,0.236 0.249,0.445 0.249,0.469 0,0.025 0.043,0.107 0.096,0.193 0.053,0.084 0.207,0.377 0.342,0.651 0.226,0.459 0.352,0.644 0.438,0.644 0.019,0 0.047,0.05 0.063,0.108 0.028,0.115 0.237,0.449 0.308,0.492 0.021,0.015 0.039,0.06 0.039,0.101 0,0.039 0.035,0.114 0.079,0.164 0.043,0.051 0.131,0.196 0.194,0.327 0.063,0.132 0.173,0.32 0.242,0.425 0.152,0.224 0.192,0.284 0.359,0.568 0.07,0.12 0.146,0.218 0.166,0.218 0.02,0 0.037,0.02 0.037,0.046 0,0.023 0.065,0.129 0.146,0.231 l 0.145,0.191 v -0.144 c 0,-0.077 -0.037,-0.202 -0.083,-0.274 -0.045,-0.075 -0.082,-0.155 -0.082,-0.178 0,-0.023 -0.038,-0.076 -0.083,-0.123 -0.046,-0.048 -0.083,-0.109 -0.083,-0.147 0,-0.032 -0.016,-0.062 -0.035,-0.062 -0.038,0 -0.131,-0.186 -0.131,-0.257 0,-0.065 0.155,0.084 0.258,0.255 0.05,0.082 0.103,0.156 0.118,0.168 0.015,0.014 0.065,0.098 0.112,0.187 0.046,0.093 0.18,0.293 0.296,0.448 0.116,0.152 0.211,0.289 0.211,0.297 0,0.025 0.35,0.541 0.377,0.553 0.015,0.008 0.146,0.122 0.291,0.26 0.146,0.138 0.293,0.271 0.327,0.306 0.034,0.03 0.127,0.129 0.205,0.218 0.078,0.09 0.194,0.187 0.259,0.211 0.065,0.026 0.117,0.069 0.117,0.096 0,0.063 0.866,0.908 1.002,0.979 0.111,0.06 0.184,0.244 0.151,0.394 -0.007,0.031 0.01,0.061 0.039,0.052 0.028,-0.007 0.052,0.013 0.052,0.034 0,0.022 0.065,0.041 0.155,0.033 0.253,-0.017 0.342,0 0.342,0.058 0,0.14 0.326,0.268 0.395,0.154 0.014,-0.02 0.079,-0.042 0.144,-0.042 0.1,0 0.124,0.022 0.147,0.128 0.03,0.142 0.209,0.236 0.595,0.337 0.105,0.024 0.215,0.068 0.242,0.102 0.027,0.024 0.194,0.107 0.371,0.184 0.176,0.073 0.452,0.193 0.613,0.269 0.289,0.131 0.524,0.222 0.645,0.25 0.158,0.034 0.656,0.252 0.768,0.332 0.175,0.127 0.474,0.263 0.644,0.297 0.079,0.016 0.163,0.041 0.186,0.06 0.038,0.026 0.317,0.129 0.415,0.147 0.056,0.011 0.595,0.213 0.726,0.271 0.166,0.07 0.259,0.106 0.436,0.165 0.091,0.029 0.228,0.087 0.302,0.128 0.075,0.04 0.173,0.07 0.219,0.07 0.045,0 0.114,0.02 0.154,0.04 0.285,0.15 0.959,0.459 1.008,0.459 0.032,0 0.152,0.044 0.267,0.101 0.114,0.059 0.282,0.133 0.373,0.17 0.091,0.037 0.198,0.084 0.238,0.104 0.039,0.021 0.098,0.041 0.129,0.041 0.032,0 0.148,0.037 0.26,0.084 0.111,0.046 0.249,0.104 0.307,0.13 0.057,0.024 0.136,0.062 0.175,0.08 0.04,0.022 0.108,0.036 0.153,0.036 0.045,0 0.093,0.021 0.106,0.043 0.015,0.021 0.063,0.041 0.107,0.041 0.046,0 0.175,0.046 0.287,0.104 0.112,0.058 0.238,0.105 0.279,0.105 0.041,0 0.112,0.022 0.157,0.056 0.045,0.031 0.24,0.117 0.435,0.194 0.193,0.078 0.389,0.166 0.434,0.192 0.045,0.026 0.12,0.056 0.166,0.058 0.046,0 0.12,0.024 0.165,0.062 0.044,0.031 0.123,0.063 0.176,0.063 0.053,0 0.096,0.02 0.096,0.041 0,0.021 0.054,0.041 0.119,0.041 0.066,0 0.142,0.025 0.169,0.062 0.027,0.029 0.109,0.068 0.182,0.088 0.073,0.02 0.15,0.042 0.173,0.062 0.023,0.018 0.178,0.051 0.344,0.079 0.167,0.023 0.335,0.062 0.374,0.086 0.039,0.02 0.322,0.123 0.63,0.228 0.309,0.106 0.622,0.221 0.696,0.252 0.075,0.031 0.172,0.061 0.216,0.061 0.043,0 0.09,0.021 0.104,0.043 0.014,0.021 0.068,0.027 0.121,0.019 0.064,-0.019 0.104,-0.005 0.121,0.042 0.014,0.033 0.045,0.064 0.068,0.064 0.023,-0.004 0.002,-0.061 -0.05,-0.129 z m -2.345,0.263 c -0.028,-0.011 -0.075,-0.011 -0.104,0 -0.028,0.011 -0.005,0.022 0.052,0.022 0.057,0 0.08,-0.011 0.052,-0.022 z m -35.214,0.287 c 0.085,-0.185 0.314,-0.513 0.38,-0.543 0.017,-0.007 0.031,-0.031 0.031,-0.052 0,-0.112 0.483,-1.099 0.619,-1.263 0.088,-0.104 0.025,-0.114 -0.139,-0.02 -0.084,0.046 -0.188,0.083 -0.23,0.083 -0.044,0 -0.092,0.021 -0.106,0.045 -0.016,0.024 -0.072,0.061 -0.127,0.082 -0.063,0.021 -0.1,0.071 -0.1,0.125 0,0.063 -0.02,0.082 -0.063,0.063 -0.035,-0.014 -0.063,-0.001 -0.063,0.028 0,0.027 -0.054,0.127 -0.119,0.217 -0.065,0.093 -0.17,0.265 -0.231,0.38 -0.062,0.119 -0.144,0.228 -0.182,0.238 -0.059,0.022 -0.256,0.384 -0.256,0.477 0,0.015 -0.037,0.054 -0.083,0.088 -0.143,0.104 -0.101,0.166 0.114,0.168 0.108,0.002 0.234,0.021 0.28,0.039 0.15,0.064 0.184,0.045 0.275,-0.155 z m -1.278,15.675 c 0.01,-0.177 0.039,-0.761 0.065,-1.296 0.025,-0.536 0.065,-1.095 0.088,-1.244 0.023,-0.148 0.049,-0.344 0.059,-0.435 0.01,-0.092 0.028,-0.241 0.041,-0.332 0.012,-0.092 0.034,-0.478 0.048,-0.855 0.014,-0.377 0.047,-1.043 0.073,-1.479 0.045,-0.733 0.044,-0.799 -0.021,-0.813 -0.122,-0.029 -0.131,-0.349 -0.036,-1.275 0.05,-0.491 0.078,-0.973 0.064,-1.088 -0.029,-0.242 0.149,-1.963 0.354,-3.428 0.027,-0.191 0.049,-0.491 0.047,-0.663 -0.001,-0.171 0.014,-0.328 0.032,-0.354 0.018,-0.023 0.047,-0.176 0.063,-0.34 0.026,-0.272 0.022,-0.301 -0.057,-0.342 -0.077,-0.043 -0.082,-0.072 -0.06,-0.326 0.014,-0.151 0.04,-0.312 0.059,-0.35 0.053,-0.103 0.084,-0.505 0.044,-0.564 -0.019,-0.028 -0.153,-0.082 -0.299,-0.116 -0.285,-0.064 -0.413,-0.148 -0.413,-0.269 0,-0.067 0.068,-0.102 0.177,-0.082 0.017,0.002 0.031,-0.049 0.031,-0.111 0,-0.066 0.078,-0.232 0.19,-0.402 0.104,-0.158 0.243,-0.393 0.308,-0.52 0.065,-0.127 0.146,-0.256 0.183,-0.286 0.037,-0.028 0.065,-0.082 0.065,-0.113 0,-0.034 0.034,-0.107 0.076,-0.174 0.042,-0.06 0.173,-0.279 0.292,-0.489 0.119,-0.209 0.252,-0.395 0.295,-0.403 0.044,-0.017 0.09,-0.063 0.104,-0.106 0.014,-0.045 0.089,-0.156 0.168,-0.259 0.078,-0.099 0.143,-0.192 0.144,-0.213 0,-0.021 0.045,-0.095 0.101,-0.166 0.056,-0.071 0.113,-0.184 0.128,-0.244 0.016,-0.062 0.056,-0.122 0.089,-0.133 0.034,-0.015 0.05,-0.043 0.035,-0.063 -0.014,-0.021 -0.008,-0.041 0.015,-0.041 0.021,0 0.059,-0.06 0.083,-0.125 0.023,-0.064 0.063,-0.125 0.088,-0.125 0.03,0 0.032,-0.021 0.006,-0.071 -0.047,-0.09 0.013,-0.218 0.101,-0.218 0.033,0 0.083,-0.038 0.111,-0.084 0.028,-0.045 0.085,-0.082 0.125,-0.082 0.079,0 0.099,-0.062 0.031,-0.103 -0.022,-0.017 -0.041,-0.064 -0.041,-0.105 0,-0.063 0.029,-0.081 0.145,-0.081 0.208,0 0.466,-0.111 0.563,-0.254 0.047,-0.062 0.107,-0.119 0.135,-0.119 0.074,-0.001 0.92,-0.902 1.044,-1.113 0.059,-0.105 0.322,-0.428 0.662,-0.815 0.16,-0.183 0.342,-0.392 0.403,-0.467 0.061,-0.071 0.121,-0.132 0.134,-0.132 0.013,0 0.103,-0.086 0.199,-0.191 0.098,-0.106 0.322,-0.339 0.499,-0.514 0.325,-0.325 0.404,-0.474 0.23,-0.424 l -0.091,0.019 0.09,-0.121 c 0.185,-0.248 0.212,-0.273 0.255,-0.248 0.024,0.016 0.044,0.004 0.044,-0.027 0,-0.078 0.097,-0.281 0.135,-0.281 0.018,0 0.031,-0.023 0.031,-0.063 0,-0.074 0.066,-0.082 0.1,-0.01 0.014,0.03 0.014,0.012 0.002,-0.039 -0.029,-0.118 0.126,-0.416 0.469,-0.896 0.074,-0.104 0.135,-0.201 0.135,-0.219 0,-0.016 0.052,-0.098 0.114,-0.18 0.063,-0.08 0.147,-0.222 0.188,-0.312 0.041,-0.096 0.09,-0.18 0.108,-0.19 0.018,-0.011 0.094,-0.125 0.166,-0.25 0.073,-0.125 0.208,-0.329 0.299,-0.454 0.092,-0.127 0.197,-0.274 0.235,-0.332 0.038,-0.059 0.112,-0.149 0.163,-0.207 0.052,-0.057 0.122,-0.162 0.155,-0.231 0.034,-0.073 0.088,-0.153 0.12,-0.18 0.032,-0.025 0.082,-0.107 0.11,-0.184 0.093,-0.241 0.293,-0.614 0.438,-0.815 0.078,-0.106 0.142,-0.209 0.142,-0.224 0,-0.013 0.063,-0.091 0.141,-0.175 0.212,-0.23 0.264,-0.293 0.318,-0.397 0.027,-0.053 0.066,-0.111 0.086,-0.14 0.135,-0.163 0.284,-0.37 0.284,-0.397 0,-0.018 0.033,-0.062 0.074,-0.105 0.137,-0.146 0.529,-0.745 0.587,-0.889 0.032,-0.08 0.083,-0.178 0.113,-0.212 0.03,-0.034 0.056,-0.118 0.057,-0.189 10e-4,-0.063 0.028,-0.153 0.063,-0.198 0.06,-0.078 0.061,-0.078 0.061,0.008 0,0.052 -0.019,0.103 -0.041,0.112 -0.049,0.028 -0.057,0.147 -0.011,0.147 0.045,-0.006 0.301,-0.36 0.301,-0.422 0,-0.025 0.024,-0.076 0.055,-0.113 0.029,-0.035 0.09,-0.147 0.133,-0.252 0.044,-0.104 0.09,-0.196 0.104,-0.207 0.013,-0.015 0.049,-0.103 0.08,-0.198 0.031,-0.095 0.073,-0.175 0.094,-0.175 0.021,0 0.026,0.02 0.012,0.041 -0.014,0.021 0.014,0.043 0.061,0.043 0.055,0 0.105,-0.043 0.138,-0.116 0.028,-0.062 0.079,-0.145 0.113,-0.183 0.113,-0.127 0.154,-0.188 0.208,-0.285 0.029,-0.06 0.064,-0.112 0.079,-0.121 0.048,-0.038 0.293,-0.428 0.293,-0.467 0,-0.021 0.019,-0.026 0.042,-0.015 0.023,0.019 0.041,-0.02 0.041,-0.08 0,-0.06 0.019,-0.104 0.042,-0.104 0.022,0 0.041,0.021 0.042,0.053 0,0.036 0.01,0.034 0.036,-0.007 0.03,-0.048 0.039,-0.048 0.059,0 0.012,0.032 0.023,-0.021 0.025,-0.123 0.002,-0.097 0.021,-0.213 0.044,-0.254 0.057,-0.103 0.167,-0.862 0.165,-1.13 -0.001,-0.211 -0.003,-0.215 -0.061,-0.116 -0.032,0.06 -0.06,0.082 -0.061,0.058 -0.001,-0.024 -0.063,-0.058 -0.137,-0.063 -0.103,-0.01 -0.135,-0.031 -0.135,-0.096 0,-0.063 0.064,-0.113 0.228,-0.192 0.262,-0.125 0.281,-0.166 0.288,-0.613 0.006,-0.4 0.044,-0.473 0.191,-0.331 0.06,0.06 0.121,0.103 0.137,0.095 0.034,-0.014 0.026,0.24 -0.015,0.478 l -0.031,0.179 0.244,-0.022 c 0.134,-0.014 0.314,-0.032 0.399,-0.043 0.133,-0.018 0.155,-0.008 0.155,0.063 0,0.084 -0.222,0.181 -0.56,0.233 -0.266,0.045 -0.3,0.079 -0.333,0.316 -0.016,0.12 -0.056,0.341 -0.088,0.488 -0.032,0.148 -0.08,0.39 -0.106,0.534 l -0.047,0.269 0.179,0.145 c 0.098,0.082 0.265,0.173 0.37,0.204 0.391,0.109 0.859,0.21 1.005,0.212 0.083,0.002 0.172,0.026 0.197,0.061 0.024,0.027 0.153,0.08 0.284,0.107 0.269,0.064 0.453,0.146 0.475,0.209 0.008,0.022 0.172,0.082 0.365,0.13 0.193,0.048 0.389,0.105 0.436,0.132 0.145,0.077 1.159,0.315 1.361,0.317 0.077,0.001 0.106,0.019 0.087,0.048 -0.021,0.036 0.007,0.041 0.1,0.022 0.071,-0.015 0.141,-0.008 0.154,0.017 0.013,0.022 0.07,0.041 0.127,0.041 0.146,0 0.211,-0.157 0.149,-0.362 -0.05,-0.168 -0.151,-2.371 -0.127,-2.748 0.013,-0.186 0.028,-0.227 0.088,-0.224 0.047,0.004 0.072,-0.022 0.072,-0.075 0,-0.096 -0.092,-0.084 -0.388,0.047 -0.095,0.043 -0.256,0.109 -0.358,0.148 -0.103,0.037 -0.21,0.087 -0.238,0.109 -0.039,0.027 -0.052,0.019 -0.052,-0.063 0,-0.141 0.157,-0.255 0.651,-0.49 l 0.382,-0.179 0.002,-0.463 c 0.001,-0.397 0.012,-0.47 0.07,-0.489 0.116,-0.045 0.158,0.049 0.174,0.392 0.011,0.235 0.033,0.345 0.08,0.384 0.055,0.043 0.061,0.043 0.031,-0.007 -0.027,-0.045 -0.015,-0.054 0.054,-0.034 0.05,0.013 0.09,0.008 0.09,-0.013 0,-0.02 0.079,-0.06 0.176,-0.084 0.098,-0.024 0.21,-0.063 0.25,-0.085 0.091,-0.049 0.125,0.022 0.105,0.216 -0.013,0.13 -0.027,0.142 -0.241,0.192 -0.125,0.032 -0.291,0.084 -0.367,0.119 l -0.139,0.063 0.035,0.937 c 0.02,0.522 0.03,1.112 0.023,1.321 -0.007,0.209 0.006,0.39 0.027,0.403 0.021,0.013 -0.005,0.11 -0.061,0.226 -0.073,0.146 -0.107,0.3 -0.127,0.578 l -0.026,0.379 0.265,0.261 c 0.146,0.147 0.455,0.48 0.686,0.739 0.231,0.261 0.527,0.578 0.658,0.705 0.131,0.125 0.277,0.269 0.326,0.327 0.049,0.056 0.198,0.203 0.333,0.331 0.134,0.127 0.339,0.333 0.456,0.458 0.116,0.125 0.27,0.283 0.341,0.354 0.21,0.204 1.139,1.1 1.377,1.325 0.122,0.112 0.315,0.313 0.432,0.442 0.115,0.129 0.291,0.297 0.391,0.371 0.1,0.071 0.181,0.155 0.181,0.189 0,0.025 0.042,0.074 0.094,0.107 0.095,0.063 0.611,0.565 0.611,0.602 0,0.009 0.107,0.125 0.238,0.255 0.131,0.133 0.344,0.352 0.473,0.484 0.129,0.132 0.352,0.35 0.494,0.477 0.322,0.284 0.678,0.639 1.055,1.049 0.16,0.177 0.303,0.319 0.318,0.319 0.045,0 0.283,0.252 0.283,0.298 0,0.021 0.028,0.032 0.063,0.02 0.034,-0.014 0.062,-0.002 0.062,0.021 0,0.082 0.768,0.739 0.864,0.739 0.024,0 0.06,0.019 0.077,0.052 0.019,0.025 0.117,0.124 0.22,0.211 0.103,0.088 0.271,0.239 0.375,0.332 0.104,0.095 0.275,0.252 0.381,0.35 0.106,0.1 0.213,0.178 0.237,0.178 0.024,0 0.044,0.019 0.044,0.043 0,0.045 0.24,0.288 0.595,0.606 0.106,0.096 0.193,0.193 0.193,0.218 0,0.025 0.026,0.044 0.06,0.044 0.032,0 0.071,0.038 0.085,0.083 0.015,0.047 0.063,0.083 0.107,0.083 0.044,0 0.08,0.022 0.08,0.058 0,0.027 0.068,0.107 0.152,0.175 0.083,0.065 0.217,0.19 0.297,0.276 0.101,0.106 0.18,0.154 0.26,0.154 0.063,0 0.131,0.025 0.149,0.061 0.018,0.029 0.143,0.146 0.278,0.255 0.135,0.108 0.349,0.31 0.477,0.439 0.25,0.263 0.344,0.291 0.457,0.149 0.096,-0.115 0.18,-0.066 0.126,0.073 -0.031,0.082 -0.023,0.127 0.031,0.201 0.078,0.101 0.29,0.215 0.374,0.195 0.03,-0.01 0.041,0.016 0.026,0.055 -0.019,0.049 0.005,0.062 0.104,0.062 0.082,0 0.129,0.022 0.129,0.061 0,0.03 0.032,0.067 0.072,0.084 0.04,0.015 0.147,0.07 0.238,0.129 0.092,0.056 0.264,0.134 0.384,0.172 0.12,0.037 0.218,0.087 0.218,0.106 0,0.019 0.039,0.026 0.087,0.021 0.048,-0.015 0.112,-0.016 0.144,0 0.048,0.018 0.048,0.028 -0.003,0.082 -0.054,0.052 -0.048,0.069 0.042,0.153 0.058,0.056 0.188,0.128 0.29,0.166 0.104,0.04 0.178,0.091 0.167,0.104 -0.012,0.021 0.03,0.047 0.093,0.063 0.063,0.017 0.146,0.058 0.186,0.094 0.052,0.047 0.087,0.052 0.124,0.021 0.082,-0.064 0.322,0.049 0.322,0.151 0,0.063 0.027,0.085 0.094,0.085 0.069,0 0.078,0.014 0.036,0.038 -0.075,0.046 -0.033,0.108 0.153,0.229 0.084,0.056 0.197,0.138 0.252,0.187 0.055,0.048 0.128,0.087 0.162,0.087 0.035,0 0.093,0.028 0.129,0.064 0.112,0.108 0.637,0.44 0.769,0.487 0.161,0.055 0.271,0.18 0.271,0.307 0,0.103 -0.02,0.117 -0.252,0.156 l -0.149,0.022 0.028,0.187 c 0.016,0.104 0.026,0.188 0.024,0.188 -0.037,0.029 -0.181,0.021 -0.224,-0.015 -0.031,-0.024 -0.144,-0.064 -0.25,-0.077 -0.544,-0.09 -0.903,-0.217 -1.471,-0.522 -0.138,-0.07 -0.217,-0.052 -0.248,0.067 -0.015,0.056 -0.003,0.086 0.036,0.086 0.032,0 0.059,0.021 0.059,0.043 0,0.022 0.033,0.041 0.073,0.041 0.041,0 0.113,0.025 0.16,0.063 0.048,0.03 0.096,0.052 0.105,0.041 0.011,-0.013 0.092,0.021 0.181,0.064 0.089,0.045 0.242,0.082 0.34,0.082 0.118,0 0.188,0.02 0.202,0.061 0.013,0.032 0.078,0.07 0.145,0.087 0.066,0.016 0.121,0.043 0.121,0.063 0,0.021 0.036,0.039 0.08,0.039 0.044,0 0.092,0.018 0.106,0.041 0.014,0.021 0.059,0.041 0.1,0.041 0.04,0 0.105,0.033 0.145,0.078 0.04,0.043 0.118,0.088 0.176,0.099 0.082,0.019 0.112,-0.002 0.143,-0.082 0.021,-0.056 0.029,-0.118 0.017,-0.138 -0.021,-0.033 0.119,-0.205 0.167,-0.205 0.012,0 0.021,0.025 0.021,0.063 0,0.034 0.037,0.097 0.083,0.134 0.123,0.103 0.104,0.266 -0.046,0.396 -0.164,0.146 -0.296,0.18 -0.453,0.112 -0.067,-0.028 -0.179,-0.039 -0.247,-0.026 -0.132,0.026 -0.39,-0.093 -0.487,-0.228 -0.032,-0.045 -0.084,-0.063 -0.138,-0.049 -0.047,0.016 -0.126,0.004 -0.176,-0.021 -0.106,-0.049 -0.33,-0.11 -0.65,-0.182 -0.245,-0.054 -0.378,-0.106 -0.422,-0.177 -0.016,-0.02 -0.135,-0.047 -0.267,-0.054 -0.165,-0.005 -0.254,-0.026 -0.288,-0.073 -0.026,-0.037 -0.08,-0.063 -0.117,-0.063 -0.037,0 -0.067,-0.021 -0.067,-0.043 0,-0.021 -0.026,-0.041 -0.058,-0.041 -0.032,0 -0.08,-0.028 -0.108,-0.063 -0.037,-0.045 -0.134,-0.062 -0.334,-0.062 -0.234,0 -0.302,-0.021 -0.399,-0.101 -0.064,-0.056 -0.201,-0.129 -0.304,-0.169 -0.103,-0.04 -0.233,-0.114 -0.29,-0.167 -0.058,-0.055 -0.169,-0.132 -0.249,-0.177 -0.08,-0.043 -0.189,-0.107 -0.244,-0.147 -0.055,-0.039 -0.133,-0.069 -0.174,-0.069 -0.042,0 -0.095,-0.034 -0.118,-0.073 -0.025,-0.045 -0.042,-0.052 -0.043,-0.02 -10e-4,0.028 -0.02,0.044 -0.043,0.027 -0.022,-0.016 -0.071,-0.013 -0.107,0.014 -0.073,0.039 -0.515,-0.103 -0.515,-0.161 0,-0.022 -0.029,-0.035 -0.064,-0.035 -0.035,0 -0.19,-0.065 -0.345,-0.147 -0.155,-0.081 -0.292,-0.146 -0.306,-0.146 -0.014,0 -0.202,-0.084 -0.419,-0.188 -0.217,-0.103 -0.411,-0.187 -0.433,-0.187 -0.022,0 -0.184,-0.075 -0.359,-0.164 -0.177,-0.092 -0.333,-0.165 -0.348,-0.161 -0.016,0.002 -0.098,-0.022 -0.183,-0.063 -0.084,-0.036 -0.179,-0.067 -0.209,-0.067 -0.03,0 -0.074,-0.021 -0.098,-0.043 -0.024,-0.021 -0.114,-0.045 -0.202,-0.047 -0.087,-0.004 -0.245,-0.05 -0.351,-0.102 -0.106,-0.053 -0.298,-0.116 -0.429,-0.146 -0.13,-0.032 -0.237,-0.071 -0.237,-0.088 0,-0.021 -0.074,-0.032 -0.165,-0.032 -0.125,0 -0.166,-0.02 -0.166,-0.065 0,-0.042 -0.023,-0.06 -0.062,-0.043 -0.033,0.015 -0.071,0.005 -0.085,-0.018 -0.014,-0.021 -0.004,-0.04 0.021,-0.04 0.025,0 0.035,-0.02 0.021,-0.041 -0.014,-0.019 -0.077,-0.027 -0.142,-0.015 -0.1,0.019 -0.121,0.006 -0.144,-0.082 -0.019,-0.072 -0.063,-0.113 -0.15,-0.134 -0.068,-0.019 -0.125,-0.045 -0.125,-0.063 0,-0.021 -0.037,-0.038 -0.083,-0.038 -0.045,0 -0.083,-0.02 -0.083,-0.043 0,-0.06 -0.113,-0.05 -0.138,0.013 -0.015,0.032 -0.022,0.028 -0.024,-0.014 -0.004,-0.068 -0.391,-0.262 -0.625,-0.312 -0.142,-0.026 -0.428,-0.149 -0.928,-0.396 -0.133,-0.066 -0.287,-0.121 -0.342,-0.121 -0.055,0 -0.1,-0.021 -0.1,-0.043 0,-0.068 -0.109,-0.164 -0.188,-0.164 -0.038,0 -0.116,-0.037 -0.174,-0.082 -0.059,-0.047 -0.15,-0.084 -0.204,-0.084 -0.054,0 -0.098,-0.015 -0.098,-0.033 0,-0.019 -0.042,-0.057 -0.094,-0.08 -0.186,-0.092 -0.953,-0.383 -1.008,-0.383 -0.03,0 -0.141,-0.047 -0.244,-0.101 -0.104,-0.06 -0.249,-0.114 -0.323,-0.127 -0.218,-0.047 -0.395,-0.144 -0.544,-0.293 -0.076,-0.078 -0.158,-0.147 -0.182,-0.147 -0.024,0 -0.052,-0.037 -0.063,-0.08 -0.018,-0.062 -0.008,-0.074 0.047,-0.043 0.037,0.022 0.175,0.071 0.307,0.112 0.225,0.073 0.238,0.073 0.238,0.009 0,-0.041 -0.028,-0.084 -0.063,-0.099 -0.035,-0.015 -0.081,-0.067 -0.103,-0.128 -0.022,-0.06 -0.07,-0.103 -0.113,-0.099 -0.139,0.007 -0.427,-0.096 -0.427,-0.151 0,-0.06 -0.196,-0.209 -0.275,-0.211 -0.026,0 -0.083,-0.043 -0.126,-0.097 -0.063,-0.077 -0.139,-0.103 -0.399,-0.133 -0.176,-0.019 -0.335,-0.045 -0.353,-0.056 -0.018,-0.011 -0.152,-0.032 -0.3,-0.045 -0.147,-0.018 -0.37,-0.041 -0.496,-0.065 -0.275,-0.043 -0.676,-0.072 -1.368,-0.103 -1.891,-0.08 -2.494,-0.113 -2.692,-0.147 -0.124,-0.019 -0.229,-0.031 -0.233,-0.026 -0.005,0.011 -0.021,0.052 -0.034,0.099 -0.045,0.145 0.058,0.228 0.317,0.255 0.13,0.014 0.237,0.041 0.237,0.063 0,0.021 0.018,0.023 0.04,0.016 0.021,-0.016 0.076,-0.002 0.121,0.023 0.063,0.04 0.105,0.041 0.191,0.001 0.089,-0.04 0.131,-0.038 0.221,0.013 0.175,0.093 1.062,0.236 1.563,0.254 0.251,0.009 0.605,0.031 0.788,0.052 0.366,0.041 0.982,0.034 1.057,-0.013 0.028,-0.019 0.057,0.006 0.069,0.054 0.019,0.073 0.069,0.092 0.332,0.114 0.183,0.02 0.348,0.013 0.4,-0.014 0.069,-0.029 0.573,-0.039 0.826,-0.016 0.018,0 0.031,0.051 0.031,0.106 0,0.071 -0.022,0.103 -0.078,0.103 -0.044,0 -0.091,0.03 -0.104,0.067 -0.016,0.047 -0.056,0.066 -0.103,0.054 -0.042,-0.011 -0.104,-0.005 -0.139,0.014 -0.035,0.022 -0.236,0.01 -0.469,-0.025 -0.224,-0.034 -0.418,-0.061 -0.433,-0.061 -0.044,0 -0.126,0.266 -0.126,0.408 0,0.075 -0.029,0.264 -0.065,0.422 -0.088,0.385 -0.072,0.473 0.086,0.489 0.301,0.029 0.508,0.042 0.643,0.046 0.08,0.002 0.166,0.018 0.191,0.034 0.061,0.041 0.124,0.233 0.064,0.201 -0.026,-0.021 -0.054,0.047 -0.071,0.157 -0.016,0.104 -0.042,0.188 -0.06,0.188 -0.051,0 -0.081,-0.166 -0.055,-0.294 0.015,-0.074 0.006,-0.12 -0.023,-0.12 -0.028,0 -0.047,0.084 -0.047,0.22 0,0.246 -0.117,0.776 -0.171,0.776 -0.046,0 -0.046,-0.104 0.002,-0.356 0.021,-0.11 0.044,-0.306 0.052,-0.433 l 0.014,-0.229 -0.275,-0.005 c -0.192,-0.003 -0.318,-0.025 -0.415,-0.086 -0.147,-0.086 -0.278,-0.305 -0.282,-0.465 -10e-4,-0.084 0.008,-0.093 0.062,-0.051 0.086,0.073 0.112,0.036 0.15,-0.218 0.089,-0.582 0.09,-0.631 0.014,-0.691 -0.138,-0.114 -1.056,-0.171 -1.175,-0.071 -0.126,0.104 -1.63,0.022 -1.955,-0.107 -0.034,-0.015 -0.137,-0.032 -0.229,-0.039 -0.091,-0.01 -0.265,-0.04 -0.385,-0.066 -0.162,-0.037 -0.234,-0.039 -0.275,-0.004 -0.061,0.051 -0.484,0.03 -0.781,-0.035 -0.161,-0.037 -0.688,-0.086 -1.15,-0.106 -0.103,-0.006 -0.263,-0.027 -0.354,-0.056 -0.238,-0.065 -0.796,-0.1 -0.827,-0.049 -0.038,0.062 -0.104,0.052 -0.104,-0.016 0,-0.135 0.356,-0.178 1.409,-0.172 0.56,0.004 1.038,-0.002 1.065,-0.012 0.035,-0.014 0.037,-0.053 0.004,-0.147 -0.069,-0.204 -0.095,-0.22 -0.394,-0.224 -0.155,-0.004 -0.258,0.006 -0.229,0.017 0.028,0.012 0.052,0.038 0.052,0.06 0,0.06 -0.157,0.046 -0.195,-0.019 -0.042,-0.069 -0.178,-0.12 -0.178,-0.062 0,0.019 -0.031,0.033 -0.07,0.027 -0.05,-0.011 -0.078,0.026 -0.099,0.124 -0.038,0.179 -0.08,0.218 -0.08,0.074 0,-0.063 -0.02,-0.149 -0.043,-0.193 -0.04,-0.071 -0.083,-0.079 -0.563,-0.065 -0.54,0.013 -0.622,-0.006 -0.646,-0.158 -0.014,-0.086 -0.046,-0.083 0.65,-0.107 0.046,-0.002 0.456,0.013 0.913,0.024 0.456,0.021 1.538,0.036 2.404,0.04 0.867,0.003 1.608,0.02 1.646,0.039 0.039,0.02 0.089,0.02 0.111,0.007 0.022,-0.011 0.052,-0.009 0.064,0.015 0.012,0.021 0.262,0.052 0.552,0.064 0.291,0.016 0.566,0.043 0.612,0.062 0.178,0.076 1.167,0.248 1.257,0.219 0.116,-0.037 0.028,-0.186 -0.345,-0.563 -0.254,-0.261 -0.719,-0.775 -0.763,-0.849 -0.033,-0.057 -0.17,-0.022 -0.17,0.039 0,0.054 -0.114,0.045 -0.149,-0.014 -0.017,-0.023 -0.001,-0.066 0.033,-0.094 0.083,-0.062 0.022,-0.228 -0.092,-0.261 -0.045,-0.015 -0.083,-0.036 -0.083,-0.051 0,-0.018 -0.061,-0.064 -0.135,-0.105 -0.135,-0.08 -0.234,-0.184 -0.236,-0.242 -0.002,-0.038 0.174,0.052 0.211,0.105 0.015,0.02 0.034,0.021 0.045,0.004 0.01,-0.022 -0.034,-0.137 -0.099,-0.262 -0.064,-0.125 -0.117,-0.211 -0.117,-0.194 0,0.056 -0.29,-0.343 -0.292,-0.397 -0.001,-0.026 -0.036,-0.01 -0.079,0.042 -0.048,0.059 -0.104,0.086 -0.144,0.068 -0.079,-0.03 -0.093,0.104 -0.02,0.18 0.049,0.051 0.022,0.18 -0.035,0.18 -0.018,0 -0.078,-0.09 -0.135,-0.198 -0.056,-0.106 -0.185,-0.3 -0.285,-0.425 -0.1,-0.125 -0.193,-0.256 -0.206,-0.289 -0.013,-0.036 -0.092,-0.155 -0.176,-0.271 -0.084,-0.112 -0.274,-0.438 -0.422,-0.729 -0.148,-0.286 -0.321,-0.608 -0.386,-0.728 -0.064,-0.112 -0.241,-0.448 -0.393,-0.745 -0.307,-0.6 -0.399,-0.768 -0.601,-1.078 -0.075,-0.119 -0.222,-0.396 -0.326,-0.615 -0.104,-0.221 -0.209,-0.397 -0.232,-0.397 -0.024,0 -0.044,-0.035 -0.044,-0.078 0,-0.044 -0.028,-0.09 -0.064,-0.104 -0.035,-0.013 -0.054,-0.042 -0.041,-0.063 0.014,-0.021 -0.009,-0.063 -0.05,-0.094 -0.068,-0.053 -0.166,-0.233 -0.452,-0.863 -0.058,-0.125 -0.121,-0.256 -0.142,-0.288 -0.021,-0.033 -0.078,-0.14 -0.127,-0.231 -0.049,-0.091 -0.133,-0.224 -0.188,-0.295 -0.054,-0.068 -0.098,-0.148 -0.098,-0.175 0,-0.03 -0.019,-0.052 -0.041,-0.052 -0.022,0 -0.041,-0.021 -0.041,-0.043 0,-0.022 -0.08,-0.155 -0.177,-0.295 -0.097,-0.142 -0.195,-0.28 -0.218,-0.317 -0.023,-0.037 -0.083,-0.138 -0.135,-0.219 -0.051,-0.082 -0.094,-0.193 -0.095,-0.248 -0.002,-0.205 -0.077,0.028 -0.098,0.308 -0.011,0.153 -0.031,0.295 -0.044,0.315 -0.013,0.019 -0.041,0.467 -0.062,0.982 -0.021,0.522 -0.069,1.328 -0.108,1.798 -0.058,0.695 -0.063,0.98 -0.028,1.573 0.025,0.433 0.027,0.856 0.007,1.038 -0.02,0.169 -0.056,0.57 -0.08,0.889 -0.038,0.489 -0.095,0.775 -0.144,0.726 -0.007,-0.01 0.003,-0.125 0.021,-0.265 0.04,-0.297 0.079,-1.233 0.049,-1.206 -0.059,0.063 -0.167,1.376 -0.12,1.46 0.034,0.064 -0.041,0.55 -0.1,0.646 -0.133,0.215 -0.161,-0.497 -0.059,-1.498 0.033,-0.333 0.073,-0.862 0.088,-1.186 0.023,-0.511 0.019,-0.591 -0.042,-0.648 -0.061,-0.063 -0.063,-0.122 -0.026,-0.538 0.038,-0.425 0.083,-0.847 0.141,-1.298 0.184,-1.452 0.239,-2 0.226,-2.219 l -0.014,-0.23 -0.049,0.23 c -0.143,0.655 -0.191,0.971 -0.21,1.347 -0.012,0.241 -0.042,0.442 -0.072,0.479 -0.028,0.035 -0.073,0.24 -0.101,0.457 -0.028,0.219 -0.077,0.584 -0.11,0.814 -0.033,0.231 -0.069,0.579 -0.08,0.77 -0.011,0.188 -0.038,0.418 -0.059,0.512 -0.021,0.092 -0.061,0.359 -0.086,0.603 -0.054,0.49 -0.062,0.543 -0.121,0.745 -0.035,0.117 -0.038,0.087 -0.019,-0.166 0.014,-0.171 0.03,-0.479 0.038,-0.684 0.007,-0.205 0.042,-0.494 0.078,-0.645 0.036,-0.15 0.076,-0.457 0.088,-0.687 0.013,-0.23 0.04,-0.489 0.062,-0.58 0.022,-0.092 0.048,-0.241 0.06,-0.332 0.011,-0.092 0.048,-0.344 0.081,-0.563 0.034,-0.217 0.09,-0.605 0.124,-0.87 0.063,-0.481 0.126,-0.834 0.273,-1.52 0.045,-0.211 0.083,-0.437 0.083,-0.499 0.001,-0.063 0.028,-0.162 0.062,-0.22 0.032,-0.06 0.06,-0.142 0.061,-0.185 0.001,-0.067 -0.008,-0.065 -0.093,0.021 -0.179,0.187 -0.776,1.101 -0.776,1.188 0,0.025 -0.028,0.052 -0.063,0.052 -0.035,0 -0.063,0.027 -0.063,0.062 0,0.067 0.073,0.081 0.155,0.03 0.027,-0.021 0.116,-0.168 0.196,-0.332 0.08,-0.164 0.163,-0.299 0.185,-0.299 0.022,0 0.045,-0.041 0.052,-0.095 0.021,-0.145 0.141,-0.119 0.124,0.028 -0.015,0.142 -0.211,0.476 -0.279,0.481 -0.025,0 -0.07,0.047 -0.101,0.103 -0.03,0.06 -0.071,0.106 -0.09,0.106 -0.02,0 -0.035,0.025 -0.035,0.062 0,0.036 -0.028,0.073 -0.063,0.09 -0.035,0.016 -0.058,0.045 -0.052,0.069 0.016,0.068 -0.229,0.438 -0.29,0.438 -0.045,0 -0.057,0.025 -0.05,0.105 0.003,0.022 -0.177,0.359 -0.209,0.393 -0.012,0.013 -0.049,0.076 -0.083,0.146 -0.034,0.066 -0.072,0.135 -0.084,0.146 -0.013,0.012 -0.065,0.076 -0.119,0.147 l -0.097,0.125 0.02,-0.189 c 0.018,-0.177 0.136,-0.397 0.295,-0.561 0.038,-0.039 0.068,-0.096 0.068,-0.129 0,-0.032 0.019,-0.061 0.042,-0.061 0.022,0 0.041,-0.023 0.041,-0.058 0,-0.031 0.028,-0.079 0.063,-0.108 0.034,-0.025 0.062,-0.092 0.061,-0.142 -10e-4,-0.084 -0.005,-0.084 -0.081,0.018 -0.192,0.249 -0.241,0.321 -0.336,0.497 -0.055,0.104 -0.109,0.194 -0.121,0.208 -0.024,0.023 -0.094,0.138 -0.207,0.331 -0.148,0.257 -0.186,0.311 -0.259,0.364 -0.04,0.029 -0.073,0.08 -0.073,0.111 0,0.028 -0.046,0.109 -0.104,0.18 -0.057,0.068 -0.104,0.14 -0.104,0.158 0,0.049 0.362,-0.353 0.447,-0.492 0.045,-0.074 0.104,-0.113 0.17,-0.113 h 0.103 l -0.101,0.113 c -0.056,0.064 -0.111,0.123 -0.124,0.136 -0.08,0.071 -0.5,0.729 -0.616,0.965 -0.075,0.154 -0.182,0.322 -0.235,0.373 -0.055,0.053 -0.099,0.112 -0.099,0.141 -0.001,0.022 -0.091,0.164 -0.201,0.312 -0.109,0.147 -0.244,0.345 -0.298,0.438 -0.054,0.101 -0.112,0.176 -0.131,0.176 -0.018,0 -0.022,0.025 -0.011,0.06 0.012,0.027 -0.025,0.074 -0.089,0.104 -0.089,0.041 -0.104,0.067 -0.084,0.15 0.015,0.059 0.011,0.104 -0.007,0.104 -0.019,0 -0.055,0.057 -0.08,0.123 -0.058,0.152 -0.138,0.164 -0.138,0.021 0,-0.094 -0.008,-0.101 -0.083,-0.053 -0.045,0.028 -0.083,0.075 -0.083,0.104 0,0.057 -0.055,0.135 -0.176,0.25 -0.04,0.037 -0.072,0.082 -0.072,0.099 0,0.022 -0.056,0.118 -0.123,0.228 -0.13,0.205 -0.13,0.285 0.002,0.242 0.061,-0.02 0.079,-0.004 0.079,0.064 0,0.049 -0.014,0.086 -0.031,0.086 -0.017,0 -0.073,0.106 -0.125,0.242 -0.052,0.133 -0.132,0.28 -0.179,0.332 -0.046,0.051 -0.195,0.321 -0.33,0.606 -0.136,0.281 -0.27,0.521 -0.299,0.521 -0.028,0 -0.095,0.072 -0.147,0.168 -0.052,0.092 -0.112,0.151 -0.135,0.143 -0.056,-0.034 -0.049,-0.104 0.018,-0.184 0.03,-0.035 0.113,-0.172 0.185,-0.306 0.131,-0.239 0.246,-0.418 0.412,-0.626 0.092,-0.113 0.129,-0.357 0.055,-0.357 -0.061,0 -0.165,0.119 -0.249,0.285 -0.042,0.084 -0.116,0.187 -0.164,0.228 -0.049,0.043 -0.088,0.104 -0.088,0.135 0,0.031 -0.065,0.147 -0.145,0.266 -0.08,0.11 -0.146,0.22 -0.146,0.234 0,0.02 -0.047,0.124 -0.104,0.235 -0.058,0.111 -0.104,0.27 -0.104,0.353 -0.002,0.174 -0.216,0.496 -0.403,0.611 -0.297,0.184 -0.371,0.241 -0.478,0.395 -0.063,0.09 -0.114,0.18 -0.114,0.197 0,0.018 -0.046,0.065 -0.104,0.104 -0.057,0.037 -0.104,0.098 -0.104,0.129 0,0.033 -0.021,0.063 -0.045,0.063 -0.074,0 -0.826,0.792 -0.912,0.962 -0.045,0.088 -0.1,0.158 -0.122,0.158 -0.022,0 -0.04,0.026 -0.04,0.061 0,0.037 -0.033,0.08 -0.073,0.104 -0.068,0.039 -0.068,0.043 0.003,0.043 0.041,0.002 0.063,0.021 0.049,0.045 -0.015,0.021 -0.049,0.039 -0.075,0.036 -0.136,-0.019 -0.215,0.042 -0.686,0.505 -0.204,0.201 -0.504,0.558 -0.504,0.597 0,0.013 0.052,0.002 0.114,-0.023 0.063,-0.022 0.151,-0.061 0.197,-0.078 0.045,-0.018 0.189,-0.079 0.321,-0.137 0.131,-0.061 0.238,-0.098 0.238,-0.088 0,0.009 0.051,-0.002 0.114,-0.027 0.238,-0.094 0.642,-0.19 0.711,-0.175 0.076,0.022 0.973,-0.228 1.29,-0.357 0.236,-0.097 0.876,-0.291 0.958,-0.291 0.034,0 0.079,-0.018 0.102,-0.033 0.021,-0.021 0.142,-0.06 0.267,-0.09 0.126,-0.029 0.257,-0.068 0.291,-0.088 0.034,-0.019 0.221,-0.078 0.414,-0.136 0.787,-0.229 1.287,-0.354 1.7,-0.421 0.484,-0.075 0.769,-0.13 1.017,-0.189 0.091,-0.022 0.232,-0.051 0.313,-0.063 0.143,-0.021 0.151,-0.035 0.224,-0.3 0.094,-0.35 0.145,-0.739 0.162,-1.272 0.014,-0.424 0.094,-1.271 0.133,-1.396 0.012,-0.039 -0.008,-0.098 -0.043,-0.133 -0.037,-0.037 -0.062,-0.129 -0.058,-0.223 l 0.005,-0.158 0.025,0.137 c 0.041,0.215 0.107,0.176 0.122,-0.071 0.007,-0.125 0.03,-0.259 0.052,-0.298 0.021,-0.039 0.039,-0.108 0.039,-0.158 0,-0.047 0.02,-0.087 0.045,-0.087 0.026,0 0.035,0.048 0.022,0.116 -0.013,0.063 -0.053,0.365 -0.089,0.674 -0.037,0.311 -0.084,0.615 -0.105,0.688 -0.021,0.073 -0.035,0.306 -0.032,0.521 0.006,0.476 -0.095,1.281 -0.22,1.756 -0.032,0.12 -0.03,0.189 0.009,0.263 0.083,0.153 -0.011,0.205 -0.557,0.307 -0.11,0.02 -0.307,0.07 -0.436,0.115 -0.129,0.047 -0.31,0.098 -0.4,0.11 -0.091,0.017 -0.294,0.084 -0.45,0.152 -0.156,0.063 -0.384,0.132 -0.505,0.146 -0.174,0.022 -0.225,0.041 -0.241,0.104 -0.019,0.067 -0.045,0.076 -0.18,0.055 -0.24,-0.041 -0.302,-0.036 -0.594,0.036 -0.148,0.04 -0.382,0.084 -0.519,0.106 -0.137,0.019 -0.333,0.077 -0.436,0.139 -0.103,0.056 -0.257,0.113 -0.342,0.13 -0.115,0.022 -0.155,0.049 -0.155,0.104 0,0.045 0.037,0.094 0.083,0.103 0.045,0.016 0.082,0.043 0.082,0.065 0,0.053 -0.11,0.051 -0.214,-0.009 -0.062,-0.03 -0.098,-0.03 -0.13,0 -0.025,0.023 -0.092,0.047 -0.147,0.047 -0.1,0 -0.1,-0.003 -0.026,-0.083 0.106,-0.115 0.055,-0.146 -0.153,-0.072 -0.203,0.065 -0.237,0.174 -0.064,0.188 0.063,0.008 0.104,0.029 0.091,0.052 -0.038,0.062 -0.227,0.045 -0.252,-0.021 -0.03,-0.076 -0.218,-0.08 -0.327,-0.008 -0.045,0.029 -0.161,0.076 -0.259,0.104 -0.097,0.025 -0.176,0.064 -0.176,0.084 0,0.033 -0.383,0.171 -0.481,0.171 -0.069,0 -0.077,0.18 -0.013,0.297 0.039,0.071 0.072,0.08 0.245,0.062 0.21,-0.023 0.274,-0.043 0.477,-0.127 0.304,-0.125 0.688,-0.269 0.973,-0.356 0.17,-0.056 0.356,-0.14 0.415,-0.188 0.071,-0.059 0.193,-0.096 0.373,-0.112 0.147,-0.019 0.371,-0.056 0.498,-0.089 0.126,-0.031 0.473,-0.115 0.769,-0.188 0.297,-0.067 0.572,-0.146 0.611,-0.166 0.04,-0.021 0.133,-0.041 0.207,-0.043 0.075,0 0.201,-0.02 0.281,-0.037 0.557,-0.146 0.813,-0.222 0.85,-0.248 0.023,-0.019 0.163,-0.058 0.312,-0.086 0.147,-0.029 0.403,-0.099 0.566,-0.148 0.229,-0.072 0.338,-0.089 0.477,-0.063 l 0.18,0.031 -0.135,0.027 c -0.098,0.022 -0.135,0.049 -0.135,0.11 0,0.047 0.023,0.088 0.052,0.09 0.029,0.002 0.09,0.008 0.135,0.009 0.046,0.004 0.083,0.034 0.083,0.067 0,0.07 -0.581,0.156 -1.088,0.158 -0.214,10e-4 -0.339,0.022 -0.412,0.066 -0.058,0.04 -0.136,0.065 -0.174,0.053 -0.039,-0.012 -0.094,0.01 -0.124,0.038 -0.03,0.033 -0.119,0.058 -0.208,0.05 -0.183,-0.013 -0.254,0.024 -0.254,0.128 0,0.064 -0.046,0.079 -0.232,0.105 -0.128,0.017 -0.266,0.046 -0.307,0.066 -0.04,0.019 -0.137,0.043 -0.213,0.047 -0.205,0.012 -0.524,0.116 -0.55,0.185 -0.014,0.036 -0.081,0.063 -0.168,0.063 -0.08,0 -0.216,0.023 -0.302,0.061 -0.086,0.033 -0.314,0.09 -0.506,0.125 -0.192,0.033 -0.36,0.078 -0.374,0.099 -0.03,0.043 -0.268,0.143 -0.317,0.129 -0.052,-0.015 -0.174,0.041 -0.369,0.164 -0.141,0.09 -0.224,0.103 -0.539,0.112 -0.206,0.007 -0.401,0.021 -0.436,0.027 -0.035,0.01 -0.114,0.029 -0.177,0.048 -0.088,0.024 -0.114,0.061 -0.114,0.145 0,0.104 -0.025,0.119 -0.3,0.205 -0.166,0.051 -0.432,0.121 -0.591,0.155 -0.16,0.035 -0.319,0.091 -0.354,0.12 -0.035,0.032 -0.138,0.077 -0.229,0.102 -0.462,0.119 -0.579,0.164 -0.633,0.244 -0.07,0.104 -0.085,1.565 -0.017,1.692 0.102,0.188 0.007,2.621 -0.104,2.656 -0.079,0.024 -0.11,-0.41 -0.065,-0.914 0.022,-0.256 0.032,-0.484 0.021,-0.516 -0.037,-0.099 -0.079,-0.017 -0.067,0.133 0.007,0.08 -0.006,0.146 -0.028,0.146 -0.021,0 -0.039,0.075 -0.039,0.166 0,0.095 -0.021,0.166 -0.047,0.166 -0.029,0 -0.037,-0.056 -0.021,-0.156 0.024,-0.148 0.087,-0.644 0.125,-0.982 0.011,-0.092 0.03,-0.64 0.045,-1.217 0.021,-0.854 0.016,-1.051 -0.028,-1.033 -0.029,0.012 -0.054,0.045 -0.053,0.076 0,0.031 -0.127,0.187 -0.283,0.352 -0.156,0.16 -0.342,0.378 -0.412,0.484 -0.071,0.107 -0.152,0.195 -0.183,0.195 -0.033,0 -0.044,0.028 -0.027,0.071 0.021,0.05 0.01,0.062 -0.039,0.043 -0.088,-0.034 -0.171,0.062 -0.108,0.125 0.056,0.058 0.006,0.145 -0.061,0.107 -0.027,-0.019 -0.037,-0.019 -0.021,0.002 0.014,0.017 0.008,0.092 -0.015,0.16 -0.023,0.071 -0.041,0.166 -0.04,0.207 0.001,0.041 -0.025,0.084 -0.059,0.102 -0.032,0.011 -0.06,0.056 -0.06,0.102 0,0.043 -0.047,0.118 -0.104,0.168 -0.057,0.052 -0.104,0.109 -0.104,0.132 0,0.021 -0.065,0.118 -0.146,0.217 -0.081,0.1 -0.145,0.195 -0.145,0.217 0,0.063 -0.127,0.299 -0.18,0.332 -0.059,0.035 -0.138,0.158 -0.194,0.301 -0.022,0.058 -0.06,0.138 -0.083,0.177 -0.022,0.039 -0.042,0.096 -0.043,0.125 -0.001,0.026 -0.076,0.127 -0.166,0.219 -0.09,0.094 -0.163,0.195 -0.164,0.233 0,0.037 -0.022,0.075 -0.05,0.087 -0.035,0.012 -0.053,0.147 -0.058,0.428 -0.01,0.629 -0.058,1.531 -0.102,1.947 -0.046,0.422 -0.077,0.997 -0.104,1.904 -0.011,0.343 -0.026,0.68 -0.035,0.747 -0.081,0.607 -0.104,0.877 -0.125,1.451 -0.031,0.856 -0.061,1.436 -0.089,1.733 -0.014,0.146 -0.005,0.263 0.022,0.296 0.031,0.038 0.032,0.24 0.002,0.713 -0.045,0.698 -0.129,2.139 -0.133,2.273 -0.002,0.045 -0.018,0.203 -0.036,0.354 -0.018,0.146 -0.054,0.438 -0.078,0.645 -0.024,0.204 -0.056,0.468 -0.07,0.579 -0.014,0.114 -0.031,0.421 -0.04,0.682 -0.011,0.354 -0.029,0.481 -0.076,0.522 -0.037,0.025 -0.068,0.144 -0.08,0.296 -0.033,0.428 -0.077,0.685 -0.118,0.685 -0.004,-0.018 -0.012,-0.151 -0.002,-0.34 z m 37.261,1.579 c 0.03,-0.013 0.066,-0.011 0.08,0.004 0.014,0.014 -0.011,0.024 -0.055,0.022 -0.048,-0.002 -0.058,-0.013 -0.025,-0.026 z m 2.275,-12.586 c -0.013,-0.033 -0.022,-0.023 -0.024,0.024 -0.002,0.045 0.008,0.063 0.021,0.055 0.013,-0.014 0.016,-0.049 0.003,-0.079 z m 0.017,1.352 c 0.002,-0.049 0.012,-0.059 0.025,-0.025 0.012,0.029 0.011,0.066 -0.004,0.08 -0.013,0.013 -0.023,-0.012 -0.021,-0.055 z m 0.387,2.588 c -0.012,-0.039 -0.002,-0.145 0.022,-0.233 0.102,-0.375 0.13,-0.877 0.077,-1.343 -0.026,-0.23 -0.058,-0.352 -0.202,-0.76 -0.152,-0.427 -0.174,-0.477 -0.209,-0.477 -0.021,0 -0.037,-0.037 -0.037,-0.084 0,-0.045 -0.021,-0.082 -0.047,-0.082 -0.067,0 -0.017,1.192 0.064,1.514 0.034,0.137 0.063,0.301 0.064,0.363 10e-4,0.063 0.019,0.114 0.039,0.114 0.021,0 0.047,0.127 0.058,0.279 0.012,0.149 0.045,0.457 0.074,0.674 0.048,0.345 0.059,0.377 0.086,0.25 0.018,-0.08 0.022,-0.178 0.011,-0.215 z m -0.135,0.674 c -0.023,-0.014 -0.05,-0.119 -0.059,-0.229 l -0.016,-0.206 -0.008,0.215 c -0.004,0.118 0.015,0.27 0.042,0.332 0.048,0.116 0.049,0.116 0.065,0.02 0.011,-0.06 -0.001,-0.117 -0.024,-0.132 z m 0.079,0.668 c -0.024,-0.008 -0.044,-0.088 -0.044,-0.176 0,-0.09 -0.02,-0.164 -0.044,-0.164 -0.026,0 -0.038,0.092 -0.03,0.238 0.008,0.164 0.028,0.236 0.063,0.229 0.032,-0.006 0.055,0.041 0.06,0.125 0.005,0.104 0.012,0.087 0.023,-0.051 0.01,-0.11 -0.002,-0.194 -0.028,-0.201 z M 20.401,-6.6 c 0.015,-0.021 0.006,-0.041 -0.018,-0.041 -0.024,0 -0.044,0.02 -0.044,0.041 0,0.024 0.008,0.042 0.018,0.042 0.01,0 0.03,-0.018 0.044,-0.042 z m 1.408,0.667 c 0.014,-0.02 0.007,-0.05 -0.014,-0.061 -0.021,-0.019 -0.049,0.003 -0.062,0.037 -0.025,0.068 0.037,0.088 0.076,0.024 z m -1.181,-0.056 c -0.001,-0.106 -0.01,-0.119 -0.042,-0.064 -0.022,0.037 -0.029,0.098 -0.015,0.135 0.04,0.101 0.058,0.078 0.057,-0.071 z m -0.142,-0.128 c -0.044,-0.365 -0.104,-0.368 -0.099,-0.006 0.003,0.183 0.015,0.349 0.027,0.371 0.045,0.08 0.095,-0.172 0.072,-0.365 z m 0.32,4.556 c -0.08,-0.09 -0.106,-0.586 -0.052,-0.974 0.078,-0.562 0.045,-2.084 -0.056,-2.582 l -0.052,-0.26 -0.175,-0.017 c -0.162,-0.016 -0.175,-0.02 -0.175,-0.134 0,-0.062 -0.019,-0.134 -0.042,-0.144 -0.025,-0.018 -0.044,-0.229 -0.045,-0.514 0,-0.267 -0.008,-0.56 -0.016,-0.646 -0.009,-0.093 -0.024,-0.522 -0.036,-0.955 -0.012,-0.434 -0.041,-0.871 -0.064,-0.977 -0.024,-0.103 -0.044,-0.248 -0.045,-0.322 0,-0.08 -0.018,-0.125 -0.042,-0.112 -0.022,0.018 -0.042,-0.011 -0.042,-0.058 0,-0.05 -0.017,-0.087 -0.036,-0.087 -0.04,0 -0.094,-0.228 -0.11,-0.457 -0.005,-0.077 -0.031,-0.462 -0.058,-0.851 -0.027,-0.39 -0.066,-0.812 -0.089,-0.937 -0.022,-0.13 -0.037,-0.309 -0.033,-0.397 0.004,-0.089 -0.015,-0.448 -0.042,-0.804 -0.027,-0.354 -0.077,-1.006 -0.111,-1.45 -0.034,-0.443 -0.102,-1.189 -0.149,-1.658 -0.049,-0.469 -0.092,-0.972 -0.097,-1.119 -0.009,-0.312 -0.046,-0.499 -0.128,-0.654 -0.072,-0.141 -0.076,-0.44 -0.007,-0.496 0.048,-0.039 0.173,-0.064 0.25,-0.057 0.018,0.002 0.003,0.051 -0.033,0.104 -0.11,0.168 -0.033,0.562 0.11,0.563 0.014,0.001 0.049,-0.024 0.077,-0.063 0.114,-0.139 0.221,-0.053 0.234,0.188 0.016,0.276 0.099,1.06 0.117,1.108 0.011,0.028 0.031,0.143 0.046,0.249 0.014,0.107 0.042,0.216 0.063,0.236 0.021,0.019 0.038,0.063 0.038,0.09 0,0.028 0.021,0.104 0.048,0.168 0.061,0.146 0.06,0.146 0.116,0.49 0.026,0.159 0.065,0.297 0.087,0.305 0.022,0.009 0.039,0.048 0.039,0.089 0,0.045 0.017,0.09 0.036,0.103 0.02,0.015 0.048,0.144 0.063,0.29 0.016,0.146 0.054,0.328 0.085,0.404 0.032,0.075 0.065,0.229 0.075,0.346 0.01,0.113 0.058,0.34 0.105,0.497 0.049,0.159 0.108,0.419 0.134,0.577 0.024,0.156 0.054,0.301 0.063,0.315 0.018,0.028 0.053,0.561 0.063,0.951 0.002,0.103 -0.009,0.228 -0.026,0.286 -0.021,0.067 -0.016,0.093 0.018,0.067 0.092,-0.058 0.049,0.091 -0.045,0.151 -0.091,0.061 -0.093,0.08 -0.09,0.72 0.004,0.757 0.168,2.174 0.251,2.174 0.042,0 0.101,0.199 0.122,0.414 0.015,0.147 0.073,0.244 0.156,0.257 0.061,0.013 0.093,0.049 0.101,0.116 0.021,0.198 0.104,0.455 0.16,0.502 0.044,0.037 0.047,0.065 0.01,0.106 -0.07,0.086 0.026,0.242 0.199,0.324 0.077,0.036 0.13,0.082 0.117,0.104 -0.012,0.021 -0.003,0.048 0.021,0.063 0.022,0.015 0.042,-0.003 0.042,-0.038 0,-0.035 0.025,-0.065 0.058,-0.065 0.031,0 0.088,-0.046 0.125,-0.103 0.095,-0.145 0.151,-0.129 0.121,0.031 -0.014,0.074 -0.092,0.203 -0.177,0.289 -0.122,0.123 -0.188,0.155 -0.334,0.166 -0.173,0.012 -0.184,0.006 -0.209,-0.115 -0.032,-0.152 -0.201,-0.393 -0.278,-0.393 -0.031,0 -0.088,-0.056 -0.127,-0.125 -0.039,-0.066 -0.092,-0.123 -0.118,-0.123 -0.094,-0.002 -0.004,1.061 0.12,1.401 0.041,0.109 0.039,0.146 -0.009,0.174 -0.049,0.029 -0.05,0.062 -0.004,0.201 0.033,0.099 0.047,0.262 0.034,0.405 -0.012,0.136 -0.005,0.284 0.016,0.339 0.023,0.062 0.017,0.135 -0.021,0.207 -0.031,0.062 -0.067,0.27 -0.081,0.465 -0.024,0.347 -0.018,0.381 0.031,0.155 0.041,-0.188 0.1,-0.132 0.093,0.091 -0.005,0.146 -0.02,0.189 -0.054,0.164 -0.061,-0.053 -0.102,0.303 -0.091,0.762 0.008,0.291 -10e-4,0.33 -0.083,0.388 -0.051,0.034 -0.081,0.08 -0.067,0.106 0.037,0.07 -0.037,0.053 -0.095,-0.014 z M -5.543,-23.157 c -0.003,-0.337 -0.015,-0.455 -0.035,-0.354 -0.017,0.085 -0.026,0.281 -0.021,0.438 0.013,0.383 0.017,0.425 0.04,0.425 0.011,0 0.019,-0.229 0.016,-0.509 z m 0.02,8.079 c 0.013,-0.034 0.005,-0.073 -0.017,-0.086 -0.022,-0.019 -0.04,0.013 -0.04,0.061 0,0.101 0.024,0.111 0.057,0.025 z m -0.194,0.693 c -0.011,-0.04 -0.02,-0.008 -0.02,0.072 0,0.08 0.009,0.114 0.02,0.072 0.01,-0.039 0.01,-0.104 0,-0.144 z m -0.496,0.855 c 0.018,-0.067 0.048,-0.082 0.142,-0.068 0.139,0.022 0.131,0.068 0.136,-0.945 l 0.003,-0.625 -0.155,0.028 c -0.085,0.017 -0.156,0.017 -0.157,0.003 0,-0.016 -0.025,0.008 -0.056,0.047 -0.075,0.098 -0.347,0.279 -0.42,0.279 -0.115,0 -0.179,0.19 -0.224,0.666 -0.066,0.705 -0.081,0.651 0.162,0.629 0.134,-0.012 0.207,-0.002 0.207,0.027 0,0.026 0.074,0.047 0.17,0.047 0.138,0 0.174,-0.017 0.192,-0.088 z m 0.642,0.969 c 0.01,-0.199 0.013,-0.369 0.008,-0.377 -0.005,-0.008 -0.03,0.026 -0.055,0.071 -0.063,0.117 -0.103,0.434 -0.069,0.562 0.052,0.208 0.099,0.104 0.116,-0.256 z m -0.14,0.612 0.001,-0.147 -0.06,0.163 c -0.033,0.09 -0.047,0.202 -0.031,0.249 0.026,0.082 0.029,0.08 0.059,-0.019 0.017,-0.053 0.03,-0.166 0.031,-0.246 z m -0.09,0.654 c -0.012,-0.029 -0.021,-0.006 -0.021,0.051 0,0.062 0.01,0.082 0.021,0.057 0.011,-0.034 0.011,-0.081 0,-0.108 z m -0.04,1.244 c -0.01,-0.052 -0.018,-0.01 -0.018,0.094 0,0.104 0.008,0.146 0.018,0.091 0.01,-0.05 0.01,-0.134 0,-0.185 z m -0.002,0.455 c -0.012,-0.027 -0.021,-0.004 -0.021,0.053 0,0.056 0.009,0.08 0.021,0.051 0.012,-0.028 0.012,-0.075 0,-0.104 z m 0.208,2.823 c -0.013,-0.033 -0.022,-0.022 -0.024,0.025 -0.002,0.045 0.008,0.063 0.021,0.054 0.013,-0.013 0.016,-0.048 0.003,-0.079 z m -0.547,6.183 c -0.015,-0.048 -0.015,-0.251 0.001,-0.451 0.021,-0.248 0.015,-0.373 -0.017,-0.393 -0.056,-0.035 -0.059,-0.432 -0.006,-0.875 0.039,-0.328 0.058,-1.299 0.051,-2.652 -0.004,-0.826 0.022,-1.639 0.075,-2.289 0.034,-0.422 0.083,-0.619 0.168,-0.676 0.018,-0.012 0.038,-0.133 0.046,-0.27 0.014,-0.23 0.008,-0.25 -0.077,-0.261 -0.134,-0.022 -0.154,-0.203 -0.099,-0.883 0.077,-0.947 0.1,-2.214 0.048,-2.733 -0.058,-0.585 -0.057,-0.535 -0.021,-0.923 0.021,-0.231 0.017,-0.321 -0.018,-0.321 -0.028,0 -0.047,0.075 -0.047,0.194 0,0.211 -0.043,0.218 -0.067,0.011 -0.023,-0.204 -0.047,-0.218 -0.32,-0.193 -0.139,0.014 -0.286,0.004 -0.329,-0.019 -0.056,-0.03 -0.104,-0.022 -0.177,0.02 -0.156,0.105 -0.268,0.086 -0.268,-0.039 0,-0.064 0.019,-0.146 0.041,-0.189 0.022,-0.044 0.057,-0.276 0.076,-0.523 0.028,-0.353 0.023,-0.462 -0.021,-0.518 -0.09,-0.103 -0.064,-0.187 0.082,-0.267 0.076,-0.039 0.155,-0.113 0.177,-0.16 0.037,-0.084 0.115,-0.121 0.36,-0.172 0.063,-0.013 0.154,-0.065 0.201,-0.121 0.069,-0.08 0.117,-0.096 0.25,-0.082 l 0.165,0.02 -0.013,-0.938 c -0.008,-0.512 -0.029,-0.932 -0.05,-0.932 -0.02,0 -0.014,-0.027 0.013,-0.058 0.033,-0.041 0.035,-0.067 0.005,-0.086 -0.03,-0.021 -0.029,-0.053 0.002,-0.112 0.027,-0.051 0.048,-0.365 0.052,-0.773 l 0.007,-0.688 -0.104,-0.025 c -0.058,-0.014 -0.103,-0.047 -0.1,-0.074 0.002,-0.023 0.007,-0.088 0.01,-0.133 0.005,-0.059 0.036,-0.082 0.106,-0.082 0.094,0 0.103,-0.02 0.124,-0.26 0.013,-0.142 0.028,-0.558 0.034,-0.923 l 0.012,-0.663 -0.117,-0.014 c -0.154,-0.018 -0.12,-0.107 0.048,-0.125 l 0.131,-0.011 -0.004,-0.385 c -0.002,-0.21 -0.019,-0.429 -0.037,-0.482 -0.026,-0.082 -0.034,-0.086 -0.037,-0.022 -0.004,0.061 -0.017,0.068 -0.052,0.033 -0.062,-0.062 -0.012,-0.191 0.058,-0.15 0.04,0.023 0.041,0.021 0.005,-0.029 -0.032,-0.041 -0.035,-0.127 -0.008,-0.286 0.064,-0.384 0.045,-1.476 -0.03,-1.671 -0.016,-0.041 -0.008,-0.068 0.019,-0.068 0.025,0 0.046,0.027 0.046,0.066 0,0.037 0.012,0.061 0.026,0.043 0.014,-0.016 0.023,-0.12 0.021,-0.23 -0.004,-0.168 0.011,-0.217 0.077,-0.252 0.058,-0.026 0.082,-0.088 0.082,-0.188 0,-0.08 0.015,-0.146 0.031,-0.146 0.184,0.004 0.229,0.47 0.221,2.215 l -0.008,1.487 0.179,-0.025 c 0.099,-0.016 0.239,-0.035 0.313,-0.051 0.104,-0.019 0.135,-0.01 0.135,0.04 0,0.034 0.045,0.095 0.1,0.129 0.182,0.119 0.21,0.271 0.13,0.672 -0.039,0.198 -0.072,0.503 -0.074,0.677 -0.003,0.256 -0.016,0.314 -0.069,0.318 -0.09,0.008 -0.108,-0.553 -0.027,-0.793 0.052,-0.152 0.081,-0.389 0.069,-0.566 -0.002,-0.037 -0.052,-0.116 -0.111,-0.174 -0.093,-0.096 -0.131,-0.106 -0.279,-0.082 -0.095,0.014 -0.22,0.025 -0.276,0.027 -0.057,0.001 -0.119,0.026 -0.138,0.059 -0.042,0.063 -0.108,0.9 -0.11,1.383 -10e-4,0.315 0.009,0.363 0.085,0.414 0.104,0.067 0.069,0.203 -0.052,0.203 -0.074,0 -0.08,0.025 -0.074,0.342 0.004,0.188 -0.005,0.371 -0.02,0.406 -0.015,0.036 -0.021,0.224 -0.015,0.416 l 0.012,0.349 0.254,-0.015 c 0.242,-0.015 0.259,-0.007 0.343,0.109 0.048,0.065 0.088,0.134 0.088,0.145 0,0.01 -0.147,0.018 -0.328,0.015 -0.18,-0.002 -0.343,0.011 -0.361,0.028 -0.049,0.049 -0.093,0.561 -0.096,1.105 l -0.003,0.479 0.156,0.006 c 0.085,0.003 0.221,0.021 0.3,0.033 0.08,0.017 0.194,0.008 0.254,-0.017 0.099,-0.037 0.11,-0.065 0.136,-0.354 0.018,-0.188 0.01,-0.383 -0.019,-0.498 -0.04,-0.155 -0.036,-0.219 0.024,-0.377 0.042,-0.106 0.099,-0.188 0.135,-0.188 0.054,0 0.059,0.057 0.035,0.363 -0.015,0.198 -0.039,0.608 -0.054,0.913 -0.015,0.302 -0.042,0.548 -0.061,0.548 -0.02,0 -0.063,-0.062 -0.096,-0.144 -0.061,-0.147 -0.065,-0.147 -0.287,-0.144 l -0.225,0.008 -0.021,0.254 c -0.033,0.431 -0.113,1.071 -0.157,1.267 -0.022,0.1 -0.053,0.289 -0.066,0.421 l -0.025,0.241 0.203,0.1 c 0.111,0.056 0.232,0.093 0.269,0.084 0.107,-0.022 0.531,0.154 0.58,0.243 0.058,0.107 0.021,0.202 -0.08,0.202 -0.107,0 -0.129,0.103 -0.105,0.531 0.025,0.444 -0.032,1.29 -0.088,1.305 -0.063,0.014 -0.101,-0.967 -0.055,-1.442 0.021,-0.228 0.043,-0.451 0.048,-0.496 0.006,-0.068 -0.028,-0.091 -0.185,-0.121 -0.104,-0.022 -0.237,-0.025 -0.294,-0.012 l -0.104,0.026 -0.021,0.94 c -0.023,1.107 -0.013,1.259 0.093,1.259 0.239,0 0.285,0.15 0.051,0.174 -0.141,0.011 -0.156,0.02 -0.162,0.136 -0.004,0.069 -0.047,0.573 -0.096,1.122 -0.065,0.719 -0.078,1.014 -0.046,1.065 0.055,0.089 0.056,1.361 0.001,1.979 -0.087,0.997 -0.124,1.635 -0.134,2.288 -0.008,0.562 -0.021,0.703 -0.077,0.768 -0.104,0.118 -0.113,0.209 -0.142,1.444 -0.016,0.7 -0.043,1.183 -0.069,1.213 -0.06,0.086 -0.104,0.075 -0.135,-0.023 z m 24.903,0.387 c 0,-0.021 -0.061,-0.101 -0.136,-0.176 -0.074,-0.08 -0.215,-0.248 -0.313,-0.373 -0.164,-0.207 -0.178,-0.242 -0.159,-0.414 0.012,-0.105 0.032,-0.235 0.048,-0.291 0.027,-0.108 -0.015,-0.187 -0.237,-0.42 -0.063,-0.067 -0.114,-0.149 -0.114,-0.187 0,-0.061 -0.102,-0.137 -0.187,-0.143 -0.022,-0.002 -0.047,-0.051 -0.055,-0.104 -0.009,-0.066 -0.038,-0.103 -0.093,-0.103 -0.048,0 -0.081,-0.028 -0.082,-0.075 -0.001,-0.039 -0.057,-0.136 -0.124,-0.214 -0.067,-0.079 -0.108,-0.159 -0.091,-0.176 0.037,-0.037 0.256,0.013 0.257,0.062 0,0.104 0.146,0.237 0.252,0.237 0.134,0 0.202,0.065 0.092,0.091 -0.06,0.015 -0.043,0.048 0.093,0.183 0.091,0.093 0.213,0.232 0.27,0.317 0.057,0.084 0.117,0.155 0.134,0.155 0.017,0 0.06,0.056 0.095,0.125 0.036,0.067 0.081,0.115 0.101,0.103 0.019,-0.015 0.058,0.03 0.086,0.104 0.027,0.063 0.114,0.188 0.191,0.271 0.227,0.237 0.403,0.522 0.358,0.563 -0.071,0.068 -0.25,-0.01 -0.301,-0.131 -0.071,-0.174 -0.229,-0.304 -0.372,-0.309 -0.138,-0.008 -0.178,-0.064 -0.043,-0.064 0.087,0 0.103,-0.08 0.046,-0.229 -0.025,-0.062 -0.039,-0.068 -0.066,-0.021 -0.028,0.045 -0.043,0.041 -0.07,-0.022 -0.021,-0.052 -0.029,0.013 -0.021,0.17 0.012,0.229 0.028,0.268 0.187,0.436 0.096,0.103 0.174,0.213 0.174,0.248 0,0.032 0.078,0.142 0.174,0.237 l 0.175,0.181 h -0.133 c -0.076,0 -0.136,-0.014 -0.136,-0.031 z m 0.734,0.278 c -0.013,-0.047 -0.08,-0.107 -0.15,-0.134 -0.07,-0.025 -0.127,-0.062 -0.127,-0.08 0,-0.018 -0.028,-0.033 -0.063,-0.033 -0.096,0 -0.074,-0.072 0.046,-0.151 0.1,-0.062 0.111,-0.062 0.146,-0.003 0.021,0.039 0.066,0.1 0.1,0.13 0.034,0.034 0.062,0.08 0.062,0.106 0,0.024 0.037,0.067 0.083,0.098 0.104,0.063 0.107,0.156 0.005,0.156 C 19.512,0.162 19.468,0.123 19.455,0.075 Z m -6.471,2.028 c 0.015,-0.076 0.042,-0.156 0.062,-0.179 0.021,-0.022 0.036,-0.073 0.036,-0.114 0,-0.041 0.038,-0.107 0.083,-0.146 0.046,-0.039 0.083,-0.11 0.083,-0.158 0,-0.047 0.044,-0.127 0.098,-0.178 0.054,-0.051 0.12,-0.168 0.147,-0.259 0.027,-0.092 0.077,-0.177 0.11,-0.19 0.032,-0.012 0.06,-0.058 0.06,-0.102 0,-0.043 0.039,-0.117 0.088,-0.166 0.065,-0.064 0.074,-0.096 0.036,-0.119 -0.04,-0.025 -0.039,-0.039 0.006,-0.068 0.085,-0.053 0.251,-0.383 0.219,-0.436 -0.016,-0.023 -0.002,-0.061 0.029,-0.08 0.031,-0.02 0.057,-0.068 0.057,-0.109 10e-4,-0.053 0.032,-0.069 0.116,-0.068 0.087,0.002 0.121,-0.02 0.14,-0.1 0.014,-0.053 0.015,-0.104 0.002,-0.12 -0.012,-0.011 0.014,-0.056 0.058,-0.101 0.043,-0.043 0.079,-0.108 0.079,-0.143 0,-0.064 0.205,-0.403 0.259,-0.427 0.018,-0.008 0.031,-0.051 0.031,-0.094 0,-0.05 0.028,-0.097 0.063,-0.106 0.034,-0.013 0.063,-0.052 0.063,-0.086 0,-0.08 0.17,-0.384 0.215,-0.384 0.019,0 0.034,-0.025 0.034,-0.06 0,-0.071 0.097,-0.272 0.135,-0.272 0.017,0 0.03,-0.037 0.03,-0.084 0,-0.045 0.019,-0.082 0.042,-0.082 0.022,0 0.041,-0.047 0.041,-0.105 0,-0.058 0.033,-0.138 0.073,-0.181 0.039,-0.041 0.101,-0.117 0.135,-0.169 0.034,-0.051 0.105,-0.152 0.159,-0.229 l 0.098,-0.131 -0.03,0.147 c -0.035,0.166 -0.063,0.23 -0.226,0.52 -0.16,0.282 -0.375,0.72 -0.375,0.763 0,0.019 -0.036,0.065 -0.081,0.106 -0.046,0.041 -0.072,0.091 -0.06,0.109 0.012,0.02 -0.006,0.047 -0.04,0.062 -0.085,0.029 -0.161,0.255 -0.096,0.278 0.026,0.014 0.016,0.02 -0.023,0.021 -0.04,0.002 -0.073,0.021 -0.073,0.051 0,0.022 -0.047,0.103 -0.104,0.179 -0.057,0.075 -0.104,0.159 -0.104,0.188 0,0.076 -0.129,0.312 -0.192,0.35 -0.031,0.02 -0.057,0.07 -0.057,0.115 0,0.043 -0.018,0.08 -0.038,0.08 -0.021,0 -0.052,0.043 -0.066,0.094 -0.048,0.16 -0.235,0.527 -0.27,0.527 -0.018,0 -0.023,0.035 -0.011,0.08 0.012,0.051 10e-4,0.084 -0.026,0.084 -0.025,0 -0.068,0.055 -0.096,0.113 -0.026,0.063 -0.076,0.147 -0.111,0.188 -0.05,0.063 -0.053,0.09 -0.012,0.153 0.027,0.044 0.033,0.081 0.012,0.081 -0.021,0 -0.046,-0.021 -0.056,-0.054 -0.013,-0.035 -0.037,-0.029 -0.089,0.02 -0.04,0.039 -0.053,0.07 -0.028,0.07 0.025,0 0.045,0.021 0.045,0.04 0,0.022 -0.027,0.043 -0.06,0.043 -0.054,0 -0.106,0.099 -0.132,0.241 -0.006,0.029 -0.039,0.087 -0.075,0.128 -0.036,0.04 -0.065,0.103 -0.065,0.136 0,0.032 -0.084,0.15 -0.187,0.262 l -0.187,0.195 z"
   style="fill:#efeeec;fill-opacity:1;fill-rule:nonzero;stroke:none"
   id="path2" />
    </g>
</svg>
