<?xml version="1.0" encoding="UTF-8" standalone="no"?>
<!DOCTYPE svg PUBLIC "-//W3C//DTD SVG 1.1//EN" "http://www.w3.org/Graphics/SVG/1.1/DTD/svg11.dtd">
<svg width="100%" height="100%" viewBox="0 0 105 114" version="1.1" xmlns="http://www.w3.org/2000/svg" xmlns:xlink="http://www.w3.org/1999/xlink" xml:space="preserve" xmlns:serif="http://www.serif.com/" style="fill-rule:evenodd;clip-rule:evenodd;stroke-linejoin:round;stroke-miterlimit:2;">
    <g id="Calque-1" serif:id="Calque 1">
        <path id="path3953" d="M1.439,110.01C1.165,109.9 1.192,108.842 1.493,107.804C1.706,107.072 1.826,106.906 2.275,106.718C2.924,106.447 3.175,106.437 3.092,106.686C3.058,106.79 2.807,106.933 2.535,107.004C2.126,107.11 2.022,107.232 1.926,107.719C1.77,108.506 1.773,109.501 1.932,109.839C2.064,110.118 1.872,110.185 1.439,110.01L1.439,110.01ZM3.035,105.579C3.086,105.126 3.234,104.549 3.364,104.297C3.494,104.045 3.601,103.7 3.601,103.53C3.601,103.195 4.544,101.253 4.653,101.362C4.755,101.464 4.234,103.387 4.008,103.744C3.899,103.917 3.712,104.506 3.592,105.051C3.302,106.375 2.905,106.752 3.035,105.579L3.035,105.579ZM5.744,99.176C5.658,98.955 5.889,98.288 6.374,97.35C6.492,97.121 6.589,96.82 6.589,96.682C6.589,96.544 6.66,96.431 6.747,96.431C6.833,96.431 6.904,96.365 6.904,96.285C6.904,96.011 8.145,94.269 8.413,94.167C8.851,93.998 8.804,94.125 8.169,94.812C7.837,95.172 7.605,95.507 7.654,95.555C7.703,95.604 7.66,95.644 7.559,95.644C7.458,95.644 7.376,95.755 7.376,95.889C7.376,96.024 7.2,96.45 6.984,96.836C6.769,97.222 6.508,97.872 6.405,98.282C6.189,99.14 5.887,99.549 5.744,99.176L5.744,99.176ZM61.795,94.858C61.945,94.762 61.961,94.705 61.839,94.703C61.609,94.7 60.065,91.503 60.065,91.03C60.065,90.92 59.889,90.592 59.674,90.3C59.373,89.892 59.302,89.642 59.363,89.208C59.449,88.595 59.351,88.426 58.492,87.717C58.189,87.467 57.965,87.228 57.994,87.185C58.023,87.143 57.957,87.052 57.847,86.984C57.693,86.889 57.683,86.685 57.805,86.101C57.892,85.684 57.948,84.812 57.929,84.163C57.903,83.291 57.967,82.84 58.174,82.433C58.328,82.13 58.652,81.257 58.894,80.492C59.137,79.727 59.564,78.736 59.845,78.29C60.126,77.844 60.481,77.231 60.634,76.928C60.788,76.625 60.962,76.342 61.022,76.299C61.081,76.256 61.206,75.519 61.299,74.662C61.473,73.053 61.645,72.626 61.982,72.963C62.126,73.107 62.127,73.326 61.989,73.899C61.58,75.591 61.927,77.5 62.425,76.298C62.534,76.035 62.738,75.753 62.878,75.671C63.041,75.575 63.06,75.52 62.93,75.517C62.78,75.514 62.769,75.436 62.89,75.209C62.98,75.043 63.01,74.795 62.958,74.659C62.89,74.482 62.957,74.412 63.194,74.412C63.376,74.412 63.661,74.276 63.826,74.111C63.991,73.946 64.54,73.73 65.045,73.631C66.181,73.409 66.623,73.198 66.719,72.83C66.783,72.584 66.739,72.566 66.396,72.697C65.848,72.905 65.729,72.717 66.177,72.353C66.658,71.964 67.205,71.97 67.478,72.367C67.683,72.667 67.73,72.67 68.466,72.446C68.89,72.316 69.533,72.21 69.893,72.21C70.387,72.21 70.638,72.114 70.914,71.821C71.285,71.426 71.277,71.409 70.628,71.234C70.497,71.199 70.571,71.095 70.823,70.96C71.178,70.77 71.265,70.776 71.518,71.004C71.873,71.326 72.081,71.335 72.326,71.04C72.429,70.915 72.609,70.85 72.726,70.895C72.88,70.954 72.768,71.201 72.322,71.79L71.706,72.603L72.295,72.712C72.619,72.772 73.087,72.825 73.336,72.83C73.725,72.838 73.76,72.805 73.586,72.596C73.219,72.154 73.623,71.991 74.519,72.221C74.957,72.333 75.368,72.373 75.431,72.31C75.553,72.188 75.001,71.679 73.994,70.985C73.432,70.598 73.407,70.553 73.728,70.507C73.922,70.478 74.264,70.585 74.488,70.743C74.711,70.901 75.008,71.101 75.147,71.187C75.286,71.274 75.436,71.386 75.479,71.436C75.522,71.487 76.018,71.768 76.58,72.062C77.142,72.355 77.639,72.645 77.684,72.707C77.877,72.97 79.402,73.364 80.197,73.355C80.748,73.35 81.158,73.43 81.326,73.578C81.471,73.706 81.86,73.872 82.191,73.947C82.93,74.114 86.625,74.158 88.189,74.018C88.821,73.962 90.095,73.896 91.02,73.871C92.762,73.825 94.002,73.67 94.274,73.463C94.36,73.397 94.817,73.229 95.289,73.09C96.967,72.595 97.466,72.189 97.035,71.669C96.938,71.553 96.833,71.01 96.801,70.463C96.769,69.915 96.664,69.441 96.567,69.409C96.471,69.377 96.304,69.268 96.198,69.166C96.091,69.064 95.81,68.857 95.574,68.706C94.952,68.308 94.551,67.66 94.823,67.492C95.078,67.335 95.429,67.457 95.847,67.849C96.085,68.073 96.302,68.123 96.743,68.053C97.192,67.983 97.359,68.023 97.475,68.23C97.662,68.565 98.003,68.329 98.272,67.678C98.486,67.164 99.042,66.77 99.255,66.984C99.417,67.145 98.657,69.221 98.436,69.221C97.915,69.221 97.627,70.498 97.958,71.344C98.067,71.626 98.208,71.535 99.299,70.479C99.969,69.831 100.653,69.035 100.819,68.711C100.985,68.387 101.269,67.346 101.45,66.397C101.77,64.715 101.771,64.651 101.496,63.762C101.341,63.261 101.174,62.816 101.125,62.773C101.077,62.73 100.873,62.368 100.673,61.969C100.473,61.57 100.066,60.986 99.768,60.671C99.471,60.356 99.228,60.042 99.228,59.973C99.228,59.904 98.683,59.26 98.016,58.542C96.855,57.292 96.591,56.946 96.263,56.246C96.182,56.073 95.925,55.754 95.691,55.538C94.812,54.726 94.268,53.651 94.735,53.651C94.871,53.651 94.982,53.716 94.982,53.797C94.982,53.877 95.399,54.341 95.91,54.829C96.421,55.316 96.928,55.94 97.037,56.216C97.147,56.492 97.791,57.261 98.468,57.926C99.146,58.59 99.7,59.192 99.7,59.263C99.7,59.333 99.99,59.71 100.344,60.099C100.698,60.488 101.088,61.019 101.211,61.279C101.334,61.538 101.5,61.857 101.58,61.986C102.261,63.095 102.511,63.986 102.461,65.132C102.432,65.781 102.363,66.489 102.305,66.705C102.248,66.921 102.174,67.275 102.141,67.491C101.995,68.442 101.036,70.058 100.293,70.606C100.14,70.72 100.011,70.896 100.007,71C99.998,71.231 98.484,72.484 97.779,72.843C96.511,73.491 95.482,73.94 95.266,73.94C95.137,73.94 94.613,74.085 94.102,74.263C93.476,74.481 92.771,74.588 91.94,74.59L90.706,74.594L90.398,75.329C89.943,76.413 90.19,77.309 89.883,77.53C88.749,80.271 88.17,79.764 86.707,81.047C86.358,81.335 85.87,83.042 85.244,86.173C84.886,87.963 84.681,88.279 83.483,88.89C82.873,89.202 82.258,88.119 81.662,87.96C80.815,87.733 80.562,88.708 80.516,88.98C80.498,89.085 80.236,89.521 80.134,89.644C80.033,89.766 79.231,90.044 78.944,90.219C78.768,90.326 78.581,90.392 78.305,90.335C77.866,90.245 77.971,90.167 77.709,90.217C77.471,90.273 77.321,90.496 77.286,90.496C77.171,90.496 76.87,90.679 76.84,90.842C76.76,91.286 75.86,93.256 75.442,93.622C75.181,93.85 75.015,94.114 75.073,94.208C75.239,94.478 74.941,94.891 74.157,95.477C74.413,96.77 69.411,95.148 70.263,96.154C70.768,96.659 70.15,96.743 69.38,96.273C68.564,95.776 68.212,95.858 67.866,96.629C66.838,97.049 63.222,98.985 61.795,94.858L61.795,94.858ZM72.687,95.693C73.462,95.415 73.664,95.173 73.119,95.173C72.674,95.173 72.724,95.031 73.45,94.229C73.802,93.84 74.16,93.392 74.246,93.234C74.381,92.985 74.362,92.968 74.101,93.108C73.936,93.196 73.71,93.378 73.598,93.513C73.487,93.647 73.309,93.757 73.203,93.757C73.097,93.757 72.824,93.916 72.596,94.111C72.368,94.306 71.844,94.6 71.432,94.764C70.252,95.235 70.189,95.337 70.872,95.656C71.637,96.012 71.786,96.016 72.687,95.693L72.687,95.693ZM62.778,94.754C62.67,94.71 62.493,94.71 62.385,94.754C62.87,96.04 63.614,96.068 62.778,94.754ZM71.713,93.898C72.488,93.53 73.434,92.704 73.434,92.394C73.434,92.15 72.939,92.304 72.757,92.605C72.688,92.72 72.562,92.814 72.476,92.814C72.39,92.814 72.164,92.958 71.975,93.135C71.773,93.323 71.606,93.385 71.573,93.285C71.524,93.138 72.232,92.342 72.412,92.342C72.447,92.342 72.653,92.165 72.869,91.948L73.262,91.555L72.906,91.555C72.346,91.555 71.363,92.103 70.743,92.762C69.976,93.577 69.867,93.914 70.372,93.914C70.585,93.914 70.76,93.985 70.76,94.072C70.76,94.3 70.932,94.269 71.713,93.898L71.713,93.898ZM68.681,93.624C68.756,93.399 67.832,93.376 67.693,93.6C67.64,93.686 67.441,93.766 67.251,93.778C67.043,93.79 67.125,93.84 67.457,93.904C68.068,94.021 68.589,93.901 68.681,93.624L68.681,93.624ZM63.611,93.428C63.949,92.775 63.77,92.654 63.245,93.181C62.884,93.543 62.854,93.633 63.053,93.76C63.364,93.958 63.325,93.981 63.611,93.428L63.611,93.428ZM67.26,92.69C67.682,92.151 67.43,92.071 66.203,92.354C65.421,92.534 65.117,92.831 65.536,93.003C65.947,93.171 67.039,92.974 67.26,92.69ZM63.011,92.404C62.958,92.352 62.823,92.346 62.709,92.391C62.584,92.442 62.621,92.479 62.804,92.486C62.97,92.494 63.063,92.456 63.011,92.404L63.011,92.404ZM68.899,92.302C69.266,92.007 69.383,91.555 69.093,91.555C68.717,91.555 68.244,91.858 68.244,92.098C68.244,92.218 68.155,92.351 68.047,92.395C67.939,92.438 68.031,92.48 68.253,92.487C68.474,92.494 68.765,92.411 68.899,92.302L68.899,92.302ZM62.58,91.794C62.796,91.142 62.689,90.907 62.22,90.995C62.029,91.031 61.714,91.065 61.52,91.072C61.123,91.085 61.018,91.555 61.411,91.555C61.546,91.555 61.616,91.62 61.567,91.7C61.455,91.88 61.901,92.342 62.187,92.342C62.304,92.342 62.481,92.095 62.58,91.794L62.58,91.794ZM63.628,91.942C63.679,91.808 63.683,91.661 63.637,91.614C63.499,91.476 62.88,91.872 62.98,92.035C63.124,92.268 63.525,92.21 63.629,91.942L63.628,91.942ZM74.966,91.448C75.073,91.217 75.123,90.99 75.076,90.943C74.919,90.786 74.456,91.192 74.406,91.532C74.334,92.015 74.73,91.955 74.966,91.447L74.966,91.448ZM66.963,90.678C68.468,89.866 68.86,89.459 68.33,89.256C68.205,89.208 67.94,89.323 67.74,89.511C67.541,89.7 67.06,90 66.671,90.18C65.906,90.533 65.412,90.896 65.412,91.108C65.412,91.375 65.943,91.228 66.963,90.678ZM64.076,90.926C64.129,90.84 64.063,90.769 63.928,90.769C63.793,90.769 63.682,90.84 63.682,90.926C63.682,91.013 63.749,91.083 63.83,91.083C63.912,91.083 64.022,91.013 64.076,90.926ZM69.467,90.839C69.659,90.704 69.816,90.5 69.816,90.385C69.816,90.27 70.08,89.92 70.402,89.607C70.942,89.082 70.96,89.039 70.628,89.039C70.429,89.039 70.313,89.109 70.367,89.196C70.42,89.283 70.351,89.353 70.213,89.353C69.807,89.353 69.224,89.813 69.124,90.212C69.073,90.416 68.988,90.695 68.935,90.833C68.813,91.15 69.018,91.153 69.467,90.838L69.467,90.839ZM72.805,90.096C72.989,90.027 72.98,90.005 72.76,89.995C72.43,89.98 71.704,90.424 71.704,90.64C71.704,90.723 71.898,90.654 72.136,90.488C72.374,90.321 72.675,90.145 72.805,90.096L72.805,90.096ZM62.175,90.044C62.312,89.992 62.424,89.872 62.424,89.777C62.424,89.683 62.606,89.343 62.829,89.022C63.283,88.367 64.258,87.882 65.472,87.708C65.894,87.647 66.336,87.561 66.455,87.515C66.837,87.368 66.685,87.151 66.199,87.151C65.939,87.151 65.727,87.085 65.727,87.004C65.727,86.923 65.462,86.892 65.137,86.936C64.628,87.004 64.589,86.989 64.851,86.823C65.374,86.494 66.1,85.677 65.922,85.617C65.828,85.586 65.401,85.739 64.972,85.956C64.389,86.252 64.049,86.328 63.626,86.26C63.105,86.175 63.003,86.228 62.346,86.924C61.581,87.734 61.62,87.996 62.48,87.824C62.783,87.764 62.91,87.789 62.844,87.895C62.788,87.986 62.49,88.107 62.183,88.164C61.788,88.238 61.581,88.382 61.477,88.654C61.397,88.866 61.265,89.039 61.185,89.039C61.105,89.039 60.965,89.251 60.875,89.511C60.729,89.928 60.745,89.983 61.012,89.983C61.215,89.983 61.284,89.906 61.223,89.747C61.167,89.602 61.223,89.511 61.367,89.511C61.496,89.511 61.638,89.652 61.683,89.825C61.773,90.17 61.808,90.185 62.175,90.044L62.175,90.044ZM63.918,87.466C64.351,87.28 64.599,87.28 64.311,87.466C64.182,87.55 63.969,87.615 63.84,87.61C63.684,87.604 63.711,87.555 63.918,87.466L63.918,87.466ZM71.803,89.427C72.688,88.743 73.666,87.646 73.52,87.5C73.383,87.363 72.059,88.108 71.687,88.53C70.93,89.39 70.609,89.865 70.693,90.001C70.814,90.197 70.786,90.212 71.803,89.427ZM65.339,89.124C65.567,88.825 65.714,88.517 65.666,88.438C65.563,88.272 64.066,88.628 63.743,88.897C63.434,89.153 63.473,89.353 63.83,89.353C63.998,89.353 64.179,89.424 64.233,89.511C64.43,89.83 64.936,89.653 65.339,89.124L65.339,89.124ZM70.124,88.685C70.444,88.404 70.842,88.084 71.008,87.975C71.276,87.798 71.252,87.786 70.799,87.869C70.377,87.946 70.305,87.92 70.384,87.714C70.436,87.578 70.554,87.466 70.646,87.466C70.737,87.466 70.772,87.426 70.723,87.377C70.615,87.268 69.094,88.022 68.949,88.256C68.848,88.42 69.259,89.196 69.447,89.196C69.499,89.196 69.804,88.966 70.124,88.685L70.124,88.685ZM61.08,87.598C61.3,87.498 61.48,87.369 61.48,87.313C61.48,87.17 62.055,86.569 62.348,86.405C62.567,86.282 62.567,86.211 62.348,85.688C62.164,85.246 62.014,85.107 61.727,85.107C61.183,85.107 60.851,84.95 60.851,84.691C60.851,84.512 60.918,84.502 61.18,84.643C61.58,84.857 62.355,84.587 62.587,84.152C62.801,83.752 62.78,83.691 62.424,83.691C62.057,83.691 62.017,83.492 62.332,83.231C62.484,83.105 62.586,83.099 62.656,83.212C62.792,83.433 63.78,82.676 63.887,82.27C64.028,81.731 63.709,81.771 63.133,82.364C62.678,82.833 62.533,82.903 62.346,82.748C62.161,82.594 61.997,82.653 61.484,83.059C61.136,83.335 60.851,83.629 60.851,83.712C60.851,83.796 60.621,83.963 60.34,84.083C59.482,84.45 58.963,85.044 59.026,85.586C59.056,85.847 59.189,86.182 59.321,86.33C59.454,86.479 59.671,86.866 59.805,87.191C60.068,87.828 60.367,87.923 61.08,87.598L61.08,87.598ZM68.165,87.466C68.218,87.379 68.191,87.309 68.105,87.309C68.018,87.309 67.904,87.379 67.85,87.466C67.797,87.552 67.824,87.623 67.91,87.623C67.997,87.623 68.111,87.552 68.165,87.466L68.165,87.466ZM71.075,86.286C71.182,86.157 71.364,86.05 71.478,86.05C71.592,86.05 71.725,85.986 71.774,85.907C71.823,85.828 71.687,85.783 71.472,85.806C71.057,85.852 70.603,86.154 70.603,86.384C70.603,86.6 70.859,86.546 71.075,86.286L71.075,86.286ZM65.574,85.104C66.653,84.474 67.012,84.163 66.661,84.163C66.337,84.163 64.68,85.142 64.491,85.445C64.235,85.855 64.352,85.818 65.574,85.104ZM68.188,85.375C68.521,85.176 69.024,84.876 69.304,84.706C70.022,84.274 69.983,83.942 69.227,84.044C68.437,84.151 66.789,85.736 67.467,85.736C67.531,85.736 67.855,85.573 68.188,85.375L68.188,85.375ZM63.77,84.944C64.152,84.681 64.538,84.327 64.629,84.157C64.72,83.987 64.88,83.847 64.985,83.844C65.141,83.841 65.471,83.292 65.858,82.397C65.887,82.33 65.664,82.276 65.362,82.276C64.786,82.276 64.822,82.24 63.176,84.453C62.402,85.495 62.659,85.708 63.77,84.944L63.77,84.944ZM71.232,84.949C71.415,84.831 71.369,84.796 71.026,84.794C70.771,84.793 70.625,84.858 70.681,84.949C70.802,85.144 70.93,85.144 71.232,84.949L71.232,84.949ZM60.069,83.602C60.39,83.406 61.323,82.197 61.323,81.977C61.323,81.882 61.217,81.803 61.087,81.803C60.957,81.803 60.851,81.728 60.851,81.635C60.851,81.541 60.985,81.51 61.157,81.565C61.476,81.666 62.369,81.182 63.169,80.474C63.408,80.262 63.816,79.911 64.076,79.693L64.547,79.297L63.898,79.293C63.401,79.289 63.19,79.37 62.997,79.641C62.859,79.836 62.783,79.88 62.83,79.74C62.891,79.556 62.791,79.46 62.473,79.396C61.958,79.292 61.771,79.479 61.279,80.588C60.946,81.341 60.572,81.521 60.665,80.884C60.696,80.668 60.61,80.505 60.429,80.438C60.272,80.38 60.089,80.257 60.023,80.164C59.876,79.96 59.436,80.481 59.436,80.859C59.436,80.998 59.371,81.179 59.293,81.261C59.214,81.344 59.024,82.025 58.87,82.775C58.648,83.856 58.63,84.186 58.782,84.37C58.947,84.569 59.034,84.542 59.402,84.175C59.637,83.941 59.937,83.683 60.069,83.602L60.069,83.602ZM72.411,84.005C72.784,83.624 72.935,83.376 72.794,83.376C72.523,83.376 71.389,84.274 71.389,84.489C71.389,84.809 71.829,84.601 72.411,84.005ZM66.432,83.535C66.833,83.362 67.269,83.115 67.4,82.984C67.53,82.854 67.703,82.747 67.783,82.747C67.863,82.747 67.929,82.676 67.929,82.59C67.929,82.503 67.603,82.432 67.205,82.432C66.592,82.432 66.4,82.514 65.947,82.967C65.425,83.489 65.266,83.848 65.557,83.848C65.636,83.848 66.03,83.707 66.432,83.535L66.432,83.535ZM68.553,81.499C68.802,81.033 68.767,81.018 68.008,81.277C67.074,81.595 66.975,81.803 67.757,81.803C68.222,81.803 68.433,81.723 68.553,81.499L68.553,81.499ZM64.941,81.185C64.941,80.992 64.36,80.811 64.153,80.939C64.064,80.994 64.033,81.105 64.082,81.185C64.2,81.376 64.941,81.376 64.941,81.185L64.941,81.185ZM60.612,79.916C60.851,79.916 61.009,79.575 61.102,78.854C61.155,78.446 61.114,78.344 60.892,78.345C60.697,78.346 60.538,78.59 60.355,79.17C60.211,79.623 60.136,80.061 60.187,80.144C60.24,80.23 60.306,80.214 60.343,80.105C60.377,80.001 60.498,79.916 60.612,79.916L60.612,79.916ZM83.347,81.614C83.4,81.528 84.875,80.405 84.788,80.405C84.702,80.405 81.499,78.86 81.399,78.877C80.494,79.036 82.571,80.323 82.571,80.323C83.012,80.573 83.293,81.701 83.347,81.614ZM67.38,79.756C67.434,79.669 67.764,79.451 68.112,79.274C68.853,78.896 68.807,78.675 68.052,78.984C67.367,79.265 66.644,79.916 67.017,79.916C67.162,79.916 67.326,79.844 67.38,79.756L67.38,79.756ZM63.172,78.633C63.31,78.495 63.413,78.499 63.595,78.651C63.891,78.897 64.831,78.748 65.25,78.39C65.488,78.186 65.511,78.071 65.373,77.768C65.145,77.269 64.394,76.903 63.948,77.076C63.542,77.233 62.941,77.85 62.868,78.185C62.84,78.315 62.711,78.507 62.581,78.613C62.378,78.779 62.39,78.806 62.668,78.81C62.845,78.812 63.072,78.733 63.172,78.633L63.172,78.633ZM63.978,77.541C64.173,77.359 64.373,77.251 64.423,77.301C64.563,77.441 64.146,77.871 63.869,77.871C63.68,77.871 63.705,77.795 63.978,77.541L63.978,77.541ZM61.566,78.039C61.516,77.959 61.547,77.849 61.635,77.794C61.723,77.74 61.79,77.505 61.784,77.272C61.774,76.894 61.758,76.883 61.638,77.164C61.563,77.337 61.498,77.39 61.491,77.282C61.471,76.918 61.046,77.081 60.969,77.482C60.919,77.743 60.981,77.93 61.148,78.028C61.476,78.22 61.681,78.226 61.566,78.039L61.566,78.039ZM66.199,77.085C66.199,76.998 66.128,76.928 66.042,76.928C65.955,76.928 65.884,76.998 65.884,77.085C65.884,77.171 65.955,77.242 66.042,77.242C66.128,77.242 66.199,77.171 66.199,77.085ZM72.647,76.901C72.811,76.8 72.763,76.787 72.49,76.861C72.274,76.918 71.991,77.031 71.861,77.112C71.697,77.213 71.745,77.225 72.018,77.152C72.234,77.094 72.518,76.981 72.647,76.901ZM69.895,76.626C70.158,76.523 70.12,76.489 69.659,76.419C69.035,76.325 68.735,76.43 69.052,76.63C69.306,76.791 69.474,76.79 69.895,76.626L69.895,76.626ZM64.469,76.119C64.772,75.934 65.267,75.687 65.57,75.569L66.12,75.356L65.57,75.452C65.267,75.505 64.948,75.603 64.862,75.669C64.775,75.736 64.481,75.838 64.207,75.897C63.933,75.955 63.67,76.105 63.622,76.23C63.498,76.552 63.83,76.509 64.469,76.119L64.469,76.119ZM72.093,75.231C72.546,75.003 72.55,74.991 72.22,74.869C71.881,74.743 71.428,74.831 70.524,75.198C70.092,75.373 70.079,75.4 70.367,75.512C70.753,75.662 71.469,75.546 72.093,75.231L72.093,75.231ZM87.189,79.766C87.39,79.573 82.833,77.069 82.317,77.266C82.095,77.35 81.453,77.333 81.453,77.414C81.453,77.584 86.056,80.146 86.292,79.92L87.189,79.766ZM65.193,75.191C65.603,75.036 66.026,74.625 66.037,74.372C66.049,74.078 65.273,74.297 64.891,74.695C64.255,75.359 64.349,75.512 65.193,75.191ZM64.54,74.419C64.841,74.087 64.841,74.084 64.538,74.194C64.228,74.306 63.682,74.795 63.682,74.961C63.682,75.113 64.218,74.775 64.54,74.419L64.54,74.419ZM69.616,74.945C69.564,74.893 69.428,74.887 69.315,74.933C69.19,74.983 69.227,75.02 69.41,75.028C69.576,75.035 69.669,74.997 69.616,74.945L69.616,74.945ZM66.749,73.782C66.803,73.696 66.736,73.625 66.601,73.625C66.466,73.625 66.356,73.696 66.356,73.782C66.356,73.869 66.423,73.939 66.504,73.939C66.585,73.939 66.696,73.869 66.749,73.782ZM72.005,73.524C72.041,73.493 71.745,73.467 71.346,73.467C70.947,73.467 70.578,73.537 70.525,73.623C70.437,73.765 71.834,73.672 72.005,73.524ZM74.377,72.996C74.248,72.912 74.071,72.843 73.984,72.843C73.898,72.843 73.933,72.912 74.063,72.996C74.193,73.079 74.37,73.148 74.456,73.148C74.543,73.148 74.507,73.079 74.377,72.996L74.377,72.996ZM8.544,96.779C8.234,96.573 8.171,96.13 8.416,95.885C8.761,95.54 8.9,95.586 8.998,96.077C9.09,96.543 8.819,96.962 8.544,96.779L8.544,96.779ZM9.263,93.693C9.263,93.376 9.81,93.247 11.242,93.224C12.531,93.204 12.884,93.462 11.78,93.616C9.479,93.938 9.263,93.945 9.263,93.693ZM6.275,92.499C6.275,92.412 6.346,92.341 6.432,92.341C6.519,92.341 6.589,92.238 6.589,92.112C6.589,91.879 7.797,91.452 7.968,91.623C8.017,91.672 7.993,91.713 7.913,91.713C7.834,91.713 7.521,91.865 7.219,92.05C6.716,92.358 6.695,92.397 6.983,92.51C7.238,92.611 7.201,92.636 6.786,92.645C6.505,92.65 6.275,92.585 6.275,92.499L6.275,92.499ZM10.521,90.611C10.521,90.525 10.611,90.454 10.721,90.454C10.831,90.454 11.041,90.259 11.189,90.022C11.436,89.622 11.457,89.615 11.461,89.93C11.468,90.505 11.291,90.769 10.898,90.769C10.691,90.769 10.521,90.698 10.521,90.611L10.521,90.611ZM11.789,89.804C11.396,89.273 11.456,88.881 11.928,88.881C12.434,88.881 12.702,88.269 13.352,85.636C13.542,84.863 13.923,84.455 14.077,84.858C14.209,85.202 13.921,86.246 13.141,88.252C12.339,90.313 12.245,90.421 11.789,89.804L11.789,89.804ZM12.409,89.196C12.539,89.112 12.574,89.043 12.487,89.043C12.401,89.043 12.224,89.112 12.094,89.196C11.965,89.28 11.929,89.348 12.016,89.348C12.102,89.348 12.279,89.28 12.409,89.196ZM10.437,86.763C10.498,86.42 10.649,85.946 10.771,85.71C10.893,85.473 10.993,85.094 10.993,84.867C10.993,84.559 11.063,84.468 11.269,84.507C11.785,84.605 11.666,85.344 10.923,86.653C10.502,87.395 10.317,87.437 10.437,86.763L10.437,86.763ZM10.993,83.996C10.993,83.905 11.058,83.87 11.137,83.919C11.216,83.967 11.313,83.919 11.352,83.81C11.39,83.701 11.483,83.669 11.557,83.739C11.631,83.808 11.588,83.931 11.461,84.012C11.154,84.205 10.993,84.2 10.993,83.996L10.993,83.996ZM14.142,83.449C14.144,83.193 14.292,82.806 14.47,82.59L14.794,82.197L14.707,82.815C14.66,83.155 14.513,83.542 14.38,83.674C14.163,83.891 14.139,83.868 14.142,83.449L14.142,83.449ZM14.586,81.541C14.557,80.829 14.562,80.756 14.682,80.191C14.759,79.832 14.721,79.759 14.457,79.759C14.019,79.759 14.053,79.448 14.493,79.43C14.766,79.419 14.73,79.382 14.336,79.268C13.639,79.067 13.691,78.815 14.429,78.815C15.064,78.815 15.554,78.455 15.554,77.989C15.554,77.85 15.731,77.598 15.948,77.428C16.164,77.258 16.341,77.04 16.341,76.945C16.341,76.849 16.412,76.771 16.498,76.771C16.585,76.771 16.644,76.718 16.63,76.653C16.616,76.588 16.687,76.335 16.787,76.092C17.011,75.55 17.029,74.097 16.813,74.097C16.726,74.097 16.656,73.991 16.656,73.861C16.656,73.731 16.712,73.625 16.781,73.625C16.982,73.625 17.285,73.982 17.285,74.218C17.285,74.337 17.391,74.54 17.521,74.67C17.65,74.8 17.757,74.83 17.757,74.737C17.757,74.645 17.863,74.569 17.992,74.569C18.33,74.569 18.295,74.674 17.664,75.553C16.477,77.205 14.879,80.858 14.972,81.708C14.99,81.872 14.916,82.037 14.808,82.075C14.675,82.122 14.603,81.949 14.586,81.542L14.586,81.541ZM12.106,77.178C11.972,77.017 11.97,76.926 12.096,76.848C12.32,76.71 13.219,77.077 13.105,77.261C12.971,77.478 12.31,77.424 12.106,77.178L12.106,77.178ZM14.571,75.972C14.42,75.883 14.296,75.739 14.296,75.651C14.296,75.448 14.927,75.63 15.234,75.922C15.435,76.113 15.425,76.141 15.156,76.137C14.986,76.134 14.723,76.06 14.571,75.972L14.571,75.972ZM63.132,73.625C63.185,73.538 63.3,73.468 63.386,73.468C63.473,73.468 63.5,73.538 63.446,73.625C63.393,73.712 63.278,73.782 63.192,73.782C63.105,73.782 63.078,73.711 63.132,73.625L63.132,73.625ZM63.682,72.917C63.79,72.787 64.029,72.682 64.213,72.682C64.503,72.683 64.487,72.714 64.097,72.918C63.529,73.214 63.436,73.214 63.682,72.918L63.682,72.917ZM15.436,72.423C15.009,71.961 15,71.895 15.366,71.895C15.728,71.895 16.026,72.193 16.026,72.555C16.026,72.926 15.87,72.891 15.436,72.423L15.436,72.423ZM16.734,72.223C16.907,72.141 17.345,72.069 17.708,72.063C18.07,72.058 18.411,71.981 18.464,71.895C18.518,71.808 18.681,71.737 18.827,71.737C18.974,71.736 19.276,71.64 19.499,71.524C19.911,71.309 20.902,71.353 20.902,71.587C20.902,71.824 19.235,72.203 17.821,72.288C16.881,72.345 16.523,72.323 16.734,72.223L16.734,72.223ZM20.137,70.951C20.129,70.821 20.26,70.538 20.427,70.322C20.671,70.006 20.785,69.962 21.004,70.097C21.5,70.404 21.432,70.637 20.848,70.637C20.454,70.637 20.275,70.716 20.224,70.912C20.173,71.106 20.148,71.118 20.137,70.951L20.137,70.951ZM20.673,69.075C20.574,68.915 20.819,68.821 21.767,68.658C22.557,68.522 23.576,68.127 23.576,67.957C23.576,67.794 21.931,67.582 21.612,67.704C21.338,67.809 20.902,67.676 20.902,67.487C20.902,67.416 21.132,67.307 21.413,67.244C21.913,67.131 21.904,67.124 21.059,66.952C20,66.735 19.676,66.565 19.973,66.381C20.203,66.239 21.058,66.359 21.284,66.564C21.364,66.638 21.524,66.618 21.642,66.521C21.96,66.257 24.684,66.236 25.066,66.494C25.236,66.61 25.342,66.71 25.302,66.716C25.261,66.721 24.661,66.763 23.969,66.809C23.277,66.854 22.693,66.909 22.671,66.93C22.649,66.951 22.932,67.063 23.3,67.179C23.668,67.294 24.075,67.512 24.205,67.662C24.335,67.812 24.577,67.959 24.742,67.988C25.255,68.079 25.193,68.394 24.645,68.482C24.359,68.528 23.632,68.713 23.029,68.893C21.872,69.239 20.824,69.32 20.673,69.075L20.673,69.075ZM25.856,63.447C25.51,63.308 25.198,63.17 25.163,63.141C24.996,63.007 25.713,62.458 26.056,62.458C26.37,62.458 26.427,62.52 26.359,62.782C26.306,62.984 26.359,63.133 26.498,63.175C27.277,63.416 27.291,63.428 26.957,63.565C26.544,63.735 26.581,63.739 25.856,63.447L25.856,63.447ZM28.405,60.385C27.895,60.16 27.666,59.971 27.699,59.801C27.752,59.521 28.609,59.347 28.609,59.617C28.609,59.709 28.715,59.784 28.845,59.784C28.974,59.784 29.081,59.85 29.081,59.931C29.081,60.012 29.325,60.167 29.623,60.275C29.921,60.382 30.129,60.528 30.085,60.599C29.946,60.825 29.183,60.728 28.405,60.385L28.405,60.385ZM31.414,57.916C31.385,57.84 31.094,57.598 30.767,57.378C30.187,56.986 30.181,56.694 30.757,56.897C31.17,57.043 31.916,57.763 31.818,57.921C31.711,58.095 31.48,58.092 31.414,57.917L31.414,57.916ZM33.351,56.792C33.147,56.623 32.422,56.151 31.739,55.745C29.814,54.6 30.152,54.221 32.9,54.441C33.818,54.515 34.697,54.642 34.853,54.723C35.009,54.805 35.633,54.954 36.241,55.056C36.849,55.157 37.45,55.306 37.578,55.386C37.948,55.62 36.696,55.567 35.567,55.301C33.369,54.783 30.892,54.696 31.616,55.162C32.123,55.489 32.506,55.694 33.215,56.021C33.94,56.355 34.368,56.803 34.16,57.011C33.99,57.181 33.735,57.112 33.351,56.792L33.351,56.792ZM41.942,53.149C41.431,52.927 41.147,52.672 40.901,52.21C40.51,51.478 40.555,51.303 41.107,51.409C41.324,51.45 41.469,51.538 41.428,51.604C41.343,51.742 42.357,52.864 42.566,52.864C42.642,52.864 42.834,52.959 42.993,53.075C43.271,53.279 43.27,53.29 42.964,53.37C42.789,53.416 42.329,53.316 41.942,53.149L41.942,53.149ZM36.787,52.781C36.787,52.461 37.52,52.198 38.074,52.32C38.632,52.442 38.499,52.707 37.879,52.707C37.625,52.707 37.416,52.777 37.416,52.864C37.416,52.95 37.275,53.021 37.102,53.021C36.925,53.021 36.787,52.916 36.787,52.781L36.787,52.781ZM93.362,51.915L92.779,51.235L92.755,49.572C92.727,47.598 92.75,47.788 92.418,46.808C92.05,45.725 91.164,44.693 89.931,43.913C89.359,43.551 88.812,43.082 88.715,42.869C88.602,42.62 88.41,42.483 88.173,42.483C87.917,42.483 87.476,42.123 86.715,41.291C86.114,40.635 85.598,40.029 85.568,39.946C85.538,39.862 85.248,39.626 84.924,39.422C84.065,38.88 83.753,38.114 83.861,36.82C83.927,36.04 84.073,35.563 84.432,34.953C84.698,34.502 84.915,34.071 84.915,33.994C84.915,33.917 85.199,33.287 85.545,32.594C85.891,31.9 86.174,31.256 86.174,31.162C86.174,31.068 86.275,30.834 86.398,30.643C86.522,30.451 86.702,29.834 86.799,29.272C86.96,28.333 87.58,26.173 87.904,25.418C88.097,24.97 88.226,24.109 88.215,23.348C88.21,22.988 88.28,22.646 88.372,22.59C88.463,22.533 88.496,22.42 88.446,22.338C88.26,22.038 88.716,21.076 89.115,20.924C89.402,20.815 89.48,20.701 89.402,20.501C89.279,20.185 89.276,20.162 89.301,19.796C89.331,19.343 89.823,19.475 91.204,20.305C92.768,21.245 93.221,21.586 94.343,22.667C95.302,23.591 96.085,24.068 97.301,24.466C97.755,24.614 98.127,24.784 98.127,24.842C98.127,25.137 100.438,25.76 101.242,25.683C101.857,25.624 102.013,25.327 101.784,24.652C101.692,24.381 101.575,23.91 101.523,23.605C101.431,23.062 100.676,21.927 99.615,20.735C99.324,20.408 98.927,19.913 98.732,19.634C98.537,19.355 98.324,19.089 98.258,19.043C98.192,18.996 97.926,18.491 97.667,17.921C97.409,17.35 96.982,16.518 96.718,16.072C96.455,15.625 96.24,15.173 96.24,15.067C96.24,14.961 96.03,14.619 95.773,14.308C95.292,13.724 95.297,13.544 95.794,13.544C96.191,13.544 96.155,13.397 95.602,12.757C94.326,11.282 93.04,10.097 92.612,10.003C92.358,9.947 92.15,9.841 92.15,9.768C92.15,9.491 90.348,9.109 89.318,9.167C88.507,9.213 88.178,9.312 87.744,9.642C87.443,9.871 86.998,10.109 86.756,10.169C86.292,10.285 84.279,12.254 83.605,13.252C83.114,13.979 82.301,15.679 82.15,16.296C82.087,16.556 81.943,16.91 81.831,17.083C81.72,17.256 81.629,17.433 81.63,17.476C81.632,17.519 81.597,17.661 81.553,17.79C81.475,18.021 81.215,18.816 80.211,21.896C79.94,22.727 79.617,23.93 79.492,24.57C79.367,25.21 79.164,26.087 79.041,26.519C78.426,28.676 78.314,29.151 78.391,29.276C78.437,29.35 78.268,30.247 78.016,31.268C77.549,33.159 77.155,34.986 76.97,36.108C76.913,36.451 76.755,36.947 76.619,37.209C76.482,37.472 76.326,37.899 76.271,38.158C76.182,38.587 76.116,38.63 75.551,38.628C75.019,38.626 74.935,38.581 74.977,38.313C75.004,38.142 75.258,37.647 75.542,37.215C76.093,36.374 76.343,35.642 76.511,34.383C76.627,33.506 76.812,32.423 76.966,31.71C77.442,29.508 77.558,28.919 77.681,28.109C77.844,27.023 78.051,26.052 78.487,24.318C78.661,23.625 78.826,22.915 78.854,22.739C78.935,22.221 79.412,20.885 79.644,20.529C79.761,20.348 79.936,19.888 80.034,19.506C80.131,19.125 80.277,18.671 80.358,18.498C80.439,18.325 80.723,17.511 80.989,16.689C81.72,14.428 82.702,12.632 83.914,11.342C84.28,10.953 84.752,10.445 84.963,10.215C85.175,9.984 85.657,9.639 86.036,9.447C86.415,9.256 86.914,8.965 87.146,8.802C88.199,8.06 89.711,7.837 91.127,8.216C91.981,8.444 93.094,8.96 93.094,9.127C93.094,9.202 93.267,9.307 93.479,9.36C94.001,9.491 96.006,11.575 96.418,12.415C96.687,12.966 96.718,13.168 96.578,13.475C96.428,13.806 96.526,14.076 97.345,15.597C97.862,16.555 98.284,17.388 98.284,17.449C98.284,17.68 99.387,19.182 99.933,19.693C100.247,19.987 100.653,20.476 100.834,20.779C101.016,21.081 101.394,21.577 101.675,21.88C102.566,22.84 103.081,25.542 102.505,26.236C102.41,26.35 102.057,26.488 101.721,26.542C101.384,26.595 101.07,26.701 101.024,26.776C100.908,26.965 100.055,26.948 99.936,26.755C99.882,26.669 99.606,26.598 99.321,26.598C98.53,26.598 97.917,26.324 97.645,25.849C97.499,25.595 97.144,25.33 96.78,25.203C95.822,24.869 94.472,24.003 93.689,23.22C93.298,22.829 92.934,22.509 92.881,22.509C92.785,22.509 92.315,22.148 91.908,21.762C91.794,21.654 91.625,21.565 91.533,21.565C91.44,21.565 91.364,21.51 91.364,21.442C91.364,21.375 91.134,21.221 90.853,21.101C90.572,20.98 90.294,20.854 90.235,20.821C90.128,20.76 89.466,22.124 89.505,22.324C89.528,22.439 89.508,22.505 89.086,23.688C88.932,24.121 88.753,24.869 88.69,25.351C88.626,25.833 88.491,26.382 88.391,26.57C88.29,26.759 88.254,26.913 88.311,26.913C88.368,26.913 88.343,27.001 88.255,27.109C88.168,27.217 88.006,27.73 87.897,28.25C87.787,28.769 87.637,29.26 87.564,29.343C87.492,29.425 87.432,29.623 87.432,29.783C87.432,29.943 87.291,30.366 87.117,30.725C86.944,31.083 86.803,31.498 86.803,31.648C86.803,31.797 86.626,32.272 86.41,32.703C86.193,33.133 86.017,33.558 86.017,33.646C86.017,33.735 85.963,33.83 85.899,33.859C85.719,33.939 84.882,35.675 84.79,36.159C84.745,36.393 84.702,36.965 84.694,37.429C84.682,38.142 84.736,38.313 85.044,38.53C85.244,38.672 85.633,39.031 85.909,39.329C87.202,40.727 87.727,41.187 88.218,41.359C88.817,41.568 89.319,41.971 89.319,42.242C89.319,42.531 90.129,43.23 90.774,43.5C91.099,43.635 91.364,43.814 91.364,43.897C91.364,43.98 91.559,44.149 91.797,44.273C92.084,44.422 92.432,44.903 92.835,45.709C93.427,46.893 93.443,46.969 93.508,48.957C93.552,50.297 93.659,51.202 93.821,51.608C94.196,52.545 94.009,52.671 93.362,51.915L93.362,51.915ZM42.795,51.889C42.533,51.626 42.56,51.502 42.882,51.496C43.191,51.491 43.55,51.73 43.55,51.94C43.55,52.143 43.014,52.107 42.795,51.889L42.795,51.889ZM44.761,50.066C44.393,49.297 44.524,49.003 45.413,48.61C45.829,48.426 46.066,48.241 45.968,48.178C45.872,48.117 45.748,47.917 45.69,47.733C45.609,47.472 45.665,47.377 45.945,47.302C46.522,47.148 46.603,47.185 46.335,47.481C46.044,47.803 46.084,47.88 46.926,48.603L47.55,49.139L46.725,49.029C46.131,48.951 45.815,48.981 45.592,49.137C45.241,49.382 45.334,49.559 45.818,49.565L46.146,49.568L45.814,49.84C45.632,49.989 45.44,50.236 45.387,50.387C45.241,50.804 45.073,50.719 44.761,50.066L44.761,50.066ZM49.448,48.223C49.794,47.926 50.308,47.559 50.59,47.406C50.871,47.254 51.146,46.99 51.2,46.819C51.358,46.322 51.655,46.09 51.865,46.3C51.963,46.398 52.044,46.562 52.044,46.665C52.044,46.966 52.621,47.03 53.428,46.817C54.621,46.502 54.893,46.309 54.78,45.859C54.698,45.529 54.738,45.472 55.059,45.472C55.265,45.472 55.555,45.613 55.703,45.786C55.851,45.959 56.092,46.101 56.239,46.101C56.592,46.101 57.861,45.483 58.252,45.12C58.583,44.813 59.068,44.817 59.003,45.128C58.916,45.544 59.778,45.26 60.537,44.623C60.898,44.32 60.917,44.239 60.773,43.647C60.686,43.293 60.537,42.903 60.441,42.782C60.236,42.524 59.832,41.427 59.593,40.478C59.406,39.741 59.327,39.712 58.413,40.041C57.605,40.333 56.919,40.346 56.919,40.071C56.919,39.812 57.512,39.53 58.332,39.399C58.896,39.309 58.942,39.265 58.868,38.887C58.823,38.659 58.767,38.331 58.743,38.158C58.689,37.769 58.059,37.639 57.924,37.99C57.872,38.126 57.731,38.237 57.61,38.237C57.287,38.237 57.341,38.081 57.802,37.685L58.213,37.332L57.94,36.172C57.789,35.535 57.612,34.902 57.545,34.765C57.478,34.629 57.27,33.957 57.082,33.271C56.894,32.586 56.628,31.777 56.489,31.474C56.351,31.171 56.242,30.817 56.247,30.688C56.251,30.558 56.155,30.089 56.032,29.646C55.908,29.202 55.801,28.353 55.793,27.758C55.785,27.164 55.724,26.571 55.659,26.441C55.253,25.638 55.173,21.875 55.487,18.42C55.602,17.165 55.694,15.962 55.692,15.746C55.69,15.53 55.741,15.282 55.806,15.195C55.87,15.109 55.937,14.684 55.955,14.252C56.008,12.919 56.292,10.382 56.533,9.083C56.659,8.404 56.762,7.62 56.762,7.343C56.762,6.522 57.193,5.327 57.702,4.736C57.963,4.434 58.177,4.135 58.177,4.072C58.178,3.837 59.129,3.478 59.75,3.478C60.829,3.478 61.48,3.953 61.48,4.74C61.48,5.198 61.204,5.257 60.708,4.904C59.94,4.357 58.649,4.551 58.649,5.214C58.649,5.384 58.543,5.523 58.413,5.523C58.1,5.523 58.115,5.677 58.453,5.933C58.712,6.13 58.712,6.142 58.456,6.147C58.029,6.155 57.733,6.774 57.64,7.852C57.593,8.398 57.521,8.9 57.48,8.966C57.352,9.174 57.087,11.051 56.991,12.443C56.94,13.178 56.799,14.584 56.678,15.566C56.479,17.182 56.482,17.376 56.711,17.605C56.926,17.82 56.949,18.121 56.863,19.633C56.807,20.609 56.716,22.217 56.66,23.206C56.581,24.595 56.622,25.382 56.841,26.659L57.125,28.314L57.699,28.543C58.015,28.67 58.376,28.897 58.501,29.048C58.713,29.305 58.683,29.317 58.07,29.219L57.412,29.115L57.413,29.626C57.414,30.289 57.703,31.822 57.866,32.025C57.936,32.111 57.992,32.359 57.991,32.575C57.989,33.303 58.194,34.672 58.349,34.961C58.452,35.154 58.681,35.249 59.041,35.249C59.608,35.249 60.379,35.53 60.379,35.737C60.379,35.985 60.055,36.047 59.527,35.902C59.108,35.786 58.967,35.801 58.903,35.968C58.768,36.318 59.116,37.098 59.445,37.184C59.684,37.247 59.754,37.413 59.768,37.947C59.778,38.323 59.775,38.749 59.76,38.894C59.743,39.073 59.873,39.175 60.163,39.209C60.549,39.255 60.613,39.354 60.798,40.203C60.911,40.722 61.078,41.275 61.17,41.432C61.263,41.589 61.296,41.849 61.245,42.01C61.192,42.176 61.244,42.359 61.363,42.433C61.56,42.553 62.023,43.882 62.219,44.886C62.297,45.29 62.269,45.32 61.834,45.287C61.576,45.267 61.162,45.384 60.915,45.546C60.667,45.708 60.251,45.886 59.989,45.941C59.536,46.037 59.516,46.075 59.547,46.779C59.565,47.185 59.512,47.517 59.429,47.517C59.191,47.517 58.649,46.912 58.649,46.647C58.649,46.226 58.191,46.199 57.874,46.602C57.71,46.81 57.327,47.115 57.022,47.279C56.478,47.572 56.457,47.572 55.915,47.279C55.386,46.994 55.327,46.993 54.515,47.249C54.049,47.396 53.532,47.518 53.367,47.519C53.134,47.521 53.115,47.553 53.283,47.659C53.746,47.952 53.282,48.179 52.433,48.073C51.691,47.981 51.577,48.007 51.358,48.319C51.147,48.621 51.079,48.639 50.855,48.453C50.555,48.204 50.113,48.105 50.243,48.317C50.292,48.396 50.19,48.46 50.017,48.46C49.844,48.46 49.659,48.531 49.606,48.618C49.552,48.704 49.353,48.772 49.164,48.769C48.863,48.763 48.898,48.695 49.448,48.223L49.448,48.223ZM77.429,42.759C77.461,42.478 77.496,42.201 77.505,42.145C77.523,42.041 78.401,41.697 78.648,41.697C78.901,41.697 78.78,41.957 78.219,42.612C77.542,43.403 77.35,43.439 77.429,42.759L77.429,42.759ZM74.799,41.289C74.394,40.914 74.319,40.897 73.874,41.081C73.607,41.192 73.047,41.287 72.629,41.293C71.689,41.307 71.237,40.9 70.858,39.697C70.634,38.986 70.62,38.545 70.751,36.394C70.928,33.477 70.865,30.164 70.619,29.537C70.524,29.293 70.445,28.825 70.445,28.495C70.445,28.166 70.298,27.339 70.118,26.657C69.939,25.976 69.698,25.052 69.584,24.603C69.471,24.154 69.264,23.559 69.125,23.281C68.986,23.003 68.873,22.623 68.873,22.438C68.873,22.252 68.806,22.033 68.725,21.951C68.643,21.868 68.542,21.606 68.499,21.367C68.355,20.564 67.11,17.361 66.386,15.932C66.153,15.472 65.96,15.048 65.956,14.989C65.953,14.929 65.814,14.633 65.648,14.33C65.483,14.028 65.338,13.744 65.327,13.701C65.257,13.43 64.997,12.928 64.716,12.522C64.171,11.734 64.003,11.449 63.671,10.752C63.496,10.384 63.281,10.084 63.194,10.084C63.106,10.084 63.078,10.013 63.132,9.926C63.185,9.84 63.162,9.769 63.081,9.769C62.999,9.769 62.887,9.645 62.831,9.494C62.776,9.343 62.594,8.971 62.427,8.668C62.261,8.365 62.121,7.963 62.117,7.773C62.113,7.584 62.046,7.389 61.969,7.341C61.735,7.197 61.166,6.007 61.166,5.663C61.166,5.038 61.692,5.422 62.05,6.31C62.379,7.125 62.603,7.704 62.657,7.882C62.752,8.194 63.32,8.981 63.451,8.982C63.691,8.983 64.623,10.243 65.605,11.892C66.049,12.637 66.671,14.051 66.671,14.315C66.671,14.41 66.741,14.488 66.828,14.488C66.915,14.488 66.985,14.569 66.985,14.669C66.985,14.769 67.188,15.282 67.436,15.809C67.684,16.337 67.938,16.945 68.001,17.161C68.166,17.731 68.859,19.555 69.024,19.854C69.191,20.156 69.972,22.853 70.089,23.531C70.134,23.791 70.226,24.074 70.294,24.16C70.478,24.393 71.254,27.768 71.47,29.272C71.526,29.661 71.599,30.758 71.632,31.71C71.687,33.306 71.717,33.444 72.012,33.49C72.296,33.535 72.333,33.655 72.333,34.552C72.333,35.455 72.3,35.563 72.021,35.563C71.744,35.563 71.72,35.639 71.803,36.242C71.876,36.774 71.834,36.983 71.611,37.207C71.268,37.549 71.286,38.391 71.664,39.613C71.894,40.36 72.333,40.759 72.333,40.222C72.333,40.103 72.433,39.923 72.554,39.822C72.676,39.721 72.892,39.394 73.034,39.095C73.353,38.422 73.804,38.341 73.652,38.984C73.595,39.222 73.463,39.523 73.358,39.653C73.131,39.933 72.937,40.439 73.056,40.439C73.262,40.439 73.846,40.048 74.033,39.785C74.146,39.626 74.404,39.495 74.607,39.495C74.904,39.495 75.019,39.627 75.188,40.163L75.4,40.83L77.592,41.147L77.17,41.422C76.505,41.856 75.34,41.79 74.799,41.289L74.799,41.289ZM73.115,86.497C73.488,86.116 73.638,85.868 73.497,85.868C73.226,85.868 72.502,85.203 72.502,85.418C72.502,85.739 72.533,87.094 73.115,86.497ZM75.165,87.446C75.537,87.064 75.688,86.816 75.547,86.816C75.276,86.816 74.142,87.714 74.142,87.929C74.142,88.25 74.582,88.042 75.165,87.446ZM77.972,87.017C77.972,86.78 77.122,86.769 76.984,86.993C76.93,87.08 76.732,87.16 76.542,87.171C76.334,87.184 76.416,87.234 76.748,87.297C77.359,87.414 77.972,87.31 77.972,87.017L77.972,87.017ZM78.005,87.778C78.169,87.677 78.121,87.664 77.848,87.738C77.632,87.795 77.349,87.908 77.219,87.988C77.055,88.09 77.103,88.102 77.376,88.029C77.592,87.971 77.876,87.858 78.005,87.778L78.005,87.778ZM69.642,108.867C69.519,108.647 69.367,108.887 69.909,107.713C70.334,106.794 70.112,104.681 70.112,104.511C70.112,104.176 64.392,98.344 64.501,98.453C64.602,98.555 71.499,103.5 71.273,103.857C71.164,104.03 71.453,105.038 71.333,105.584C71.043,106.908 71.117,107.096 70.935,107.965C70.832,108.459 69.765,109.088 69.642,108.867Z" style="fill:rgb(255,241,218);fill-rule:nonzero;"/>
    </g>
</svg>
