<?xml version="1.0" encoding="UTF-8" standalone="no"?>
<!-- Created with Inkscape (http://www.inkscape.org/) -->

<svg
   width="200"
   height="200"
   viewBox="0 0 52.916665 52.916666"
   version="1.1"
   id="svg345"
   inkscape:version="1.2.2 (732a01da63, 2022-12-09)"
   sodipodi:docname="Logo_L.svg"
   xmlns:inkscape="http://www.inkscape.org/namespaces/inkscape"
   xmlns:sodipodi="http://sodipodi.sourceforge.net/DTD/sodipodi-0.dtd"
   xmlns="http://www.w3.org/2000/svg"
   xmlns:svg="http://www.w3.org/2000/svg">
  <sodipodi:namedview
     id="namedview347"
     pagecolor="#ffffff"
     bordercolor="#000000"
     borderopacity="0.25"
     inkscape:showpageshadow="2"
     inkscape:pageopacity="0.0"
     inkscape:pagecheckerboard="0"
     inkscape:deskcolor="#d1d1d1"
     inkscape:document-units="mm"
     showgrid="false"
     inkscape:zoom="2.0510461"
     inkscape:cx="165.28151"
     inkscape:cy="86.053646"
     inkscape:window-width="1920"
     inkscape:window-height="1001"
     inkscape:window-x="-9"
     inkscape:window-y="-9"
     inkscape:window-maximized="1"
     inkscape:current-layer="layer1" />
  <defs
     id="defs342" />
  <g
     inkscape:label="Calque 1"
     inkscape:groupmode="layer"
     id="layer1">
    <path
       style="fill:#000000;stroke-width:0.07961"
       d="M 9.0332585,46.531467 C 6.0207988,46.151974 3.613642,43.199601 5.5878165,41.006242 7.7284485,37.417386 11.348266,34.340734 15.945526,32.811871 18.324678,31.482456 21.92026,31.969005 23.70492,29.891362 23.822563,28.088086 24.802833,25.826515 22.910203,24.40048 20.317269,23.74624 17.120142,24.136123 14.784011,22.564461 10.701378,20.611674 9.1316488,16.824821 7.6198796,13.425953 6.41497,11.676516 7.2353931,9.7026648 7.4843735,7.8464328 c 1.1986647,-0.228908 4.3165925,-0.674231 4.2787855,0.635418 0.201129,3.1975172 0.749661,6.7168312 3.68393,9.0996622 1.870967,1.651427 4.515131,2.656505 7.190332,3.091461 3.614957,0.321439 3.073365,-3.274705 4.752633,-4.890551 1.181415,-1.783575 2.328661,-3.609669 4.58261,-4.642244 2.24182,-1.4512482 5.132909,-3.0395092 7.99377,-3.4174162 4.347406,-0.4497 7.772701,2.5726982 7.109619,4.6160312 -2.008352,5.448539 -5.94276,9.446277 -16.695237,12.198662 -2.573185,0.960969 -1.21588,3.705601 -1.609106,5.49111 0.846004,2.180718 4.335087,0.90945 6.261636,1.838596 3.558466,0.930853 6.661456,2.926281 8.811828,5.368575 1.023571,1.941001 3.688778,7.134908 3.401384,9.311343 -4.626286,0.01791 -3.937536,0.08311 -6.091524,-5.802052 -2.128826,-3.61944 -6.363183,-6.81826 -11.50287,-7.085943 -2.366863,0.29032 -2.322045,2.59727 -2.921963,4.042453 -0.581013,1.333927 -1.585976,2.534891 -2.69096,3.630422 -3.531944,3.089614 -8.6616,4.473911 -13.616996,5.350003 -0.4686076,0.02339 -0.9480393,-0.01433 -1.3889865,-0.150496 z M 14.20791,42.940615 c 2.63128,-1.013854 5.304457,-2.220256 7.518607,-4.119231 1.327015,-1.011924 3.950329,-3.853273 0.866397,-4.626919 -2.671916,-0.238944 -5.399281,1.523962 -7.283102,2.681876 -2.493493,1.532654 -4.849065,3.58767 -4.960041,5.810898 -0.158701,0.787645 3.408243,0.232428 3.858139,0.253376 z M 30.838184,20.888133 c 3.863526,-0.746414 6.555046,-1.944494 8.941265,-3.748366 1.655903,-1.251781 4.757606,-5.654946 1.989358,-6.461106 -1.684656,-0.4906 -5.522214,1.297505 -7.219516,2.599056 -1.820053,1.395687 -3.462597,2.84847 -4.32485,4.829279 -0.534572,0.836954 -2.352957,3.354292 0.613743,2.781137 z"
       id="path470"
       sodipodi:nodetypes="ssccsscccccsscccsssccssccsscssssssssss" />
  </g>
</svg>
