<?xml version="1.0" encoding="UTF-8" standalone="no"?>
<!-- Created with Inkscape (http://www.inkscape.org/) -->

<svg
   width="800"
   height="600"
   viewBox="0 0 211.66666 158.75001"
   version="1.1"
   id="svg5"
   xml:space="preserve"
   inkscape:version="1.2.2 (732a01da63, 2022-12-09)"
   sodipodi:docname="Logo_leberou_trail_blanc_personnage.svg"
   xmlns:inkscape="http://www.inkscape.org/namespaces/inkscape"
   xmlns:sodipodi="http://sodipodi.sourceforge.net/DTD/sodipodi-0.dtd"
   xmlns="http://www.w3.org/2000/svg"
   xmlns:svg="http://www.w3.org/2000/svg"
   xmlns:serif="http://www.serif.com/"><sodipodi:namedview
     id="namedview7"
     pagecolor="#ffffff"
     bordercolor="#000000"
     borderopacity="0.25"
     inkscape:showpageshadow="2"
     inkscape:pageopacity="0.0"
     inkscape:pagecheckerboard="0"
     inkscape:deskcolor="#d1d1d1"
     inkscape:document-units="mm"
     showgrid="false"
     inkscape:zoom="0.51276154"
     inkscape:cx="89.710316"
     inkscape:cy="266.20561"
     inkscape:window-width="1920"
     inkscape:window-height="1001"
     inkscape:window-x="-9"
     inkscape:window-y="-9"
     inkscape:window-maximized="1"
     inkscape:current-layer="layer1" /><defs
     id="defs2" /><g
     inkscape:label="Calque 1"
     inkscape:groupmode="layer"
     id="layer1"><g
       style="clip-rule:evenodd;fill-rule:evenodd;stroke-linejoin:round;stroke-miterlimit:2"
       id="g192"
       transform="matrix(1.2021665,0,0,1.2021665,58.464804,18.16448)"><g
         id="Calque-1"
         serif:id="Calque 1">
        <path
   id="path3953"
   d="m 1.439,110.01 c -0.274,-0.11 -0.247,-1.168 0.054,-2.206 0.213,-0.732 0.333,-0.898 0.782,-1.086 0.649,-0.271 0.9,-0.281 0.817,-0.032 -0.034,0.104 -0.285,0.247 -0.557,0.318 -0.409,0.106 -0.513,0.228 -0.609,0.715 -0.156,0.787 -0.153,1.782 0.006,2.12 0.132,0.279 -0.06,0.346 -0.493,0.171 z m 1.596,-4.431 c 0.051,-0.453 0.199,-1.03 0.329,-1.282 0.13,-0.252 0.237,-0.597 0.237,-0.767 0,-0.335 0.943,-2.277 1.052,-2.168 0.102,0.102 -0.419,2.025 -0.645,2.382 -0.109,0.173 -0.296,0.762 -0.416,1.307 -0.29,1.324 -0.687,1.701 -0.557,0.528 z m 2.709,-6.403 c -0.086,-0.221 0.145,-0.888 0.63,-1.826 0.118,-0.229 0.215,-0.53 0.215,-0.668 0,-0.138 0.071,-0.251 0.158,-0.251 0.086,0 0.157,-0.066 0.157,-0.146 0,-0.274 1.241,-2.016 1.509,-2.118 0.438,-0.169 0.391,-0.042 -0.244,0.645 -0.332,0.36 -0.564,0.695 -0.515,0.743 0.049,0.049 0.006,0.089 -0.095,0.089 -0.101,0 -0.183,0.111 -0.183,0.245 0,0.135 -0.176,0.561 -0.392,0.947 -0.215,0.386 -0.476,1.036 -0.579,1.446 -0.216,0.858 -0.518,1.267 -0.661,0.894 z m 56.051,-4.318 c 0.15,-0.096 0.166,-0.153 0.044,-0.155 -0.23,-0.003 -1.774,-3.2 -1.774,-3.673 0,-0.11 -0.176,-0.438 -0.391,-0.73 -0.301,-0.408 -0.372,-0.658 -0.311,-1.092 0.086,-0.613 -0.012,-0.782 -0.871,-1.491 -0.303,-0.25 -0.527,-0.489 -0.498,-0.532 0.029,-0.042 -0.037,-0.133 -0.147,-0.201 -0.154,-0.095 -0.164,-0.299 -0.042,-0.883 0.087,-0.417 0.143,-1.289 0.124,-1.938 -0.026,-0.872 0.038,-1.323 0.245,-1.73 0.154,-0.303 0.478,-1.176 0.72,-1.941 0.243,-0.765 0.67,-1.756 0.951,-2.202 0.281,-0.446 0.636,-1.059 0.789,-1.362 0.154,-0.303 0.328,-0.586 0.388,-0.629 0.059,-0.043 0.184,-0.78 0.277,-1.637 0.174,-1.609 0.346,-2.036 0.683,-1.699 0.144,0.144 0.145,0.363 0.007,0.936 -0.409,1.692 -0.062,3.601 0.436,2.399 0.109,-0.263 0.313,-0.545 0.453,-0.627 0.163,-0.096 0.182,-0.151 0.052,-0.154 -0.15,-0.003 -0.161,-0.081 -0.04,-0.308 0.09,-0.166 0.12,-0.414 0.068,-0.55 -0.068,-0.177 -10e-4,-0.247 0.236,-0.247 0.182,0 0.467,-0.136 0.632,-0.301 0.165,-0.165 0.714,-0.381 1.219,-0.48 1.136,-0.222 1.578,-0.433 1.674,-0.801 0.064,-0.246 0.02,-0.264 -0.323,-0.133 -0.548,0.208 -0.667,0.02 -0.219,-0.344 0.481,-0.389 1.028,-0.383 1.301,0.014 0.205,0.3 0.252,0.303 0.988,0.079 0.424,-0.13 1.067,-0.236 1.427,-0.236 0.494,0 0.745,-0.096 1.021,-0.389 0.371,-0.395 0.363,-0.412 -0.286,-0.587 -0.131,-0.035 -0.057,-0.139 0.195,-0.274 0.355,-0.19 0.442,-0.184 0.695,0.044 0.355,0.322 0.563,0.331 0.808,0.036 0.103,-0.125 0.283,-0.19 0.4,-0.145 0.154,0.059 0.042,0.306 -0.404,0.895 l -0.616,0.813 0.589,0.109 c 0.324,0.06 0.792,0.113 1.041,0.118 0.389,0.008 0.424,-0.025 0.25,-0.234 -0.367,-0.442 0.037,-0.605 0.933,-0.375 0.438,0.112 0.849,0.152 0.912,0.089 0.122,-0.122 -0.43,-0.631 -1.437,-1.325 -0.562,-0.387 -0.587,-0.432 -0.266,-0.478 0.194,-0.029 0.536,0.078 0.76,0.236 0.223,0.158 0.52,0.358 0.659,0.444 0.139,0.087 0.289,0.199 0.332,0.249 0.043,0.051 0.539,0.332 1.101,0.626 0.562,0.293 1.059,0.583 1.104,0.645 0.193,0.263 1.718,0.657 2.513,0.648 0.551,-0.005 0.961,0.075 1.129,0.223 0.145,0.128 0.534,0.294 0.865,0.369 0.739,0.167 4.434,0.211 5.998,0.071 0.632,-0.056 1.906,-0.122 2.831,-0.147 1.742,-0.046 2.982,-0.201 3.254,-0.408 0.086,-0.066 0.543,-0.234 1.015,-0.373 1.678,-0.495 2.177,-0.901 1.746,-1.421 -0.097,-0.116 -0.202,-0.659 -0.234,-1.206 -0.032,-0.548 -0.137,-1.022 -0.234,-1.054 -0.096,-0.032 -0.263,-0.141 -0.369,-0.243 -0.107,-0.102 -0.388,-0.309 -0.624,-0.46 -0.622,-0.398 -1.023,-1.046 -0.751,-1.214 0.255,-0.157 0.606,-0.035 1.024,0.357 0.238,0.224 0.455,0.274 0.896,0.204 0.449,-0.07 0.616,-0.03 0.732,0.177 0.187,0.335 0.528,0.099 0.797,-0.552 0.214,-0.514 0.77,-0.908 0.983,-0.694 0.162,0.161 -0.598,2.237 -0.819,2.237 -0.521,0 -0.809,1.277 -0.478,2.123 0.109,0.282 0.25,0.191 1.341,-0.865 0.67,-0.648 1.354,-1.444 1.52,-1.768 0.166,-0.324 0.45,-1.365 0.631,-2.314 0.32,-1.682 0.321,-1.746 0.046,-2.635 -0.155,-0.501 -0.322,-0.946 -0.371,-0.989 -0.048,-0.043 -0.252,-0.405 -0.452,-0.804 -0.2,-0.399 -0.607,-0.983 -0.905,-1.298 -0.297,-0.315 -0.54,-0.629 -0.54,-0.698 0,-0.069 -0.545,-0.713 -1.212,-1.431 -1.161,-1.25 -1.425,-1.596 -1.753,-2.296 -0.081,-0.173 -0.338,-0.492 -0.572,-0.708 -0.879,-0.812 -1.423,-1.887 -0.956,-1.887 0.136,0 0.247,0.065 0.247,0.146 0,0.08 0.417,0.544 0.928,1.032 0.511,0.487 1.018,1.111 1.127,1.387 0.11,0.276 0.754,1.045 1.431,1.71 0.678,0.664 1.232,1.266 1.232,1.337 0,0.07 0.29,0.447 0.644,0.836 0.354,0.389 0.744,0.92 0.867,1.18 0.123,0.259 0.289,0.578 0.369,0.707 0.681,1.109 0.931,2 0.881,3.146 -0.029,0.649 -0.098,1.357 -0.156,1.573 -0.057,0.216 -0.131,0.57 -0.164,0.786 -0.146,0.951 -1.105,2.567 -1.848,3.115 -0.153,0.114 -0.282,0.29 -0.286,0.394 -0.009,0.231 -1.523,1.484 -2.228,1.843 -1.268,0.648 -2.297,1.097 -2.513,1.097 -0.129,0 -0.653,0.145 -1.164,0.323 -0.626,0.218 -1.331,0.325 -2.162,0.327 l -1.234,0.004 -0.308,0.735 c -0.455,1.084 -0.208,1.98 -0.515,2.201 -1.134,2.741 -1.713,2.234 -3.176,3.517 -0.349,0.288 -0.837,1.995 -1.463,5.126 -0.358,1.79 -0.563,2.106 -1.761,2.717 -0.61,0.312 -1.225,-0.771 -1.821,-0.93 -0.847,-0.227 -1.1,0.748 -1.146,1.02 -0.018,0.105 -0.28,0.541 -0.382,0.664 -0.101,0.122 -0.903,0.4 -1.19,0.575 -0.176,0.107 -0.363,0.173 -0.639,0.116 -0.439,-0.09 -0.334,-0.168 -0.596,-0.118 -0.238,0.056 -0.388,0.279 -0.423,0.279 -0.115,0 -0.416,0.183 -0.446,0.346 -0.08,0.444 -0.98,2.414 -1.398,2.78 -0.261,0.228 -0.427,0.492 -0.369,0.586 0.166,0.27 -0.132,0.683 -0.916,1.269 0.256,1.293 -4.746,-0.329 -3.894,0.677 0.505,0.505 -0.113,0.589 -0.883,0.119 -0.816,-0.497 -1.168,-0.415 -1.514,0.356 -1.028,0.42 -4.644,2.356 -6.071,-1.771 z m 10.892,0.835 c 0.775,-0.278 0.977,-0.52 0.432,-0.52 -0.445,0 -0.395,-0.142 0.331,-0.944 0.352,-0.389 0.71,-0.837 0.796,-0.995 0.135,-0.249 0.116,-0.266 -0.145,-0.126 -0.165,0.088 -0.391,0.27 -0.503,0.405 -0.111,0.134 -0.289,0.244 -0.395,0.244 -0.106,0 -0.379,0.159 -0.607,0.354 -0.228,0.195 -0.752,0.489 -1.164,0.653 -1.18,0.471 -1.243,0.573 -0.56,0.892 0.765,0.356 0.914,0.36 1.815,0.037 z m -9.909,-0.939 c -0.108,-0.044 -0.285,-0.044 -0.393,0 0.485,1.286 1.229,1.314 0.393,0 z m 8.935,-0.856 c 0.775,-0.368 1.721,-1.194 1.721,-1.504 0,-0.244 -0.495,-0.09 -0.677,0.211 -0.069,0.115 -0.195,0.209 -0.281,0.209 -0.086,0 -0.312,0.144 -0.501,0.321 -0.202,0.188 -0.369,0.25 -0.402,0.15 -0.049,-0.147 0.659,-0.943 0.839,-0.943 0.035,0 0.241,-0.177 0.457,-0.394 l 0.393,-0.393 h -0.356 c -0.56,0 -1.543,0.548 -2.163,1.207 -0.767,0.815 -0.876,1.152 -0.371,1.152 0.213,0 0.388,0.071 0.388,0.158 0,0.228 0.172,0.197 0.953,-0.174 z m -3.032,-0.274 c 0.075,-0.225 -0.849,-0.248 -0.988,-0.024 -0.053,0.086 -0.252,0.166 -0.442,0.178 -0.208,0.012 -0.126,0.062 0.206,0.126 0.611,0.117 1.132,-0.003 1.224,-0.28 z m -5.07,-0.196 c 0.338,-0.653 0.159,-0.774 -0.366,-0.247 -0.361,0.362 -0.391,0.452 -0.192,0.579 0.311,0.198 0.272,0.221 0.558,-0.332 z M 67.26,92.69 c 0.422,-0.539 0.17,-0.619 -1.057,-0.336 -0.782,0.18 -1.086,0.477 -0.667,0.649 0.411,0.168 1.503,-0.029 1.724,-0.313 z m -4.249,-0.286 c -0.053,-0.052 -0.188,-0.058 -0.302,-0.013 -0.125,0.051 -0.088,0.088 0.095,0.095 0.166,0.008 0.259,-0.03 0.207,-0.082 z m 5.888,-0.102 c 0.367,-0.295 0.484,-0.747 0.194,-0.747 -0.376,0 -0.849,0.303 -0.849,0.543 0,0.12 -0.089,0.253 -0.197,0.297 -0.108,0.043 -0.016,0.085 0.206,0.092 0.221,0.007 0.512,-0.076 0.646,-0.185 z M 62.58,91.794 c 0.216,-0.652 0.109,-0.887 -0.36,-0.799 -0.191,0.036 -0.506,0.07 -0.7,0.077 -0.397,0.013 -0.502,0.483 -0.109,0.483 0.135,0 0.205,0.065 0.156,0.145 -0.112,0.18 0.334,0.642 0.62,0.642 0.117,0 0.294,-0.247 0.393,-0.548 z m 1.048,0.148 c 0.051,-0.134 0.055,-0.281 0.009,-0.328 -0.138,-0.138 -0.757,0.258 -0.657,0.421 0.144,0.233 0.545,0.175 0.649,-0.093 z m 11.338,-0.494 c 0.107,-0.231 0.157,-0.458 0.11,-0.505 -0.157,-0.157 -0.62,0.249 -0.67,0.589 -0.072,0.483 0.324,0.423 0.56,-0.085 z m -8.003,-0.77 c 1.505,-0.812 1.897,-1.219 1.367,-1.422 -0.125,-0.048 -0.39,0.067 -0.59,0.255 -0.199,0.189 -0.68,0.489 -1.069,0.669 -0.765,0.353 -1.259,0.716 -1.259,0.928 0,0.267 0.531,0.12 1.551,-0.43 z m -2.887,0.248 c 0.053,-0.086 -0.013,-0.157 -0.148,-0.157 -0.135,0 -0.246,0.071 -0.246,0.157 0,0.087 0.067,0.157 0.148,0.157 0.082,0 0.192,-0.07 0.246,-0.157 z m 5.391,-0.087 c 0.192,-0.135 0.349,-0.339 0.349,-0.454 0,-0.115 0.264,-0.465 0.586,-0.778 0.54,-0.525 0.558,-0.568 0.226,-0.568 -0.199,0 -0.315,0.07 -0.261,0.157 0.053,0.087 -0.016,0.157 -0.154,0.157 -0.406,0 -0.989,0.46 -1.089,0.859 -0.051,0.204 -0.136,0.483 -0.189,0.621 -0.122,0.317 0.083,0.32 0.532,0.005 z m 3.338,-0.743 c 0.184,-0.069 0.175,-0.091 -0.045,-0.101 -0.33,-0.015 -1.056,0.429 -1.056,0.645 0,0.083 0.194,0.014 0.432,-0.152 0.238,-0.167 0.539,-0.343 0.669,-0.392 z m -10.63,-0.052 c 0.137,-0.052 0.249,-0.172 0.249,-0.267 0,-0.094 0.182,-0.434 0.405,-0.755 0.454,-0.655 1.429,-1.14 2.643,-1.314 0.422,-0.061 0.864,-0.147 0.983,-0.193 0.382,-0.147 0.23,-0.364 -0.256,-0.364 -0.26,0 -0.472,-0.066 -0.472,-0.147 0,-0.081 -0.265,-0.112 -0.59,-0.068 -0.509,0.068 -0.548,0.053 -0.286,-0.113 0.523,-0.329 1.249,-1.146 1.071,-1.206 -0.094,-0.031 -0.521,0.122 -0.95,0.339 -0.583,0.296 -0.923,0.372 -1.346,0.304 -0.521,-0.085 -0.623,-0.032 -1.28,0.664 -0.765,0.81 -0.726,1.072 0.134,0.9 0.303,-0.06 0.43,-0.035 0.364,0.071 -0.056,0.091 -0.354,0.212 -0.661,0.269 -0.395,0.074 -0.602,0.218 -0.706,0.49 -0.08,0.212 -0.212,0.385 -0.292,0.385 -0.08,0 -0.22,0.212 -0.31,0.472 -0.146,0.417 -0.13,0.472 0.137,0.472 0.203,0 0.272,-0.077 0.211,-0.236 -0.056,-0.145 0,-0.236 0.144,-0.236 0.129,0 0.271,0.141 0.316,0.314 0.09,0.345 0.125,0.36 0.492,0.219 z m 1.743,-2.578 c 0.433,-0.186 0.681,-0.186 0.393,0 -0.129,0.084 -0.342,0.149 -0.471,0.144 -0.156,-0.006 -0.129,-0.055 0.078,-0.144 z m 7.885,1.961 c 0.885,-0.684 1.863,-1.781 1.717,-1.927 -0.137,-0.137 -1.461,0.608 -1.833,1.03 -0.757,0.86 -1.078,1.335 -0.994,1.471 0.121,0.196 0.093,0.211 1.11,-0.574 z m -6.464,-0.303 c 0.228,-0.299 0.375,-0.607 0.327,-0.686 -0.103,-0.166 -1.6,0.19 -1.923,0.459 -0.309,0.256 -0.27,0.456 0.087,0.456 0.168,0 0.349,0.071 0.403,0.158 0.197,0.319 0.703,0.142 1.106,-0.387 z m 4.785,-0.439 c 0.32,-0.281 0.718,-0.601 0.884,-0.71 0.268,-0.177 0.244,-0.189 -0.209,-0.106 -0.422,0.077 -0.494,0.051 -0.415,-0.155 0.052,-0.136 0.17,-0.248 0.262,-0.248 0.091,0 0.126,-0.04 0.077,-0.089 -0.108,-0.109 -1.629,0.645 -1.774,0.879 -0.101,0.164 0.31,0.94 0.498,0.94 0.052,0 0.357,-0.23 0.677,-0.511 z M 61.08,87.598 c 0.22,-0.1 0.4,-0.229 0.4,-0.285 0,-0.143 0.575,-0.744 0.868,-0.908 0.219,-0.123 0.219,-0.194 0,-0.717 -0.184,-0.442 -0.334,-0.581 -0.621,-0.581 -0.544,0 -0.876,-0.157 -0.876,-0.416 0,-0.179 0.067,-0.189 0.329,-0.048 0.4,0.214 1.175,-0.056 1.407,-0.491 0.214,-0.4 0.193,-0.461 -0.163,-0.461 -0.367,0 -0.407,-0.199 -0.092,-0.46 0.152,-0.126 0.254,-0.132 0.324,-0.019 0.136,0.221 1.124,-0.536 1.231,-0.942 0.141,-0.539 -0.178,-0.499 -0.754,0.094 -0.455,0.469 -0.6,0.539 -0.787,0.384 -0.185,-0.154 -0.349,-0.095 -0.862,0.311 -0.348,0.276 -0.633,0.57 -0.633,0.653 0,0.084 -0.23,0.251 -0.511,0.371 -0.858,0.367 -1.377,0.961 -1.314,1.503 0.03,0.261 0.163,0.596 0.295,0.744 0.133,0.149 0.35,0.536 0.484,0.861 0.263,0.637 0.562,0.732 1.275,0.407 z m 7.085,-0.132 c 0.053,-0.087 0.026,-0.157 -0.06,-0.157 -0.087,0 -0.201,0.07 -0.255,0.157 -0.053,0.086 -0.026,0.157 0.06,0.157 0.087,0 0.201,-0.071 0.255,-0.157 z m 2.91,-1.18 c 0.107,-0.129 0.289,-0.236 0.403,-0.236 0.114,0 0.247,-0.064 0.296,-0.143 0.049,-0.079 -0.087,-0.124 -0.302,-0.101 -0.415,0.046 -0.869,0.348 -0.869,0.578 0,0.216 0.256,0.162 0.472,-0.098 z m -5.501,-1.182 c 1.079,-0.63 1.438,-0.941 1.087,-0.941 -0.324,0 -1.981,0.979 -2.17,1.282 -0.256,0.41 -0.139,0.373 1.083,-0.341 z m 2.614,0.271 c 0.333,-0.199 0.836,-0.499 1.116,-0.669 0.718,-0.432 0.679,-0.764 -0.077,-0.662 -0.79,0.107 -2.438,1.692 -1.76,1.692 0.064,0 0.388,-0.163 0.721,-0.361 z M 63.77,84.944 c 0.382,-0.263 0.768,-0.617 0.859,-0.787 0.091,-0.17 0.251,-0.31 0.356,-0.313 0.156,-0.003 0.486,-0.552 0.873,-1.447 0.029,-0.067 -0.194,-0.121 -0.496,-0.121 -0.576,0 -0.54,-0.036 -2.186,2.177 -0.774,1.042 -0.517,1.255 0.594,0.491 z m 7.462,0.005 c 0.183,-0.118 0.137,-0.153 -0.206,-0.155 -0.255,-10e-4 -0.401,0.064 -0.345,0.155 0.121,0.195 0.249,0.195 0.551,0 z M 60.069,83.602 c 0.321,-0.196 1.254,-1.405 1.254,-1.625 0,-0.095 -0.106,-0.174 -0.236,-0.174 -0.13,0 -0.236,-0.075 -0.236,-0.168 0,-0.094 0.134,-0.125 0.306,-0.07 0.319,0.101 1.212,-0.383 2.012,-1.091 0.239,-0.212 0.647,-0.563 0.907,-0.781 l 0.471,-0.396 -0.649,-0.004 c -0.497,-0.004 -0.708,0.077 -0.901,0.348 -0.138,0.195 -0.214,0.239 -0.167,0.099 0.061,-0.184 -0.039,-0.28 -0.357,-0.344 -0.515,-0.104 -0.702,0.083 -1.194,1.192 -0.333,0.753 -0.707,0.933 -0.614,0.296 0.031,-0.216 -0.055,-0.379 -0.236,-0.446 -0.157,-0.058 -0.34,-0.181 -0.406,-0.274 -0.147,-0.204 -0.587,0.317 -0.587,0.695 0,0.139 -0.065,0.32 -0.143,0.402 -0.079,0.083 -0.269,0.764 -0.423,1.514 -0.222,1.081 -0.24,1.411 -0.088,1.595 0.165,0.199 0.252,0.172 0.62,-0.195 0.235,-0.234 0.535,-0.492 0.667,-0.573 z m 12.342,0.403 c 0.373,-0.381 0.524,-0.629 0.383,-0.629 -0.271,0 -1.405,0.898 -1.405,1.113 0,0.32 0.44,0.112 1.022,-0.484 z m -5.979,-0.47 c 0.401,-0.173 0.837,-0.42 0.968,-0.551 0.13,-0.13 0.303,-0.237 0.383,-0.237 0.08,0 0.146,-0.071 0.146,-0.157 0,-0.087 -0.326,-0.158 -0.724,-0.158 -0.613,0 -0.805,0.082 -1.258,0.535 -0.522,0.522 -0.681,0.881 -0.39,0.881 0.079,0 0.473,-0.141 0.875,-0.313 z m 2.121,-2.036 c 0.249,-0.466 0.214,-0.481 -0.545,-0.222 -0.934,0.318 -1.033,0.526 -0.251,0.526 0.465,0 0.676,-0.08 0.796,-0.304 z m -3.612,-0.314 c 0,-0.193 -0.581,-0.374 -0.788,-0.246 -0.089,0.055 -0.12,0.166 -0.071,0.246 0.118,0.191 0.859,0.191 0.859,0 z m -4.329,-1.269 c 0.239,0 0.397,-0.341 0.49,-1.062 0.053,-0.408 0.012,-0.51 -0.21,-0.509 -0.195,0.001 -0.354,0.245 -0.537,0.825 -0.144,0.453 -0.219,0.891 -0.168,0.974 0.053,0.086 0.119,0.07 0.156,-0.039 0.034,-0.104 0.155,-0.189 0.269,-0.189 z m 22.735,1.698 c 0.053,-0.086 1.528,-1.209 1.441,-1.209 -0.086,0 -3.289,-1.545 -3.389,-1.528 -0.905,0.159 1.172,1.446 1.172,1.446 0.441,0.25 0.722,1.378 0.776,1.291 z M 67.38,79.756 c 0.054,-0.087 0.384,-0.305 0.732,-0.482 0.741,-0.378 0.695,-0.599 -0.06,-0.29 -0.685,0.281 -1.408,0.932 -1.035,0.932 0.145,0 0.309,-0.072 0.363,-0.16 z m -4.208,-1.123 c 0.138,-0.138 0.241,-0.134 0.423,0.018 0.296,0.246 1.236,0.097 1.655,-0.261 0.238,-0.204 0.261,-0.319 0.123,-0.622 -0.228,-0.499 -0.979,-0.865 -1.425,-0.692 -0.406,0.157 -1.007,0.774 -1.08,1.109 -0.028,0.13 -0.157,0.322 -0.287,0.428 -0.203,0.166 -0.191,0.193 0.087,0.197 0.177,0.002 0.404,-0.077 0.504,-0.177 z m 0.806,-1.092 c 0.195,-0.182 0.395,-0.29 0.445,-0.24 0.14,0.14 -0.277,0.57 -0.554,0.57 -0.189,0 -0.164,-0.076 0.109,-0.33 z m -2.412,0.498 c -0.05,-0.08 -0.019,-0.19 0.069,-0.245 0.088,-0.054 0.155,-0.289 0.149,-0.522 -0.01,-0.378 -0.026,-0.389 -0.146,-0.108 -0.075,0.173 -0.14,0.226 -0.147,0.118 -0.02,-0.364 -0.445,-0.201 -0.522,0.2 -0.05,0.261 0.012,0.448 0.179,0.546 0.328,0.192 0.533,0.198 0.418,0.011 z m 4.633,-0.954 c 0,-0.087 -0.071,-0.157 -0.157,-0.157 -0.087,0 -0.158,0.07 -0.158,0.157 0,0.086 0.071,0.157 0.158,0.157 0.086,0 0.157,-0.071 0.157,-0.157 z m 6.448,-0.184 c 0.164,-0.101 0.116,-0.114 -0.157,-0.04 -0.216,0.057 -0.499,0.17 -0.629,0.251 -0.164,0.101 -0.116,0.113 0.157,0.04 0.216,-0.058 0.5,-0.171 0.629,-0.251 z m -2.752,-0.275 c 0.263,-0.103 0.225,-0.137 -0.236,-0.207 -0.624,-0.094 -0.924,0.011 -0.607,0.211 0.254,0.161 0.422,0.16 0.843,-0.004 z m -5.426,-0.507 c 0.303,-0.185 0.798,-0.432 1.101,-0.55 l 0.55,-0.213 -0.55,0.096 c -0.303,0.053 -0.622,0.151 -0.708,0.217 -0.087,0.067 -0.381,0.169 -0.655,0.228 -0.274,0.058 -0.537,0.208 -0.585,0.333 -0.124,0.322 0.208,0.279 0.847,-0.111 z m 7.624,-0.888 c 0.453,-0.228 0.457,-0.24 0.127,-0.362 -0.339,-0.126 -0.792,-0.038 -1.696,0.329 -0.432,0.175 -0.445,0.202 -0.157,0.314 0.386,0.15 1.102,0.034 1.726,-0.281 z m 15.096,4.535 c 0.201,-0.193 -4.356,-2.697 -4.872,-2.5 -0.222,0.084 -0.864,0.067 -0.864,0.148 0,0.17 4.603,2.732 4.839,2.506 z M 65.193,75.191 c 0.41,-0.155 0.833,-0.566 0.844,-0.819 0.012,-0.294 -0.764,-0.075 -1.146,0.323 -0.636,0.664 -0.542,0.817 0.302,0.496 z M 64.54,74.419 c 0.301,-0.332 0.301,-0.335 -0.002,-0.225 -0.31,0.112 -0.856,0.601 -0.856,0.767 0,0.152 0.536,-0.186 0.858,-0.542 z m 5.076,0.526 c -0.052,-0.052 -0.188,-0.058 -0.301,-0.012 -0.125,0.05 -0.088,0.087 0.095,0.095 0.166,0.007 0.259,-0.031 0.206,-0.083 z m -2.867,-1.163 c 0.054,-0.086 -0.013,-0.157 -0.148,-0.157 -0.135,0 -0.245,0.071 -0.245,0.157 0,0.087 0.067,0.157 0.148,0.157 0.081,0 0.192,-0.07 0.245,-0.157 z m 5.256,-0.258 c 0.036,-0.031 -0.26,-0.057 -0.659,-0.057 -0.399,0 -0.768,0.07 -0.821,0.156 -0.088,0.142 1.309,0.049 1.48,-0.099 z m 2.372,-0.528 c -0.129,-0.084 -0.306,-0.153 -0.393,-0.153 -0.086,0 -0.051,0.069 0.079,0.153 0.13,0.083 0.307,0.152 0.393,0.152 0.087,0 0.051,-0.069 -0.079,-0.152 z M 8.544,96.779 C 8.234,96.573 8.171,96.13 8.416,95.885 8.761,95.54 8.9,95.586 8.998,96.077 9.09,96.543 8.819,96.962 8.544,96.779 Z m 0.719,-3.086 c 0,-0.317 0.547,-0.446 1.979,-0.469 1.289,-0.02 1.642,0.238 0.538,0.392 -2.301,0.322 -2.517,0.329 -2.517,0.077 z M 6.275,92.499 c 0,-0.087 0.071,-0.158 0.157,-0.158 0.087,0 0.157,-0.103 0.157,-0.229 0,-0.233 1.208,-0.66 1.379,-0.489 0.049,0.049 0.025,0.09 -0.055,0.09 -0.079,0 -0.392,0.152 -0.694,0.337 -0.503,0.308 -0.524,0.347 -0.236,0.46 0.255,0.101 0.218,0.126 -0.197,0.135 -0.281,0.005 -0.511,-0.06 -0.511,-0.146 z m 4.246,-1.888 c 0,-0.086 0.09,-0.157 0.2,-0.157 0.11,0 0.32,-0.195 0.468,-0.432 0.247,-0.4 0.268,-0.407 0.272,-0.092 0.007,0.575 -0.17,0.839 -0.563,0.839 -0.207,0 -0.377,-0.071 -0.377,-0.158 z m 1.268,-0.807 c -0.393,-0.531 -0.333,-0.923 0.139,-0.923 0.506,0 0.774,-0.612 1.424,-3.245 0.19,-0.773 0.571,-1.181 0.725,-0.778 0.132,0.344 -0.156,1.388 -0.936,3.394 -0.802,2.061 -0.896,2.169 -1.352,1.552 z m 0.62,-0.608 c 0.13,-0.084 0.165,-0.153 0.078,-0.153 -0.086,0 -0.263,0.069 -0.393,0.153 -0.129,0.084 -0.165,0.152 -0.078,0.152 0.086,0 0.263,-0.068 0.393,-0.152 z m -1.972,-2.433 c 0.061,-0.343 0.212,-0.817 0.334,-1.053 0.122,-0.237 0.222,-0.616 0.222,-0.843 0,-0.308 0.07,-0.399 0.276,-0.36 0.516,0.098 0.397,0.837 -0.346,2.146 -0.421,0.742 -0.606,0.784 -0.486,0.11 z m 0.556,-2.767 c 0,-0.091 0.065,-0.126 0.144,-0.077 0.079,0.048 0.176,0 0.215,-0.109 0.038,-0.109 0.131,-0.141 0.205,-0.071 0.074,0.069 0.031,0.192 -0.096,0.273 -0.307,0.193 -0.468,0.188 -0.468,-0.016 z m 3.149,-0.547 c 0.002,-0.256 0.15,-0.643 0.328,-0.859 l 0.324,-0.393 -0.087,0.618 c -0.047,0.34 -0.194,0.727 -0.327,0.859 -0.217,0.217 -0.241,0.194 -0.238,-0.225 z m 0.444,-1.908 c -0.029,-0.712 -0.024,-0.785 0.096,-1.35 0.077,-0.359 0.039,-0.432 -0.225,-0.432 -0.438,0 -0.404,-0.311 0.036,-0.329 0.273,-0.011 0.237,-0.048 -0.157,-0.162 -0.697,-0.201 -0.645,-0.453 0.093,-0.453 0.635,0 1.125,-0.36 1.125,-0.826 0,-0.139 0.177,-0.391 0.394,-0.561 0.216,-0.17 0.393,-0.388 0.393,-0.483 0,-0.096 0.071,-0.174 0.157,-0.174 0.087,0 0.146,-0.053 0.132,-0.118 -0.014,-0.065 0.057,-0.318 0.157,-0.561 0.224,-0.542 0.242,-1.995 0.026,-1.995 -0.087,0 -0.157,-0.106 -0.157,-0.236 0,-0.13 0.056,-0.236 0.125,-0.236 0.201,0 0.504,0.357 0.504,0.593 0,0.119 0.106,0.322 0.236,0.452 0.129,0.13 0.236,0.16 0.236,0.067 0,-0.092 0.106,-0.168 0.235,-0.168 0.338,0 0.303,0.105 -0.328,0.984 -1.187,1.652 -2.785,5.305 -2.692,6.155 0.018,0.164 -0.056,0.329 -0.164,0.367 -0.133,0.047 -0.205,-0.126 -0.222,-0.533 z m -2.48,-4.363 c -0.134,-0.161 -0.136,-0.252 -0.01,-0.33 0.224,-0.138 1.123,0.229 1.009,0.413 -0.134,0.217 -0.795,0.163 -0.999,-0.083 z m 2.465,-1.206 c -0.151,-0.089 -0.275,-0.233 -0.275,-0.321 0,-0.203 0.631,-0.021 0.938,0.271 0.201,0.191 0.191,0.219 -0.078,0.215 -0.17,-0.003 -0.433,-0.077 -0.585,-0.165 z m 48.561,-2.347 c 0.053,-0.087 0.168,-0.157 0.254,-0.157 0.087,0 0.114,0.07 0.06,0.157 -0.053,0.087 -0.168,0.157 -0.254,0.157 -0.087,0 -0.114,-0.071 -0.06,-0.157 z m 0.55,-0.708 c 0.108,-0.13 0.347,-0.235 0.531,-0.235 0.29,0.001 0.274,0.032 -0.116,0.236 -0.568,0.296 -0.661,0.296 -0.415,0 z M 15.436,72.423 C 15.009,71.961 15,71.895 15.366,71.895 c 0.362,0 0.66,0.298 0.66,0.66 0,0.371 -0.156,0.336 -0.59,-0.132 z m 1.298,-0.2 c 0.173,-0.082 0.611,-0.154 0.974,-0.16 0.362,-0.005 0.703,-0.082 0.756,-0.168 0.054,-0.087 0.217,-0.158 0.363,-0.158 0.147,-10e-4 0.449,-0.097 0.672,-0.213 0.412,-0.215 1.403,-0.171 1.403,0.063 0,0.237 -1.667,0.616 -3.081,0.701 -0.94,0.057 -1.298,0.035 -1.087,-0.065 z m 3.403,-1.272 c -0.008,-0.13 0.123,-0.413 0.29,-0.629 0.244,-0.316 0.358,-0.36 0.577,-0.225 0.496,0.307 0.428,0.54 -0.156,0.54 -0.394,0 -0.573,0.079 -0.624,0.275 -0.051,0.194 -0.076,0.206 -0.087,0.039 z m 0.536,-1.876 c -0.099,-0.16 0.146,-0.254 1.094,-0.417 0.79,-0.136 1.809,-0.531 1.809,-0.701 0,-0.163 -1.645,-0.375 -1.964,-0.253 -0.274,0.105 -0.71,-0.028 -0.71,-0.217 0,-0.071 0.23,-0.18 0.511,-0.243 0.5,-0.113 0.491,-0.12 -0.354,-0.292 -1.059,-0.217 -1.383,-0.387 -1.086,-0.571 0.23,-0.142 1.085,-0.022 1.311,0.183 0.08,0.074 0.24,0.054 0.358,-0.043 0.318,-0.264 3.042,-0.285 3.424,-0.027 0.17,0.116 0.276,0.216 0.236,0.222 -0.041,0.005 -0.641,0.047 -1.333,0.093 -0.692,0.045 -1.276,0.1 -1.298,0.121 -0.022,0.021 0.261,0.133 0.629,0.249 0.368,0.115 0.775,0.333 0.905,0.483 0.13,0.15 0.372,0.297 0.537,0.326 0.513,0.091 0.451,0.406 -0.097,0.494 -0.286,0.046 -1.013,0.231 -1.616,0.411 -1.157,0.346 -2.205,0.427 -2.356,0.182 z m 5.183,-5.628 c -0.346,-0.139 -0.658,-0.277 -0.693,-0.306 -0.167,-0.134 0.55,-0.683 0.893,-0.683 0.314,0 0.371,0.062 0.303,0.324 -0.053,0.202 0,0.351 0.139,0.393 0.779,0.241 0.793,0.253 0.459,0.39 -0.413,0.17 -0.376,0.174 -1.101,-0.118 z m 2.549,-3.062 c -0.51,-0.225 -0.739,-0.414 -0.706,-0.584 0.053,-0.28 0.91,-0.454 0.91,-0.184 0,0.092 0.106,0.167 0.236,0.167 0.129,0 0.236,0.066 0.236,0.147 0,0.081 0.244,0.236 0.542,0.344 0.298,0.107 0.506,0.253 0.462,0.324 -0.139,0.226 -0.902,0.129 -1.68,-0.214 z m 3.009,-2.469 c -0.029,-0.076 -0.32,-0.318 -0.647,-0.538 -0.58,-0.392 -0.586,-0.684 -0.01,-0.481 0.413,0.146 1.159,0.866 1.061,1.024 -0.107,0.174 -0.338,0.171 -0.404,-0.004 z m 1.937,-1.124 C 33.147,56.623 32.422,56.151 31.739,55.745 29.814,54.6 30.152,54.221 32.9,54.441 c 0.918,0.074 1.797,0.201 1.953,0.282 0.156,0.082 0.78,0.231 1.388,0.333 0.608,0.101 1.209,0.25 1.337,0.33 0.37,0.234 -0.882,0.181 -2.011,-0.085 -2.198,-0.518 -4.675,-0.605 -3.951,-0.139 0.507,0.327 0.89,0.532 1.599,0.859 0.725,0.334 1.153,0.782 0.945,0.99 -0.17,0.17 -0.425,0.101 -0.809,-0.219 z m 8.591,-3.643 c -0.511,-0.222 -0.795,-0.477 -1.041,-0.939 -0.391,-0.732 -0.346,-0.907 0.206,-0.801 0.217,0.041 0.362,0.129 0.321,0.195 -0.085,0.138 0.929,1.26 1.138,1.26 0.076,0 0.268,0.095 0.427,0.211 0.278,0.204 0.277,0.215 -0.029,0.295 -0.175,0.046 -0.635,-0.054 -1.022,-0.221 z m -5.155,-0.368 c 0,-0.32 0.733,-0.583 1.287,-0.461 0.558,0.122 0.425,0.387 -0.195,0.387 -0.254,0 -0.463,0.07 -0.463,0.157 0,0.086 -0.141,0.157 -0.314,0.157 -0.177,0 -0.315,-0.105 -0.315,-0.24 z m 56.575,-0.866 -0.583,-0.68 -0.024,-1.663 C 92.727,47.598 92.75,47.788 92.418,46.808 92.05,45.725 91.164,44.693 89.931,43.913 89.359,43.551 88.812,43.082 88.715,42.869 88.602,42.62 88.41,42.483 88.173,42.483 c -0.256,0 -0.697,-0.36 -1.458,-1.192 -0.601,-0.656 -1.117,-1.262 -1.147,-1.345 -0.03,-0.084 -0.32,-0.32 -0.644,-0.524 -0.859,-0.542 -1.171,-1.308 -1.063,-2.602 0.066,-0.78 0.212,-1.257 0.571,-1.867 0.266,-0.451 0.483,-0.882 0.483,-0.959 0,-0.077 0.284,-0.707 0.63,-1.4 0.346,-0.694 0.629,-1.338 0.629,-1.432 0,-0.094 0.101,-0.328 0.224,-0.519 0.124,-0.192 0.304,-0.809 0.401,-1.371 0.161,-0.939 0.781,-3.099 1.105,-3.854 0.193,-0.448 0.322,-1.309 0.311,-2.07 -0.005,-0.36 0.065,-0.702 0.157,-0.758 0.091,-0.057 0.124,-0.17 0.074,-0.252 -0.186,-0.3 0.27,-1.262 0.669,-1.414 0.287,-0.109 0.365,-0.223 0.287,-0.423 -0.123,-0.316 -0.126,-0.339 -0.101,-0.705 0.03,-0.453 0.522,-0.321 1.903,0.509 1.564,0.94 2.017,1.281 3.139,2.362 0.959,0.924 1.742,1.401 2.958,1.799 0.454,0.148 0.826,0.318 0.826,0.376 0,0.295 2.311,0.918 3.115,0.841 0.615,-0.059 0.771,-0.356 0.542,-1.031 -0.092,-0.271 -0.209,-0.742 -0.261,-1.047 -0.092,-0.543 -0.847,-1.678 -1.908,-2.87 -0.291,-0.327 -0.688,-0.822 -0.883,-1.101 -0.195,-0.279 -0.408,-0.545 -0.474,-0.591 -0.066,-0.047 -0.332,-0.552 -0.591,-1.122 -0.258,-0.571 -0.685,-1.403 -0.949,-1.849 -0.263,-0.447 -0.478,-0.899 -0.478,-1.005 0,-0.106 -0.21,-0.448 -0.467,-0.759 -0.481,-0.584 -0.476,-0.764 0.021,-0.764 0.397,0 0.361,-0.147 -0.192,-0.787 -1.276,-1.475 -2.562,-2.66 -2.99,-2.754 C 92.358,9.947 92.15,9.841 92.15,9.768 c 0,-0.277 -1.802,-0.659 -2.832,-0.601 -0.811,0.046 -1.14,0.145 -1.574,0.475 -0.301,0.229 -0.746,0.467 -0.988,0.527 -0.464,0.116 -2.477,2.085 -3.151,3.083 -0.491,0.727 -1.304,2.427 -1.455,3.044 -0.063,0.26 -0.207,0.614 -0.319,0.787 -0.111,0.173 -0.202,0.35 -0.201,0.393 0.002,0.043 -0.033,0.185 -0.077,0.314 -0.078,0.231 -0.338,1.026 -1.342,4.106 -0.271,0.831 -0.594,2.034 -0.719,2.674 -0.125,0.64 -0.328,1.517 -0.451,1.949 -0.615,2.157 -0.727,2.632 -0.65,2.757 0.046,0.074 -0.123,0.971 -0.375,1.992 -0.467,1.891 -0.861,3.718 -1.046,4.84 -0.057,0.343 -0.215,0.839 -0.351,1.101 -0.137,0.263 -0.293,0.69 -0.348,0.949 -0.089,0.429 -0.155,0.472 -0.72,0.47 -0.532,-0.002 -0.616,-0.047 -0.574,-0.315 0.027,-0.171 0.281,-0.666 0.565,-1.098 0.551,-0.841 0.801,-1.573 0.969,-2.832 0.116,-0.877 0.301,-1.96 0.455,-2.673 0.476,-2.202 0.592,-2.791 0.715,-3.601 0.163,-1.086 0.37,-2.057 0.806,-3.791 0.174,-0.693 0.339,-1.403 0.367,-1.579 0.081,-0.518 0.558,-1.854 0.79,-2.21 0.117,-0.181 0.292,-0.641 0.39,-1.023 0.097,-0.381 0.243,-0.835 0.324,-1.008 0.081,-0.173 0.365,-0.987 0.631,-1.809 0.731,-2.261 1.713,-4.057 2.925,-5.347 0.366,-0.389 0.838,-0.897 1.049,-1.127 0.212,-0.231 0.694,-0.576 1.073,-0.768 0.379,-0.191 0.878,-0.482 1.11,-0.645 1.053,-0.742 2.565,-0.965 3.981,-0.586 0.854,0.228 1.967,0.744 1.967,0.911 0,0.075 0.173,0.18 0.385,0.233 0.522,0.131 2.527,2.215 2.939,3.055 0.269,0.551 0.3,0.753 0.16,1.06 -0.15,0.331 -0.052,0.601 0.767,2.122 0.517,0.958 0.939,1.791 0.939,1.852 0,0.231 1.103,1.733 1.649,2.244 0.314,0.294 0.72,0.783 0.901,1.086 0.182,0.302 0.56,0.798 0.841,1.101 0.891,0.96 1.406,3.662 0.83,4.356 -0.095,0.114 -0.448,0.252 -0.784,0.306 -0.337,0.053 -0.651,0.159 -0.697,0.234 -0.116,0.189 -0.969,0.172 -1.088,-0.021 -0.054,-0.086 -0.33,-0.157 -0.615,-0.157 -0.791,0 -1.404,-0.274 -1.676,-0.749 -0.146,-0.254 -0.501,-0.519 -0.865,-0.646 -0.958,-0.334 -2.308,-1.2 -3.091,-1.983 -0.391,-0.391 -0.755,-0.711 -0.808,-0.711 -0.096,0 -0.566,-0.361 -0.973,-0.747 -0.114,-0.108 -0.283,-0.197 -0.375,-0.197 -0.093,0 -0.169,-0.055 -0.169,-0.123 0,-0.067 -0.23,-0.221 -0.511,-0.341 -0.281,-0.121 -0.559,-0.247 -0.618,-0.28 -0.107,-0.061 -0.769,1.303 -0.73,1.503 0.023,0.115 0.003,0.181 -0.419,1.364 -0.154,0.433 -0.333,1.181 -0.396,1.663 -0.064,0.482 -0.199,1.031 -0.299,1.219 -0.101,0.189 -0.137,0.343 -0.08,0.343 0.057,0 0.032,0.088 -0.056,0.196 -0.087,0.108 -0.249,0.621 -0.358,1.141 -0.11,0.519 -0.26,1.01 -0.333,1.093 -0.072,0.082 -0.132,0.28 -0.132,0.44 0,0.16 -0.141,0.583 -0.315,0.942 -0.173,0.358 -0.314,0.773 -0.314,0.923 0,0.149 -0.177,0.624 -0.393,1.055 -0.217,0.43 -0.393,0.855 -0.393,0.943 0,0.089 -0.054,0.184 -0.118,0.213 -0.18,0.08 -1.017,1.816 -1.109,2.3 -0.045,0.234 -0.088,0.806 -0.096,1.27 -0.012,0.713 0.042,0.884 0.35,1.101 0.2,0.142 0.589,0.501 0.865,0.799 1.293,1.398 1.818,1.858 2.309,2.03 0.599,0.209 1.101,0.612 1.101,0.883 0,0.289 0.81,0.988 1.455,1.258 0.325,0.135 0.59,0.314 0.59,0.397 0,0.083 0.195,0.252 0.433,0.376 0.287,0.149 0.635,0.63 1.038,1.436 0.592,1.184 0.608,1.26 0.673,3.248 0.044,1.34 0.151,2.245 0.313,2.651 0.375,0.937 0.188,1.063 -0.459,0.307 z M 42.795,51.889 c -0.262,-0.263 -0.235,-0.387 0.087,-0.393 0.309,-0.005 0.668,0.234 0.668,0.444 0,0.203 -0.536,0.167 -0.755,-0.051 z m 1.966,-1.823 c -0.368,-0.769 -0.237,-1.063 0.652,-1.456 0.416,-0.184 0.653,-0.369 0.555,-0.432 -0.096,-0.061 -0.22,-0.261 -0.278,-0.445 -0.081,-0.261 -0.025,-0.356 0.255,-0.431 0.577,-0.154 0.658,-0.117 0.39,0.179 -0.291,0.322 -0.251,0.399 0.591,1.122 l 0.624,0.536 -0.825,-0.11 c -0.594,-0.078 -0.91,-0.048 -1.133,0.108 -0.351,0.245 -0.258,0.422 0.226,0.428 l 0.328,0.003 -0.332,0.272 c -0.182,0.149 -0.374,0.396 -0.427,0.547 -0.146,0.417 -0.314,0.332 -0.626,-0.321 z m 4.687,-1.843 c 0.346,-0.297 0.86,-0.664 1.142,-0.817 0.281,-0.152 0.556,-0.416 0.61,-0.587 0.158,-0.497 0.455,-0.729 0.665,-0.519 0.098,0.098 0.179,0.262 0.179,0.365 0,0.301 0.577,0.365 1.384,0.152 1.193,-0.315 1.465,-0.508 1.352,-0.958 -0.082,-0.33 -0.042,-0.387 0.279,-0.387 0.206,0 0.496,0.141 0.644,0.314 0.148,0.173 0.389,0.315 0.536,0.315 0.353,0 1.622,-0.618 2.013,-0.981 0.331,-0.307 0.816,-0.303 0.751,0.008 -0.087,0.416 0.775,0.132 1.534,-0.505 0.361,-0.303 0.38,-0.384 0.236,-0.976 -0.087,-0.354 -0.236,-0.744 -0.332,-0.865 -0.205,-0.258 -0.609,-1.355 -0.848,-2.304 -0.187,-0.737 -0.266,-0.766 -1.18,-0.437 -0.808,0.292 -1.494,0.305 -1.494,0.03 0,-0.259 0.593,-0.541 1.413,-0.672 0.564,-0.09 0.61,-0.134 0.536,-0.512 -0.045,-0.228 -0.101,-0.556 -0.125,-0.729 -0.054,-0.389 -0.684,-0.519 -0.819,-0.168 -0.052,0.136 -0.193,0.247 -0.314,0.247 -0.323,0 -0.269,-0.156 0.192,-0.552 l 0.411,-0.353 -0.273,-1.16 c -0.151,-0.637 -0.328,-1.27 -0.395,-1.407 -0.067,-0.136 -0.275,-0.808 -0.463,-1.494 -0.188,-0.685 -0.454,-1.494 -0.593,-1.797 -0.138,-0.303 -0.247,-0.657 -0.242,-0.786 0.004,-0.13 -0.092,-0.599 -0.215,-1.042 -0.124,-0.444 -0.231,-1.293 -0.239,-1.888 -0.008,-0.594 -0.069,-1.187 -0.134,-1.317 -0.406,-0.803 -0.486,-4.566 -0.172,-8.021 0.115,-1.255 0.207,-2.458 0.205,-2.674 -0.002,-0.216 0.049,-0.464 0.114,-0.551 0.064,-0.086 0.131,-0.511 0.149,-0.943 0.053,-1.333 0.337,-3.87 0.578,-5.169 0.126,-0.679 0.229,-1.463 0.229,-1.74 0,-0.821 0.431,-2.016 0.94,-2.607 0.261,-0.302 0.475,-0.601 0.475,-0.664 10e-4,-0.235 0.952,-0.594 1.573,-0.594 1.079,0 1.73,0.475 1.73,1.262 0,0.458 -0.276,0.517 -0.772,0.164 -0.768,-0.547 -2.059,-0.353 -2.059,0.31 0,0.17 -0.106,0.309 -0.236,0.309 -0.313,0 -0.298,0.154 0.04,0.41 0.259,0.197 0.259,0.209 0.003,0.214 -0.427,0.008 -0.723,0.627 -0.816,1.705 -0.047,0.546 -0.119,1.048 -0.16,1.114 -0.128,0.208 -0.393,2.085 -0.489,3.477 -0.051,0.735 -0.192,2.141 -0.313,3.123 -0.199,1.616 -0.196,1.81 0.033,2.039 0.215,0.215 0.238,0.516 0.152,2.028 -0.056,0.976 -0.147,2.584 -0.203,3.573 -0.079,1.389 -0.038,2.176 0.181,3.453 l 0.284,1.655 0.574,0.229 c 0.316,0.127 0.677,0.354 0.802,0.505 0.212,0.257 0.182,0.269 -0.431,0.171 l -0.658,-0.104 10e-4,0.511 c 0.001,0.663 0.29,2.196 0.453,2.399 0.07,0.086 0.126,0.334 0.125,0.55 -0.002,0.728 0.203,2.097 0.358,2.386 0.103,0.193 0.332,0.288 0.692,0.288 0.567,0 1.338,0.281 1.338,0.488 0,0.248 -0.324,0.31 -0.852,0.165 -0.419,-0.116 -0.56,-0.101 -0.624,0.066 -0.135,0.35 0.213,1.13 0.542,1.216 0.239,0.063 0.309,0.229 0.323,0.763 0.01,0.376 0.007,0.802 -0.008,0.947 -0.017,0.179 0.113,0.281 0.403,0.315 0.386,0.046 0.45,0.145 0.635,0.994 0.113,0.519 0.28,1.072 0.372,1.229 0.093,0.157 0.126,0.417 0.075,0.578 -0.053,0.166 -10e-4,0.349 0.118,0.423 0.197,0.12 0.66,1.449 0.856,2.453 0.078,0.404 0.05,0.434 -0.385,0.401 -0.258,-0.02 -0.672,0.097 -0.919,0.259 -0.248,0.162 -0.664,0.34 -0.926,0.395 -0.453,0.096 -0.473,0.134 -0.442,0.838 0.018,0.406 -0.035,0.738 -0.118,0.738 -0.238,0 -0.78,-0.605 -0.78,-0.87 0,-0.421 -0.458,-0.448 -0.775,-0.045 -0.164,0.208 -0.547,0.513 -0.852,0.677 -0.544,0.293 -0.565,0.293 -1.107,0 -0.529,-0.285 -0.588,-0.286 -1.4,-0.03 -0.466,0.147 -0.983,0.269 -1.148,0.27 -0.233,0.002 -0.252,0.034 -0.084,0.14 0.463,0.293 -0.001,0.52 -0.85,0.414 -0.742,-0.092 -0.856,-0.066 -1.075,0.246 -0.211,0.302 -0.279,0.32 -0.503,0.134 -0.3,-0.249 -0.742,-0.348 -0.612,-0.136 0.049,0.079 -0.053,0.143 -0.226,0.143 -0.173,0 -0.358,0.071 -0.411,0.158 -0.054,0.086 -0.253,0.154 -0.442,0.151 -0.301,-0.006 -0.266,-0.074 0.284,-0.546 z m 27.981,-5.464 c 0.032,-0.281 0.067,-0.558 0.076,-0.614 0.018,-0.104 0.896,-0.448 1.143,-0.448 0.253,0 0.132,0.26 -0.429,0.915 -0.677,0.791 -0.869,0.827 -0.79,0.147 z m -2.63,-1.47 c -0.405,-0.375 -0.48,-0.392 -0.925,-0.208 -0.267,0.111 -0.827,0.206 -1.245,0.212 -0.94,0.014 -1.392,-0.393 -1.771,-1.596 -0.224,-0.711 -0.238,-1.152 -0.107,-3.303 0.177,-2.917 0.114,-6.23 -0.132,-6.857 -0.095,-0.244 -0.174,-0.712 -0.174,-1.042 0,-0.329 -0.147,-1.156 -0.327,-1.838 -0.179,-0.681 -0.42,-1.605 -0.534,-2.054 -0.113,-0.449 -0.32,-1.044 -0.459,-1.322 -0.139,-0.278 -0.252,-0.658 -0.252,-0.843 0,-0.186 -0.067,-0.405 -0.148,-0.487 -0.082,-0.083 -0.183,-0.345 -0.226,-0.584 -0.144,-0.803 -1.389,-4.006 -2.113,-5.435 -0.233,-0.46 -0.426,-0.884 -0.43,-0.943 -0.003,-0.06 -0.142,-0.356 -0.308,-0.659 -0.165,-0.302 -0.31,-0.586 -0.321,-0.629 -0.07,-0.271 -0.33,-0.773 -0.611,-1.179 -0.545,-0.788 -0.713,-1.073 -1.045,-1.77 -0.175,-0.368 -0.39,-0.668 -0.477,-0.668 -0.088,0 -0.116,-0.071 -0.062,-0.158 0.053,-0.086 0.03,-0.157 -0.051,-0.157 -0.082,0 -0.194,-0.124 -0.25,-0.275 C 62.776,9.343 62.594,8.971 62.427,8.668 62.261,8.365 62.121,7.963 62.117,7.773 62.113,7.584 62.046,7.389 61.969,7.341 61.735,7.197 61.166,6.007 61.166,5.663 c 0,-0.625 0.526,-0.241 0.884,0.647 0.329,0.815 0.553,1.394 0.607,1.572 0.095,0.312 0.663,1.099 0.794,1.1 0.24,0.001 1.172,1.261 2.154,2.91 0.444,0.745 1.066,2.159 1.066,2.423 0,0.095 0.07,0.173 0.157,0.173 0.087,0 0.157,0.081 0.157,0.181 0,0.1 0.203,0.613 0.451,1.14 0.248,0.528 0.502,1.136 0.565,1.352 0.165,0.57 0.858,2.394 1.023,2.693 0.167,0.302 0.948,2.999 1.065,3.677 0.045,0.26 0.137,0.543 0.205,0.629 0.184,0.233 0.96,3.608 1.176,5.112 0.056,0.389 0.129,1.486 0.162,2.438 0.055,1.596 0.085,1.734 0.38,1.78 0.284,0.045 0.321,0.165 0.321,1.062 0,0.903 -0.033,1.011 -0.312,1.011 -0.277,0 -0.301,0.076 -0.218,0.679 0.073,0.532 0.031,0.741 -0.192,0.965 -0.343,0.342 -0.325,1.184 0.053,2.406 0.23,0.747 0.669,1.146 0.669,0.609 0,-0.119 0.1,-0.299 0.221,-0.4 0.122,-0.101 0.338,-0.428 0.48,-0.727 0.319,-0.673 0.77,-0.754 0.618,-0.111 -0.057,0.238 -0.189,0.539 -0.294,0.669 -0.227,0.28 -0.421,0.786 -0.302,0.786 0.206,0 0.79,-0.391 0.977,-0.654 0.113,-0.159 0.371,-0.29 0.574,-0.29 0.297,0 0.412,0.132 0.581,0.668 l 0.212,0.667 2.192,0.317 -0.422,0.275 c -0.665,0.434 -1.83,0.368 -2.371,-0.133 z m -1.684,45.208 c 0.373,-0.381 0.523,-0.629 0.382,-0.629 -0.271,0 -0.995,-0.665 -0.995,-0.45 0,0.321 0.031,1.676 0.613,1.079 z m 2.05,0.949 c 0.372,-0.382 0.523,-0.63 0.382,-0.63 -0.271,0 -1.405,0.898 -1.405,1.113 0,0.321 0.44,0.113 1.023,-0.483 z m 2.807,-0.429 c 0,-0.237 -0.85,-0.248 -0.988,-0.024 -0.054,0.087 -0.252,0.167 -0.442,0.178 -0.208,0.013 -0.126,0.063 0.206,0.126 0.611,0.117 1.224,0.013 1.224,-0.28 z m 0.033,0.761 c 0.164,-0.101 0.116,-0.114 -0.157,-0.04 -0.216,0.057 -0.499,0.17 -0.629,0.25 -0.164,0.102 -0.116,0.114 0.157,0.041 0.216,-0.058 0.5,-0.171 0.629,-0.251 z m -8.363,21.089 c -0.123,-0.22 -0.275,0.02 0.267,-1.154 0.425,-0.919 0.203,-3.032 0.203,-3.202 0,-0.335 -5.72,-6.167 -5.611,-6.058 0.101,0.102 6.998,5.047 6.772,5.404 -0.109,0.173 0.18,1.181 0.06,1.727 -0.29,1.324 -0.216,1.512 -0.398,2.381 -0.103,0.494 -1.17,1.123 -1.293,0.902 z"
   style="fill:#fff1da;fill-rule:nonzero" />
    </g></g></g></svg>
