<?xml version="1.0" encoding="UTF-8" standalone="no"?>
<svg
   width="100%"
   height="100%"
   viewBox="0 0 1920 250"
   version="1.1"
   xml:space="preserve"
   style="fill-rule:evenodd;clip-rule:evenodd;stroke-linejoin:round;stroke-miterlimit:2;"
   id="svg58"
   sodipodi:docname="Logo_amicale_du_leberou.svg"
   inkscape:version="1.2.2 (732a01da63, 2022-12-09)"
   xmlns:inkscape="http://www.inkscape.org/namespaces/inkscape"
   xmlns:sodipodi="http://sodipodi.sourceforge.net/DTD/sodipodi-0.dtd"
   xmlns="http://www.w3.org/2000/svg"
   xmlns:svg="http://www.w3.org/2000/svg"><defs
     id="defs62" /><sodipodi:namedview
     id="namedview60"
     pagecolor="#ffffff"
     bordercolor="#000000"
     borderopacity="0.25"
     inkscape:showpageshadow="2"
     inkscape:pageopacity="0.0"
     inkscape:pagecheckerboard="0"
     inkscape:deskcolor="#d1d1d1"
     showgrid="false"
     inkscape:zoom="1.6041667"
     inkscape:cx="1660.6753"
     inkscape:cy="155.53247"
     inkscape:window-width="1920"
     inkscape:window-height="1001"
     inkscape:window-x="-9"
     inkscape:window-y="-9"
     inkscape:window-maximized="1"
     inkscape:current-layer="svg58" /><g
     opacity="0.3"
     id="g10"
     style="stroke:none;fill:#f0f0f0;fill-opacity:1"><path
       d="M1711.65,73.566c-0,-0 8.84,0.736 9.849,1.657c1.009,0.92 9.505,8.101 10.913,7.042c1.409,-1.059 0.909,-2.624 3.453,-2.394c2.544,0.231 6.406,1.611 3.725,-0.874c-2.68,-2.486 -7.269,-3.084 -10.267,-3.36c-2.999,-0.276 -5.679,-1.105 -8.496,-2.393c-2.817,-1.289 -5.073,-3.038 -7.875,-2.67c-2.801,0.368 -6.527,1.657 -1.302,2.992Z"
       style="fill:#f0f0f0;stroke:none;fill-opacity:1"
       id="path2" /><path
       d="M1757.59,104.566c0,-0 -2.726,2.669 -1.908,5.431c0.818,2.761 4.498,7.64 4.952,4.464c0.455,-3.175 2.317,-5.845 0.545,-8.1c-1.771,-2.256 -2.589,-2.164 -3.589,-1.795Z"
       style="fill:#f0f0f0;stroke:none;fill-opacity:1"
       id="path4" /><path
       d="M1729.47,107.755c-0,-0 -4.614,1.51 -4.756,4.171c-0.142,2.661 2.697,8.774 3.975,9.493c1.278,0.719 5.75,2.373 6.957,2.301c1.206,-0.072 1.845,2.647 0.923,3.877c-0.923,1.229 -3.976,5.616 -2.698,8.349c1.278,2.733 4.33,4.675 3.62,6.329c-0.71,1.654 -1.774,3.668 -0.922,5.538c0.851,1.87 7.169,11.363 7.169,9.205c0,-2.157 -3.62,-13.089 -2.413,-14.311c1.206,-1.223 7.808,-0.648 7.027,2.445c-0.78,3.092 6.247,9.133 7.596,6.544c1.349,-2.589 3.407,-5.106 0.994,-11.507c-2.414,-6.4 -5.892,-9.349 -6.673,-11.938c-0.781,-2.589 -3.407,-1.151 -6.46,-4.243c-3.052,-3.092 -2.981,-3.668 -2.697,-6.688c0.284,-3.021 -0.355,-4.315 1.49,-4.819c1.846,-0.503 4.047,-5.322 -0.213,-6.401c-4.259,-1.078 -5.04,-0.287 -6.885,2.014c-1.846,2.302 -4.685,0.288 -6.034,-0.359Z"
       style="fill:#f0f0f0;stroke:none;fill-opacity:1"
       id="path6" /><path
       d="M1685.42,82.224c0,0 -0.854,6.056 0.61,4.759c1.464,-1.298 10.183,-5.315 12.929,-3.523c2.747,1.792 8.298,8.59 4.699,8.775c-3.599,0.186 -4.579,3.399 -4.699,5.747c-0.12,2.349 0.242,7.478 0,8.281c-0.242,0.803 -4.938,4.511 -6.219,5.809c-1.281,1.298 2.623,4.079 2.318,7.91c-0.305,3.831 -0.915,7.045 -3.904,5.562c-2.989,-1.484 -5.185,-3.214 -6.954,-2.905c-1.769,0.309 -2.562,4.264 -5.917,1.607c-3.354,-2.657 -1.952,-5.933 -2.317,-8.281c-0.366,-2.348 -3.782,-2.348 -5.673,-5.314c-1.891,-2.967 -3.66,-8.158 -2.562,-10.259c1.098,-2.101 3.66,-8.404 4.758,-10.072c1.098,-1.669 7.746,-8.467 8.966,-8.59c1.22,-0.124 4.026,-0.742 3.965,0.494Z"
       style="fill:#f0f0f0;stroke:none;fill-opacity:1"
       id="path8" /></g><path
     d="M1695.02,137.568c-0.095,1.008 0.224,3.722 -0.919,4.951c-1.324,1.422 -5.81,2.49 -7.025,3.586c-0.744,0.672 0.166,2.091 -0.267,2.994c-0.652,1.359 -2.643,3.676 -3.646,5.158c-0.827,1.221 -1.981,2.717 -2.371,3.735c-0.283,0.738 -0.363,1.685 0.029,2.371c0.435,0.761 1.828,1.823 2.579,2.194c0.576,0.284 1.332,0.272 1.927,0.029c0.775,-0.316 2.048,-1.044 2.727,-1.927c0.691,-0.899 0.976,-2.301 1.423,-3.468c0.449,-1.175 0.919,-2.732 1.274,-3.586c0.226,-0.543 0.395,-1.191 0.86,-1.542c0.464,-0.35 1.324,-0.375 1.927,-0.563c0.566,-0.176 1.217,-0.203 1.689,-0.563c0.731,-0.558 1.824,-1.834 2.698,-2.786c0.879,-0.959 1.803,-2.263 2.578,-2.965c0.599,-0.541 1.359,-1.002 2.075,-1.245c0.705,-0.238 1.48,-0.173 2.223,-0.207c1.305,-0.059 3.748,0.077 5.603,-0.148c2.193,-0.267 5.395,-0.638 7.558,-1.453c2.004,-0.754 3.75,-2.183 5.425,-3.438c1.647,-1.234 3.493,-2.856 4.624,-4.091c0.892,-0.974 1.541,-2.282 2.164,-3.32c0.566,-0.944 0.84,-2.094 1.571,-2.904c0.731,-0.811 2.03,-1.403 2.816,-1.957c0.636,-0.448 1.269,-0.902 1.897,-1.363c0.948,-0.697 2.544,-2.228 3.794,-2.816c1.138,-0.536 2.683,-0.652 3.705,-0.712c0.818,-0.047 1.838,0.065 2.431,0.356c0.536,0.263 0.996,0.81 1.126,1.393c0.148,0.662 -0.158,1.719 -0.237,2.579c-0.094,1.023 -0.331,2.579 -0.326,3.557c0.004,0.78 0.005,1.892 0.356,2.312c0.351,0.42 1.205,0.429 1.749,0.208c0.726,-0.297 1.858,-1.192 2.608,-1.986c0.751,-0.796 1.516,-1.73 1.897,-2.787c0.395,-1.097 0.348,-2.526 0.474,-3.794c0.134,-1.339 0.386,-3.152 0.326,-4.239c-0.043,-0.793 -0.168,-1.676 -0.681,-2.282c-0.544,-0.642 -1.695,-1.299 -2.579,-1.571c-0.869,-0.267 -1.839,-0.255 -2.727,-0.059c-0.964,0.212 -2.011,1.007 -3.053,1.333c-1.038,0.325 -2.179,0.583 -3.202,0.623c-0.985,0.038 -2.336,0.064 -2.934,-0.385c-0.598,-0.45 -0.862,-1.54 -0.652,-2.312c0.222,-0.821 1.125,-1.936 1.986,-2.609c0.998,-0.78 2.85,-1.442 4.001,-2.075c0.987,-0.542 2.169,-1.097 2.905,-1.719c0.642,-0.542 1.171,-1.319 1.512,-2.016c0.327,-0.667 0.447,-1.426 0.534,-2.164c0.093,-0.8 0.118,-2 0.029,-2.638c-0.06,-0.433 -0.238,-0.892 -0.563,-1.185c-0.499,-0.45 -1.754,-1.142 -2.431,-1.512c-0.52,-0.285 -1.056,-0.562 -1.63,-0.711c-0.682,-0.178 -1.69,-0.051 -2.46,-0.356c-0.81,-0.321 -1.779,-1.122 -2.401,-1.571c-0.472,-0.341 -0.875,-0.796 -1.334,-1.127c-0.45,-0.323 -0.899,-0.765 -1.423,-0.859c-0.523,-0.094 -1.166,0.115 -1.719,0.296c-0.588,0.193 -1.191,0.605 -1.808,0.86c-0.657,0.272 -1.546,0.746 -2.134,0.771c-0.509,0.021 -0.956,-0.364 -1.394,-0.623c-0.775,-0.459 -2.208,-1.383 -3.26,-2.134c-1.049,-0.749 -2.016,-1.744 -3.053,-2.372c-0.988,-0.597 -2.12,-0.916 -3.172,-1.393c-1.121,-0.509 -2.465,-1.185 -3.557,-1.66c-0.984,-0.427 -1.989,-0.808 -2.994,-1.185c-1.067,-0.4 -2.312,-0.82 -3.409,-1.216c-1.058,-0.381 -2.053,-1.032 -3.171,-1.156c-1.122,-0.123 -2.574,0.242 -3.557,0.415c-0.796,0.14 -2.011,0.129 -2.342,0.623c-0.331,0.494 0.158,1.577 0.356,2.342c0.247,0.953 0.59,2.319 1.126,3.379c0.583,1.151 1.537,2.593 2.371,3.527c0.746,0.834 1.718,1.439 2.639,2.075c0.928,0.642 2.01,1.176 2.934,1.778c0.891,0.582 1.714,1.423 2.609,1.838c0.856,0.398 1.936,0.514 2.756,0.652c0.714,0.121 1.463,0.015 2.164,0.178c0.702,0.163 1.374,0.508 2.045,0.801c0.816,0.355 2.219,0.79 2.846,1.333c0.538,0.466 0.736,1.24 0.919,1.927c0.198,0.741 0.341,1.764 0.267,2.52c-0.07,0.709 -0.44,1.408 -0.712,2.015c-0.254,0.57 -0.449,1.22 -0.919,1.631c-0.592,0.518 -1.725,1.053 -2.638,1.482c-0.968,0.454 -2.238,0.924 -3.171,1.245c-0.796,0.273 -1.695,0.518 -2.431,0.681c-0.653,0.145 -1.368,0.039 -1.986,0.297c-1.146,0.479 -3.503,1.838 -4.891,2.579c-1.15,0.614 -2.386,1.097 -3.438,1.867c-1.161,0.85 -2.737,2.372 -3.528,3.231c-0.514,0.559 -0.834,1.27 -1.215,1.927c-0.41,0.706 -0.926,1.497 -1.245,2.312c-0.331,0.845 -0.558,2.154 -0.741,2.757c-0.09,0.296 -0.183,0.844 -0.356,0.859c-0.173,0.015 -0.37,-0.626 -0.681,-0.771c-0.415,-0.192 -1.226,-0.503 -1.809,-0.385c-0.583,0.119 -1.289,0.637 -1.689,1.097c-0.396,0.454 -0.561,1.077 -0.712,1.66c-0.168,0.652 -0.34,1.635 -0.296,2.253c0.037,0.518 0.331,1.195 0.563,1.452c0.187,0.206 0.573,-0.018 0.83,0.089c0.307,0.128 0.786,0.385 1.013,0.682c0.227,0.296 0.387,0.714 0.351,1.096Z"
     style="fill:#efeeec;stroke:none;fill-opacity:1"
     id="path12" /><g
     id="g40"
     style="fill:#efeeec;stroke:none;fill-opacity:1"><path
       d="M904.889,77.258l0,91.757l26.385,0c25.17,0 45.883,-20.534 45.883,-45.879c-0,-25.344 -20.713,-45.878 -45.883,-45.878l-26.385,-0Zm8.66,8.659l17.725,0c20.561,0 37.223,16.66 37.223,37.219c0,20.559 -16.662,37.219 -37.223,37.219l-17.725,0l-0,-74.438Z"
       style="fill:#efeeec;fill-rule:nonzero;stroke:none;stroke-width:3.89px;fill-opacity:1"
       id="path14" /><path
       d="M981.608,77.258l0,61.481c0,18.073 15.042,32.579 33.3,32.579c18.08,0 33.121,-14.506 33.121,-32.579l0,-61.481l-8.66,-0l0,61.481c0,13.112 -10.812,23.92 -24.461,23.92c-13.827,-0 -24.64,-10.808 -24.64,-23.92l0,-61.481l-8.66,-0Z"
       style="fill:#efeeec;fill-rule:nonzero;stroke:none;stroke-width:3.89px;fill-opacity:1"
       id="path16" /><path
       d="M1116.43,53.467l0,138.607l91.769,-0l-0,-13.082l-78.688,0l0,-125.525l-13.081,0Z"
       style="fill:#efeeec;fill-rule:nonzero;stroke:none;stroke-width:3.89px;fill-opacity:1"
       id="path18" /><path
       d="M1224.29,76.766l0,115.308l88.022,-0l-0,-10.883l-74.941,0l0,-41.441l72.532,-0l-0,-10.883l-72.532,0l0,-41.219l74.941,0l-0,-10.882l-88.022,-0Z"
       style="fill:#efeeec;fill-rule:nonzero;stroke:none;stroke-width:3.89px;fill-opacity:1"
       id="path20" /><path
       d="M1224.29,53.734l-0.258,10.19l88.28,0l-0,-10.19l-88.022,0Z"
       style="fill:#efeeec;fill-rule:nonzero;stroke:none;stroke-width:3.89px;fill-opacity:1"
       id="path22" /><path
       d="M170.81,53.734l-0.418,10.19l143.14,0l-0,-10.19l-142.722,0Z"
       style="fill:#efeeec;fill-rule:nonzero;stroke:none;stroke-width:3.89px;fill-opacity:1"
       id="path24" /><path
       d="M337.783,53.734l-0.052,10.19l17.732,0l0,-10.19l-17.68,0Z"
       style="fill:#efeeec;fill-rule:nonzero;stroke:none;stroke-width:3.89px;fill-opacity:1"
       id="path26" /><path
       d="M1437.07,53.734l-0.258,10.19l88.279,0l0,-10.19l-88.021,0Z"
       style="fill:#efeeec;fill-rule:nonzero;stroke:none;stroke-width:3.89px;fill-opacity:1"
       id="path28" /><path
       d="M1328.4,53.734l-0,138.34l51.113,-0c25.135,-0 45.473,-20.611 45.473,-45.618c0,-32.267 -29.42,-42.145 -29.42,-42.145c0,0 8.276,-7.952 8.276,-20.351c0,-16.62 -13.884,-30.226 -30.757,-30.226l-44.685,0Zm13.081,60.455l38.032,0c17.922,0 32.392,14.251 32.392,32.267c-0,15.596 -12.601,32.536 -32.392,32.536l-38.032,0l0,-64.803Zm0,-47.641l31.604,0c9.909,0 17.676,7.651 17.676,17.412c0,9.497 -7.767,17.148 -17.676,17.148l-31.604,-0l0,-34.56Z"
       style="fill:#efeeec;fill-rule:nonzero;stroke:none;stroke-width:3.89px;fill-opacity:1"
       id="path30" /><path
       d="M1437.07,76.766l-0,115.308l88.021,-0l0,-10.883l-74.94,0l-0,-41.441l72.531,-0l0,-10.883l-72.531,0l-0,-41.219l74.94,0l0,-10.882l-88.021,-0Z"
       style="fill:#efeeec;fill-rule:nonzero;stroke:none;stroke-width:3.89px;fill-opacity:1"
       id="path32" /><path
       d="M1541.18,53.467l0,138.607l13.081,-0l0,-37.738l29.456,-0c4.016,-0 8.033,-0.534 11.782,-1.068l21.69,38.806l16.037,-0l-24.606,-43.345c16.597,-8.01 28.076,-24.611 28.076,-44.693c0,-29.187 -23.792,-50.569 -52.979,-50.569l-42.537,0Zm13.081,13.081l29.456,0c21.957,0 39.898,15.263 39.898,37.488c-0,21.956 -17.941,37.219 -39.898,37.219l-29.456,-0l0,-74.707Z"
       style="fill:#efeeec;fill-rule:nonzero;stroke:none;stroke-width:3.89px;fill-opacity:1"
       id="path34" /><path
       d="M1715.4,49.988c-40.158,-0 -72.782,32.625 -72.782,72.783c-0,40.157 32.624,72.782 72.782,72.782c39.89,-0 72.515,-32.625 72.515,-72.782c0,-40.158 -32.625,-72.783 -72.515,-72.783Zm-0,13.349c32.929,-0 59.166,26.504 59.166,59.434c-0,32.929 -26.237,59.433 -59.166,59.433c-32.929,0 -59.434,-26.504 -59.434,-59.433c0,-32.93 26.505,-59.434 59.434,-59.434Z"
       style="fill:#efeeec;fill-rule:nonzero;stroke:none;stroke-width:3.89px;fill-opacity:1"
       id="path36" /><path
       d="M1793.3,53.467l-0,92.873c-0,27.3 22.72,49.213 50.3,49.213c27.313,-0 50.033,-21.913 50.033,-49.213l-0,-92.873l-13.081,0l-0,92.873c-0,19.806 -16.334,36.132 -36.952,36.132c-20.886,-0 -37.219,-16.326 -37.219,-36.132l-0,-92.873l-13.081,0Z"
       style="fill:#efeeec;fill-rule:nonzero;stroke:none;stroke-width:3.89px;fill-opacity:1"
       id="path38" /></g><g
     id="g56"
     style="stroke:none;fill:#efeeec;fill-opacity:1"><path
       d="M640.627,53.467l-0,138.607l91.768,-0l0,-13.082l-78.687,0l-0,-125.525l-13.081,0Z"
       style="fill:#efeeec;fill-rule:nonzero;stroke:none;stroke-width:3.89px;fill-opacity:1"
       id="path42" /><path
       d="M26.366,192.417l53.55,-139.438l19.879,-0l57.069,139.438l-21.021,-0l-16.264,-42.231l-58.306,-0l-15.313,42.231l-19.594,-0Zm40.234,-57.259l47.272,-0l-14.553,-38.617c-4.438,-11.731 -7.736,-21.369 -9.892,-28.915c-1.775,8.941 -4.28,17.818 -7.514,26.632l-15.313,40.9Z"
       style="fill:#efeeec;fill-rule:nonzero;stroke:none;stroke-width:2.08px;fill-opacity:1"
       id="path44" /><rect
       x="337.011"
       y="81.346"
       width="18.452"
       height="111.071"
       style="fill:#efeeec;fill-rule:nonzero;stroke:none;stroke-width:2.08px;fill-opacity:1"
       id="rect46" /><path
       d="M475.761,143.528l18.453,4.66c-3.868,15.155 -10.828,26.712 -20.878,34.67c-10.051,7.958 -22.336,11.937 -36.857,11.937c-15.028,-0 -27.251,-3.06 -36.667,-9.179c-9.416,-6.119 -16.582,-14.98 -21.496,-26.584c-4.914,-11.604 -7.371,-24.065 -7.371,-37.381c-0,-14.52 2.774,-27.187 8.322,-37.998c5.549,-10.811 13.443,-19.023 23.684,-24.635c10.241,-5.611 21.512,-8.417 33.813,-8.417c13.95,-0 25.681,3.551 35.193,10.653c9.511,7.101 16.137,17.088 19.879,29.961l-18.167,4.28c-3.234,-10.146 -7.927,-17.533 -14.077,-22.162c-6.151,-4.629 -13.887,-6.943 -23.208,-6.943c-10.717,-0 -19.673,2.568 -26.87,7.704c-7.197,5.136 -12.254,12.032 -15.171,20.687c-2.917,8.656 -4.375,17.581 -4.375,26.775c-0,11.858 1.728,22.21 5.183,31.055c3.456,8.846 8.83,15.456 16.122,19.832c7.293,4.375 15.187,6.563 23.684,6.563c10.336,-0 19.086,-2.981 26.252,-8.941c7.165,-5.961 12.016,-14.806 14.552,-26.537Z"
       style="fill:#efeeec;fill-rule:nonzero;stroke:none;stroke-width:2.08px;fill-opacity:1"
       id="path48" /><path
       d="M624.711,192.417l-53.55,-139.438l-19.879,-0l-57.068,139.438l21.02,-0l16.265,-42.231l58.305,-0l15.313,42.231l19.594,-0Zm-40.234,-57.259l-47.272,-0l14.553,-38.617c4.439,-11.731 7.736,-21.369 9.892,-28.915c1.775,8.941 4.28,17.818 7.514,26.632l15.313,40.9Z"
       style="fill:#efeeec;fill-rule:nonzero;stroke:none;stroke-width:2.08px;fill-opacity:1"
       id="path50" /><path
       d="M747.123,192.417l0,-139.438l88.917,-0l0,16.454l-72.643,0l-0,42.707l68.029,-0l0,16.36l-68.029,-0l-0,47.462l75.495,-0l0,16.455l-91.769,-0Z"
       style="fill:#efeeec;fill-rule:nonzero;stroke:none;stroke-width:2.08px;fill-opacity:1"
       id="path52" /><path
       d="M171.032,88.361l139.438,0l-0,100.822l-16.455,-0l0,-82.369l-42.707,-0l0,77.138l-16.359,-0l-0,-77.138l-47.463,-0l0,85.603l-16.454,-0l-0,-104.056Z"
       style="fill:#efeeec;fill-rule:nonzero;stroke:none;stroke-width:2.08px;fill-opacity:1"
       id="path54" /></g></svg>
