<?xml version="1.0" encoding="UTF-8" standalone="no"?>
<svg
   width="100%"
   height="100%"
   viewBox="0 0 6133 607"
   version="1.1"
   xml:space="preserve"
   style="fill-rule:evenodd;clip-rule:evenodd;stroke-linejoin:round;stroke-miterlimit:2;"
   id="svg48"
   sodipodi:docname="Logo_trail_du_leberou.svg"
   inkscape:version="1.2.2 (732a01da63, 2022-12-09)"
   xmlns:inkscape="http://www.inkscape.org/namespaces/inkscape"
   xmlns:sodipodi="http://sodipodi.sourceforge.net/DTD/sodipodi-0.dtd"
   xmlns="http://www.w3.org/2000/svg"
   xmlns:svg="http://www.w3.org/2000/svg"><defs
     id="defs52" /><sodipodi:namedview
     id="namedview50"
     pagecolor="#ffffff"
     bordercolor="#000000"
     borderopacity="0.25"
     inkscape:showpageshadow="2"
     inkscape:pageopacity="0.0"
     inkscape:pagecheckerboard="0"
     inkscape:deskcolor="#d1d1d1"
     showgrid="false"
     inkscape:zoom="0.2511006"
     inkscape:cx="2628.4286"
     inkscape:cy="304.65877"
     inkscape:window-width="1920"
     inkscape:window-height="1001"
     inkscape:window-x="-9"
     inkscape:window-y="-9"
     inkscape:window-maximized="1"
     inkscape:current-layer="svg48" /><g
     id="g46"
     style="fill:#ffa54c;stroke:none;fill-opacity:1"><path
       d="M6.084,20.283l0,53.381l206.425,-0l-0,512.238l53.381,0l-0,-512.238l207.516,-0l0,-53.381l-467.322,-0Z"
       style="fill:#ffa54c;fill-rule:nonzero;stroke:none;stroke-width:12.17px;fill-opacity:1"
       id="path2" /><path
       d="M539.075,20.283l-0,565.619l53.381,0l-0,-153.999l120.2,0c16.39,0 32.781,-2.179 48.08,-4.358l88.51,158.357l65.443,0l-100.41,-176.877c67.728,-32.688 114.572,-100.434 114.572,-182.385c0,-119.102 -97.088,-206.357 -216.195,-206.357l-173.581,-0Zm53.381,53.381l120.2,-0c89.603,-0 162.814,62.284 162.814,152.976c0,89.6 -73.211,151.882 -162.814,151.882l-120.2,0l-0,-304.858Z"
       style="fill:#ffa54c;fill-rule:nonzero;stroke:none;stroke-width:12.17px;fill-opacity:1"
       id="path4" /><path
       d="M1135.34,20.283l-206.424,565.619l56.794,0l55.702,-153.999l253.388,0l55.702,153.999l56.794,0l-206.424,-565.619l-65.532,-0Zm32.766,65.531l107.035,292.708l-214.07,0l107.035,-292.708Z"
       style="fill:#ffa54c;fill-rule:nonzero;stroke:none;stroke-width:12.17px;fill-opacity:1"
       id="path6" /><rect
       x="1451.06"
       y="20.283"
       width="53.381"
       height="565.62"
       style="fill:#ffa54c;fill-rule:nonzero;stroke:none;stroke-width:12.17px;fill-opacity:1"
       id="rect8" /><path
       d="M1570.11,20.283l-0,565.619l374.486,0l-0,-53.381l-321.105,0l-0,-512.238l-53.381,-0Z"
       style="fill:#ffa54c;fill-rule:nonzero;stroke:none;stroke-width:12.17px;fill-opacity:1"
       id="path10" /><path
       d="M2160.58,117.366l-0,374.44l107.67,0c102.711,0 187.236,-83.796 187.236,-187.221c0,-103.425 -84.525,-187.219 -187.236,-187.219l-107.67,0Zm35.338,35.338l72.332,0c83.905,0 151.898,67.984 151.898,151.881c0,83.897 -67.993,151.883 -151.898,151.883l-72.332,0l-0,-303.764Z"
       style="fill:#ffa54c;fill-rule:nonzero;stroke:none;stroke-width:12.17px;fill-opacity:1"
       id="path12" /><path
       d="M2473.65,117.366l-0,250.892c-0,73.749 61.379,132.948 135.885,132.948c73.783,-0 135.161,-59.199 135.161,-132.948l0,-250.892l-35.338,0l0,250.892c0,53.505 -44.124,97.61 -99.823,97.61c-56.422,-0 -100.547,-44.105 -100.547,-97.61l-0,-250.892l-35.338,0Z"
       style="fill:#ffa54c;fill-rule:nonzero;stroke:none;stroke-width:12.17px;fill-opacity:1"
       id="path14" /><path
       d="M2954.61,20.283l0,565.619l374.486,0l0,-53.381l-321.105,0l0,-512.238l-53.381,-0Z"
       style="fill:#ffa54c;fill-rule:nonzero;stroke:none;stroke-width:12.17px;fill-opacity:1"
       id="path16" /><path
       d="M3394.76,115.359l0,470.543l359.196,0l-0,-44.408l-305.815,0l0,-169.113l295.985,-0l-0,-44.408l-295.985,-0l0,-168.206l305.815,0l-0,-44.408l-359.196,0Z"
       style="fill:#ffa54c;fill-rule:nonzero;stroke:none;stroke-width:12.17px;fill-opacity:1"
       id="path18" /><path
       d="M3394.76,21.372l-1.053,41.584l360.249,-0l-0,-41.584l-359.196,-0Z"
       style="fill:#ffa54c;fill-rule:nonzero;stroke:none;stroke-width:12.17px;fill-opacity:1"
       id="path20" /><path
       d="M4263.06,21.372l-1.053,41.584l360.249,-0l-0,-41.584l-359.196,-0Z"
       style="fill:#ffa54c;fill-rule:nonzero;stroke:none;stroke-width:12.17px;fill-opacity:1"
       id="path22" /><path
       d="M3819.63,21.372l-0,564.53l208.579,0c102.573,0 185.566,-84.105 185.566,-186.153c0,-131.675 -120.055,-171.983 -120.055,-171.983c0,-0 33.772,-32.451 33.772,-83.049c-0,-67.824 -56.658,-123.345 -125.514,-123.345l-182.348,-0Zm53.381,246.702l155.198,0c73.137,0 132.185,58.156 132.185,131.675c0,63.643 -51.422,132.772 -132.185,132.772l-155.198,0l-0,-264.447Zm-0,-194.41l128.967,-0c40.439,-0 72.133,31.22 72.133,71.053c-0,38.756 -31.694,69.976 -72.133,69.976l-128.967,0l-0,-141.029Z"
       style="fill:#ffa54c;fill-rule:nonzero;stroke:none;stroke-width:12.17px;fill-opacity:1"
       id="path24" /><path
       d="M4263.06,115.359l0,470.543l359.196,0l-0,-44.408l-305.815,0l0,-169.113l295.985,-0l-0,-44.408l-295.985,-0l0,-168.206l305.815,0l-0,-44.408l-359.196,0Z"
       style="fill:#ffa54c;fill-rule:nonzero;stroke:none;stroke-width:12.17px;fill-opacity:1"
       id="path26" /><path
       d="M4687.92,20.283l-0,565.619l53.381,0l-0,-153.999l120.2,0c16.391,0 32.782,-2.179 48.08,-4.358l88.511,158.357l65.442,0l-100.41,-176.877c67.728,-32.688 114.572,-100.434 114.572,-182.385c0,-119.102 -97.088,-206.357 -216.195,-206.357l-173.581,-0Zm53.381,53.381l120.2,-0c89.603,-0 162.815,62.284 162.815,152.976c-0,89.6 -73.212,151.882 -162.815,151.882l-120.2,0l-0,-304.858Z"
       style="fill:#ffa54c;fill-rule:nonzero;stroke:none;stroke-width:12.17px;fill-opacity:1"
       id="path28" /><path
       d="M5398.87,6.084c-163.874,0 -297.007,133.136 -297.007,297.01c0,163.874 133.133,297.007 297.007,297.007c162.782,-0 295.918,-133.133 295.918,-297.007c-0,-163.874 -133.136,-297.01 -295.918,-297.01Zm0,54.473c134.377,0 241.441,108.16 241.441,242.537c0,134.377 -107.064,242.533 -241.441,242.533c-134.376,0 -242.533,-108.156 -242.533,-242.533c-0,-134.377 108.157,-242.537 242.533,-242.537Z"
       style="fill:#ffa54c;fill-rule:nonzero;stroke:none;stroke-width:12.17px;fill-opacity:1"
       id="path30" /><path
       d="M5716.77,20.283l0,378.991c0,111.404 92.718,200.827 205.266,200.827c111.455,-0 204.171,-89.423 204.171,-200.827l-0,-378.991l-53.381,-0l-0,378.991c-0,80.822 -66.653,147.446 -150.79,147.446c-85.23,-0 -151.885,-66.624 -151.885,-147.446l0,-378.991l-53.381,-0Z"
       style="fill:#ffa54c;fill-rule:nonzero;stroke:none;stroke-width:12.17px;fill-opacity:1"
       id="path32" /><path
       d="M5315.73,363.48c-0.387,4.113 0.915,15.187 -3.75,20.201c-5.403,5.806 -23.708,10.16 -28.668,14.636c-3.035,2.739 0.681,8.531 -1.088,12.217c-2.662,5.544 -10.786,14.999 -14.879,21.047c-3.372,4.984 -8.084,11.088 -9.677,15.241c-1.155,3.012 -1.479,6.876 0.121,9.677c1.775,3.105 7.46,7.439 10.524,8.951c2.351,1.16 5.435,1.111 7.863,0.121c3.165,-1.29 8.359,-4.262 11.128,-7.862c2.822,-3.669 3.985,-9.39 5.806,-14.153c1.835,-4.798 3.75,-11.148 5.201,-14.636c0.923,-2.216 1.613,-4.859 3.508,-6.29c1.895,-1.431 5.403,-1.532 7.863,-2.298c2.313,-0.721 4.969,-0.828 6.895,-2.298c2.983,-2.279 7.441,-7.484 11.007,-11.371c3.588,-3.911 7.358,-9.233 10.524,-12.096c2.441,-2.208 5.544,-4.092 8.467,-5.08c2.877,-0.973 6.038,-0.709 9.072,-0.847c5.322,-0.242 15.294,0.316 22.862,-0.605c8.951,-1.088 22.014,-2.6 30.845,-5.927c8.175,-3.08 15.301,-8.911 22.135,-14.031c6.721,-5.036 14.254,-11.653 18.87,-16.693c3.641,-3.975 6.29,-9.314 8.831,-13.548c2.311,-3.852 3.427,-8.547 6.41,-11.854c2.984,-3.306 8.286,-5.725 11.492,-7.983c2.598,-1.83 5.18,-3.683 7.741,-5.564c3.871,-2.843 10.383,-9.093 15.483,-11.492c4.644,-2.184 10.947,-2.661 15.12,-2.903c3.336,-0.193 7.5,0.262 9.919,1.452c2.187,1.075 4.064,3.307 4.597,5.685c0.605,2.701 -0.646,7.016 -0.968,10.524c-0.383,4.173 -1.351,10.523 -1.331,14.515c0.017,3.182 0.021,7.721 1.452,9.435c1.431,1.713 4.919,1.752 7.137,0.847c2.963,-1.21 7.583,-4.862 10.644,-8.105c3.065,-3.246 6.187,-7.056 7.742,-11.37c1.613,-4.476 1.42,-10.308 1.935,-15.483c0.544,-5.464 1.573,-12.862 1.331,-17.298c-0.177,-3.235 -0.689,-6.84 -2.782,-9.314c-2.218,-2.62 -6.915,-5.302 -10.524,-6.411c-3.547,-1.089 -7.505,-1.04 -11.128,-0.241c-3.932,0.866 -8.206,4.112 -12.459,5.443c-4.234,1.324 -8.891,2.379 -13.064,2.54c-4.023,0.155 -9.536,0.262 -11.975,-1.572c-2.44,-1.835 -3.516,-6.282 -2.661,-9.435c0.907,-3.347 4.591,-7.898 8.104,-10.645c4.072,-3.185 11.632,-5.887 16.33,-8.467c4.024,-2.211 8.85,-4.476 11.854,-7.016c2.617,-2.213 4.778,-5.383 6.169,-8.225c1.332,-2.723 1.824,-5.82 2.177,-8.831c0.383,-3.265 0.484,-8.164 0.121,-10.765c-0.247,-1.768 -0.972,-3.643 -2.298,-4.839c-2.036,-1.834 -7.157,-4.657 -9.919,-6.169c-2.122,-1.161 -4.312,-2.292 -6.653,-2.903c-2.782,-0.725 -6.896,-0.205 -10.04,-1.451c-3.306,-1.311 -7.257,-4.576 -9.797,-6.411c-1.926,-1.39 -3.569,-3.246 -5.444,-4.597c-1.834,-1.321 -3.669,-3.124 -5.806,-3.507c-2.137,-0.383 -4.76,0.47 -7.016,1.209c-2.399,0.786 -4.861,2.467 -7.378,3.508c-2.681,1.109 -6.31,3.044 -8.709,3.145c-2.074,0.087 -3.9,-1.482 -5.685,-2.54c-3.166,-1.875 -9.012,-5.645 -13.306,-8.709c-4.281,-3.055 -8.226,-7.117 -12.459,-9.677c-4.032,-2.439 -8.652,-3.738 -12.943,-5.685c-4.576,-2.077 -10.06,-4.839 -14.515,-6.774c-4.018,-1.745 -8.116,-3.301 -12.217,-4.839c-4.355,-1.633 -9.435,-3.346 -13.911,-4.959c-4.32,-1.557 -8.378,-4.215 -12.943,-4.718c-4.576,-0.504 -10.503,0.988 -14.515,1.694c-3.246,0.571 -8.205,0.524 -9.556,2.54c-1.351,2.016 0.644,6.437 1.452,9.556c1.008,3.891 2.407,9.467 4.596,13.79c2.379,4.697 6.27,10.584 9.677,14.394c3.043,3.403 7.01,5.871 10.765,8.467c3.791,2.621 8.206,4.798 11.976,7.258c3.635,2.371 6.995,5.806 10.644,7.499c3.495,1.623 7.903,2.097 11.25,2.662c2.912,0.491 5.967,0.06 8.83,0.725c2.862,0.666 5.608,2.071 8.346,3.266c3.326,1.452 9.052,3.226 11.612,5.444c2.195,1.901 3.002,5.056 3.75,7.862c0.806,3.024 1.391,7.197 1.089,10.282c-0.284,2.893 -1.795,5.745 -2.903,8.225c-1.039,2.324 -1.834,4.977 -3.75,6.653c-2.419,2.117 -7.04,4.299 -10.766,6.048c-3.951,1.855 -9.132,3.77 -12.942,5.08c-3.248,1.117 -6.915,2.117 -9.919,2.782c-2.667,0.591 -5.585,0.156 -8.105,1.21c-4.677,1.956 -14.293,7.5 -19.958,10.524c-4.696,2.506 -9.737,4.477 -14.032,7.62c-4.737,3.468 -11.168,9.677 -14.394,13.185c-2.097,2.281 -3.404,5.182 -4.959,7.862c-1.674,2.883 -3.778,6.11 -5.081,9.435c-1.351,3.448 -2.278,8.79 -3.024,11.25c-0.367,1.211 -0.746,3.447 -1.451,3.508c-0.706,0.06 -1.513,-2.556 -2.783,-3.145c-1.693,-0.787 -4.999,-2.057 -7.378,-1.573c-2.379,0.484 -5.262,2.601 -6.895,4.476c-1.613,1.852 -2.29,4.395 -2.903,6.774c-0.685,2.661 -1.391,6.673 -1.21,9.193c0.153,2.113 1.351,4.878 2.299,5.927c0.761,0.842 2.339,-0.076 3.387,0.363c1.253,0.524 3.206,1.572 4.133,2.782c0.928,1.209 1.577,2.916 1.431,4.475Z"
       style="fill:#ffa54c;stroke:none;fill-opacity:1"
       id="path34" /><g
       opacity="0.3"
       id="g44"
       style="fill:#ffa54c;stroke:none;fill-opacity:1"><path
         d="M5383.58,102.3c0,0 36.076,3.005 40.193,6.762c4.117,3.756 38.786,33.057 44.534,28.737c5.747,-4.32 3.708,-10.706 14.09,-9.767c10.382,0.939 26.141,6.574 15.202,-3.568c-10.938,-10.143 -29.663,-12.585 -41.899,-13.712c-12.236,-1.127 -23.175,-4.508 -34.669,-9.767c-11.495,-5.259 -20.704,-12.396 -32.136,-10.894c-11.433,1.503 -26.635,6.762 -5.315,12.209Z"
         style="fill:#ffa54c;stroke:none;fill-opacity:1"
         id="path36" /><path
         d="M5571.06,228.803c-0,0 -11.124,10.894 -7.787,22.164c3.337,11.269 18.354,31.179 20.208,18.219c1.854,-12.96 9.455,-23.854 2.225,-33.057c-7.23,-9.204 -10.568,-8.828 -14.646,-7.326Z"
         style="fill:#ffa54c;stroke:none;fill-opacity:1"
         id="path38" /><path
         d="M5456.29,241.817c0,-0 -18.829,6.163 -19.408,17.022c-0.58,10.858 11.008,35.804 16.222,38.739c5.214,2.935 23.464,9.685 28.389,9.391c4.924,-0.293 7.531,10.802 3.766,15.82c-3.766,5.017 -16.223,22.919 -11.008,34.072c5.214,11.152 17.67,19.076 14.773,25.826c-2.896,6.75 -7.242,14.967 -3.765,22.598c3.476,7.63 29.257,46.369 29.257,37.565c0,-8.804 -14.773,-53.413 -9.849,-58.402c4.925,-4.99 31.865,-2.642 28.679,9.978c-3.187,12.62 25.492,37.272 30.996,26.707c5.504,-10.566 13.904,-20.837 4.055,-46.957c-9.849,-26.12 -24.043,-38.152 -27.23,-48.718c-3.186,-10.565 -13.905,-4.695 -26.361,-17.315c-12.456,-12.62 -12.167,-14.967 -11.008,-27.293c1.159,-12.327 -1.448,-17.609 6.084,-19.664c7.531,-2.054 16.511,-21.717 -0.87,-26.119c-17.38,-4.402 -20.567,-1.174 -28.099,8.217c-7.531,9.392 -19.119,1.174 -24.623,-1.467Z"
         style="fill:#ffa54c;stroke:none;fill-opacity:1"
         id="path40" /><path
         d="M5276.53,137.634c-0,-0 -3.485,24.713 2.489,19.417c5.974,-5.296 41.552,-21.687 52.761,-14.374c11.21,7.313 33.861,35.053 19.175,35.809c-14.686,0.757 -18.685,13.87 -19.175,23.453c-0.489,9.582 0.988,30.513 0,33.791c-0.987,3.279 -20.154,18.409 -25.381,23.705c-5.227,5.296 10.704,16.644 9.459,32.278c-1.245,15.635 -3.734,28.749 -15.931,22.696c-12.196,-6.052 -21.157,-13.113 -28.376,-11.852c-7.218,1.261 -10.454,17.4 -24.144,6.557c-13.691,-10.844 -7.966,-24.209 -9.459,-33.792c-1.494,-9.583 -15.433,-9.583 -23.149,-21.687c-7.716,-12.105 -14.935,-33.288 -10.454,-41.862c4.48,-8.574 14.934,-34.296 19.415,-41.104c4.48,-6.809 31.612,-34.548 36.59,-35.053c4.978,-0.504 16.428,-3.026 16.18,2.018Z"
         style="fill:#ffa54c;stroke:none;fill-opacity:1"
         id="path42" /></g></g></svg>
